<?xml version="1.0" standalone="no"?>
<!DOCTYPE svg PUBLIC "-//W3C//DTD SVG 1.1//EN" "http://www.w3.org/Graphics/SVG/1.1/DTD/svg11.dtd" >
<svg xmlns="http://www.w3.org/2000/svg" xmlns:xlink="http://www.w3.org/1999/xlink" version="1.1">
<metadata></metadata>
<defs>
<font id="eskargotregular" horiz-adv-x="1142" >
<font-face units-per-em="2048" ascent="1638" descent="-410" />
<missing-glyph horiz-adv-x="716" />
<glyph horiz-adv-x="0" />
<glyph horiz-adv-x="682" />
<glyph horiz-adv-x="1015" d="M381 2148l20 -221q78 2 134.5 1t89.5 -5q4 37 4 72q0 37 -2 76q-2 29 -6.5 51t-8.5 39q-74 -8 -132 -10.5t-99 -2.5z" />
<glyph horiz-adv-x="1374" d="M391 1939q37 -66 82 -121t98 -102q41 -2 82 -3t82 -1q33 0 68 1t69 3l164 125q35 133 0 291q-12 66 -123 123q-74 -29 -135 -65t-114 -74l-56 -179l127 -92l70 70l-70 45l31 104l127 64l25 -31q6 -37 6 -76q0 -59 -23 -131l-92 -73q-20 -2 -41 -2h-39h-47q-23 0 -49 2 q-59 47 -113 151q-6 37 4.5 80t32.5 94l172 88l-127 56l-143 -101q-20 -23 -31.5 -51.5t-19.5 -62.5q-2 -10 -6.5 -41t-10.5 -91z" />
<glyph horiz-adv-x="937" d="M92 2236q29 -29 45.5 -48t24.5 -29q43 -29 94 -138q76 -154 76 -211q4 0 50 3.5t138 7.5q23 23 62 68.5t96 117.5q123 156 123 176l22 23q10 12 16.5 20t6.5 12t-5 9.5t-10 11.5q-53 -2 -96 -3t-73 -1q-31 -66 -31 -107q0 -98 -168 -241q-61 129 -106.5 215t-71.5 135 q-55 -6 -103.5 -12.5t-89.5 -8.5z" />
<glyph unicode="&#xd;" horiz-adv-x="1024" />
<glyph horiz-adv-x="1134" d="M92 0q260 6 434 10t267 6l131 9q65 2 120 0v125q-317 -35 -714 -44q184 317 284.5 504t122.5 246q53 137 91 238.5t63 167.5q117 328 117 346v4l20 22q16 20 16 35q0 8 -3 12.5l-7 10.5q-135 -10 -311 -16.5t-393 -6.5h-37q-16 2 -29 2h-22h-86l2 -147q279 23 439.5 37 t207.5 18q-111 -385 -280 -762t-398 -751q2 -4 2 -19q0 -6 -6 -13t-12.5 -14.5t-12.5 -13.5zM252 2185q29 -29 45 -49t25 -31q23 -14 46 -49t50 -88q74 -154 74 -209q4 0 50 3t138 7q23 23 61.5 69t96.5 118q123 154 123 176l22 22q10 10 16.5 19.5t6.5 13.5t-5.5 9.5 t-9.5 11.5q-53 -2 -96 -3t-72 -1q-16 -33 -24 -58.5t-8 -48.5q0 -100 -168 -244q-61 129 -106.5 216.5t-72.5 136.5q-53 -8 -102 -13.5t-90 -7.5z" />
<glyph horiz-adv-x="1079" d="M92 53q10 -10 17.5 -20t17.5 -19h74q53 0 131 -4q74 -4 135 -6t113 -4q35 0 48 -2t11 -2q-4 0 -7 -1t-5 -1q10 0 12 2q25 2 56.5 5t72.5 7q59 10 101 12.5t71 -0.5q20 43 31.5 70t13.5 35q-96 -23 -265 -33t-413 -10q205 254 295 426q84 154 135 257t74 161 q90 227 133 413l-16 15q-170 -10 -301 -15.5t-230 -5.5h-90t-133 4q-6 -45 -11 -73.5t-7 -42.5q70 39 213 39q31 0 79 -3.5t113 -7.5q63 -2 110.5 -4t80.5 -2q-14 -76 -66 -192q-121 -299 -269.5 -546t-324.5 -452zM307 1743q23 -23 36 -38t19 -22q33 -29 74 -110 q29 -61 44.5 -102t15.5 -66q4 0 40.5 3t110.5 7q16 18 46 54t77 92q98 129 98 141l17 16q16 23 16 29q0 2 -8 14q-45 0 -78 -1t-57 -1q-25 -49 -25 -86q0 -82 -133 -190q-47 102 -83 170.5t-58 107.5q-43 -6 -82 -10t-70 -8z" />
<glyph unicode=" "  horiz-adv-x="716" />
<glyph unicode="&#x09;" horiz-adv-x="716" />
<glyph unicode="&#xa0;" horiz-adv-x="716" />
<glyph unicode="!" horiz-adv-x="454" d="M92 0q92 2 151.5 6t92.5 8q8 57 14 102.5t12 80.5q-84 -10 -146 -13.5t-103 -5.5q-8 -84 -13.5 -128t-7.5 -50zM94 324q47 8 123 8q29 0 54.5 -2t43.5 -6q-18 535 -18 563q0 315 9.5 520t25.5 305q-63 -6 -115.5 -7t-95.5 1q14 -172 19 -374t3 -437q-4 -188 -14 -330.5 t-35 -240.5z" />
<glyph unicode="&#x22;" horiz-adv-x="858" d="M92 1626q2 -72 8 -129t15 -98q29 2 73 4t105 -2l-12 436q-70 6 -116 11t-73 12q-6 -88 0 -234zM557 1729q0 -78 6 -159t23 -171q29 2 74 4t106 -2l-14 436q-68 6 -114 11t-75 12q-2 -33 -4 -65t-2 -66z" />
<glyph unicode="#" horiz-adv-x="1404" d="M92 571q59 6 148.5 10.5t210.5 6.5l-37 -236q47 -4 84 -8t63 -8q-4 41 0 104.5t10 149.5l222 10l-35 -248q49 -4 85 -8t60 -8q-2 45 0 111.5t10 152.5h312q10 23 22.5 47.5t30.5 48.5q-53 -4 -143.5 -7t-212.5 -5q2 39 5 79t11 83h322q8 45 55 94q-57 -2 -149.5 -6 t-217.5 -8q16 123 25 223q-31 2 -63.5 8t-63.5 23q0 -41 -5 -104.5t-10 -149.5q-57 -2 -114 -2h-111q4 57 11.5 113.5t15.5 111.5q-33 2 -65.5 8t-63.5 23q0 -41 -4 -104.5t-11 -151.5h-157q-78 0 -164 2q-12 -35 -22.5 -62.5t-18.5 -48.5q113 14 350 19q-2 -39 -5 -77 t-9 -79h-162q-82 0 -168 2q-12 -35 -21.5 -62.5t-19.5 -46.5zM578 678l16 160l229 8q-6 -43 -10 -84l-8 -82q-57 -2 -115 -2h-112z" />
<glyph unicode="$" horiz-adv-x="991" d="M92 1004l96 -134l256 -57q-2 -76 -3 -150.5t-1 -146.5q-20 2 -34.5 3t-28.5 1q-133 0 -219 -33v-227q-10 -51 -12.5 -85t-0.5 -50q8 -47 13 -49l59 -76q14 -18 76 -18q29 0 59.5 2t65.5 4q-4 -72 -9.5 -133.5t-11.5 -114.5q49 6 99 6h39q20 0 36 -2l-4 276 q150 41 226 130l88 96q22 22 20 67q-6 66 -12 107t-10 61l-2 107l-17 157l-198 132l-107 18v285q25 -4 49 -4h49q61 0 113.5 8t97.5 24v228q0 4 2 20.5t4 44.5q0 31 4 39l-14 45l-55 107q-12 23 -76 22q-35 0 -75 -3t-87 -13q4 92 9.5 162.5t11.5 124.5q-35 -4 -63.5 -6.5 t-57.5 -2.5q-14 0 -26.5 2t-22.5 4q6 -76 8 -155.5t4 -161.5l-61 -20q-94 -29 -230 -201q-33 -20 -33 -70l-4 -186v-47zM260 426q27 10 52.5 14t49.5 4q16 0 34 -2t36 -10l-4 -321h-68q-25 0 -30 2q-66 156 -66 202zM264 1067q-2 41 0 94t10 123q25 166 62 178q12 4 63 64 q31 31 33 43q4 -61 6 -127t2 -135q-8 -35 -10 -61.5t0 -49.5l14 -2v-276l-114 20zM555 680v111l131 -93l51 -204q15 0 15 -29q-20 -221 -66 -238q-84 -61 -123 -114v202q37 131 25 189l-31 4q-2 104 -2 172zM557 1266v65l29 99h-29q6 82 6 155h127q66 -141 68 -207l2 -108 q-49 -16 -105 -17q-23 0 -48 4.5t-50 8.5zM874 1540l3 -4q0 6 -1.5 7t-1.5 -3z" />
<glyph unicode="%" horiz-adv-x="1574" d="M92 -12q53 -14 92 -24.5t66 -16.5q96 172 232 396t311 505q199 311 333.5 503.5t206.5 270.5q-37 10 -76.5 24.5t-82.5 28.5q-430 -717 -700.5 -1137.5t-381.5 -549.5zM94 1331q68 -123 170 -207q41 -4 79 -7t77 -3q35 0 67.5 3t67.5 7l154 115q31 127 0 274 q-12 59 -109 109q-68 -29 -127 -59.5t-108 -71.5l-50 -160l105 -78l45 47l-66 37l41 125l146 74l32 -45q6 -41 7 -80q0 -37 -6.5 -72.5t-16.5 -72.5l-104 -78q-18 -2 -40 -4t-44 -2q-23 0 -46.5 2t-52.5 4q-68 51 -122 162q-16 78 40 190l144 76l-86 37l-133 -94 q-33 -43 -45 -109q-2 -8 -6.5 -38t-12.5 -81zM877 205q35 -59 75.5 -111.5t91.5 -93.5q35 -6 75 -9t79 -3q35 0 66.5 3t62.5 7l154 115q31 113 0 278q-6 29 -32 55.5t-75 51.5q-66 -27 -123 -59.5t-104 -73.5l-51 -160l102 -76l43 45l-61 37l39 127l143 72l35 -45 q4 -20 6 -39t2 -39q0 -76 -27 -148l-102 -78q-16 -2 -35 -2h-37q-57 0 -108 7q-33 23 -64 62.5t-63 96.5q-12 76 45 189l137 75l-84 39l-131 -88q-25 -35 -38 -69.5t-17 -69.5z" />
<glyph unicode="&#x26;" horiz-adv-x="1146" d="M92 430q18 -176 48 -279.5t65 -136.5q8 -8 46 -15t111 -13q59 -6 102.5 -8.5t76.5 -2.5q37 0 88 14.5t116 47.5q49 -106 85 -180t61 -117q29 10 69 17.5t93 15.5l-195 317q33 18 53.5 34.5t36.5 33.5q82 96 82 377v4l-121 -17q-74 -6 -67 -24q4 -25 3 -67t-7 -99 q-4 -63 -15.5 -102.5t-21.5 -55.5q-10 -14 -36 -31.5t-67 -40.5q-39 -23 -66.5 -33t-43.5 -10q-211 0 -252 39q-55 68 -55 299v2q-4 33 -6.5 59.5t-2.5 49.5q0 76 21 98q96 94 358 248q102 55 171 112.5t104 112.5q27 33 0 248q-10 90 -22.5 147.5t-26.5 79.5q-12 16 -35 32 t-51.5 27t-58.5 18t-54 7q-37 0 -98.5 -14t-143.5 -45q-162 -51 -203 -111q-20 -25 -35.5 -72.5t-25.5 -123.5q-10 -72 -14 -126t2 -89q6 -39 42 -77t95 -75l72 -41q113 0 233 197q23 96 38 173t22 134h-154q0 -14 -11.5 -86t-33.5 -201q-16 -66 -53 -67q-55 72 -56 69 q-16 27 -16 80q0 27 2 64t8 82q18 150 43 168q31 16 127 34q49 10 84 15.5t53 5.5q31 0 35 -2q37 -25 68 -244l2 -2q4 -35 6 -66.5t2 -60.5q0 -90 -25 -123q-29 -33 -67.5 -69.5t-91.5 -77.5q-217 -125 -338 -206t-154 -120q-12 -18 0 -131z" />
<glyph unicode="'" horiz-adv-x="385" d="M92 1626q2 -72 8 -129t15 -98q29 2 73 4t105 -2l-12 436q-70 6 -116 11t-73 12q-6 -88 0 -234z" />
<glyph unicode="(" horiz-adv-x="567" d="M92 768q0 -31 2 -53q8 -92 33 -236.5t70 -349.5q45 -217 243 -555q133 133 131 137q-92 195 -145 329t-64 210q-29 172 -45 309t-20 242q-4 156 10.5 323.5t54.5 352.5q8 31 35 84t76 130.5t71.5 127t26.5 67.5q-25 156 -67 156q-61 0 -203 -291q-123 -258 -141 -340 q-68 -313 -68 -569v-74z" />
<glyph unicode=")" horiz-adv-x="589" d="M18 -289q-2 -8 134 -137q201 367 239 555q94 373 103 586q4 29 4 57v66q0 131 -16.5 272t-51.5 301q-25 98 -139 340q-137 291 -203 291q-39 0 -70 -156q14 -68 109 -205q43 -66 69.5 -118t34.5 -86q72 -330 60 -676q-2 -111 -18.5 -247t-45.5 -304 q-16 -100 -69.5 -232.5t-139.5 -306.5z" />
<glyph unicode="*" horiz-adv-x="886" d="M92 1530q57 4 127 9t150 7l-9 -10q-29 -43 -58.5 -89t-63.5 -95q27 -23 47 -39.5t34 -26.5q25 49 57 105.5t68 121.5q33 -43 64 -90t65 -100q23 8 47.5 14t53.5 9q-37 45 -77 96t-81 112h248q2 20 10.5 42.5t18.5 45.5q-59 -6 -131 -11t-150 -7q29 45 58.5 93t62.5 100 q-39 27 -70 65q-27 -49 -56.5 -103.5t-64.5 -111.5l-10 4q-27 47 -54.5 93t-60.5 98q-35 -12 -59.5 -21.5t-40.5 -13.5q35 -41 73 -91t79 -112h-256q-12 -63 -21 -94z" />
<glyph unicode="+" d="M92 696q86 8 191.5 13.5t228.5 9.5v-51q0 -49 -1 -108.5t-3 -129.5q47 -6 85 -9t62 -7q-10 63 -17 139t-13 166q88 2 182 2h201q4 23 15.5 47t27.5 47q-94 -4 -201 -8t-227 -6q-4 61 -5 129v139q-31 4 -63.5 12.5t-67.5 20.5q10 -66 15.5 -140.5t7.5 -160.5h-61 q-72 0 -153 1t-175 3q-12 -68 -29 -109z" />
<glyph unicode="," horiz-adv-x="458" d="M92 84q0 -51 45 -51q0 -16 35 -17q23 0 74 11q-12 -158 -101 -215q31 -6 43 -52v-61q177 113 177 332l-13 106q-6 53 0 101q-23 -12 -67 0q-63 14 -88 14q-18 0 -40 -4t-44 -15q4 -8 -9 -73q-8 -33 -10 -51.5t-2 -24.5z" />
<glyph unicode="-" d="M92 696q326 25 916 25q4 23 15.5 47t27.5 47q-129 -8 -278.5 -11t-323.5 -3q-80 0 -160 1t-168 3q-12 -68 -29 -109z" />
<glyph unicode="." horiz-adv-x="430" d="M72 223l20 -223q78 2 134 1t89 -3q4 35 4 70q0 37 -2 75q-2 29 -6 52.5t-8 37.5q-74 -6 -132 -8t-99 -2z" />
<glyph unicode="/" horiz-adv-x="1382" d="M92 -233q57 -8 98 -16.5t70 -18.5q98 236 222 510t278 592q170 356 302 606.5t226 400.5q-92 12 -164 41q-160 -356 -276.5 -606t-192.5 -404q-197 -418 -337 -691t-226 -414z" />
<glyph unicode="0" horiz-adv-x="1148" d="M92 780q0 -125 133 -489q115 -315 172 -316q246 0 408 101q68 41 164 356q96 310 84 410q-10 80 -36 191.5t-73 252.5q-113 358 -209 359q-158 0 -336 -89q-66 -33 -192 -346q-55 -145 -85 -250.5t-30 -177.5v-2zM291 793q-14 131 86 426q41 121 73.5 200.5t61.5 116.5 q23 8 49.5 10t54.5 2q78 0 119 -114l33 -164q43 -195 92 -424q4 -10 4 -37q0 -49 -17.5 -139t-53.5 -219q-70 -262 -115 -349q-57 -10 -98 -15t-64 -5q-39 0 -49 10q-66 129 -110 303t-66 398z" />
<glyph unicode="1" horiz-adv-x="745" d="M180 1350q51 6 135 4q47 0 80 2t54 10q4 -373 7 -597t-1 -304q-4 -162 -14.5 -282t-20.5 -203q82 4 131 1.5t65 -6.5l7 275q0 14 -2.5 74.5t-4.5 173.5q-6 129 -8 251.5t-2 239.5q0 291 3 459t14 217h-35q-94 -78 -192.5 -133t-198.5 -90q8 -8 8 -23q0 -16 -12.5 -41.5 t-12.5 -27.5z" />
<glyph unicode="2" horiz-adv-x="1052" d="M92 47l29 -65q262 12 423 17t224 5h94t74 -2q15 115 25 148q-365 -72 -670 -78v6q33 39 41 117l10 124q18 201 379 439q68 41 107.5 70.5t52.5 43.5q43 45 43 142q0 182 -31 354q-49 270 -115 270q-117 0 -303 -57q-186 -53 -280 -115q-16 -6 -15 -69q4 -57 10.5 -103.5 t14.5 -83.5l2 -14l67 -72q53 -16 114 -24t128 -4q88 78 109 157q-53 0 -117 23q-8 -33 -18.5 -55.5t-26.5 -38.5q-27 0 -54.5 8t-60.5 24l-6 5q0 211 10 225q61 80 310 80q47 0 63 -142q14 -109 18.5 -211t-0.5 -200q-10 -47 -204 -185q-393 -274 -396 -546q0 -141 -51 -193 z" />
<glyph unicode="3" horiz-adv-x="1140" d="M92 274q0 -29 4 -53t10 -43q55 -152 158 -168v-8q123 6 207 15.5t131 25.5q219 57 301 141q53 57 103 260q25 104 34.5 176t3.5 113q0 18 -8 27q-43 61 -288 74l43 4q209 18 245 67q8 8 8 33q8 29 -38 221q-86 342 -103 354q-41 41 -115.5 77t-185.5 69q-29 10 -59 10 q-47 0 -144 -33q-47 -16 -80.5 -24t-54.5 -8v-7q-94 -18 -151 -153q-37 -96 0 -248q152 -82 360 -113l213 41l-61 90l-170 -34q-123 12 -215 67q-8 29 -10.5 52.5t-2.5 46.5q0 20 2 39.5t11 41.5l96 62l29 12q53 -2 153 22.5t150 24.5q10 0 22 -2t23 -6q45 -25 110 -336 q35 -170 25 -215q-2 -12 -6 -21.5t-8 -17.5q-70 -59 -496 -57l-2 -113q424 2 498 -61q4 -12 8 -21.5t6 -17.5q12 -96 -25 -281q-49 -207 -110 -239q-51 -25 -138.5 -37t-209.5 -17l-29 19l-96 55q-8 18 -10.5 40t-2.5 44q0 23 2 45.5t11 50.5q92 55 215 68l170 -37l61 96 l-213 35q-209 -29 -360 -112q-20 -68 -21 -136z" />
<glyph unicode="4" horiz-adv-x="1333" d="M92 555q0 -12 2 -14q233 10 405.5 16t293.5 4q4 -74 -4.5 -217t-30.5 -358q111 12 170 2q-6 117 -6 180l39 12q-10 84 -16.5 185.5t-6.5 224.5q29 4 66 4h81h64t45 -4q16 41 26.5 65.5t20.5 34.5q-111 -10 -184.5 -15t-112.5 -5q-4 104 -6 199.5t-2 187.5q0 330 31 585 q-100 -4 -172 -3t-115 6q-53 -90 -127 -222.5t-170 -314.5l-137 -252q-39 -76 -64.5 -127t-42.5 -74q4 -2 4 -8t-8 -17.5t-17 -25.5t-17.5 -27.5t-8.5 -21.5zM301 641q104 287 217 503t240 363h6q10 -127 14 -249.5t4 -243.5q0 -92 -2 -182.5t-6 -178.5q-268 -12 -473 -12z " />
<glyph unicode="5" horiz-adv-x="983" d="M92 442l14 -313q63 -84 175 -127l4 -2v2q352 33 475 172q6 10 18.5 27.5t26.5 40.5q41 180 63.5 309t22.5 207q0 61 -19 90q-29 43 -145.5 66.5t-323.5 21.5q-29 -4 -50 -6t-38 -2h-43q-2 57 -3 109.5t-1 103.5q0 98 3 187t14 173q184 0 285.5 1t125.5 3q51 -4 88 -10 t64 -14q4 53 6 87t4 44q-86 -10 -175 -14.5t-185 -0.5l-281 7q-37 2 -59 2q-23 0 -33 2q2 -14 5 -38t7 -57q10 -119 7 -284.5t-17 -382.5q92 2 149 2h86h121q47 0 72 -2q131 -16 131 -78v-39v-39q0 -18 4 -35v-127q0 -270 -37 -309q-86 -92 -323 -98q-66 6 -107 67l-6 226 q35 94 115 94q35 -16 57.5 -31.5t38.5 -32.5l76 52l-105 88q-117 4 -188 -27z" />
<glyph unicode="6" horiz-adv-x="1146" d="M94 590q8 -47 35 -129t76 -201q109 -264 164 -278h71q27 0 69 7t97 19q53 14 94 27.5t64 30.5q47 29 96 89t101 158q104 191 92 297q-2 70 -103 238q-106 186 -182 186q-47 0 -227 -67l-15 -6v-11l-82 -80l-53 -168l41 -251l109 -74l159 41l64 262l-86 6l-37 -211 l-80 -24l-49 57l-4 188l18 146l58 63q57 31 84 31q25 0 45 -10q141 -178 157 -342l2 -6q6 -61 -67 -252q-72 -190 -115 -213q-141 -45 -196 -45q-20 0 -27 8q-23 29 -50.5 82t-56.5 137q-31 86 -48 149.5t-21 106.5q-12 92 -1 164.5t42 130.5q49 127 98 225t98 168 q227 311 375 387q-86 49 -137 49q-213 -150 -442 -487q-258 -377 -230 -598z" />
<glyph unicode="7" horiz-adv-x="1011" d="M37 1397q129 47 315.5 71.5t433.5 32.5l5 -12q-78 -154 -209 -463t-314 -780q-25 -100 -45 -168t-37 -107q68 6 117 10.5t82 4.5q264 1016 578 1570q-2 2 -2 7v8q0 8 7 18t15 21.5t15.5 19.5t7.5 12q-240 -20 -430.5 -29t-333.5 -9h-101q-47 0 -86 4q-6 -92 -11 -143.5 t-7 -67.5z" />
<glyph unicode="8" horiz-adv-x="1124" d="M92 430q18 -176 48 -279.5t65 -136.5q8 -8 46 -15t111 -13q59 -6 102.5 -8.5t76.5 -2.5q41 0 95 14.5t124 47.5q145 63 188 121q82 96 82 377v4q-12 63 -153 157q-12 10 -70.5 48t-167.5 104q113 70 183.5 127t103.5 104q27 37 0 248q-10 90 -22.5 147.5t-26.5 79.5 q-12 16 -35 32t-51.5 27t-58.5 18t-54 7q-37 0 -98.5 -14t-143.5 -45q-162 -51 -203 -111q-43 -53 -61 -192q-10 -72 -14 -126t2 -93q2 -25 12 -41q12 -33 83 -81t200 -120q-147 -86 -237.5 -148.5t-125.5 -105.5q-12 -18 0 -131zM272 508q0 76 21 98q53 53 111.5 96 t117.5 78q312 -208 320 -282q4 -23 -1 -67t-10 -105q-12 -119 -34 -152q-14 -27 -97 -72q-41 -23 -68.5 -33t-43.5 -10q-211 0 -252 39q-55 68 -55 299v2q-4 33 -6.5 59.5t-2.5 49.5zM342 1114q-6 59 6 193q18 152 43 170q31 16 127 34q49 10 84 15.5t53 5.5q31 0 35 -2 q37 -25 68 -244l2 -2q4 -35 6 -66.5t2 -60.5q0 -96 -25 -123q-33 -39 -72.5 -74.5t-86.5 -72.5q-117 63 -175.5 120.5t-66.5 106.5z" />
<glyph unicode="9" horiz-adv-x="1146" d="M92 1049q2 -70 103 -238q104 -186 182 -186q49 0 100 22q53 20 85 32.5t44 16.5v-6l4 6l13 2l-5 11l82 82l58 163l-43 254l-105 76l-166 -43l-61 -260l84 -10l37 211l82 26l49 -57l4 -184l-16 -152l-56 -63q-31 -12 -53 -19.5t-37 -7.5q-59 0 -100 76q-27 57 -39 90 q-29 70 -44 116t-20 72l-2 2q-4 63 68 252q70 190 119 213q16 10 96 29q82 16 98 16q20 0 27 -6q59 -74 111 -223q29 -74 44 -137.5t21 -116.5q23 -188 -41 -295q-47 -125 -97 -223t-102 -170q-227 -311 -374 -389q45 -23 78.5 -34t60.5 -15q209 150 442 491 q257 379 228 594q-8 53 -35 135t-76 197q-115 268 -162 276h-69q-29 0 -72 -6t-96 -22q-55 -12 -95 -24.5t-63 -29.5q-96 -55 -201 -243q-102 -195 -90 -301z" />
<glyph unicode=":" horiz-adv-x="464" d="M92 864q20 6 45 6q16 0 80 -20q70 -23 76 -16q16 61 34.5 123t41.5 128q-90 -12 -151.5 -19t-96.5 -9q-10 -37 -17.5 -85t-11.5 -108zM94 0q127 6 182.5 8t40.5 2q16 61 30 104t22 70q-10 -2 -19.5 -3t-19.5 -1q-16 0 -43 2t-64 11q-78 12 -110 10q-4 -145 -19 -203z" />
<glyph unicode=";" horiz-adv-x="493" d="M92 84q0 -51 45 -51q0 -16 35 -17q23 0 74 11q-12 -158 -101 -215q31 -6 43 -52v-61q177 113 177 332l-13 106q-6 53 0 101q-23 -12 -67 0q-63 14 -88 14q-18 0 -40 -4t-44 -15q4 -8 -9 -73q-8 -33 -10 -51.5t-2 -24.5zM106 854q16 2 29 2h27q16 0 41.5 -3t52.5 -8 t51.5 -8t40.5 -3q47 161 51 227q-92 -4 -160.5 -7t-111.5 -5q0 -111 -21 -195z" />
<glyph unicode="&#x3c;" horiz-adv-x="1187" d="M92 760l385 -150q262 -98 477 -250q8 0 16.5 13.5t16.5 29t15.5 28.5t11.5 18q-236 162 -641 317q57 29 146 67.5t216 92.5q121 51 210.5 94t150.5 78q-35 10 -61.5 19t-43.5 18q-354 -147 -576 -240.5t-323 -134.5z" />
<glyph unicode="=" horiz-adv-x="1355" d="M92 571q164 14 444.5 21.5t684.5 7.5q10 49 45 96q-252 -18 -817 -18h-160t-168 2q-12 -68 -29 -109zM92 815q326 31 1129 31q10 51 45 94q-127 -10 -330 -13t-487 -3h-160t-168 2q-12 -66 -29 -111z" />
<glyph unicode="&#x3e;" horiz-adv-x="1187" d="M92 1098q98 -61 338 -160q135 -55 229.5 -97t153.5 -75q-205 -78 -364.5 -157t-276.5 -160q4 -4 11 -17.5t15.5 -29t17.5 -29t17 -13.5q86 61 190.5 118t227.5 110q61 27 172 69t273 103q-100 41 -324.5 134t-576.5 241q-70 -23 -103 -37z" />
<glyph unicode="?" horiz-adv-x="923" d="M92 1397q2 -31 7 -77t14 -110l8 -14l67 -72q51 -16 110.5 -24t129.5 -4q82 74 111 157q-57 0 -121 23q-14 -63 -49 -94q-53 0 -109 32l-10 5q0 211 14 225q61 80 307 80q47 0 64 -142q14 -100 18 -202.5t0 -208.5q-12 -47 -204 -185q-90 -59 -103 -215q-8 -63 0 -143 q2 -53 -4 -68q4 2 23 2q10 0 26.5 -3t33.5 -7t32.5 -7t23.5 -3q27 0 31 55q6 41 10 80t6 80q18 147 105 201q141 88 160 114q38 46 38 142q0 203 -26 354q-47 270 -119 270q-115 0 -299 -57q-186 -53 -281 -115q-16 -6 -14 -69zM324 0q78 2 134 1t87 -3q28 154 22 209 q-53 -4 -109.5 -9t-121.5 -10z" />
<glyph unicode="@" horiz-adv-x="1923" d="M94 735q16 -49 59.5 -117.5t116.5 -154.5q145 -174 246 -223q14 -8 39 -10.5t61 -2.5q518 0 746 76q45 16 83 40t68 60q10 8 38 45t75 103q203 272 203 307q0 49 -164 266q-74 90 -123 143.5t-78 69.5q-14 10 -114 23q-53 6 -85 10t-44 4q-442 0 -670 -65 q-53 -12 -123 -88q-16 -14 -55 -61.5t-105 -125.5q-193 -229 -174 -299zM317 774q-4 106 318 488q121 76 500 75q172 0 249 -96q16 -35 125 -180q93 -121 93 -184q23 -49 -166 -338q-20 -33 -41 -70q-4 14 -10.5 32.5t-10.5 41.5q-43 254 -43 352q0 135 25 287 q-459 6 -592 -35q-88 -33 -201 -156q-121 -129 -104 -211q12 -63 63 -164q68 -131 111 -151q20 -14 158 -14h34q76 0 160 77q66 61 100.5 94t40.5 40l-22 274q-63 35 -176 68q-106 -90 -164 -289l100 -19q37 86 64.5 140.5t52.5 76.5l63 -20l-38 -231l-48 -78 q-59 -47 -99 -67.5t-68 -20.5q-78 0 -150 290v5q0 68 88 180q37 49 73 87t70 66q16 10 136 11q33 0 79 -2.5t109 -6.5l23 -389v-35q0 -16 -5 -32v-2q0 -49 5.5 -104.5t19.5 -114.5q20 6 49 0q16 -4 29 -5h20q12 -2 23 -2h18q-33 -51 -57 -96q-106 -86 -494 -86 q-158 0 -188 21q-53 37 -104.5 91t-102.5 126q-53 78 -83 147.5t-32 128.5z" />
<glyph unicode="A" horiz-adv-x="1216" d="M16 -6q92 10 141.5 12t59.5 -4q45 215 90 391t90 320q90 -5 160 -5q83 0 135 7q12 18 29 119q-41 117 -69.5 182t-43.5 82l-98 -2q45 -86 69.5 -146.5t34.5 -95.5q2 -6 1 -18.5t-5 -26.5q-35 -12 -78 -12q-18 0 -47.5 2t-70.5 6l213 719h10l178 -727q86 -362 133 -563 t56 -248q32 19 69 19q15 0 31 -3q36 -3 62 -3t42 3q-55 82 -110 299q-59 231 -91 359t-38 151q-76 291 -123 504t-64 354q-86 -2 -139 -2t-80 4q-449 -1503 -547 -1677z" />
<glyph unicode="B" horiz-adv-x="1134" d="M92 1669q39 -84 45 -225l8 -281q4 -96 7.5 -214t3.5 -259q0 -229 -11.5 -400t-31.5 -288q34 7 89 7q45 0 105 -5q-2 14 -1 31q0 49 13 117q12 47 17.5 80.5t5.5 52.5q-14 106 -22.5 287.5t-12.5 443.5q-2 132 -2 237q0 79 1 143q3 150 9 216q66 6 129.5 8t126.5 2 q74 0 120 -2t61 -8q55 -18 61 -113q10 -83 12 -159q1 -25 1 -50q0 -49 -3 -96q-14 -193 -63 -225q-74 -20 -125 -21q-86 84 -84 150q-10 20 -10 37l26 141q63 57 162 119l-121 41q-90 -37 -159 -136q-40 -112 -40 -197q0 -11 1 -22q33 -100 112 -186l111 -39q211 0 223 -137 q10 -92 10 -191q0 -98 -8 -209q-12 -193 -61 -225q-78 -18 -123 -18q-86 75 -86 143v6q-2 12 -3 28.5t-1 37.5q0 35 5 86t17 117q61 57 162 114l-117 47q-92 -35 -164 -139q-40 -114 -40 -249q0 -30 2 -62q33 -96 114 -185h-6l98 -38q250 33 314 102q45 55 67 315 q10 113 11 197v33q0 63 -3 108q-6 43 -104 117q-27 18 -47.5 31.5t-36.5 23.5q45 23 71.5 57.5t43.5 84.5q10 31 16 90t12.5 145t8.5 146v28q0 40 -4 64q-6 55 -103 118q-49 31 -87 47.5t-69 16.5q-449 0 -653 -37z" />
<glyph unicode="C" horiz-adv-x="1353" d="M94 801q8 -66 35 -161t76 -220q43 -117 83 -208t81 -159q14 -18 82 -45q64 -28 90 -28h2l217 2q96 0 211 55q84 39 141 61.5t92 34.5l58 186l-31 156l-146 -20l41 -138l-43 -120l-116 -60q-63 -33 -111.5 -47t-89.5 -14q-29 0 -131 22q-96 23 -107 35q-94 166 -152.5 344 t-78.5 369q-2 19 -2 41q0 141 90 389l78 205q53 96 285 96q61 0 157 -53q16 -10 43 -37t68 -76q37 -43 56.5 -72.5t23.5 -46.5q10 39 63 80l51 39l-51 90q-47 88 -102 121q-57 33 -91 47t-48 14q-344 0 -510 -92q-72 -37 -191 -313q-69 -154 -101 -272q-24 -90 -24 -162 q0 -22 2 -43z" />
<glyph unicode="D" horiz-adv-x="1247" d="M92 14h168q25 0 25 39l-4 1559q59 6 125.5 8t138.5 2q141 0 155 -20q14 -16 45 -84t82 -191q123 -299 123 -414v-4q0 -311 -213 -716l-96 -117q-78 2 -102 51l-43 98l26 680q2 8 12.5 19.5t23.5 20.5t27.5 15.5t22.5 6.5q25 0 33 -27l45 -106q49 -113 57 -113q4 0 8.5 2 t6.5 10l98 47q-164 322 -201 322q-4 0 -14 -4q-2 10 -18 10q-49 0 -129 -59q-82 -63 -95 -101l-2 -741l43 -139q29 -23 86.5 -41.5t143.5 -28.5l155 108l35 21l17 29q53 104 87.5 178t51.5 115q136 335 136 439q0 8 -1 15v2q0 133 -143 432q-57 117 -97.5 188.5t-62.5 96.5 q-25 25 -92 57q-68 35 -101 35q-256 0 -563 -49q19 -72 19 -165v-9q-4 -53 -8.5 -88t-8.5 -53q31 -238 31 -783q0 -195 -8 -332t-25 -221z" />
<glyph unicode="E" horiz-adv-x="1134" d="M92 1667q25 -100 35 -154.5t12 -68.5q16 -117 24.5 -330t8.5 -530q0 -209 -8 -355.5t-25 -234.5q147 6 282.5 8t264.5 2h358q-4 37 -8 60.5t-8 37.5q-91 -26 -206 -26h-9q-33 0 -77 2t-103 6q-59 6 -103.5 8t-74.5 2q-4 0 -23.5 2t-54.5 6q-31 4 -50.5 6.5t-25.5 -2.5 q-20 -2 -20 209q0 25 4 63t12 89q18 106 18 156q2 84 6.5 136t10.5 75q49 6 115.5 10t152.5 4h53q119 0 193 6l14 68q-195 0 -327 3t-203 11q-8 299 -10 463v69q0 102 4 125q189 5 324 5q44 0 84 -1q156 -2 216 -12q4 82 13 121q-186 -14 -401.5 -24.5t-467.5 -14.5z" />
<glyph unicode="F" horiz-adv-x="968" d="M92 1653q66 -158 80 -297q10 -106 15.5 -271t5.5 -389q0 -258 -11.5 -435t-36.5 -281q131 15 162 15q9 0 10 -1q-2 8 -2 18v21q0 29 4.5 77t16.5 113q8 59 10 107q1 24 1 45t-1 39q-9 104 -9 181q0 136 28 191q4 4 32.5 10.5t83.5 8.5q125 4 201 5t109 3l18 92 q-301 0 -449 13q-4 123 -6 223t-2 186q0 18 -3 47t-7 70q-6 82 -6 115q55 4 94 4h59l230 14q41 3 75 3q17 0 32 -1q46 -2 83 -10q10 49 17.5 83t13.5 50q-305 -31 -848 -49z" />
<glyph unicode="G" horiz-adv-x="1349" d="M92 805q0 -84 164 -457q158 -356 209 -373q2 -4 31 -4q53 0 116.5 6.5t132.5 20.5q84 14 144.5 32.5t95.5 41.5q80 51 107 174q0 4 7 58t19 161q25 188 86 336q-31 29 -62.5 54.5t-62.5 47.5l-155 -12q-78 -8 -135.5 -11t-98.5 -3h-6l-96 -35q-29 -106 -48.5 -192.5 t-27.5 -153.5l162 -19q27 88 48 164t38 141q41 4 76.5 6.5t64.5 2.5q59 0 82 -9q-2 -55 -10 -137t-25 -194q-37 -244 -84 -340q-178 -43 -229 -43q-53 0 -68 16q-72 96 -168 371q-94 258 -106 393q-1 9 -1 19q0 105 77 360q92 301 166 336q43 22 347 22h27q70 0 148 -86 q82 -96 106 -100q29 16 52.5 25.5t39.5 11.5l-159 233q-16 18 -135 19q-59 0 -133 -5.5t-160 -15.5q-254 -31 -344 -135q-29 -35 -65 -122t-81 -224q-86 -274 -86 -377v-4z" />
<glyph unicode="H" horiz-adv-x="1271" d="M92 -18q113 18 180 18q-4 16 -4 45q0 25 2 62.5t9 87.5q12 98 12 151q0 12 -2 38t-4 65q-16 166 -16 253t16 95q39 27 688 51q0 -233 -5 -449.5t-20 -418.5q152 35 217 36q-29 230 -39 458q-6 126 -6 253q0 101 4 201q4 219 18.5 404t37.5 343q-88 -6 -140 -7h-30 q-26 0 -37 1q12 -25 17 -65.5t5 -94.5q0 -94 -12 -284q-8 -96 -11 -166t-3 -119q-166 -6 -337 -11t-351 -7v50q0 468 36 703q-37 -4 -69 -4h-55h-46q-18 0 -34 4q24 -39 24 -86q0 -23 -3 -51q-3 -27 -13 -61q-6 -37 -10.5 -62.5t-4.5 -42.5v-63q8 -57 13.5 -202.5 t5.5 -381.5q0 -272 -8 -456.5t-25 -286.5z" />
<glyph unicode="I" horiz-adv-x="442" d="M92 -14q127 20 209 20q25 0 47 -2q-64 151 -64 456q0 38 1 79l6 479q6 563 24 657q-138 -6 -198 -6h-25q31 -66 35 -129q2 -14 2 -39t-2 -59q-2 -45 -4 -69.5t-2 -35.5v-4q10 -98 16 -270t6 -416q0 -471 -51 -661z" />
<glyph unicode="J" horiz-adv-x="1028" d="M92 172q10 -10 27.5 -26.5t40.5 -43.5q51 -53 80 -69l6 -8l4 2q82 -41 194 -41q45 0 99.5 6t120.5 22q145 27 194 76q18 18 47 92q31 76 31 109q0 86 -3 211t-7 295t-6 296t-2 212q0 227 18 399q-57 -14 -227 -14q25 -23 55 -424q10 -180 16 -296t6 -173 q0 -662 -118 -691q-49 -12 -156 -12q-109 0 -160 21q-66 47 -127 82l31 94q61 28 176 28h8l148 -116l51 78q-164 115 -184 118q-78 -2 -152 -14t-145 -39q-66 -113 -66 -174z" />
<glyph unicode="K" horiz-adv-x="1208" d="M92 1657q63 -281 64 -889q0 -254 -9.5 -446.5t-25.5 -327.5q27 8 49.5 10t46.5 -2q33 -4 57 -4q16 0 27 2q-10 72 -12 158q-1 29 -1 59q0 61 3 129l16 344q41 43 70 74t51 49q141 -147 282.5 -354t284.5 -477q35 16 65 24t58 4q61 -6 74 -6h4q-256 338 -422 563.5 t-246 335.5q205 213 363 394.5t272 336.5l-78 11q-12 -2 -24 -3h-25q-16 0 -45.5 8.5t-46.5 6.5q-59 -117 -152.5 -250t-224.5 -283q-70 -84 -130 -147.5t-113 -106.5h-17q-6 147 -6 215q0 373 45 586q-56 -10 -120 -14q-32 -2 -65.5 -2t-68.5 2z" />
<glyph unicode="L" horiz-adv-x="897" d="M92 1669q16 -35 24.5 -69.5t8.5 -75.5q0 -16 -3 -42t-6 -52.5t-6.5 -52t-3.5 -40.5v-4q8 -68 13.5 -216t5.5 -384q0 -543 -31 -735q412 18 592 18h74h18q12 0 23 -2h26q16 57 23.5 91.5t9.5 44.5q-164 -43 -483 -44q-55 0 -60 52q-16 160 -24 380t-8 506q0 436 30 631 q-109 -7 -176 -7q-27 0 -47 1z" />
<glyph unicode="M" horiz-adv-x="1579" d="M92 -18q156 33 223 34q-10 88 -10 203t8 262q1 17 1 38q0 43 -3 103q-4 90 -10 220q-10 184 -15 283.5t-5 117.5q0 53 3 102.5t7 96.5h16q141 -516 241.5 -871.5t160.5 -556.5q39 0 63.5 -3t40.5 -7l182 643q72 252 131.5 448.5t110.5 348.5h16q58 -933 58 -1336 q0 -71 -2 -126q46 23 99 23q19 0 38 -3q16 -2 24 -2h11l8 2q-2 2 0 2q-13 134 -17 234q-2 33 -1 64q0 60 6 106q-25 188 -38.5 424.5t-19.5 523.5q-1 77 -1 137v57q1 78 3 125q-41 -2 -76 -2q-43 0 -77 3q-62 5 -94 12q-35 -115 -59.5 -190t-35.5 -114 q-100 -311 -158.5 -499.5t-78.5 -261.5l-62 -240l-282 932q-25 82 -46.5 172t-41.5 188q-145 -16 -273 -18q18 -23 19 -35h-17q-8 -2 -2 -18l8 -779q1 -79 1 -152q0 -218 -9 -374q-12 -209 -45 -317z" />
<glyph unicode="N" horiz-adv-x="1361" d="M92 1653q-1 -14 -1 -31q0 -24 2 -56q3 -52 13 -124q16 -147 22 -303q3 -81 4 -165q0 -78 -3 -159q-1 -20 -1 -42q0 -45 3 -101q4 -84 8 -195q18 -240 19 -338q0 -92 -19 -153q41 2 72 2h57h43t31 -2q-31 362 -43 586q-9 168 -9 264q0 32 1 55q8 160 12 278.5t4 198.5h10 q256 -463 443.5 -811t306.5 -588q6 2 29.5 5t66.5 6q89 4 107 14l-33 573q-12 174 -17.5 294t-5.5 188q0 205 6 363.5t17 270.5q-37 -2 -68 -2h-55q-31 0 -53.5 1t-32.5 6q16 -45 16 -140v-112q0 -29 2.5 -52.5t4.5 -46.5q12 -193 20 -332t12 -231l29 -514l12 -55 q-160 258 -620 1149q-113 215 -144 327q-78 -12 -144 -18t-124 -10z" />
<glyph unicode="O" horiz-adv-x="1292" d="M92 735q4 -59 29.5 -152.5t71.5 -222.5q47 -141 85.5 -229t67.5 -129q17 -22 91 -22h7q41 0 95.5 6t124.5 16q55 12 69 12q0 -4 3 -2t12 4l12 4q20 39 33.5 75t21.5 67q30 106 30 219q0 35 -3 70l-33 403l-74 389l-192 -6l125 -403v-385q0 -6 1 -36t5 -77q1 -24 1 -52 t-1 -61q-6 -152 -57 -152q-3 0 -7 1h-43q-78 0 -92 20q-35 61 -65.5 145.5t-57.5 190.5q-55 209 -61 363q-1 7 0 15q-1 52 21 146q26 108 83 273q31 98 51.5 164.5t28.5 101.5q61 94 273 94q84 0 124 -117l41 -182q23 -100 43.5 -186t42.5 -160v-2q5 -26 5 -69q0 -39 -4 -93 q-9 -114 -33 -295q-23 -166 -46.5 -282.5t-43.5 -184.5h26t21 -4q55 -12 59 4q215 573 215 899v5q0 78 -96 389q-41 131 -71 208.5t-48 106.5q-8 16 -82 43q-74 23 -100 23q-33 0 -84 -9.5t-127 -25.5q-154 -33 -193 -64q-88 -63 -202 -397q-104 -297 -104 -431q0 -14 1 -26 z" />
<glyph unicode="P" horiz-adv-x="1095" d="M92 1645q39 -84 45 -226l8 -278q4 -96 7.5 -214t3.5 -263q0 -227 -11.5 -397.5t-31.5 -286.5q149 18 211 18h12q-2 47 -2 88q0 32 1 60q3 66 7 114q-14 109 -22.5 289t-13.5 442q-2 132 -1 237q0 79 1 143q3 149 9 214q131 12 256 12q133 0 187 -16q49 -10 55 -104 q10 -99 13 -199q1 -33 1 -67q0 -66 -4 -132q-8 -98 -24.5 -152.5t-38.5 -72.5q-39 -12 -70 -17.5t-55 -5.5q-84 75 -84 146v6q-10 14 -10 66q0 37 6 87t20 111q33 29 73 59.5t89 61.5l-121 45q-90 -43 -159 -137q-40 -128 -40 -263q0 -23 1 -46q33 -102 112 -187h-2l98 -43 q256 41 310 109q49 49 71 311q10 106 11 191q0 84 -6 147q-6 55 -103 119q-97 67 -154 67h-2q-449 0 -653 -36z" />
<glyph unicode="Q" horiz-adv-x="1275" d="M92 735q16 -127 101 -381q43 -133 81.5 -220t71.5 -132q17 -22 91 -22h7q45 0 99.5 6t120.5 16q29 6 49 9t30 5l17 4l51 142q31 93 31 208q0 39 -4 81l-33 403l-72 389l-194 -6l125 -403v-385v-43t4 -66q2 -37 4 -66.5t-2 -50.5q-2 -152 -53 -152q-3 0 -7 1h-43 q-90 0 -92 20q-66 104 -123 338q-55 211 -61 361v18q0 117 69 321l115 361q55 94 273 94q41 0 69.5 -28.5t52.5 -88.5q16 -66 25.5 -110.5t17.5 -71.5q35 -143 57.5 -229t28.5 -117v-2q0 -61 -6 -143t-20 -187q-2 -35 -13.5 -101.5t-33.5 -168.5q-33 -164 -33 -266 q0 -55 26.5 -123t86.5 -148q33 -43 83 -104.5t121 -142.5h8q138 0 132 32q-72 86 -117 140.5t-68 80.5q-138 176 -138 282q0 17 3 32l105 463q31 141 47 223t16 106v5q0 78 -96 389q-88 272 -119 315q-14 18 -84 39q-72 27 -98 27q-61 0 -213 -35q-74 -16 -121 -32.5 t-70 -31.5q-92 -66 -204 -397q-59 -168 -83 -282q-19 -92 -19 -149q0 -14 1 -26z" />
<glyph unicode="R" horiz-adv-x="1136" d="M92 1645q35 -57 35 -226l2 -375q4 -147 5 -242t3 -138v-53q0 -431 -31 -613q106 6 168 6h37q16 0 31 -2q-10 135 -18 258q-16 279 -24 459t-9 272q-2 116 -2 214q0 73 1 137q3 148 7 243q131 12 258 12q133 0 186 -16q23 -4 36.5 -31.5t19.5 -72.5q10 -99 12 -199 q1 -25 1 -50q0 -74 -5 -148q-6 -98 -22.5 -153t-39.5 -73q-39 -12 -69.5 -17.5t-55.5 -5.5q-83 74 -84 144q0 4 1 8q-12 18 -13 66q0 72 29 198q33 29 73 59.5t89 61.5l-123 45q-43 -23 -84 -56.5t-76 -80.5q-23 -72 -33 -150q-6 -43 -6 -87q0 -36 4 -72q18 -72 70 -154 l190 -309q102 -166 170 -292t103 -214q59 4 108 5h32q30 0 56 -1q-123 199 -232.5 383t-207.5 358q172 33 229 103q49 55 70 311q8 111 8 201q0 77 -6 137q-2 51 -104 119q-97 67 -150 67h-2q-432 0 -637 -36z" />
<glyph unicode="S" horiz-adv-x="991" d="M92 1004l96 -134l363 -77l135 -95l51 -204q14 0 15 -29q-20 -221 -66 -238q-14 0 -70 -59q-55 -57 -59 -57h-162q-55 0 -65 2q-66 156 -66 202l-4 111q27 10 52.5 14t49.5 4q29 0 56.5 -4t58.5 -14l-37 -162l111 8q39 130 39 201q0 17 -2 31q-57 10 -109.5 13t-101.5 3 q-133 0 -219 -33v-227q-10 -51 -12.5 -85t-0.5 -50q8 -47 13 -49l59 -76q14 -18 76 -18q150 0 362 65q63 18 138 103l88 96q20 20 20 60v7q-6 66 -12 107t-10 61l-2 107l-17 157l-198 132l-332 61l-66 129q-1 20 -1 43.5t1 50.5q2 53 10 123q25 166 62 178q18 4 63 62 q47 61 64 61h227q66 -141 68 -207l2 -108q-49 -16 -105 -17q-29 0 -55.5 4.5t-58.5 12.5l45 160l-119 -9q-23 -80 -33 -136q-6 -35 -6 -61q0 -16 2 -28q61 -10 117.5 -15t105.5 -5q61 0 113.5 8t97.5 24v228q0 37 2 61.5t4 38.5v10q-4 12 -6 22.5t-4 16.5l-55 107 q-12 22 -71 22h-5q-150 0 -360 -69q-96 -33 -230 -201q-33 -20 -33 -70l-4 -186v-47zM870 1546l7 -14q0 14 -2.5 17t-4.5 -3z" />
<glyph unicode="T" horiz-adv-x="1314" d="M92 1669q2 -74 7 -120t12 -68q90 31 197.5 45t236.5 18q16 -145 25.5 -311t13.5 -354l4 -306q1 -72 1 -147.5t-1 -153.5q-4 -178 -25 -278q84 6 127 7t47 -1q-18 42 -18 100q0 21 2 43q9 75 9 103q0 9 -1 14l-8 248q-4 184 -6 294.5t-2 151.5q0 551 32 576q33 10 111 14 t205 4h86t57 -2q0 53 4.5 91t12.5 67q-442 -37 -873 -37h-139t-117 2z" />
<glyph unicode="U" horiz-adv-x="1298" d="M92 1675q16 -37 25.5 -80t11.5 -94q33 -442 48.5 -774t15.5 -565q2 -14 2 -25q0 -8 2 -10q14 -16 44.5 -40t82.5 -50q104 -57 141 -57h2q88 0 297 67q301 98 354 395q12 250 18 389.5t11 172.5l57 702q-76 -4 -132 -8t-91 -6q8 -100 11 -165t7 -97q7 -76 7 -177 q0 -41 -1 -86q-4 -157 -20 -374q-33 -504 -113 -566q-92 -86 -159 -100q-88 -23 -136.5 -33t-64.5 -10q-23 0 -72 43q-80 55 -88 129q-20 205 -29.5 463t-8.5 579v377q-41 -4 -74 -4h-62h-49t-37 4z" />
<glyph unicode="V" horiz-adv-x="1239" d="M16 1706q80 -213 154 -514q27 -135 117 -528q61 -291 93 -463t34 -230q39 14 67 15q6 0 19.5 -2t34.5 -4q27 -2 40 0l275 718q92 236 140 371t54 174q6 41 32 102.5t67 149.5q35 78 56.5 138.5t25.5 101.5q-20 -2 -42.5 -2t-49.5 2q-33 2 -56.5 3t-40.5 -1l-487 -1463 l-2 -55q-119 475 -192.5 846t-100.5 649q-84 -6 -144 -8q-30 -1 -53 -1t-41 1z" />
<glyph unicode="W" horiz-adv-x="2050" d="M92 1692l64 -336q31 -172 66.5 -355.5t74.5 -382.5q37 -184 62.5 -346.5t35.5 -306.5q66 10 106 18.5t56 10.5q53 135 97 250.5t81 220.5q98 279 151.5 428t63.5 174h19q180 -760 223 -1096q39 14 63 15h17q12 0 28 -4l33 -7q203 553 317.5 870.5t145.5 409.5 q20 57 48 128t63 157q51 127 51 166q-80 -6 -125 -8t-61 4l-228 -721q-100 -317 -151.5 -481t-59.5 -176l-24 -64q-25 98 -69 313t-105 553q-74 410 -121 498l-312 -811q-39 -125 -63.5 -209t-32.5 -127q-20 -72 -37.5 -127t-33.5 -90h-19q-92 494 -150.5 853.5t-80.5 590.5 q-29 -8 -78 -10t-115 -2z" />
<glyph unicode="X" horiz-adv-x="1300" d="M92 -2q62 2 106 3h27q25 0 39 -1q35 152 154 352l205 346l190 -366q104 -195 172 -357q139 23 188 23h7q-68 74 -136 197q-37 72 -63.5 126t-44.5 89l-215 405q117 197 198.5 354.5t131.5 280.5q10 29 77 125q35 45 53.5 78t22.5 51q-76 0 -128 2t-85 6q1 -3 1 -8 q0 -39 -48 -164q-74 -199 -139.5 -347.5t-120.5 -254.5h-14q-129 264 -204 455.5t-104 312.5l-225 14q76 -88 140.5 -197.5t117.5 -246.5l178 -467q-227 -373 -345.5 -570.5t-135.5 -224.5v-16z" />
<glyph unicode="Y" horiz-adv-x="1157" d="M18 1702q203 -424 314.5 -674t134.5 -330q2 -45 3 -89t1 -87q0 -276 -49 -540q72 12 124 16q35 3 60 3q13 0 23 -1q0 106 16 178q-16 106 -24.5 197.5t-8.5 165.5q0 37 3 70.5t8 62.5l317 602q72 137 122 244.5t79 185.5h-129q-35 0 -56.5 2t-37.5 4v-21q0 -94 -33 -182 q-66 -176 -138.5 -330.5t-150.5 -287.5l-14 -64q-143 305 -229.5 523.5t-112.5 355.5q-80 -4 -134 -6q-19 -1 -34 -1q-32 0 -54 3z" />
<glyph unicode="Z" horiz-adv-x="1134" d="M92 0q260 6 434 10t267 6l131 9q32 1 62 1t58 -1v125q-317 -35 -714 -44q184 317 284.5 504t122.5 246q53 137 91 238.5t63 167.5q117 328 117 346v4l20 22q16 20 16 35q0 8 -3 12.5l-7 10.5q-135 -10 -311 -16.5t-393 -6.5h-37q-16 2 -29 2h-22h-86l2 -147 q279 23 439.5 37t207.5 18q-111 -385 -280 -762t-398 -751q2 -4 2 -19q0 -6 -6 -13t-12.5 -14.5t-12.5 -13.5z" />
<glyph unicode="[" horiz-adv-x="792" d="M92 2050q29 -143 47.5 -443t22.5 -761q8 -432 4 -735.5t-21 -483.5q248 0 384.5 -2t160.5 -6q6 41 8 64.5t2 27.5q-51 -4 -113.5 -7t-137.5 -3q-6 0 -33 2t-74 6l-12 295q-8 98 -10.5 218t-2.5 267q-2 160 -4 275t-6 184q-12 227 -19 388t-7 257q0 104 4 194.5t12 174.5 q16 2 40.5 4t59.5 2h29q12 4 25 4h22h82q47 0 96 -12q2 41 3 67.5t1 38.5q-215 -25 -342 -18l-120 2h-101z" />
<glyph unicode="\" horiz-adv-x="1382" d="M92 1841q193 -301 531 -1007q154 -317 277.5 -592t223.5 -510q29 10 70 18.5t94 16.5q-106 174 -245.5 448t-317.5 657l-465 1010q-68 -29 -168 -41z" />
<glyph unicode="]" horiz-adv-x="792" d="M92 -289q10 -57 10 -92q23 4 159 6t386 2q-14 180 -18 483.5t2 735.5q12 917 69 1204h-98l-121 -2q-129 -6 -344 18q2 -35 4 -61.5t2 -44.5q43 12 95 12h81h23q12 0 23 -4h32q35 0 58.5 -2t40.5 -4q10 -84 13 -174t3 -195l-25 -645q-10 -350 -15 -583.5t-7 -360.5 l-14 -295q-45 -4 -72 -6t-33 -2q-78 0 -141.5 3t-112.5 7z" />
<glyph unicode="^" horiz-adv-x="937" d="M92 1282q41 -2 89 -8t104 -12q27 49 71.5 136t106.5 216q168 -145 168 -244q0 -43 31 -106q31 0 73.5 -1t95.5 -3q4 6 9.5 11t5.5 9t-6 13.5t-17 19.5l-22 22q0 18 -123 176q-57 72 -96 118t-62 69q-92 4 -138 7t-50 3q0 -57 -76 -209q-51 -111 -94 -139 q-8 -10 -24.5 -29.5t-45.5 -48.5z" />
<glyph unicode="_" horiz-adv-x="2336" d="M92 -227l14 -111h2139l-15 111h-2138z" />
<glyph unicode="`" horiz-adv-x="641" d="M92 1868q66 -133 135.5 -249t145.5 -214q51 8 178 0l-258 436q-74 8 -123 15.5t-78 11.5z" />
<glyph unicode="a" horiz-adv-x="1378" d="M94 602q18 -106 86 -311q43 -123 76 -193.5t61 -93.5q14 -10 61.5 -16t133.5 -6h45q90 0 201 151q84 117 127 177.5t51 70.5l-31 510q-78 70 -219 131q-135 -170 -209 -545l131 -37q45 164 79 267.5t61 146.5l83 -41l-49 -432l-61 -156q-134 -159 -208 -159h-1 q-100 0 -182 550v2q0 117 100 330q94 193 186 295q20 27 170 27q39 0 98.5 -6.5t137.5 -16.5q6 -205 11 -346t7 -234.5t4.5 -146.5t2.5 -80q0 -25 -1.5 -32t-1.5 -11v-6q0 -96 8.5 -198.5t22.5 -217.5q16 4 29.5 5.5t30.5 -0.5q18 -6 34.5 -8.5t26.5 -2.5q41 -4 64 -4h26 q-16 35 -27.5 83t-17.5 110q-29 231 -41 396t-12 269q0 127 8 261.5t29 281.5h-30q-560 0 -718 -74q-123 -57 -262 -307q-123 -218 -123 -350q0 -17 2 -33z" />
<glyph unicode="b" horiz-adv-x="1337" d="M92 4q18 0 35.5 2t34.5 4q14 0 39.5 -6t66.5 -22q8 162 13.5 253t7.5 138t3 63.5t1 28.5l24 541q166 49 246 86l111 67q53 35 84 35q10 0 20 -12q39 -39 64 -90l71 -156q4 -23 91 -184q47 -90 47 -127v-2q-10 -66 -26.5 -140.5t-41.5 -163.5q-78 -247 -155 -247h-1 q-66 0 -209 155l-63 156l-14 418l77 41q47 -59 72 -207l39 -193l117 33q-84 430 -162 533q-72 -31 -126 -64t-95 -67l-53 -494l176 -246q103 -151 199 -151h1h41q172 0 201 28q49 47 129 279q35 102 55.5 180t28.5 135q2 16 2 34q0 128 -123 347q-139 252 -262 311 q-8 4 -31 5q-106 0 -520 -181q-3 110 -3 234q0 217 9 475q0 12 -32 12q-18 0 -48 -4t-75 -12q-41 -4 -52.5 -8t7.5 -4q30 -226 30 -1050v-54q0 -592 -51 -709z" />
<glyph unicode="c" horiz-adv-x="958" d="M92 588q8 -57 28.5 -135t57.5 -179q39 -111 75 -178t66 -96q18 -18 46 -18q27 0 85 13t152 38q72 23 114 35t52 16q63 31 78 111q6 57 9 107t5 97q-43 -2 -74.5 -3t-50.5 -1l-20 -94q-29 -131 -51 -164q-39 -55 -197 -55q-57 0 -102 188l-58 271q-10 41 -13 67.5t-3 42.5 q-3 11 -2 28q0 33 9 89q15 86 50 223q18 63 29.5 116.5t21.5 96.5q45 88 211 88q59 0 70 -16q16 -90 25.5 -166t13.5 -141l135 35q2 53 2 94v78v59q0 25 -2 41q0 31 -6 54.5t-23 35.5q-18 8 -88 8q-238 0 -418 -67q-49 -20 -145 -330q-48 -156 -68 -252q-16 -74 -15 -116 q0 -12 1 -21z" />
<glyph unicode="d" horiz-adv-x="1327" d="M94 602q18 -106 86 -311q43 -123 76 -193.5t61 -93.5q14 -10 61.5 -16t133.5 -6h45q90 0 201 151q84 117 127 177.5t51 70.5l-55 477q-41 35 -94.5 67.5t-122.5 65.5q-59 -74 -105.5 -200.5t-81.5 -313.5l131 -37q45 172 72 266.5t41 116.5l80 -41l-19 -401l-61 -156 q-134 -159 -208 -159h-1q-100 0 -182 550v2q0 117 100 330q94 193 186 295q20 27 170 27q39 0 98.5 -6.5t137.5 -16.5q6 -205 11 -346t7 -234.5t4.5 -146.5t2.5 -80q0 -25 -1.5 -32t-1.5 -11v-6q0 -96 8.5 -198.5t22.5 -217.5q66 24 119 24q8 0 16 -1q52 -8 60 -4 q-76 178 -76 708q0 858 31 1108q-47 14 -88 22.5t-76 8.5q-31 0 -31 -12v-232q0 -113 1 -169t3 -62q-498 -49 -557 -74q-125 -57 -262 -307q-123 -218 -123 -350q0 -17 2 -33z" />
<glyph unicode="e" horiz-adv-x="991" d="M92 588q8 -57 28.5 -135t57.5 -179q39 -111 75 -178t66 -96q18 -18 46 -18q29 0 85 13t146 36q92 23 144.5 42t68.5 33q43 43 68 289q-47 -6 -78 -8t-51 -2q-10 -33 -18.5 -53.5t-14.5 -30.5l-17 -63q-10 -37 -18 -61.5t-16 -39.5q-49 -55 -197 -55q-57 0 -102 188 l-58 271q-10 41 -13 67.5t-3 42.5q-3 11 -2 28q0 33 9 89q15 86 50 223q18 63 29.5 116.5t21.5 96.5q45 88 211 88q106 0 111 -14q16 -16 24.5 -77.5t14.5 -170.5h-2l-10 -233q-47 -45 -132 -45q-29 0 -53 14l53 285l-120 6q-68 -182 -68 -332q0 -23 1 -46.5t3 -45.5 q16 -2 31 -2h33q211 0 376 69l23 361q4 78 4 131q0 55 -6 86v6q0 61 -22.5 79.5t-88.5 18.5q-133 0 -248.5 -19.5t-214.5 -55.5q-49 -20 -145 -330q-48 -156 -68 -252q-16 -74 -15 -116q0 -12 1 -21z" />
<glyph unicode="f" horiz-adv-x="913" d="M92 1092q12 0 31.5 -5.5t40 -12.5t39 -12t30.5 -5q12 -31 19 -139q5 -70 5 -174q0 -56 -1 -121q-6 -549 -31 -641q27 12 78 16t129 4q-2 27 -2 49v47q0 31 2 58.5t8 46.5q-25 121 -35 297t-10 405q0 141 8 148q72 8 141.5 14t133.5 8q23 29 40 49.5t25 32.5 q-82 -4 -166.5 -6t-177.5 -2q-3 0 -3 34.5t3 102.5q27 401 105 420q31 6 60.5 10t51.5 4h162q57 0 68 -4q27 -47 41 -88t14 -74v-92q-29 -6 -54.5 -11t-53.5 -5q-25 0 -52.5 5t-56.5 11l45 129l-113 -6q-33 -74 -45 -134q-9 -45 -9 -82q0 -12 1 -23q57 -6 111.5 -10.5 t103.5 -4.5q129 0 221 25l15 241q10 55 13 99q2 26 2 47q0 14 -1 26q-2 14 -6 24.5t-6 16.5h-55q-473 0 -654 -112q-41 -23 -56 -153q-11 -93 -11 -239q0 -59 2 -126q-39 -16 -62 -17q-16 0 -35.5 14.5t-23.5 14.5q-14 0 -19 -4z" />
<glyph unicode="g" horiz-adv-x="1316" d="M94 602q18 -106 86 -311q43 -123 76 -193.5t61 -93.5q14 -10 61.5 -16t133.5 -6h45q90 0 201 151q84 117 127 177.5t51 70.5l-31 510q-78 70 -219 131q-135 -170 -209 -545l131 -37q45 164 79 267.5t61 146.5l83 -41l-49 -432l-61 -156q-134 -159 -208 -159h-1 q-100 0 -182 550v2q0 117 100 330q94 193 186 295q20 27 170 27q39 0 98.5 -6.5t137.5 -16.5l27 -721q4 -160 6 -272q1 -38 1 -70q0 -65 -3 -108q-12 -457 -99 -461q-10 0 -17 -2t-13 -4h-31q-68 0 -195 9t-313 32q-16 -41 -39 -64q377 -90 479 -90q35 0 84 14.5t113 47.5 q59 31 101 61.5t71 58.5l4 1227v65q0 245 27 396h-30q-560 0 -718 -74q-123 -57 -262 -307q-123 -218 -123 -350q0 -17 2 -33z" />
<glyph unicode="h" horiz-adv-x="1101" d="M82 1810q0 -2 16 -4q4 -127 6 -212t2 -128l23 -385q8 -137 12 -290.5t4 -323.5t-4 -290t-12 -195q66 8 110 10t68 2q-8 25 -11 218.5t-3 555.5q0 137 61 203q51 39 99.5 76.5t91.5 76.5q16 18 49 40t82 50q96 51 139 52q27 0 27 -72q0 -90 -3 -90l-1 2q14 -111 20 -284 t6 -408q0 -61 -18 -172q-10 -59 -18.5 -101.5t-12.5 -64.5q-41 -57 -41 -72q0 -4 8 -4q55 0 90 1t52 3q0 -10 10 15.5t29 86.5q20 61 30.5 106.5t10.5 78.5l2 461q2 29 2 49v37v303q0 92 -4.5 149.5t-14.5 81.5q-31 6 -63 6q-33 0 -70 -5t-82 -17q-113 -18 -258 -109 q-82 -45 -134 -87t-79 -81h-18q0 47 -11 72v74q0 338 19 581q-45 -4 -79 -7t-58 1q-39 2 -58 6v9q-16 0 -16 -5z" />
<glyph unicode="i" horiz-adv-x="425" d="M92 1825q16 -92 24.5 -169t10.5 -138q57 10 100 16t74 10q6 104 13.5 173t17.5 110q-8 -2 -31 -2q-10 0 -26.5 2t-35 4t-36 4t-25.5 2q-37 0 -86 -12zM113 1333q0 -16 2 -41.5t5 -52.5t5 -52.5t2 -39.5q6 -358 6 -648.5t-6 -512.5q33 16 78 16q18 0 67 -14q36 -4 52 6 q-12 98 -20.5 182t-12.5 154l-6 178l6 289q4 252 11 393t13 172q-92 -14 -142 -21.5t-60 -7.5z" />
<glyph unicode="j" horiz-adv-x="509" d="M-457 -373l113 -86q10 -14 37 -20l6 -13l2 5q78 -39 197 -39q37 0 91 8t124 26q160 51 180 91l26 94q27 78 27 84l-10 585q-6 389 -6 578q0 117 4 217t12 182q-33 -4 -88 -6t-137 -2q20 -20 24 -139q49 -725 50 -907q0 -666 -119 -697q-14 -2 -42 -4t-69 -2q-78 0 -126 4 t-66 11l-95 57l31 92q63 31 141 31l150 -90l49 80q-39 27 -84 48t-98 42q-53 -4 -117.5 -16.5t-140.5 -39.5q-66 -109 -66 -174zM106 1825q16 -92 23.5 -169t9.5 -138q57 10 100.5 16t75.5 10q4 104 12.5 173t18.5 110q-16 -3 -35 -3t-41 3q-35 4 -53 7t-24 3q-47 0 -87 -12 z" />
<glyph unicode="k" horiz-adv-x="1099" d="M92 1772q2 -90 4 -150.5t6 -95.5q20 -401 30.5 -615.5t12.5 -248.5l13 -213q11 -211 11 -330q0 -107 -9 -139q41 4 76.5 6t64.5 2h31q14 0 28 -2q-43 279 -43 333v5q-10 88 -15 145t-5 88t4 33q57 37 97 65.5t65 46.5q53 -59 111.5 -146t123.5 -204q72 -127 116 -222 t58 -161q16 16 64 19q66 4 101.5 10t45.5 12q-223 336 -360 525.5t-184 238.5q135 88 190 148q244 236 340 460q-53 -6 -87 -10t-54 0q-10 -20 -19.5 -40.5t-17.5 -39.5q-426 -500 -600 -567q-4 92 -7 232.5t-3 334.5q0 416 12 490q-29 -6 -77 -8t-124 -2z" />
<glyph unicode="l" horiz-adv-x="497" d="M92 1749q35 -48 35 -112v-13q-2 -49 -2 -76t-4 -32q23 -236 32 -424.5t9 -339.5l-2 -770q113 22 193 22q27 0 50 -2q-51 96 -51 350q0 123 -12 381q-6 129 -8 224.5t-2 160.5q2 236 10 398.5t25 255.5q-125 -23 -273 -23z" />
<glyph unicode="m" horiz-adv-x="1810" d="M92 1366q37 -31 37 -80v-72q0 -20 -2 -18q45 -244 45 -842q0 -131 -4 -225t-12 -154q116 25 182 25h10q-24 120 -24 496v30q0 283 6 312q12 123 143 266q133 143 252 143q33 0 68 -73q16 -35 25 -65t13 -52q8 -88 12.5 -194.5t4.5 -231.5q0 -133 -2 -294t-8 -355 q37 8 81 10t97 2q-16 53 -17 330q0 371 19 524q10 59 52 125.5t122 138.5q152 143 276 143q78 0 78 -409q0 -147 -4 -363.5t-12 -507.5q68 6 112 7q41 0 70 -7q-6 29 -10 137.5t-4 301.5q0 72 2 174t6 239q6 139 8 242.5t2 173.5q0 86 -2 94q-12 41 -90 41q-33 0 -81 -3 t-113 -13q-84 -12 -238 -129q-154 -121 -193 -197h-17q0 10 1.5 27.5t1.5 28.5q0 113 -3.5 181t-14.5 93q-16 2 -33 2h-33q-47 0 -98 -4t-107 -10q-88 -6 -221 -121q-127 -111 -162 -197h-20v338q-93 -12 -150 -12q-31 0 -51 4z" />
<glyph unicode="n" horiz-adv-x="1124" d="M92 1366q41 -248 61.5 -408.5t20.5 -242.5q0 -205 -12 -388.5t-35 -346.5q35 18 82 33.5t104 31.5q-9 35 -9 136q0 58 3 138q6 123 8 191t2 84v209t-2 84q10 61 58 121q27 37 75 72.5t117 70.5q137 70 232 70q41 0 41 -283q0 -266 -9.5 -508t-31.5 -465q88 21 145 29 q46 7 75 6h13q-63 74 -64 197q0 23 1.5 55.5t3.5 77.5q4 43 7 76.5t3 58.5q0 74 3 183.5t11 256.5q12 152 16.5 262.5t4.5 184.5q0 30 -64 30h-4l-174 -20q-121 -12 -258 -74q-164 -61 -219 -139h-16q2 14 2 33q-1 22 -3 51q-4 55 -12 139q-47 -4 -81.5 -7t-57.5 -3 q-27 0 -37 4z" />
<glyph unicode="o" horiz-adv-x="1085" d="M78 647q-2 -12 -2 -28q0 -37 10 -89q14 -76 51 -192l80 -250v-6q0 -61 20.5 -80.5t88.5 -19.5q272 0 465 77q66 20 151 326q79 269 80 369q0 13 -2 24q-8 47 -30.5 125t-57.5 187q-104 292 -186 292h-1q-96 -23 -156.5 -36t-82.5 -17q-119 -23 -198 -42t-120 -32 q-18 -18 -43 -192q49 4 76 7t35 3q12 115 29 123q72 18 118 30.5t62 16.5q80 27 170 27q57 -16 80 -74q53 -197 79.5 -316.5t26.5 -164.5q2 -9 2 -22q0 -79 -61 -318q-35 -127 -49 -215q-51 -88 -211 -88q-53 0 -84 6t-41 16q-2 6 -6 32t-13 75q-18 55 -28.5 86.5 t-12.5 42.5l-96 334l29 219q57 41 180 41q47 0 62 -9l18 -235l-29 -365l135 -6q10 39 17.5 129t11.5 232q0 23 -11 115t-34 255q-19 1 -40 1q-84 0 -198 -19q-72 -14 -130 -31.5t-103 -40.5z" />
<glyph unicode="p" horiz-adv-x="1435" d="M92 -481q29 -4 92.5 -23.5t161.5 -50.5q14 117 22.5 220.5t8.5 197.5q-4 23 -6 38t-2 25l49 1104q14 4 41.5 16.5t68.5 38.5q45 29 77 42.5t50 13.5q25 0 109 39q45 18 72 18q15 0 24 -6q80 -72 127 -129t66 -96q59 -131 88.5 -201t29.5 -86l-6 -29q-61 -559 -207 -559 q-100 0 -239 158l-66 153l-45 435l82 39q27 -41 61.5 -146.5t75.5 -271.5l134 49q-35 184 -86.5 318.5t-122.5 222.5q-143 -63 -217 -136l-27 -510l176 -245q113 -154 197 -154h45q166 0 198 27q51 45 131 284q66 205 84 316q3 18 3 38q0 126 -123 343q-139 256 -261 305 q-8 4 -32 4q-82 0 -291 -80q-72 -29 -121 -50.5t-74 -31.5q-18 -2 -22 33q-6 6 0 63v6q0 36 -49 46h-4l-168 -2q43 -305 43 -750q0 -233 -9.5 -401t-25.5 -275q-25 -145 -113 -360zM346 1309q8 -2 19 -2q-4 0 -9.5 1t-9.5 1z" />
<glyph unicode="q" horiz-adv-x="1435" d="M94 631q18 -121 86 -316q86 -242 135 -284q33 -27 195 -27h45q90 0 201 154q53 78 95 138t77 107l-25 510q-74 70 -219 136q-72 -88 -123 -222.5t-86 -318.5l133 -49q82 336 137 418l82 -39l-45 -435l-63 -153q-141 -160 -209 -160q-96 0 -178 549v2q0 131 96 330 q45 94 89 167.5t93 131.5q22 22 160 22h12q41 0 99.5 -4t136.5 -12l49 -1278v-72q0 -18 -2 -33.5t-4 -25.5v-4q0 -94 8 -197.5t23 -220.5q100 31 162.5 50.5t91.5 23.5q-90 219 -115 360q-20 117 -28.5 326t-8.5 516q0 221 6 387t21 281q-63 1 -122 1q-478 0 -622 -73 q-113 -57 -260 -309q-70 -125 -101 -218q-24 -71 -24 -126q0 -17 2 -33z" />
<glyph unicode="r" horiz-adv-x="856" d="M92 1339l35 -399q14 -180 22.5 -306t8.5 -202q0 -123 -8.5 -236.5t-24.5 -220.5q99 20 168 20q16 0 31 -1q-28 94 -28 378q0 52 1 109l4 209v238q6 16 13.5 36.5t17.5 43.5q10 27 135 122q129 100 156 101q70 0 124 -6t95 -17q3 9 3 28.5t-3 49.5q-4 29 -1 48.5t7 33.5 q-35 6 -67.5 8t-61.5 2q-80 0 -131 -12q-6 -8 -49 -34.5t-121 -76.5q-100 -59 -127 -143l-19 -33q-2 111 -2 183q0 74 4 110q-70 -16 -113.5 -24.5t-68.5 -8.5z" />
<glyph unicode="s" horiz-adv-x="989" d="M92 831l88 -112l361 -64l133 -77l45 -170q16 0 10 -25q-35 -186 -76 -190q-6 -4 -22.5 -16.5t-44.5 -39.5q-53 -47 -66 -47h-162q-57 0 -67 2q-57 102 -58 168v92q51 12 109 13q53 0 109 -13l-41 -133l110 6q53 122 53 208q0 16 -2 32q-115 12 -211 12q-66 0 -122 -5 t-101 -21l-10 -240q-18 -63 -18 -93q0 -9 2 -16q4 -33 10 -41l53 -61q12 -18 76 -18q141 0 366 61q31 8 66 28.5t76 53.5l90 78q31 18 24 53q-6 70 -10 105.5t-4 37.5v88l-10 129l-193 105l-331 57l-56 103q0 82 6 135q41 184 78 192q18 4 70 52q49 49 65 49h162q57 0 70 -2 q29 -47 42 -87t13 -77v-92q-51 -14 -106 -15q-55 0 -113 15l47 131l-115 -6q-55 -136 -55 -226v-12q63 -10 118.5 -13t104.5 -3q61 0 115.5 5t101.5 21l9 240q14 70 14 82q-2 14 -2 22q0 10 -2 15l-60 92q-8 20 -71 20q-70 0 -161 -14t-202 -43q-53 -12 -133 -74 q-18 -14 -44.5 -36.5t-61.5 -57.5q-29 -12 -33 -53l-14 -158q-4 -16 -5 -29v-14z" />
<glyph unicode="t" horiz-adv-x="720" d="M25 1309q16 2 42.5 -2t67.5 -19q41 -10 68.5 -16t44.5 -6q-2 -123 -2 -242v-242q0 -135 2 -328.5t8 -449.5q0 -9 32 -9q19 0 48 3q104 6 119 6q-49 604 -49 731l-7 326v186q20 0 47 4t64 11q35 6 62.5 10t45.5 4h62q27 0 45 -4h18q10 33 18.5 56.5t18.5 43.5 q-135 -12 -228 -17t-146 -9q1 68 1 125q1 71 -1 126q-2 99 -9 150q-68 -20 -111.5 -33.5t-62.5 -21.5q25 -201 25 -297q-29 -16 -55 -17q-18 0 -78 27q-49 25 -56 25h-8q-4 0 -8 -3z" />
<glyph unicode="u" horiz-adv-x="1083" d="M92 1147l10 -1004v-22q-4 -10 -6 -20.5t-2 -16.5v-41q0 -63 66 -63q49 0 80 6l45 12q168 53 277.5 96t162.5 74v-31q25 -98 43 -143q2 4 14 4h31q27 0 70 -6t67 -6q27 0 41 8q-82 117 -82 563v506q0 174 49 309q-33 -4 -61 -4h-49q-33 0 -58.5 2t-44.5 4q7 -49 9 -103 q0 -15 1 -30q0 -42 -3 -90q-4 -41 -4 -84q0 -41 -3 -84q-2 -23 -2 -37v-22q0 -129 -2 -212t-6 -118q-18 -182 -102 -320q-16 -18 -55 -37.5t-111 -41.5q-57 -20 -103.5 -28.5t-82.5 -10.5q-23 82 -32 198.5t-9 270.5q0 238 12 425t39 324q-78 -18 -126 -29.5t-71 -11.5 q16 -10 17 -47q0 -25 -9.5 -70t-9.5 -69z" />
<glyph unicode="v" horiz-adv-x="993" d="M16 1323q25 -66 41.5 -114t26.5 -83q31 -49 51.5 -107t34.5 -128l47 -256q104 -545 105 -666q33 17 99 17h7q40 -3 69 -3t46 3q29 80 82 235.5t127 386.5q84 256 123.5 397.5t39.5 176.5q0 33 27 94q33 65 33 92v14t-2 15q-72 -16 -123 -22.5t-88 -6.5l-29 -149 q-12 -51 -17 -90t-5 -68q0 -92 -19.5 -205t-54.5 -254q-74 -262 -158 -440h-16q-176 911 -246 1216q-66 -20 -116 -34.5t-85 -20.5z" />
<glyph unicode="w" horiz-adv-x="1687" d="M16 1372q27 -63 48.5 -134t37.5 -155q53 -254 83 -388t32 -154q92 -528 92 -559q32 19 86 19q12 0 25 -1q47 -1 73.5 -1t32.5 1q113 375 176.5 605.5t81.5 322.5l41 30q57 -201 98.5 -442.5t63.5 -533.5q59 16 103 21q24 3 44 3q16 0 29 -2q166 369 264.5 637t131.5 442 q29 90 56 168t56 146q-61 -18 -115.5 -31.5t-101.5 -19.5q0 -74 -39 -197q-16 -66 -25.5 -111t-11.5 -77q-84 -260 -145.5 -452t-104.5 -321h-12q-72 242 -127 515.5t-96 582.5q0 14 -64 41q-27 12 -40 17.5t-17 9.5q1 -3 1 -9q0 -39 -36 -196q-27 -135 -59.5 -256 t-69.5 -231q-66 -201 -105.5 -319t-56.5 -155h-10l-114 609q-49 256 -82 402.5t-47 184.5q-47 -8 -82 -12t-58 -4q-27 0 -37 4z" />
<glyph unicode="x" horiz-adv-x="1087" d="M23 0q18 10 157 10h64q0 27 49 101q49 76 53 94q98 199 209 362h10l305 -602q33 20 63 28.5t58 8.5h53q-29 45 -76.5 133t-119.5 219q-63 123 -110.5 203t-78.5 121q193 291 301.5 465t131.5 231q-104 -12 -173 -12q-38 0 -65 4q2 -12 -1 -31.5t-13 -46.5 q-31 -74 -31 -90q-55 -217 -195 -440h-10q-86 162 -157.5 314.5t-131.5 299.5q-78 -12 -130 -16q-35 -3 -56 -3q-11 0 -18 1q125 -156 182 -219q82 -164 137 -284t90 -204q-150 -197 -241 -316.5t-125 -168.5q-8 -10 -22.5 -27.5t-43.5 -46.5q-27 -29 -43 -50.5t-22 -37.5z " />
<glyph unicode="y" horiz-adv-x="1083" d="M92 -408q371 -86 479 -86q84 0 197 64q53 27 97 55.5t75 61.5q-2 199 -2 377q0 358 8 636q12 418 45 666q-41 -4 -72.5 -7t-60.5 -3q-23 0 -40 2t-32 4q4 -29 7.5 -182.5t3.5 -434.5q0 -221 -19 -301q-16 -51 -43.5 -93t-72.5 -77q-125 -90 -204 -135t-116 -45 q-49 289 -49 731q0 162 8 299.5t29 247.5q-66 -4 -114 -5h-30q-28 0 -47 1q16 -66 17 -317q0 -66 -3 -167.5t-8 -236.5q-2 -135 -4 -236.5t-2 -168.5q0 -221 19 -240q33 -33 159 -33h35q18 0 45 2l236 113q66 33 106.5 58.5t57.5 50.5h14q2 -45 2 -91v-88q0 -369 -113 -395 q-8 -2 -16 -2h-14q-82 0 -216.5 11.5t-324.5 33.5q-10 -23 -18.5 -40t-18.5 -30z" />
<glyph unicode="z" horiz-adv-x="913" d="M12 53q10 -10 17.5 -20t17.5 -19h74q53 0 131 -4q74 -4 135.5 -6t112.5 -4q35 0 48 -2t11 -2q-4 0 -7 -1t-5 -1q10 0 12 2q25 2 56.5 5t72.5 7q59 10 101 12q19 1 35 2q20 0 36 -2q20 43 31.5 70t13.5 35q-96 -23 -265 -33t-413 -10q205 254 295 426q84 154 135.5 257 t73.5 161q90 227 133 413l-16 15q-170 -10 -301 -15.5t-230 -5.5h-90t-133 4q-6 -45 -11 -73.5t-7 -42.5q70 39 213 39q31 0 79 -3.5t113 -7.5q63 -2 110.5 -4t80.5 -2q-14 -76 -66 -192q-121 -299 -269.5 -546t-324.5 -452z" />
<glyph unicode="{" horiz-adv-x="1314" d="M53 951q2 -58 8.5 -144t12.5 -145.5t16 -92.5q31 -98 115 -139l223 -53l111 37q80 88 112 188q4 43 -5 98.5t-34 118.5q-72 98 -159 135l-121 -39q49 -31 89 -60.5t73 -59.5l26 -140q0 -16 -10 -39q4 -70 -84 -147q-51 0 -125 20q-49 33 -61 226q-4 70 -2 144.5t10 158.5 q6 96 61 112q16 8 61.5 10.5t118.5 2.5q47 0 93.5 -2t95.5 -6q2 -135 6 -289q8 -432 5 -735.5t-19 -483.5q248 0 383 -2t159 -6q6 41 8.5 64.5t2.5 27.5q-51 -4 -112.5 -7t-139.5 -3q-6 0 -33 2t-74 6l-12 295q-8 98 -10 218t-2 267q-2 160 -4 275t-7 184q-25 451 -24 645 q0 104 3 194.5t11 174.5q16 2 41 4t60 2h28q12 4 25 4h22h82q49 0 97 -12q2 41 3 67.5t1 38.5q-215 -25 -342 -18l-121 2h-101q20 -115 36 -321.5t26 -511.5q-78 4 -167 6t-194 2q-31 0 -68.5 -16.5t-86.5 -45.5q-96 -63 -101 -121q-8 -33 -6 -91z" />
<glyph unicode="|" horiz-adv-x="380" d="M92 -352q27 2 51.5 4t49.5 2h38q20 0 37 -4q-18 762 -18 1065q0 449 9.5 742.5t25.5 434.5q-35 -2 -65 -4t-58 -2h-25q-12 0 -24 4q16 -242 23 -529.5t3 -635.5q-2 -379 -12 -646t-35 -431z" />
<glyph unicode="}" horiz-adv-x="1314" d="M51 -289q51 -4 113.5 -7t138.5 -3q8 0 33.5 2t73.5 6l14 295q6 98 8 218t2 267q4 322 12 459q25 451 25 645q0 104 -3 194.5t-13 174.5q-16 2 -40 4t-59 2h-30q-10 4 -25 4h-22h-80q-51 0 -97 -12q-6 80 -6 106q217 -25 344 -18l121 2h98q-20 -115 -35.5 -321.5 t-23.5 -511.5q78 4 167 6t194 2q29 0 67.5 -16.5t85.5 -45.5q98 -66 103 -121q6 -33 4 -91t-7 -144q-8 -86 -14 -145.5t-14 -92.5q-31 -98 -117 -139l-221 -53l-111 37q-78 84 -112 188q-10 90 37 217q70 96 161 135l121 -39q-49 -31 -89 -60.5t-73 -59.5l-26 -140 q0 -16 10 -39q-4 -70 84 -147q23 0 54.5 5t68.5 15q51 33 63 226q4 70 2 144.5t-10 158.5q-8 98 -61 112q-16 8 -62.5 10.5t-118.5 2.5q-47 0 -94 -2t-96 -6q-4 -135 -6 -289q-6 -432 -3 -735.5t19 -483.5q-248 0 -384 -2t-159 -6q-8 41 -10 64.5t-2 27.5z" />
<glyph unicode="~" horiz-adv-x="1034" d="M49 1380l88 -73l113 116q47 2 84 0t63 -10q45 -45 84 -123l135 -22q66 0 110 2t69 6q86 39 170 135l18 127h-133l-33 -108l-112 -50l-101 4q-53 86 -139 154l-148 8q-102 4 -165 -33z" />
<glyph unicode="&#xa1;" horiz-adv-x="454" d="M92 1368q2 -6 7 -50t14 -126q41 -4 103 -8.5t146 -12.5l-26 183q-33 4 -92.5 8t-151.5 6zM94 1044q25 -98 35 -240t14 -331q2 -236 -3 -437.5t-19 -373.5q43 2 95.5 1t115.5 -7q-27 147 -35 352t0 473l18 563q-18 -4 -43.5 -6t-54.5 -2q-76 0 -123 8z" />
<glyph unicode="&#xa2;" horiz-adv-x="958" d="M92 588q8 -57 28.5 -135t57.5 -179q39 -111 75 -178t66 -96q18 -18 46 -18q25 0 79 12q-6 -92 -12 -166t-14 -133q49 6 98 6h39q18 0 35 -2l-4 332l16 2q72 23 114 35t52 16q63 31 78 111q6 57 9 107t5 97q-43 -2 -74.5 -3t-50.5 -1l-20 -94q-25 -111 -35 -129 q-27 -61 -96 -80q-4 229 -7.5 395t-3.5 277v301t5 227h32q59 0 70 -16q16 -90 25.5 -166t13.5 -141l135 35q2 53 2 94v78v49q0 31 -3 58.5t-9 50t-19 32.5q-18 8 -88 8q-84 0 -153 -6q2 168 24 334q-35 -6 -64.5 -8t-54.5 -2q-31 0 -49 6q6 -119 10.5 -206t8.5 -142 q-37 -10 -71 -20.5t-62 -20.5q-55 -20 -152 -332q-47 -156 -67.5 -252t-14.5 -137zM291 651q-8 31 7 117t50 223q18 63 29.5 116.5t21.5 96.5q8 20 22.5 34t37.5 24q6 -188 6 -488q-2 -207 -7 -377t-9 -307q-49 23 -84 180l-58 271q-10 41 -13 67.5t-3 42.5z" />
<glyph unicode="&#xa3;" horiz-adv-x="1105" d="M-14 655q43 4 95 8.5t114 6.5q-4 -506 -31 -690q104 6 206.5 9t194.5 5t166 3t121 1h72h20t21 -2h26q16 57 23.5 91t11.5 44q-41 -10 -106.5 -18.5t-144.5 -13.5t-164 -8t-165 -3q-55 0 -59 51q-10 106 -18.5 239.5t-12.5 297.5q233 6 564 6q9 51 38 98 q-195 -18 -602 -18q-2 37 -2 76v84q233 6 566 6q10 53 38 94q-98 -8 -248.5 -11t-355.5 -3v20q0 162 4 292t15 228q25 145 76 158q31 6 59.5 10t52.5 4h160q57 0 67 -4q57 -98 58 -162v-92q-29 -6 -54.5 -11t-54.5 -5q-27 0 -53.5 5t-54.5 11l45 129l-113 -6 q-66 -150 -53 -239q57 -6 110.5 -10.5t102.5 -4.5q127 0 223 25l14 241q10 55 12.5 99.5t0.5 72.5q-2 14 -5 24.5t-5 16.5h-58q-117 0 -231.5 2.5t-205.5 -5t-149.5 -32t-66.5 -77.5q-18 -121 -28.5 -220.5t-16.5 -182.5t-7 -153.5t-1 -133.5h-95q-45 0 -92 2 q-10 -72 -24 -111q43 4 95 8t116 8q0 -23 1 -41t1 -36q-4 -16 -4 -37v-39h-93q-45 0 -92 2q-10 -72 -24 -109z" />
<glyph unicode="&#xa4;" horiz-adv-x="1503" d="M-14 500q39 2 70.5 5t68.5 5t82 4t108 4q8 -23 18.5 -48.5t20.5 -49.5q41 -117 82 -208t82 -159q10 -18 82 -45q66 -29 92 -28l215 2q96 0 213 55q84 39 141.5 61.5t92.5 34.5l57 186l-33 156l-143 -20l41 -138l-43 -120l-119 -60q-61 -33 -109.5 -47t-89.5 -14 q-29 0 -131 22q-100 23 -106 35q-111 188 -168 389q117 2 248 3t280 1q10 52 45 99q-104 -8 -248.5 -7.5t-349.5 5.5q-14 53 -24 108t-15 115q-2 10 -2 20v27q285 6 699 6q4 23 15 47.5t30 46.5q-117 -8 -301.5 -12t-435.5 -4q10 61 30.5 135t53.5 164l75 205q57 96 287 96 q61 0 158 -53q31 -18 110 -113q37 -43 55.5 -72.5t22.5 -46.5q10 39 66 80l49 39l-49 90q-47 90 -105 121q-57 33 -91 47t-48 14q-342 0 -508 -92q-70 -37 -192 -313q-80 -176 -109 -301h-41h-25q-12 0 -27.5 1t-43.5 3q-6 -37 -14.5 -63.5t-14.5 -47.5q25 2 38 4.5 t27.5 3.5t33 3t53.5 4q-4 -51 2 -84q6 -74 37 -178q-39 -2 -70 -4.5t-59.5 -5.5t-60.5 -4t-75 -1q-16 -74 -30 -108z" />
<glyph unicode="&#xa5;" horiz-adv-x="1306" d="M68 432q86 8 204.5 13.5t272.5 9.5q-4 -221 -49 -473q72 12 124 16t82 2q0 106 17 178q-16 94 -22.5 164t-10.5 117q113 4 240 4h270q14 51 45 94q-96 -6 -234.5 -10t-320.5 -6q4 49 5 82.5t5 50.5l33 63q209 6 467 6q6 23 17.5 47.5t27.5 47.5q-166 -8 -467 -13l240 451 q72 135 122 242.5t78 187.5h-129q-35 0 -56 2t-38 4q4 -106 -33 -203q-66 -176 -138 -330.5t-150 -287.5l-15 -64q-143 305 -229 523.5t-113 355.5q-80 -4 -134 -6t-87 2q135 -287 235.5 -506t166.5 -373h-68h-160q-80 0 -172 2q-8 -35 -14 -62.5t-12 -47.5q86 6 198.5 12 t259.5 8q6 -10 9.5 -20t5.5 -17q2 -23 2 -63q0 -41 2 -94h-119h-158t-174 2q-8 -35 -14 -62.5t-12 -48.5z" />
<glyph unicode="&#xa7;" horiz-adv-x="989" d="M72 467l88 -84l362 -45l133 -57l45 -125q14 0 13 -19q-33 -135 -78 -139q-8 -4 -24.5 -13.5t-45.5 -27.5q-55 -37 -61 -37h-234q-59 80 -59 127v66q55 12 108 12q59 0 113 -12l-41 -97l113 4q59 111 51 177q-59 6 -112.5 8t-104.5 2q-66 0 -121 -4t-102 -15l-9 -178 q-20 -53 -16 -78q4 -23 8 -30l58 -49q8 -10 71 -11q145 0 373 43q61 10 137 62l97 55q29 10 24 43q-12 98 -12 105v61l-12 96l-195 78l-190 25q106 16 185 37.5t126 50.5l82 53l16 4v6q20 8 19 39l-13 78l6 55q4 23 -59 94q-59 78 -59 76l-97 37l-331 43l-60 78q0 29 2 52.5 t6 43.5q37 133 80 143q8 4 24.5 12.5t43.5 24.5q51 37 67 37h164q59 0 70 -2q57 -70 57 -119v-71q-47 -8 -110 -8q-27 0 -54.5 2t-58.5 6l47 102l-115 -8q-59 -111 -55 -178q125 -12 223 -13q66 0 120 6.5t102 16.5l10 176q6 29 10 43t4 19q-2 10 -4 16t-4 10l-59 70 q-8 16 -70 16q-143 0 -367 -45q-57 -12 -137 -51q-20 -12 -45 -30.5t-59 -43.5q-27 -8 -35 -41l-15 -117l-4 -28l-12 -80l88 -84l363 -45l10 -2q-41 -8 -83 -15.5t-91 -17.5q-55 -12 -135 -49q-37 -25 -105 -74q-31 -10 -35 -39l-12 -118l-6 -33zM246 508q0 41 1 62.5 t3 29.5q37 143 80 148q10 4 23.5 10t29.5 16q41 23 61.5 36t22.5 13h213l41 -114q14 0 12 -19q-8 -20 -12 -36.5t-8 -30.5q-16 -4 -33 -5h-29q-51 0 -112 13l47 98l-119 -8q-59 -106 -53 -176q57 -4 108.5 -7t100.5 -3q-10 -6 -18.5 -12.5t-18.5 -12.5q-53 -37 -66 -37 q-82 0 -139 -6h-49q-14 0 -29.5 2t-32.5 4z" />
<glyph unicode="&#xa8;" horiz-adv-x="729" d="M43 2165l18 -223q78 4 134.5 1.5t89.5 -4.5q8 66 2 148q-2 29 -6.5 51.5t-8.5 38.5q-74 -8 -132 -10t-97 -2zM418 2165l22 -223q78 4 132.5 1.5t89.5 -4.5q8 66 2 148q-8 57 -13 90q-78 -8 -135 -10t-98 -2z" />
<glyph unicode="&#xa9;" horiz-adv-x="1923" d="M94 735q16 -49 59.5 -117.5t116.5 -154.5q145 -174 246 -223q14 -8 39 -10.5t61 -2.5q518 0 746 76q45 16 83 40t68 60q10 8 38 45t75 103q203 272 203 307q0 49 -164 266q-74 90 -123 143.5t-78 69.5q-14 10 -114 23q-53 6 -85 10t-44 4q-442 0 -670 -65 q-53 -12 -123 -88q-16 -14 -55 -61.5t-105 -125.5q-193 -229 -174 -299zM317 774q-4 106 318 488q121 76 500 75q172 0 249 -96q16 -35 125 -180q93 -121 93 -184q23 -49 -166 -338q-29 -47 -57.5 -96.5t-57.5 -96.5q-106 -86 -494 -86q-158 0 -188 21q-53 37 -104.5 91 t-102.5 126q-53 78 -83 147.5t-32 128.5zM473 768q6 -35 26.5 -81t55.5 -107q68 -123 123 -185q10 -12 65 -30q29 -4 87.5 -8.5t150.5 -4.5q66 0 168 31q154 45 168 45l51 111l-31 92l-141 -15l35 -77l-23 -50q-172 -59 -223 -59q-10 0 -30.5 2t-55.5 8q-72 12 -74 15 q-139 164 -170 342q-6 66 119 301q39 43 197 43q41 0 110 -29q20 -8 72 -51q29 -20 42 -56t13 -83q29 82 45 94q12 18 84 51q-88 106 -133 127q-86 31 -108 31q-264 0 -381 -49q-61 -18 -152 -158q-102 -152 -90 -250z" />
<glyph unicode="&#xaa;" horiz-adv-x="1134" d="M82 1147q6 -41 22.5 -99.5t40.5 -134.5q63 -182 105 -213q20 -16 145 -16h33q68 0 150 113q59 88 93 133t42 53l-23 379q-29 27 -69.5 51.5t-94.5 50.5q-51 -66 -90 -168t-67 -243l96 -31q66 252 106 311l62 -26l-33 -324l-49 -119q-106 -119 -156 -119q-78 0 -139 412v2 q0 92 76 246q37 74 71.5 130t69.5 91q16 23 127 23q31 0 75 -3.5t103 -11.5l15 -542v-103q0 -72 5 -148.5t15 -162.5q14 2 25.5 4t21.5 -2q31 -6 45 -6q33 -4 49 -4h19q-10 23 -18.5 58.5t-14.5 84.5q-18 174 -28.5 298t-10.5 198q0 193 25 411q-438 0 -557 -53 q-94 -47 -201 -233q-104 -190 -86 -287z" />
<glyph unicode="&#xab;" horiz-adv-x="1005" d="M92 954q53 0 209 78q109 49 139 96q8 10 27.5 26.5t48.5 43.5q2 -41 8 -89t15 -101q-49 -29 -135.5 -75t-215.5 -108q150 -168 246 -166q41 0 107 -30q0 -59 6 -170q-17 -13 -21 -13q-6 0 -32 23l-23 23q-10 0 -55 28.5t-123 89.5q-72 55 -119 94t-70 62q-4 92 -8 138 t-4 50zM494 922q57 0 208 75q53 27 87 50.5t51 48.5q10 8 29.5 24.5t48.5 44.5q2 -41 8 -90t14 -102q-49 -27 -135 -73t-215 -109q145 -166 246 -164q23 0 48 -8.5t58 -24.5q0 -61 6 -168q-6 -4 -11 -9t-9 -5t-13.5 6t-19.5 16l-23 23q-27 0 -178 121q-72 55 -119 94t-71 61 q-4 92 -7 138.5t-3 50.5z" />
<glyph unicode="&#xac;" horiz-adv-x="1351" d="M109 1419h98v117h235v-641h-286v-836h1689q117 0 195 54q94 64 94 166q0 168 -168 217q59 29 87 72.5t28 109.5q0 39 -10.5 66.5t-28.5 52.5h6v288h-96v-190h-609v385h-473v256h107v100h-850zM254 158v639h289v739h221v-354h477v-285h-108v-100h2l155 -383h-393l-43 -97 h473l66 -159h-1139zM764 535h127v364h-127v-364zM1237 797h545q39 0 69.5 -5.5t57.5 -19.5q68 -31 67 -100q0 -33 -15 -55.5t-44 -45.5q-53 -33 -117 -32h-231v-97h211q248 0 248 -147q0 -88 -89 -119q-25 -14 -65.5 -17t-93.5 -3h-277zM1434 1180h313v-105h96v309h-96v-104 h-213v254h397l15 -188h96v288h-608v-454z" />
<glyph unicode="&#xad;" d="M92 696q326 25 916 25q4 23 15.5 47t27.5 47q-129 -8 -278.5 -11t-323.5 -3q-80 0 -160 1t-168 3q-12 -68 -29 -109z" />
<glyph unicode="&#xae;" horiz-adv-x="1923" d="M94 735q16 -49 59.5 -117.5t116.5 -154.5q145 -174 246 -223q14 -8 39 -10.5t61 -2.5q518 0 746 76q45 16 83 40t68 60q10 8 38 45t75 103q203 272 203 307q0 49 -164 266q-74 90 -123 143.5t-78 69.5q-14 10 -114 23q-53 6 -85 10t-44 4q-442 0 -670 -65 q-53 -12 -123 -88q-16 -14 -55 -61.5t-105 -125.5q-193 -229 -174 -299zM317 774q-4 96 261 418q33 -47 38 -113v-184q2 -131 2 -199t5 -71q-6 -156 -33 -244q53 2 92 2h63h70q-4 41 -7 76t-7 63q-39 401 -21 619q47 2 91 4t90 2h96q70 -6 73 -45q2 -12 3.5 -22.5t1.5 -22.5 l-146 35q-39 -10 -72.5 -29t-62.5 -45q-45 -78 -31 -162q59 -76 109.5 -133t95.5 -98q147 -152 213 -244q27 0 51.5 1t50.5 1q-6 -10 -12 -18.5t-10 -18.5q-106 -86 -494 -86q-158 0 -188 21q-53 37 -104.5 91t-102.5 126q-53 78 -83 147.5t-32 128.5zM582 1196q20 31 53 66 q121 76 500 75q172 0 249 -96q16 -35 125 -180q93 -121 93 -184q23 -49 -166 -338l-56 -95q-84 84 -154.5 159t-129.5 140q106 12 151 48q68 49 68 260q0 23 -2 38t-4 25q-2 37 -88 72q-74 33 -125 33q-166 0 -294 -6.5t-220 -16.5zM954 901q0 16 4.5 35.5t12.5 48.5 q25 10 64.5 28.5t99.5 41.5q8 -69 0 -137q-6 -80 -33 -95q-27 -6 -48.5 -8t-37.5 -2q-55 33 -55 59q-2 6 -4.5 14.5t-2.5 14.5z" />
<glyph unicode="&#xb0;" horiz-adv-x="755" d="M72 1518q68 -121 170 -207q41 -4 78.5 -6t76.5 -2q35 0 68 2t67 6l154 114q31 127 0 277q-12 57 -108 106q-139 -53 -236 -129l-49 -161l104 -78l45 47l-65 39l41 123l145 75l33 -45q6 -43 6 -82q0 -66 -22 -143l-105 -80q-18 -2 -39.5 -3t-44.5 -1t-46 1t-52 3 q-66 51 -125 162q-12 80 43 193l143 73l-86 39l-133 -94q-16 -23 -27.5 -48.5t-17.5 -60.5q-2 -10 -6 -39.5t-12 -80.5z" />
<glyph unicode="&#xb1;" d="M92 180q164 16 392.5 21.5t523.5 5.5q10 51 43 96q-129 -8 -278.5 -12t-323.5 -4h-160t-168 4q-12 -70 -29 -111zM92 696q86 8 191.5 13.5t228.5 9.5v-51q0 -49 -1 -108.5t-3 -129.5q47 -6 85 -9t62 -7q-10 63 -17 139t-13 166q88 2 182 2h201q4 23 15.5 47t27.5 47 q-94 -4 -201 -8t-227 -6q-4 61 -5 129v139q-31 4 -63.5 12.5t-67.5 20.5q10 -66 15.5 -140.5t7.5 -160.5h-61q-72 0 -153 1t-175 3q-12 -68 -29 -109z" />
<glyph unicode="&#xb2;" horiz-adv-x="870" d="M139 729l23 -55q176 8 282.5 12t145.5 4h61q29 0 51 -4q8 41 14.5 70.5t12.5 48.5q-123 -29 -229.5 -41t-206.5 -16q20 29 22 75l4 80q8 61 67.5 131t176.5 146q45 29 72 48t41 34q25 25 24 90q0 53 -4 112.5t-16 124.5q-27 180 -86 180q-78 0 -197 -36 q-121 -33 -186 -76q-14 -18 -14 -53q0 -57 22 -138l49 -49q35 -12 74 -16t88 -4q31 29 50.5 57.5t29.5 58.5q-25 0 -47.5 6.5t-48.5 16.5q-6 -41 -29 -68l-28.5 9.5t-37.5 13.5q0 133 5 135q43 49 196 49q18 0 35 -84q8 -70 10 -135t-2 -129q-4 -29 -131 -117 q-252 -178 -258 -362q0 -84 -35 -119z" />
<glyph unicode="&#xb3;" horiz-adv-x="913" d="M137 881q0 -29 8.5 -58.5t22.5 -55.5t34.5 -43t47.5 -24v-4q162 2 227 23q152 39 203 94q16 18 33.5 63.5t34.5 112.5q35 139 26 187q0 18 -8 22q-10 16 -35.5 28.5t-68.5 16.5q113 18 112 66q4 23 -26 149q-57 219 -68 234q-49 53 -203 96q-16 8 -35 8q-33 0 -96 -22 q-68 -23 -96 -23v-4q-16 -6 -31.5 -16.5t-30.5 -26.5q-23 -33 -36 -66.5t-13 -68.5q0 -39 17 -92q51 -31 109.5 -50.5t129.5 -29.5l150 24l-49 78l-113 -20q-74 2 -133 39q-4 14 -6 28.5t-2 28.5q0 10 2 21.5t6 25.5l57 37l17 10q41 -4 102 14q31 8 54.5 13.5t39.5 5.5 t23 -10q31 -12 67 -211q10 -53 16.5 -86t4.5 -49q-2 -6 -4 -12.5t-4 -10.5q-51 -37 -326 -35l-4 -90q283 0 330 -35q2 -8 4 -12l4 -8q2 -31 -2 -76t-19 -100q-25 -133 -67 -154q-63 -33 -213 -33l-23 11l-57 34q-4 10 -6 21.5t-2 25.5q0 16 2 28.5t6 27.5q55 31 133 43 l113 -27l49 78l-150 29q-141 -18 -239 -78q-18 -49 -19 -92z" />
<glyph unicode="&#xb4;" horiz-adv-x="1374" d="M459 1800q127 6 176 0q49 80 82 137.5t51 92.5q47 82 77 133.5t46 74.5q-29 -6 -79 -12t-126 -16z" />
<glyph unicode="&#xb5;" horiz-adv-x="1083" d="M92 -487q18 -6 41 -7q25 0 69 6.5t68 6.5q39 0 45 -6q16 164 27.5 318.5t17.5 305.5v31l-2 4h2v-4q41 -23 135.5 -58.5t241.5 -84.5q31 -174 267 -326q-10 23 -23.5 47.5t-26.5 48.5q-68 129 -67 168q0 12 6 12q96 25 96 68v41q0 6 -2 16.5t-4 20.5l8 1026q0 25 -9 70 t-9 69q0 35 16 47q-20 0 -68.5 11.5t-127.5 29.5q53 -279 53 -749q0 -301 -41 -469q-35 2 -83 10t-106 29q-72 23 -110.5 42t-54.5 37q-84 143 -103 320q-2 35 -4 117t-2 209q0 -2 -1 19.5t-3 66.5q-2 47 -4 83.5t-2 61.5q-2 125 6 223q-18 -2 -44 -4t-56 -2h-54 q-27 0 -57 4q47 -137 47 -309v-506q0 -285 -18 -604q-27 -387 -64 -440z" />
<glyph unicode="&#xb6;" horiz-adv-x="1435" d="M78 938q10 -61 29.5 -139t54.5 -176q82 -238 135 -285q29 -23 197 -23h45q90 0 196 150q35 53 68 97t61 85l15 -344v-340q0 -43 -7 -61v-4q0 -188 31 -418q25 8 55.5 12t71.5 4q70 0 180 -12q49 -6 76 -10t35 -4q-10 29 -34.5 56.5t-65.5 55.5q-43 37 -74 63.5t-45 49.5 q-57 84 -58 219q0 14 -6 130t-16 333q-8 209 -12 370.5t-4 282.5q0 186 4 330.5t12 255.5h176q12 -160 17.5 -342t3.5 -393q-2 -377 -14.5 -644.5t-33.5 -431.5q25 2 50.5 4.5t48.5 2.5h37q20 0 39 -5q-10 383 -14.5 647.5t-4.5 417.5q0 276 8 484.5t27 349.5q-43 -2 -77 -3 t-58 -1l-246 -4q-123 0 -209 -4t-139 -13q-88 -14 -170 -57q-123 -53 -266 -307q-137 -248 -119 -379z" />
<glyph unicode="&#xb7;" horiz-adv-x="430" d="M94 1055l21 -224q78 2 134 1t89 -3q4 35 4 70q0 37 -2 76q-2 29 -6 51.5t-8 38.5q-74 -6 -132.5 -8t-99.5 -2z" />
<glyph unicode="&#xb8;" horiz-adv-x="958" d="M272 -176q-18 -123 0 -225l123 -95q25 -4 50.5 -6t48.5 -2q31 0 59.5 2t56.5 6q80 72 135 174q-6 41 -8 67t-4 32q-6 51 -37 92l-94 207l-92 -43l113 -197q37 -82 28 -137q-39 -82 -84 -117q-18 -2 -37 -2h-32h-31q-12 0 -25 2l-69 56q-18 51 -19 102q0 16 2 31.5t6 29.5 l19 23l92 -49l21 -82l-50 -37l50 -53l92 73l-41 136q-78 63 -183 108q-78 -43 -90 -96z" />
<glyph unicode="&#xb9;" horiz-adv-x="544" d="M78 1526q16 -14 22 -26.5t11 -22.5q10 2 20 3t27 1q18 0 58 -6.5t58 -6.5q12 0 21.5 2.5t17.5 6.5q6 -496 6 -551q-4 -104 -9 -185.5t-13 -140.5q150 25 170 25l-18 161q-6 45 -11.5 164t-5.5 316q0 190 5 301.5t12 146.5h-35q-78 -59 -162 -107t-174 -81z" />
<glyph unicode="&#xbb;" horiz-adv-x="1005" d="M92 426q8 -4 12.5 -9t8.5 -5t13 6t19 16l23 23q27 0 178 121q72 55 119 94t72 61q4 92 7 138.5t3 50.5q-55 0 -209 75q-53 27 -87 50.5t-50 48.5q-10 8 -28.5 24.5t-47.5 44.5q-4 -41 -10 -90t-13 -102q47 -27 133.5 -73t215.5 -109q-145 -166 -246 -164 q-23 0 -48.5 -8.5t-58.5 -24.5q0 -61 -6 -168zM494 459q16 -13 20 -13q10 0 33 23l22 23q10 0 55.5 28.5t123.5 89.5q72 55 118.5 94t71.5 62q4 92 7 138t3 50q-53 0 -209 78q-106 49 -137 96q-10 10 -29.5 26.5t-48.5 43.5q-2 -41 -8 -89t-14 -101q49 -29 135 -75t215 -108 q-147 -168 -246 -166q-43 0 -106 -30q0 -59 -6 -170z" />
<glyph unicode="&#xbc;" horiz-adv-x="1810" d="M82 1526q16 -14 22.5 -26.5t8.5 -22.5q10 2 20 3t25 1q23 0 61.5 -6.5t61.5 -6.5q10 0 17 2.5t17 6.5q4 -248 6.5 -385.5t-2.5 -165.5q-2 -104 -7 -185.5t-11 -140.5q147 25 166 25l-18 161q-4 45 -6.5 164t-2.5 316q0 190 2 301.5t9 146.5h-37q-78 -59 -160 -107 t-172 -81zM188 -233q57 -8 97.5 -16.5t68.5 -18.5q96 236 222 510t280 592q170 356 302 606.5t226 400.5q-96 12 -165 41q-162 -356 -279 -606t-188 -404q-199 -418 -340.5 -691t-223.5 -414zM950 383q0 -8 4 -18q150 8 262.5 12t188.5 4q2 -49 -3 -143.5t-20 -235.5 q78 8 129 2q-2 41 -3 70.5t-1 52.5l25 6q-8 55 -13.5 122t-5.5 144h91h43t34 -2q18 59 48 84q-78 -6 -129.5 -10t-75.5 -4q-4 63 -7.5 123.5t-3.5 118.5q0 111 6.5 207t16.5 182q-70 -2 -120 -1t-79 5q-37 -59 -85 -148.5t-111 -208.5l-88 -161q-61 -111 -68 -142 q-2 -2 -9 -11t-16.5 -23.5t-9.5 -24.5zM1108 449q131 350 281 536q6 -78 8 -153.5t2 -151.5q0 -55 -1 -110.5t-3 -114.5q-166 -6 -287 -6z" />
<glyph unicode="&#xbd;" horiz-adv-x="1738" d="M111 1526q14 -14 20 -26.5t8 -22.5q12 2 22.5 3t26.5 1q20 0 59.5 -6.5t59.5 -6.5q8 0 16.5 2.5t18.5 6.5q4 -248 7 -385.5t-1 -165.5q-2 -104 -7 -185.5t-11 -140.5q147 25 168 25l-23 161q-6 45 -8 164t-2 316q0 190 4 301.5t8 146.5h-35q-78 -59 -160.5 -107 t-170.5 -81zM217 -233q57 -8 97 -16.5t69 -18.5q96 236 220 510t278 592q172 356 304 606.5t228 400.5q-92 12 -170 41q-160 -356 -275.5 -606t-187.5 -404q-199 -418 -338 -691t-225 -414zM1044 43l19 -57q178 10 284.5 13t147.5 3h59q31 0 54 -2q12 84 26 115 q-123 -25 -230.5 -37.5t-207.5 -16.5q20 33 23 72l6 84q12 119 241 277q88 51 111 77q25 27 25 93q0 55 -6.5 113.5t-16.5 123.5q-25 180 -80 180q-82 0 -201 -37q-121 -39 -184 -75q-12 -12 -12 -51q0 -31 5 -65t17 -73l47 -51q63 -20 160 -20q33 29 52.5 58.5t29.5 59.5 q-49 0 -96 21q-6 -23 -12.5 -39t-16.5 -27q-14 4 -30.5 8.5t-32.5 14.5q0 133 2 135q45 49 194 49q25 0 37 -86q8 -70 10 -135.5t-2 -128.5q-2 -16 -33.5 -43t-95.5 -74q-254 -176 -258 -362q0 -82 -35 -117z" />
<glyph unicode="&#xbe;" horiz-adv-x="1810" d="M45 881q0 -29 7 -58.5t21.5 -55.5t35 -43t47.5 -24v-4q162 2 229 23q145 39 201 94q18 18 34.5 63.5t32.5 112.5q33 135 25 187q0 18 -4 22q-12 16 -39 28.5t-72 16.5q115 18 115 66q2 14 -3 51t-22 98q-55 221 -67 234q-29 29 -79 51t-122 45q-16 8 -39 8q-29 0 -96 -22 q-33 -10 -55.5 -16.5t-38.5 -6.5v-4q-37 -12 -64 -43q-47 -66 -47 -135q0 -47 14 -92q51 -31 109.5 -50.5t128.5 -29.5l158 24l-52 78l-116 -20q-72 2 -131 39q-6 27 -6 57q0 18 6 47l61 37l16 10q16 0 43 5t54.5 11.5t53.5 11.5t42 5q14 0 25 -10q27 -12 65 -211 q25 -104 19 -135q-2 -6 -4.5 -12.5t-4.5 -10.5q-47 -39 -321 -35l-2 -90q137 0 219 -8t104 -27q2 -8 4 -12t5 -8q10 -63 -19 -176q-27 -131 -65 -154q-59 -33 -218 -33l-16 11l-61 34q-6 18 -6 47q0 27 6 56q55 31 131 43l116 -27l48 78l-154 29q-139 -18 -238 -78 q-14 -45 -14 -92zM225 -233q57 -8 99.5 -16.5t70.5 -18.5q94 236 218 510t280 592q170 356 301 606.5t227 400.5q-94 12 -166 41q-162 -356 -277.5 -606t-186.5 -404q-199 -418 -339.5 -691t-226.5 -414zM989 383q0 -4 6 -18q147 8 259 12t190 4q2 -49 -3 -143.5t-22 -235.5 q78 8 129 2q-2 41 -3 70.5t-1 52.5l27 6q-10 55 -13.5 122t-3.5 144h91h38q19 0 33 -2q12 29 23.5 50.5t25.5 33.5q-78 -6 -129 -10t-77 -4q-2 63 -3.5 123.5t-1.5 118.5q0 111 4.5 207t16.5 182q-72 -2 -120 -1t-81 5q-35 -59 -84 -148.5t-114 -208.5l-84 -161 q-29 -55 -46.5 -90t-23.5 -52l-16 -22q-17 -21 -17 -37zM1147 449q126 350 280 536q4 -78 6.5 -153.5t2.5 -151.5q0 -109 -6 -225q-164 -6 -283 -6z" />
<glyph unicode="&#xbf;" horiz-adv-x="923" d="M92 281q0 -98 7 -188.5t22 -168.5q45 -270 117 -270q109 0 297 55q92 29 162.5 56.5t117.5 58.5q18 17 16 74q-4 29 -7 74.5t-13 109.5l-6 12l-70 78q-102 31 -239 25q-41 -35 -69 -75t-42 -79q53 0 123 -27q12 61 47 95q53 0 109 -33l10 -2q0 -213 -12 -226 q-66 -78 -310 -77q-51 0 -65 137q-10 100 -14.5 202.5t-2.5 206.5q12 47 205 189q88 59 103 213q8 63 0 143q-6 53 6 72q-12 -8 -27 -8q-10 0 -25.5 3t-33 8t-32.5 8t-24 3q-27 0 -32 -55q-4 -41 -8.5 -80t-6.5 -80q-18 -145 -104 -196q-72 -47 -112 -75t-50 -44 q-37 -49 -37 -139zM354 1083q53 6 110.5 11.5t123.5 9.5l12 188q-78 -4 -134 -1t-89 7q-12 -78 -18.5 -131t-4.5 -84z" />
<glyph unicode="&#xc0;" horiz-adv-x="1374" d="M92 -6q92 10 141.5 12t59.5 -4q45 215 90 391t90 320q199 -10 295 2q12 18 29 119q-41 117 -70 182t-43 82l-98 -2q45 -86 69.5 -146.5t34.5 -95.5q2 -6 1 -18.5t-5 -26.5q-35 -12 -78 -12q-18 0 -48 2t-71 6l213 719h11l178 -727q86 -362 133 -563t55 -248q45 27 101 16 q73 -6 104 0q-55 82 -110 299q-59 231 -91 359t-39 151q-76 291 -123 504t-63 354q-86 -2 -139 -2t-80 4q-449 -1503 -547 -1677zM473 2238q80 -147 142.5 -256.5t109.5 -181.5q51 6 178 0l-229 410q-76 10 -124 16t-77 12z" />
<glyph unicode="&#xc1;" horiz-adv-x="1374" d="M92 -6q92 10 141.5 12t59.5 -4q45 215 90 391t90 320q199 -10 295 2q12 18 29 119q-41 117 -70 182t-43 82l-98 -2q45 -86 69.5 -146.5t34.5 -95.5q2 -6 1 -18.5t-5 -26.5q-35 -12 -78 -12q-18 0 -48 2t-71 6l213 719h11l178 -727q86 -362 133 -563t55 -248q45 27 101 16 q73 -6 104 0q-55 82 -110 299q-59 231 -91 359t-39 151q-76 291 -123 504t-63 354q-86 -2 -139 -2t-80 4q-449 -1503 -547 -1677zM473 1800q125 6 178 0q209 344 252 438q-27 -6 -77 -12t-126 -16z" />
<glyph unicode="&#xc2;" horiz-adv-x="1374" d="M92 -6q92 10 141.5 12t59.5 -4q45 215 90 391t90 320q199 -10 295 2q12 18 29 119q-41 117 -70 182t-43 82l-98 -2q45 -86 69.5 -146.5t34.5 -95.5q2 -6 1 -18.5t-5 -26.5q-35 -12 -78 -12q-18 0 -48 2t-71 6l213 719h11l178 -727q86 -362 133 -563t55 -248q45 27 101 16 q73 -6 104 0q-55 82 -110 299q-59 231 -91 359t-39 151q-76 291 -123 504t-63 354q-86 -2 -139 -2t-80 4q-449 -1503 -547 -1677zM313 1837q39 -4 87.5 -9t103.5 -11q29 49 73 135t103 215q168 -143 168 -244q0 -41 31 -104q33 0 75.5 -1t96.5 -3q12 12 12 18q0 18 -19 35 l-26 22q0 18 -123 176q-57 72 -96 118t-62 69q-92 4 -137 6t-49 2q0 -55 -76 -209q-49 -104 -92 -137q-8 -10 -25.5 -29.5t-44.5 -48.5z" />
<glyph unicode="&#xc3;" horiz-adv-x="1374" d="M92 -6q92 10 141.5 12t59.5 -4q45 215 90 391t90 320q199 -10 295 2q12 18 29 119q-41 117 -70 182t-43 82l-98 -2q45 -86 69.5 -146.5t34.5 -95.5q2 -6 1 -18.5t-5 -26.5q-35 -12 -78 -12q-18 0 -48 2t-71 6l213 719h11l178 -727q86 -362 133 -563t55 -248q45 27 101 16 q73 -6 104 0q-55 82 -110 299q-59 231 -91 359t-39 151q-76 291 -123 504t-63 354q-86 -2 -139 -2t-80 4q-449 -1503 -547 -1677zM360 1968l60 -78l78 115q14 2 24 2h23q39 0 61 -8q31 -43 58 -121l96 -23q45 0 75.5 2.5t51.5 4.5q53 41 117 133l12 131h-94l-21 -109 l-78 -49l-71 4q-20 41 -45 79t-54 75l-108 6q-35 2 -62.5 -7t-52.5 -26z" />
<glyph unicode="&#xc4;" horiz-adv-x="1374" d="M92 -6q92 10 141.5 12t59.5 -4q45 215 90 391t90 320q199 -10 295 2q12 18 29 119q-41 117 -70 182t-43 82l-98 -2q45 -86 69.5 -146.5t34.5 -95.5q2 -6 1 -18.5t-5 -26.5q-35 -12 -78 -12q-18 0 -48 2t-71 6l213 719h11l178 -727q86 -362 133 -563t55 -248q45 27 101 16 q73 -6 104 0q-55 82 -110 299q-59 231 -91 359t-39 151q-76 291 -123 504t-63 354q-86 -2 -139 -2t-80 4q-449 -1503 -547 -1677zM381 2097l18 -223q78 4 134.5 2t89.5 -4q12 66 0 147q-4 29 -7.5 50.5t-5.5 35.5q-74 -4 -132 -6t-97 -2zM752 2097l22 -223q78 4 132 2t89 -4 q8 35 9 70q0 37 -5 77q-6 29 -8 50.5t-6 35.5q-78 -4 -135 -6t-98 -2z" />
<glyph unicode="&#xc5;" horiz-adv-x="1374" d="M92 -6q92 10 141.5 12t59.5 -4q45 215 90 391t90 320q199 -10 295 2q12 18 29 119q-41 117 -70 182t-43 82l-98 -2q45 -86 69.5 -146.5t34.5 -95.5q2 -6 1 -18.5t-5 -26.5q-35 -12 -78 -12q-18 0 -48 2t-71 6l213 719h11l178 -727q86 -362 133 -563t55 -248q45 27 101 16 q73 -6 104 0q-55 82 -110 299q-59 231 -91 359t-39 151q-76 291 -123 504t-63 354q-86 -2 -139 -2t-80 4q-449 -1503 -547 -1677zM391 1939q37 -66 82 -121t98 -102q41 -2 82 -3t82 -1q33 0 68 1t69 3l164 125q35 133 0 291q-12 66 -123 123q-74 -29 -135 -65t-114 -74 l-56 -179l127 -92l70 70l-70 45l31 104l127 64l25 -31q6 -37 6 -76q0 -59 -23 -131l-92 -73q-20 -2 -41 -2h-39h-47q-23 0 -49 2q-59 47 -113 151q-6 37 4.5 80t32.5 94l172 88l-127 56l-143 -101q-20 -23 -31.5 -51.5t-19.5 -62.5q-2 -10 -6.5 -41t-10.5 -91z" />
<glyph unicode="&#xc6;" horiz-adv-x="2035" d="M92 -12q59 8 101.5 11t70.5 3q27 0 29 -2q96 215 180 391t162 318q43 -2 83 -4.5t75 -2.5q41 0 76.5 2.5t66.5 4.5q8 10 20.5 40.5t32.5 77.5q-16 117 -28.5 181.5t-22.5 83.5h-104q29 -86 41 -147.5t12 -98.5q0 -12 -15 -45q-29 -10 -79 -10l-119 10l379 712h8l14 -722 q12 -711 0 -811q43 18 88 18l-4 -10q12 6 21 6q113 4 217 6t207 2h356q-4 72 -18 96q-47 -12 -100.5 -19t-108.5 -7q-33 0 -77 3t-104 7q-59 6 -104 8t-76 2q-10 0 -78 6q-63 8 -75 4q-23 -6 -23 211q0 49 18 152q8 53 12.5 91t4.5 62q2 164 16 213q51 4 118 9.5t148 5.5h58 h106q49 0 84 2l19 70q-199 0 -332 3t-205 7q-4 303 -4 467t2 196q254 6 408.5 2t214.5 -14q4 41 6 70.5t8 54.5q-201 -16 -392.5 -26.5t-373.5 -12.5v-6q-33 2 -54.5 4t-35.5 4q-397 -754 -629.5 -1172.5t-300.5 -506.5z" />
<glyph unicode="&#xc7;" horiz-adv-x="1353" d="M94 801q8 -66 35 -161t76 -220q43 -117 83 -208t81 -159q14 -18 82 -45q66 -29 92 -28l217 2h22t29 4l84 -150q41 -82 29 -137q-37 -84 -82 -117q-20 -2 -37 -2h-31h-29q-14 0 -30 2l-68 56q-10 27 -13 53t-3 49q0 16 1 31.5t3 29.5l18 23l92 -49l21 -82l-47 -37l47 -53 l92 73l-35 136q-41 31 -88 58.5t-100 49.5q-76 -43 -90 -96q-18 -123 0 -225l123 -95q25 -4 50 -6t48 -2q33 0 62.5 2t58.5 6q80 70 131 174q-10 88 -12 99q-2 51 -37 92l-64 141q16 4 32.5 10.5t33.5 16.5q84 39 141 61.5t92 34.5l58 186l-31 156l-146 -20l41 -138 l-43 -120l-116 -60q-63 -33 -111.5 -47t-89.5 -14q-29 0 -131 22q-96 23 -107 35q-94 166 -152.5 344t-78.5 369q-16 143 88 430l78 205q53 96 285 96q61 0 157 -53q16 -10 43 -37t68 -76q37 -43 56.5 -72.5t23.5 -46.5q10 39 63 80l51 39l-51 90q-47 88 -102 121 q-57 33 -91 47t-48 14q-344 0 -510 -92q-72 -37 -191 -313q-70 -154 -101.5 -272.5t-21.5 -204.5z" />
<glyph unicode="&#xc8;" horiz-adv-x="1134" d="M92 1667q25 -100 35 -154.5t12 -68.5q16 -117 24.5 -330t8.5 -530q0 -209 -8 -355.5t-25 -234.5q147 6 282.5 8t264.5 2h358q-4 37 -8 60.5t-8 37.5q-94 -27 -215 -26q-33 0 -77 2t-103 6q-59 6 -103.5 8t-74.5 2q-4 0 -23.5 2t-54.5 6q-31 4 -50.5 6.5t-25.5 -2.5 q-20 -2 -20 209q0 25 4 63t12 89q18 106 18 156q2 84 6.5 136t10.5 75q49 6 115.5 10t152.5 4h53q119 0 193 6l14 68q-195 0 -327 3t-203 11q-8 299 -9.5 463t3.5 194q252 6 408.5 4t215.5 -12q4 82 13 121q-186 -14 -401.5 -24.5t-467.5 -14.5zM352 2238 q80 -147 143.5 -256.5t110.5 -181.5q49 6 176 0l-227 410q-76 10 -126 16t-77 12z" />
<glyph unicode="&#xc9;" horiz-adv-x="1134" d="M92 1667q25 -100 35 -154.5t12 -68.5q16 -117 24.5 -330t8.5 -530q0 -209 -8 -355.5t-25 -234.5q147 6 282.5 8t264.5 2h358q-4 37 -8 60.5t-8 37.5q-94 -27 -215 -26q-33 0 -77 2t-103 6q-59 6 -103.5 8t-74.5 2q-4 0 -23.5 2t-54.5 6q-31 4 -50.5 6.5t-25.5 -2.5 q-20 -2 -20 209q0 25 4 63t12 89q18 106 18 156q2 84 6.5 136t10.5 75q49 6 115.5 10t152.5 4h53q119 0 193 6l14 68q-195 0 -327 3t-203 11q-8 299 -9.5 463t3.5 194q252 6 408.5 4t215.5 -12q4 82 13 121q-186 -14 -401.5 -24.5t-467.5 -14.5zM352 1800q127 6 176 0 q49 80 83 137.5t53 92.5q47 82 76.5 133.5t41.5 74.5q-29 -6 -78 -12t-120 -16z" />
<glyph unicode="&#xca;" horiz-adv-x="1134" d="M92 1667q25 -100 35 -154.5t12 -68.5q16 -117 24.5 -330t8.5 -530q0 -209 -8 -355.5t-25 -234.5q147 6 282.5 8t264.5 2h358q-4 37 -8 60.5t-8 37.5q-94 -27 -215 -26q-33 0 -77 2t-103 6q-59 6 -103.5 8t-74.5 2q-4 0 -23.5 2t-54.5 6q-31 4 -50.5 6.5t-25.5 -2.5 q-20 -2 -20 209q0 25 4 63t12 89q18 106 18 156q2 84 6.5 136t10.5 75q49 6 115.5 10t152.5 4h53q119 0 193 6l14 68q-195 0 -327 3t-203 11q-8 299 -9.5 463t3.5 194q252 6 408.5 4t215.5 -12q4 82 13 121q-186 -14 -401.5 -24.5t-467.5 -14.5zM193 1837q41 -4 88 -9 t102 -11q29 49 72 135t106 215q168 -141 168 -244q0 -23 8 -47.5t23 -56.5q33 0 73.5 -1t94.5 -3q16 12 16 18q0 16 -20 35l-23 22q0 16 -123 176q-59 72 -97 118t-63 69l-138 6t-50 2q0 -55 -76 -209q-27 -53 -48 -87t-42 -50q-10 -10 -27.5 -29.5t-43.5 -48.5z" />
<glyph unicode="&#xcb;" horiz-adv-x="1134" d="M92 1667q25 -100 35 -154.5t12 -68.5q16 -117 24.5 -330t8.5 -530q0 -209 -8 -355.5t-25 -234.5q147 6 282.5 8t264.5 2h358q-4 37 -8 60.5t-8 37.5q-94 -27 -215 -26q-33 0 -77 2t-103 6q-59 6 -103.5 8t-74.5 2q-4 0 -23.5 2t-54.5 6q-31 4 -50.5 6.5t-25.5 -2.5 q-20 -2 -20 209q0 25 4 63t12 89q18 106 18 156q2 84 6.5 136t10.5 75q49 6 115.5 10t152.5 4h53q119 0 193 6l14 68q-195 0 -327 3t-203 11q-8 299 -9.5 463t3.5 194q252 6 408.5 4t215.5 -12q4 82 13 121q-186 -14 -401.5 -24.5t-467.5 -14.5zM260 2097l21 -223 q78 4 135 2t88 -4q8 66 0 147q-4 29 -6 50.5t-4 35.5q-74 -4 -133.5 -6t-100.5 -2zM633 2097l20 -223q78 4 134.5 2t89.5 -4q4 35 6 70.5t-4 76.5q-4 29 -7.5 50.5t-7.5 35.5q-74 -4 -132 -6t-99 -2z" />
<glyph unicode="&#xcc;" horiz-adv-x="442" d="M2 2238q84 -147 148.5 -256.5t109.5 -181.5q51 6 180 0l-235 410q-74 10 -124 16t-79 12zM92 -14q166 26 256 18q-72 170 -63 535l6 479q6 563 24 657q-172 -8 -223 -6q31 -66 35 -129q4 -29 0 -98q-2 -45 -4 -69.5t-2 -35.5v-4q10 -98 16 -270t6 -416q0 -471 -51 -661z " />
<glyph unicode="&#xcd;" horiz-adv-x="442" d="M2 1800q127 6 178 0q96 150 159.5 258t100.5 180q-29 -6 -79 -12t-123 -16zM92 -14q166 26 256 18q-72 170 -63 535l6 479q6 563 24 657q-172 -8 -223 -6q31 -66 35 -129q4 -29 0 -98q-2 -45 -4 -69.5t-2 -35.5v-4q10 -98 16 -270t6 -416q0 -471 -51 -661z" />
<glyph unicode="&#xce;" horiz-adv-x="442" d="M-156 1837q41 -4 89.5 -9t103.5 -11q27 49 73 135t107 215q166 -143 166 -244q0 -23 8 -47.5t23 -56.5q31 0 74.5 -1t97.5 -3q14 14 14 18q0 8 -27 35l-18 22q0 20 -125 176q-53 66 -92 112t-66 75l-138 6t-50 2q0 -55 -74 -209q-27 -51 -50 -85t-42 -52 q-10 -10 -27.5 -29.5t-46.5 -48.5zM92 -14q166 26 256 18q-72 170 -63 535l6 479q6 563 24 657q-172 -8 -223 -6q31 -66 35 -129q4 -29 0 -98q-2 -45 -4 -69.5t-2 -35.5v-4q10 -98 16 -270t6 -416q0 -471 -51 -661z" />
<glyph unicode="&#xcf;" horiz-adv-x="442" d="M-90 2097l22 -223q78 4 134.5 2t89.5 -4q4 35 4 72t-2 75q-4 29 -8.5 50.5t-6.5 35.5q-74 -4 -133 -6t-100 -2zM92 -14q166 26 256 18q-72 170 -63 535l6 479q6 563 24 657q-172 -8 -223 -6q31 -66 35 -129q4 -29 0 -98q-2 -45 -4 -69.5t-2 -35.5v-4q10 -98 16 -270 t6 -416q0 -471 -51 -661zM287 2097l20 -223q78 4 134 2t87 -4q8 35 9.5 71.5t-2.5 75.5q-4 29 -8.5 50.5t-6.5 35.5q-76 -4 -134 -6t-99 -2z" />
<glyph unicode="&#xd0;" horiz-adv-x="1427" d="M90 1157q78 6 128 11.5t75 7.5q6 -113 10 -264.5t4 -344.5q0 -195 -8 -332t-25 -221h170q23 0 23 39v1129h197q5 51 38 96q-31 -2 -57.5 -5t-44.5 -7q-10 -2 -44 -3t-91 -1v350q59 6 125.5 8t142.5 2q139 0 154 -20q27 -33 127 -275q121 -293 121 -414v-4 q0 -305 -211 -716l-97 -117q-76 2 -106 51l-41 98l29 680q2 8 12 19.5t23.5 20.5t26.5 15.5t22 6.5q23 0 34 -27l45 -106q45 -113 54 -113q12 0 14 12l98 47q-162 322 -196 322q-6 0 -15 -4q-2 10 -18 10q-47 0 -131 -59q-86 -63 -92 -101l-2 -741l39 -139q31 -23 89 -41.5 t144 -28.5l152 108l41 21l12 29q53 104 87 178t50 115q152 358 139 454v2q0 127 -143 432q-115 233 -160 285q-14 10 -36.5 25.5t-57.5 31.5q-35 18 -59.5 26.5t-38.5 8.5q-252 0 -568 -49q14 -39 18.5 -82t0.5 -92q-2 -53 -5 -88t-7 -53q4 -20 5 -43t5 -45q-43 2 -87 3 t-89 1q-12 -74 -25 -109z" />
<glyph unicode="&#xd1;" horiz-adv-x="1361" d="M92 1653q-2 -35 1 -87.5t13 -123.5q16 -147 22.5 -303t0.5 -324q-2 -59 2 -143t8 -195q18 -240 19 -338q0 -92 -19 -153q41 2 72 2h57h43t31 -2q-31 362 -43 586.5t-8 318.5q8 160 12 278.5t4 198.5h10q256 -463 443.5 -811t306.5 -588q6 2 29.5 5t66.5 6q89 4 107 14 l-33 573q-12 174 -17.5 294t-5.5 188q0 205 5.5 363.5t17.5 270.5q-37 -2 -68 -2h-55q-31 0 -53.5 1t-32.5 6q16 -45 16 -140v-112q0 -29 2.5 -52.5t4.5 -46.5q12 -193 20 -332t12 -231l29 -514l12 -55q-160 258 -620 1149q-113 215 -144 327q-78 -12 -144 -18t-124 -10z " />
<glyph unicode="&#xd2;" horiz-adv-x="1292" d="M92 735q4 -59 29.5 -152.5t71.5 -222.5q47 -141 85.5 -229t67.5 -129q18 -23 98 -22q41 0 95.5 6t124.5 16q55 12 69 12q0 -4 3 -2t12 4l12 4q20 39 33.5 75t21.5 67q39 139 27 289l-33 403l-74 389l-192 -6l125 -403v-385q0 -6 1 -36t5 -77q2 -47 0 -113 q-6 -162 -64 -151h-43q-78 0 -92 20q-35 61 -65.5 145.5t-57.5 190.5q-55 209 -61 363q-4 53 21.5 160.5t82.5 273.5q31 98 51.5 164.5t28.5 101.5q61 94 273 94q84 0 124 -117l41 -182q23 -100 43.5 -186t42.5 -160v-2q10 -49 1 -162.5t-33 -294.5q-23 -166 -46.5 -282.5 t-43.5 -184.5h26t21 -4q55 -12 59 4q215 573 215 899v5q0 78 -96 389q-41 131 -71 208.5t-48 106.5q-8 16 -82 43q-74 23 -100 23q-33 0 -84 -9.5t-127 -25.5q-154 -33 -193 -64q-88 -63 -202 -397q-115 -328 -103 -457zM430 2238q82 -147 144.5 -256.5t109.5 -181.5 q53 6 176 0l-227 410q-74 10 -124 16t-79 12z" />
<glyph unicode="&#xd3;" horiz-adv-x="1292" d="M92 735q4 -59 29.5 -152.5t71.5 -222.5q47 -141 85.5 -229t67.5 -129q18 -23 98 -22q41 0 95.5 6t124.5 16q55 12 69 12q0 -4 3 -2t12 4l12 4q20 39 33.5 75t21.5 67q39 139 27 289l-33 403l-74 389l-192 -6l125 -403v-385q0 -6 1 -36t5 -77q2 -47 0 -113 q-6 -162 -64 -151h-43q-78 0 -92 20q-35 61 -65.5 145.5t-57.5 190.5q-55 209 -61 363q-4 53 21.5 160.5t82.5 273.5q31 98 51.5 164.5t28.5 101.5q61 94 273 94q84 0 124 -117l41 -182q23 -100 43.5 -186t42.5 -160v-2q10 -49 1 -162.5t-33 -294.5q-23 -166 -46.5 -282.5 t-43.5 -184.5h26t21 -4q55 -12 59 4q215 573 215 899v5q0 78 -96 389q-41 131 -71 208.5t-48 106.5q-8 16 -82 43q-74 23 -100 23q-33 0 -84 -9.5t-127 -25.5q-154 -33 -193 -64q-88 -63 -202 -397q-115 -328 -103 -457zM430 1800q127 6 178 0q49 80 83 137.5t52 92.5 q88 161 117 208q-27 -6 -76 -12t-122 -16z" />
<glyph unicode="&#xd4;" horiz-adv-x="1292" d="M92 735q4 -59 29.5 -152.5t71.5 -222.5q47 -141 85.5 -229t67.5 -129q18 -23 98 -22q41 0 95.5 6t124.5 16q55 12 69 12q0 -4 3 -2t12 4l12 4q20 39 33.5 75t21.5 67q39 139 27 289l-33 403l-74 389l-192 -6l125 -403v-385q0 -6 1 -36t5 -77q2 -47 0 -113 q-6 -162 -64 -151h-43q-78 0 -92 20q-35 61 -65.5 145.5t-57.5 190.5q-55 209 -61 363q-4 53 21.5 160.5t82.5 273.5q31 98 51.5 164.5t28.5 101.5q61 94 273 94q84 0 124 -117l41 -182q23 -100 43.5 -186t42.5 -160v-2q10 -49 1 -162.5t-33 -294.5q-23 -166 -46.5 -282.5 t-43.5 -184.5h26t21 -4q55 -12 59 4q215 573 215 899v5q0 78 -96 389q-41 131 -71 208.5t-48 106.5q-8 16 -82 43q-74 23 -100 23q-33 0 -84 -9.5t-127 -25.5q-154 -33 -193 -64q-88 -63 -202 -397q-115 -328 -103 -457zM270 1837q41 -4 88.5 -9l104.5 -11q27 49 71 135 t105 215q170 -141 170 -244q0 -23 7 -47.5t22 -56.5q33 0 74.5 -1t95.5 -3q14 14 14 18q0 16 -18 35l-23 22q0 16 -125 176q-57 72 -96 118t-62 69q-92 4 -139 6t-49 2q0 -55 -78 -209q-49 -106 -90 -137q-10 -10 -26.5 -29.5t-45.5 -48.5z" />
<glyph unicode="&#xd5;" horiz-adv-x="1292" d="M92 735q4 -59 29.5 -152.5t71.5 -222.5q47 -141 85.5 -229t67.5 -129q18 -23 98 -22q41 0 95.5 6t124.5 16q55 12 69 12q0 -4 3 -2t12 4l12 4q20 39 33.5 75t21.5 67q39 139 27 289l-33 403l-74 389l-192 -6l125 -403v-385q0 -6 1 -36t5 -77q2 -47 0 -113 q-6 -162 -64 -151h-43q-78 0 -92 20q-35 61 -65.5 145.5t-57.5 190.5q-55 209 -61 363q-4 53 21.5 160.5t82.5 273.5q31 98 51.5 164.5t28.5 101.5q61 94 273 94q84 0 124 -117l41 -182q23 -100 43.5 -186t42.5 -160v-2q10 -49 1 -162.5t-33 -294.5q-23 -166 -46.5 -282.5 t-43.5 -184.5h26t21 -4q55 -12 59 4q215 573 215 899v5q0 78 -96 389q-41 131 -71 208.5t-48 106.5q-8 16 -82 43q-74 23 -100 23q-33 0 -84 -9.5t-127 -25.5q-154 -33 -193 -64q-88 -63 -202 -397q-115 -328 -103 -457zM317 1968l64 -78l78 115q10 2 22 2h27q16 0 30.5 -2 t24.5 -6q39 -47 60 -121l96 -23q45 0 75.5 2.5t51.5 4.5q29 23 57.5 55.5t57.5 77.5l12 131h-94l-21 -109l-78 -49l-67 4q-43 82 -103 154l-102 6q-72 2 -117 -33z" />
<glyph unicode="&#xd6;" horiz-adv-x="1292" d="M92 735q4 -59 29.5 -152.5t71.5 -222.5q47 -141 85.5 -229t67.5 -129q18 -23 98 -22q41 0 95.5 6t124.5 16q55 12 69 12q0 -4 3 -2t12 4l12 4q20 39 33.5 75t21.5 67q39 139 27 289l-33 403l-74 389l-192 -6l125 -403v-385q0 -6 1 -36t5 -77q2 -47 0 -113 q-6 -162 -64 -151h-43q-78 0 -92 20q-35 61 -65.5 145.5t-57.5 190.5q-55 209 -61 363q-4 53 21.5 160.5t82.5 273.5q31 98 51.5 164.5t28.5 101.5q61 94 273 94q84 0 124 -117l41 -182q23 -100 43.5 -186t42.5 -160v-2q10 -49 1 -162.5t-33 -294.5q-23 -166 -46.5 -282.5 t-43.5 -184.5h26t21 -4q55 -12 59 4q215 573 215 899v5q0 78 -96 389q-41 131 -71 208.5t-48 106.5q-8 16 -82 43q-74 23 -100 23q-33 0 -84 -9.5t-127 -25.5q-154 -33 -193 -64q-88 -63 -202 -397q-115 -328 -103 -457zM338 2097l22 -223q78 4 133.5 2t90.5 -4q6 66 0 147 q-10 57 -13 86q-76 -4 -134 -6t-99 -2zM713 2097l20 -223q78 4 134 2t87 -4q6 35 8.5 70.5t-4.5 76.5q-6 29 -9 50.5t-5 35.5q-74 -4 -132 -6t-99 -2z" />
<glyph unicode="&#xd7;" d="M219 504q20 -31 33.5 -56.5t21.5 -44.5q59 63 130 136t153 157l37 -41q59 -63 111.5 -121.5t99.5 -115.5q39 29 67.5 50t51.5 36q-35 29 -107 93.5t-182 168.5q125 113 270 252q-14 23 -23.5 47t-11.5 53q-61 -66 -133.5 -137.5t-158.5 -153.5q-45 49 -105.5 113 t-136.5 143q-27 -18 -55.5 -33.5t-61.5 -31.5q49 -39 118 -103.5t159 -156.5l-41 -43q-51 -47 -109.5 -99.5t-126.5 -111.5z" />
<glyph unicode="&#xd8;" horiz-adv-x="1292" d="M41 -207q57 -8 98 -16t68 -19q29 66 58.5 134.5t58.5 140.5q6 -10 12 -17.5t10 -13.5q18 -23 98 -22q41 0 95.5 6t124.5 16q55 12 69 12q0 -4 3 -2t12 4l12 4q20 39 33.5 75t21.5 67q39 139 27 289l-33 403l-29 156q35 72 68 139.5t65 130.5q23 -98 43.5 -183t42.5 -157 v-2q10 -49 1 -162.5t-33 -294.5q-23 -166 -46.5 -282.5t-43.5 -184.5h26t21 -4q55 -12 59 4q215 573 215 899v5q0 78 -96 389q-20 63 -36.5 114.5t-33.5 89.5q59 111 109.5 200t95.5 157q-92 12 -164 41q-33 -72 -62.5 -136.5t-58.5 -127.5q-10 4 -22 10t-29 10 q-74 23 -100 23q-33 0 -84 -9.5t-127 -25.5q-154 -33 -193 -64q-88 -63 -202 -397q-115 -328 -103 -457q4 -59 29.5 -152.5t71.5 -222.5q16 -51 32.5 -95t28.5 -81q-66 -129 -119 -226t-94 -165zM291 791q-4 53 21.5 160.5t82.5 273.5q31 98 51.5 164.5t28.5 101.5 q61 94 273 94q84 0 124 -117v-2q-35 -76 -67.5 -145.5t-61.5 -128.5l-383 -801q-6 14 -8 37q-55 209 -61 363zM412 229q59 129 121.5 265.5t134.5 283.5v-329q0 -6 1 -36t5 -77q2 -47 0 -113q-6 -162 -64 -151h-43q-78 0 -92 20q-33 55 -63 137z" />
<glyph unicode="&#xd9;" horiz-adv-x="1298" d="M92 1675q16 -37 25.5 -80t11.5 -94q33 -442 48.5 -774t15.5 -565q2 -14 2 -25q0 -8 2 -10q14 -16 44.5 -40t82.5 -50q104 -57 141 -57h2q88 0 297 67q301 98 354 395l62 1256q-150 -10 -199 -6q8 -100 11 -165t7 -97q10 -106 6 -263t-20 -374q-33 -504 -113 -566 q-92 -86 -159 -100q-88 -23 -136.5 -33t-64.5 -10q-23 0 -72 43q-80 55 -88 129q-20 205 -29.5 463t-9.5 579v377q-41 -4 -73 -4h-62h-49t-37 4zM430 2238q84 -147 146.5 -256.5t109.5 -181.5q51 6 178 0l-231 410q-74 10 -124 16t-79 12z" />
<glyph unicode="&#xda;" horiz-adv-x="1298" d="M92 1675q16 -37 25.5 -80t11.5 -94q33 -442 48.5 -774t15.5 -565q2 -14 2 -25q0 -8 2 -10q14 -16 44.5 -40t82.5 -50q104 -57 141 -57h2q88 0 297 67q301 98 354 395q12 250 18.5 389.5t10.5 172.5l57 702q-76 -4 -132 -8t-91 -6q8 -100 11 -165t7 -97q10 -106 6 -263 t-20 -374q-33 -504 -113 -566q-92 -86 -159 -100q-88 -23 -136.5 -33t-64.5 -10q-23 0 -72 43q-80 55 -88 129q-20 205 -29.5 463t-9.5 579v377q-41 -4 -73 -4h-62h-49t-37 4zM430 1800q127 6 178 0q96 150 158.5 258t97.5 180q-29 -6 -77 -12t-123 -16z" />
<glyph unicode="&#xdb;" horiz-adv-x="1298" d="M92 1675q16 -37 25.5 -80t11.5 -94q33 -442 48.5 -774t15.5 -565q2 -14 2 -25q0 -8 2 -10q14 -16 44.5 -40t82.5 -50q104 -57 141 -57h2q88 0 297 67q301 98 354 395q12 250 18.5 389.5t10.5 172.5l57 702q-76 -4 -132 -8t-91 -6q8 -100 11 -165t7 -97q10 -106 6 -263 t-20 -374q-33 -504 -113 -566q-92 -86 -159 -100q-88 -23 -136.5 -33t-64.5 -10q-23 0 -72 43q-80 55 -88 129q-20 205 -29.5 463t-9.5 579v377q-41 -4 -73 -4h-62h-49t-37 4zM272 1837q41 -4 89.5 -9t103.5 -11q27 49 72 135t104 215q170 -139 170 -244q0 -23 8 -47.5 t23 -56.5q31 0 75 -1t97 -3q14 14 14 18q0 6 -7 14t-17 21l-21 22q0 20 -125 176q-53 66 -92 112t-66 75l-138 6t-50 2q0 -53 -72 -209q-55 -100 -94 -137q-10 -10 -28.5 -29.5t-45.5 -48.5z" />
<glyph unicode="&#xdc;" horiz-adv-x="1298" d="M92 1675q16 -37 25.5 -80t11.5 -94q33 -442 48.5 -774t15.5 -565q2 -14 2 -25q0 -8 2 -10q14 -16 44.5 -40t82.5 -50q104 -57 141 -57h2q88 0 297 67q301 98 354 395q12 250 18.5 389.5t10.5 172.5l57 702q-76 -4 -132 -8t-91 -6q8 -100 11 -165t7 -97q10 -106 6 -263 t-20 -374q-33 -504 -113 -566q-92 -86 -159 -100q-88 -23 -136.5 -33t-64.5 -10q-23 0 -72 43q-80 55 -88 129q-20 205 -29.5 463t-9.5 579v377q-41 -4 -73 -4h-62h-49t-37 4zM338 2097l22 -223q78 4 133.5 2t90.5 -4q4 35 4 72t-2 75q-4 29 -8.5 50.5t-6.5 35.5 q-76 -4 -134 -6t-99 -2zM715 2097l20 -223q78 4 134 2t89 -4q12 68 3 147q-2 29 -6.5 50.5t-6.5 35.5q-76 -4 -134 -6t-99 -2z" />
<glyph unicode="&#xdd;" horiz-adv-x="1306" d="M92 1702q203 -424 314.5 -674t134.5 -330q2 -45 3 -89t1 -87q0 -276 -49 -540q72 12 124 16t82 2q0 106 17 178q-16 106 -24.5 197.5t-8.5 165.5q0 37 3 70.5t7 62.5l318 602q72 137 121.5 244.5t78.5 185.5h-129q-35 0 -56 2t-38 4q4 -106 -33 -203 q-66 -176 -138 -330.5t-150 -287.5l-15 -64q-143 305 -229 523.5t-113 355.5q-80 -4 -134 -6t-87 2zM440 1800q121 6 176 0q47 80 80 137.5t52 92.5q47 82 76.5 133.5t45.5 74.5q-29 -6 -79 -12t-123 -16z" />
<glyph unicode="&#xde;" horiz-adv-x="1060" d="M92 -14q166 26 256 18q-72 170 -63 535q4 158 7 266t6 179t5 113t6 66q66 4 128.5 7.5t127.5 3.5q135 0 185 -17q51 -10 57 -104q10 -100 13 -199.5t-5 -198.5q-6 -98 -22.5 -152t-40.5 -73q-37 -12 -69 -17t-54 -5q-88 76 -84 151q-10 14 -10 66q0 37 6 87t20 113 q33 29 73 58.5t89 60.5l-121 45q-90 -41 -160 -137q-25 -72 -34 -149.5t-5 -159.5q33 -102 113 -187h-2l98 -43q252 39 310 109q47 49 71 313q18 205 2 338q-4 53 -100 117q-98 68 -156 67q-143 0 -249.5 -3t-192.5 -11q2 57 4 131t4 141.5t5 119t5 67.5q-86 -6 -141 -8 t-82 0q31 -66 35 -127q4 -31 0 -101q-2 -45 -4 -69.5t-2 -34.5v-4q4 -25 6 -69t4 -79q0 -16 -1 -34.5t1 -38.5l6 -228h4q0 -59 1 -124.5t1 -137.5q0 -471 -51 -661z" />
<glyph unicode="&#xdf;" horiz-adv-x="1544" d="M197 1681q43 -90 45 -227l10 -280q4 -94 6 -212t2 -262q0 -451 -41 -686q63 12 195 2q6 49 9 85t5 59q10 47 15.5 80.5t5.5 52.5q-16 109 -23.5 291t-11.5 444q-4 229 -1 376.5t7 217.5q131 12 258 12q150 0 180 -12q51 -14 64 -113q8 -86 10 -161.5t-6 -143.5 q-12 -195 -62 -223q-78 -23 -121 -23q-41 35 -62.5 67t-27.5 56v25q0 14 -2 35q4 20 4 18l19 127q63 63 160 115l-119 45q-90 -37 -160 -137q-4 -2 -4 -4l-41 -129q-43 -141 -33 -238q-2 -12 -2 -25v-18l41 -147l29 -46q233 -61 463 -61l135 -78l45 -168q6 0 10 -41 q6 -37 -2 -53q-31 -180 -72 -190q-14 0 -67 -54q-59 -53 -68 -53q-104 0 -161.5 2t-67.5 4q-59 109 -60 168v92q27 6 53.5 10.5t57.5 4.5q29 0 55.5 -4.5t55.5 -10.5l-43 -133l110 6q31 74 44.5 133.5t4.5 106.5q-57 6 -109 10t-102 4q-125 0 -221 -28l-12 -240 q-23 -82 -16 -109q2 -12 5 -21t5 -19l53 -62q23 -16 78 -16q143 0 364 55q63 18 142 86l92 78q31 23 22 53q-12 141 -12 211v88l-10 129l-191 107q-166 18 -275.5 36.5t-164.5 40.5l-53 84v19q0 8 2 14l100 -39q135 -6 246 74q80 59 98 121q8 33 14.5 90t12.5 143 q12 168 2 240q-6 59 -102 121q-96 63 -152 63q-229 0 -391 -8t-266 -27z" />
<glyph unicode="&#xe0;" horiz-adv-x="1378" d="M94 602q18 -106 86 -311q43 -123 76 -193.5t61 -93.5q14 -10 61.5 -16t133.5 -6h45q90 0 201 151q84 117 127 177.5t51 70.5l-31 510q-78 70 -219 131q-135 -170 -209 -545l131 -37q45 164 79 267.5t61 146.5l83 -41l-49 -432l-61 -156q-135 -160 -209 -159 q-100 0 -182 550v2q0 117 100 330q94 193 186 295q20 27 170 27q39 0 98.5 -6.5t137.5 -16.5l27 -721v-67v-37t-5 -25v-6q0 -96 8.5 -198.5t22.5 -217.5q16 4 29.5 5.5t30.5 -0.5q18 -6 34.5 -8.5t26.5 -2.5q41 -4 64 -4h26q-16 35 -27.5 83t-17.5 110q-29 231 -41 396 t-12 269q0 127 8 261.5t29 281.5q-586 2 -748 -74q-123 -57 -262 -307q-139 -246 -121 -383zM473 1929q84 -147 146.5 -254.5t105.5 -183.5q57 6 178 0l-225 414q-147 14 -205 24z" />
<glyph unicode="&#xe1;" horiz-adv-x="1378" d="M94 602q18 -106 86 -311q43 -123 76 -193.5t61 -93.5q14 -10 61.5 -16t133.5 -6h45q90 0 201 151q84 117 127 177.5t51 70.5l-31 510q-78 70 -219 131q-135 -170 -209 -545l131 -37q45 164 79 267.5t61 146.5l83 -41l-49 -432l-61 -156q-135 -160 -209 -159 q-100 0 -182 550v2q0 117 100 330q94 193 186 295q20 27 170 27q39 0 98.5 -6.5t137.5 -16.5l27 -721v-67v-37t-5 -25v-6q0 -96 8.5 -198.5t22.5 -217.5q16 4 29.5 5.5t30.5 -0.5q18 -6 34.5 -8.5t26.5 -2.5q41 -4 64 -4h26q-16 35 -27.5 83t-17.5 110q-29 231 -41 396 t-12 269q0 127 8 261.5t29 281.5q-586 2 -748 -74q-123 -57 -262 -307q-139 -246 -121 -383zM473 1491q129 6 178 0q104 174 166.5 281.5t85.5 156.5q-47 -8 -201 -24z" />
<glyph unicode="&#xe2;" horiz-adv-x="1378" d="M94 602q18 -106 86 -311q43 -123 76 -193.5t61 -93.5q14 -10 61.5 -16t133.5 -6h45q90 0 201 151q84 117 127 177.5t51 70.5l-31 510q-78 70 -219 131q-135 -170 -209 -545l131 -37q45 164 79 267.5t61 146.5l83 -41l-49 -432l-61 -156q-135 -160 -209 -159 q-100 0 -182 550v2q0 117 100 330q94 193 186 295q20 27 170 27q39 0 98.5 -6.5t137.5 -16.5l27 -721v-67v-37t-5 -25v-6q0 -96 8.5 -198.5t22.5 -217.5q16 4 29.5 5.5t30.5 -0.5q18 -6 34.5 -8.5t26.5 -2.5q41 -4 64 -4h26q-16 35 -27.5 83t-17.5 110q-29 231 -41 396 t-12 269q0 127 8 261.5t29 281.5q-586 2 -748 -74q-123 -57 -262 -307q-139 -246 -121 -383zM313 1530q41 -4 89.5 -9t105.5 -12q27 49 71 136.5t105 216.5q164 -145 164 -246q0 -41 33 -105q35 0 76.5 -1t95.5 -3q10 9 10 19q0 20 -19 33l-26 20q0 31 -117 180 q-57 70 -97 115t-61 68q-92 8 -140 10t-52 2q0 -57 -74 -207q-53 -111 -92 -139q-10 -10 -27.5 -29.5t-44.5 -48.5z" />
<glyph unicode="&#xe3;" horiz-adv-x="1378" d="M94 602q18 -106 86 -311q43 -123 76 -193.5t61 -93.5q14 -10 61.5 -16t133.5 -6h45q90 0 201 151q84 117 127 177.5t51 70.5l-31 510q-78 70 -219 131q-135 -170 -209 -545l131 -37q45 164 79 267.5t61 146.5l83 -41l-49 -432l-61 -156q-135 -160 -209 -159 q-100 0 -182 550v2q0 117 100 330q94 193 186 295q20 27 170 27q39 0 98.5 -6.5t137.5 -16.5l27 -721v-67v-37t-5 -25v-6q0 -96 8.5 -198.5t22.5 -217.5q16 4 29.5 5.5t30.5 -0.5q18 -6 34.5 -8.5t26.5 -2.5q41 -4 64 -4h26q-16 35 -27.5 83t-17.5 110q-29 231 -41 396 t-12 269q0 127 8 261.5t29 281.5q-586 2 -748 -74q-123 -57 -262 -307q-139 -246 -121 -383zM362 1659l64 -80l78 119q10 4 20 4h21q37 0 61 -12q33 -45 58 -119l100 -25q92 0 123 8q61 37 117 134l14 129h-94l-21 -111l-78 -47l-67 6q-25 41 -49.5 79t-53.5 73l-110 8 q-66 2 -115 -31z" />
<glyph unicode="&#xe4;" horiz-adv-x="1378" d="M94 602q18 -106 86 -311q43 -123 76 -193.5t61 -93.5q14 -10 61.5 -16t133.5 -6h45q90 0 201 151q84 117 127 177.5t51 70.5l-31 510q-78 70 -219 131q-135 -170 -209 -545l131 -37q45 164 79 267.5t61 146.5l83 -41l-49 -432l-61 -156q-135 -160 -209 -159 q-100 0 -182 550v2q0 117 100 330q94 193 186 295q20 27 170 27q39 0 98.5 -6.5t137.5 -16.5l27 -721v-67v-37t-5 -25v-6q0 -96 8.5 -198.5t22.5 -217.5q16 4 29.5 5.5t30.5 -0.5q18 -6 34.5 -8.5t26.5 -2.5q41 -4 64 -4h26q-16 35 -27.5 83t-17.5 110q-29 231 -41 396 t-12 269q0 127 8 261.5t29 281.5q-586 2 -748 -74q-123 -57 -262 -307q-139 -246 -121 -383zM381 1788l18 -219q158 4 224 -6q12 72 0 149q-4 29 -7.5 50.5t-5.5 37.5q-147 -12 -229 -12zM752 1788l22 -219q153 2 221 -6q8 37 9 71q0 37 -5 78q-6 29 -8 50.5t-6 37.5 q-154 -12 -233 -12z" />
<glyph unicode="&#xe5;" horiz-adv-x="1378" d="M94 602q18 -106 86 -311q43 -123 76 -193.5t61 -93.5q14 -10 61.5 -16t133.5 -6h45q90 0 201 151q84 117 127 177.5t51 70.5l-31 510q-78 70 -219 131q-135 -170 -209 -545l131 -37q45 164 79 267.5t61 146.5l83 -41l-49 -432l-61 -156q-135 -160 -209 -159 q-100 0 -182 550v2q0 117 100 330q94 193 186 295q20 27 170 27q39 0 98.5 -6.5t137.5 -16.5l27 -721v-67v-37t-5 -25v-6q0 -96 8.5 -198.5t22.5 -217.5q16 4 29.5 5.5t30.5 -0.5q18 -6 34.5 -8.5t26.5 -2.5q41 -4 64 -4h26q-16 35 -27.5 83t-17.5 110q-29 231 -41 396 t-12 269q0 127 8 261.5t29 281.5q-586 2 -748 -74q-123 -57 -262 -307q-139 -246 -121 -383zM365 1667q80 -131 180 -223q43 -4 85 -6t83 -2q33 0 66.5 2t68.5 6l166 125q35 133 0 291q-12 66 -123 122q-147 -61 -252 -141l-53 -176l127 -94l67 71l-67 46l30 100l127 67 l23 -30q4 -18 6 -38t2 -38q0 -66 -24 -133l-95 -72q-18 -4 -39 -4h-41h-43t-51 4q-59 49 -112 148q-8 74 39 176l167 90l-124 51l-146 -96q-37 -45 -49 -117q-2 -10 -6 -41t-12 -88z" />
<glyph unicode="&#xe6;" horiz-adv-x="1959" d="M94 602q18 -106 86 -311q43 -123 76 -193.5t61 -93.5q14 -10 61.5 -16t133.5 -6h45q90 0 201 151q84 117 127 177.5t51 70.5l-31 510q-78 70 -219 131q-135 -170 -209 -545l131 -37q45 164 79 267.5t61 146.5l83 -41l-49 -432l-61 -156q-135 -160 -209 -159 q-100 0 -182 550v2q0 117 100 330q94 193 186 295q20 27 170 27q39 0 98.5 -6.5t137.5 -16.5l59 -721v-67q0 -14 15.5 -35t15.5 -27v-6q0 -41 14.5 -99.5t47.5 -135.5q45 -117 69 -158l49 -18q23 -6 35 -8.5t19 -6.5q53 0 231 49q88 23 140 41.5t67 34.5q49 41 71 287 q-45 -4 -75.5 -6t-50.5 -2q-12 -33 -20.5 -53.5t-16.5 -30.5l-17 -66q-10 -41 -19 -64.5t-14 -33.5q-47 -55 -196 -55q-61 0 -100 186l-60 270q-8 41 -12 67.5t-4 43.5q-6 33 7 118t50 222q35 125 51 215q43 88 213 88q96 0 111 -14q29 -35 35 -248h-2l-6 -234 q-51 -45 -136 -45q-16 0 -28.5 4t-20.5 9l49 286l-116 4q-72 -176 -72 -329q0 -51 8 -93q31 -6 64 -6q207 0 372 74l25 360q8 70 7 123.5t-9 94.5v4q0 59 -22.5 79.5t-88.5 20.5q-133 0 -246.5 -19.5t-214.5 -58.5q-27 -8 -61 -92q-10 -18 -19.5 -46t-23.5 -65 q6 68 13.5 138.5t15.5 142.5q-586 2 -748 -74q-123 -57 -262 -307q-139 -246 -121 -383z" />
<glyph unicode="&#xe7;" horiz-adv-x="958" d="M92 588q8 -57 28.5 -135t57.5 -179q39 -111 75 -178t66 -96q18 -18 46 -18q18 0 57 8t98 20l103 -174q37 -82 28 -137q-39 -82 -84 -117q-18 -2 -37 -2h-32h-31q-12 0 -25 2l-69 56q-18 51 -19 102q0 16 2 31.5t6 29.5l19 23l92 -49l21 -82l-50 -37l50 -53l92 73l-41 136 q-78 63 -183 108q-78 -43 -90 -96q-18 -123 0 -225l123 -95q25 -4 50.5 -6t48.5 -2q31 0 59.5 2t56.5 6q80 72 135 174q-6 41 -8 67t-4 32q-6 51 -37 92l-80 170q66 18 104 29.5t48 15.5q63 31 78 111q6 57 9 107t5 97q-43 -2 -74.5 -3t-50.5 -1l-20 -94q-29 -131 -51 -164 q-39 -55 -197 -55q-57 0 -102 188l-58 271q-10 41 -13 67.5t-3 42.5q-8 31 7 117t50 223q18 63 29.5 116.5t21.5 96.5q45 88 211 88q59 0 70 -16q16 -90 25.5 -166t13.5 -141l135 35q2 53 2 94v78v59q0 25 -2 41q0 31 -6 54.5t-23 35.5q-18 8 -88 8q-238 0 -418 -67 q-49 -20 -145 -330q-47 -156 -67.5 -252t-14.5 -137z" />
<glyph unicode="&#xe8;" horiz-adv-x="991" d="M92 588q8 -57 28.5 -135t57.5 -179q39 -111 75 -178t66 -96q18 -18 46 -18q29 0 85 13t146 36q92 23 144.5 42t68.5 33q43 43 68 289q-47 -6 -78 -8t-51 -2q-10 -33 -18.5 -53.5t-14.5 -30.5l-17 -63q-10 -37 -18 -61.5t-16 -39.5q-49 -55 -197 -55q-57 0 -102 188 l-58 271q-10 41 -13 67.5t-3 42.5q-8 31 7 117t50 223q18 63 29.5 116.5t21.5 96.5q45 88 211 88q106 0 111 -14q16 -16 24.5 -77.5t14.5 -170.5h-2l-10 -233q-47 -45 -132 -45q-29 0 -53 14l53 285l-120 6q-68 -182 -68 -332q0 -23 1 -46.5t3 -45.5q16 -2 31 -2h33 q211 0 376 69l23 361q4 78 4 131q0 55 -6 86v6q0 61 -22.5 79.5t-88.5 18.5q-133 0 -248.5 -19.5t-214.5 -55.5q-49 -20 -145 -330q-47 -156 -67.5 -252t-14.5 -137zM281 1929q80 -147 143 -254.5t111 -183.5q49 6 178 0l-232 414q-74 8 -123 14t-77 10z" />
<glyph unicode="&#xe9;" horiz-adv-x="991" d="M92 588q8 -57 28.5 -135t57.5 -179q39 -111 75 -178t66 -96q18 -18 46 -18q29 0 85 13t146 36q92 23 144.5 42t68.5 33q43 43 68 289q-47 -6 -78 -8t-51 -2q-10 -33 -18.5 -53.5t-14.5 -30.5l-17 -63q-10 -37 -18 -61.5t-16 -39.5q-49 -55 -197 -55q-57 0 -102 188 l-58 271q-10 41 -13 67.5t-3 42.5q-8 31 7 117t50 223q18 63 29.5 116.5t21.5 96.5q45 88 211 88q106 0 111 -14q16 -16 24.5 -77.5t14.5 -170.5h-2l-10 -233q-47 -45 -132 -45q-29 0 -53 14l53 285l-120 6q-68 -182 -68 -332q0 -23 1 -46.5t3 -45.5q16 -2 31 -2h33 q211 0 376 69l23 361q4 78 4 131q0 55 -6 86v6q0 61 -22.5 79.5t-88.5 18.5q-133 0 -248.5 -19.5t-214.5 -55.5q-49 -20 -145 -330q-47 -156 -67.5 -252t-14.5 -137zM281 1491q129 6 178 0q104 174 166.5 281.5t87.5 156.5q-55 -10 -203 -24z" />
<glyph unicode="&#xea;" horiz-adv-x="991" d="M92 588q8 -57 28.5 -135t57.5 -179q39 -111 75 -178t66 -96q18 -18 46 -18q29 0 85 13t146 36q92 23 144.5 42t68.5 33q43 43 68 289q-47 -6 -78 -8t-51 -2q-10 -33 -18.5 -53.5t-14.5 -30.5l-17 -63q-10 -37 -18 -61.5t-16 -39.5q-49 -55 -197 -55q-57 0 -102 188 l-58 271q-10 41 -13 67.5t-3 42.5q-8 31 7 117t50 223q18 63 29.5 116.5t21.5 96.5q45 88 211 88q106 0 111 -14q16 -16 24.5 -77.5t14.5 -170.5h-2l-10 -233q-47 -45 -132 -45q-29 0 -53 14l53 285l-120 6q-68 -182 -68 -332q0 -23 1 -46.5t3 -45.5q16 -2 31 -2h33 q211 0 376 69l23 361q4 78 4 131q0 55 -6 86v6q0 61 -22.5 79.5t-88.5 18.5q-133 0 -248.5 -19.5t-214.5 -55.5q-49 -20 -145 -330q-47 -156 -67.5 -252t-14.5 -137zM121 1530q41 -4 89 -9t103 -12q27 49 71 136.5t105 216.5q166 -145 166 -246q0 -20 8.5 -46t22.5 -59 q33 0 76 -1t96 -3q14 9 14 19q0 20 -18 33l-27 20q0 29 -125 180q-55 70 -94 115t-63 68q-90 8 -136.5 10t-48.5 2q0 -57 -75 -207q-27 -53 -49.5 -89t-42.5 -50q-20 -23 -72 -78z" />
<glyph unicode="&#xeb;" horiz-adv-x="991" d="M92 588q8 -57 28.5 -135t57.5 -179q39 -111 75 -178t66 -96q18 -18 46 -18q29 0 85 13t146 36q92 23 144.5 42t68.5 33q43 43 68 289q-47 -6 -78 -8t-51 -2q-10 -33 -18.5 -53.5t-14.5 -30.5l-17 -63q-10 -37 -18 -61.5t-16 -39.5q-49 -55 -197 -55q-57 0 -102 188 l-58 271q-10 41 -13 67.5t-3 42.5q-8 31 7 117t50 223q18 63 29.5 116.5t21.5 96.5q45 88 211 88q106 0 111 -14q16 -16 24.5 -77.5t14.5 -170.5h-2l-10 -233q-47 -45 -132 -45q-29 0 -53 14l53 285l-120 6q-68 -182 -68 -332q0 -23 1 -46.5t3 -45.5q16 -2 31 -2h33 q211 0 376 69l23 361q4 78 4 131q0 55 -6 86v6q0 61 -22.5 79.5t-88.5 18.5q-133 0 -248.5 -19.5t-214.5 -55.5q-49 -20 -145 -330q-47 -156 -67.5 -252t-14.5 -137zM188 1788l19 -219q160 2 223 -6q14 72 0 149q-6 29 -8 50.5t-2 37.5q-152 -12 -232 -12zM561 1788l23 -219 q153 2 221 -6q6 37 7 72.5t-3 76.5q-6 29 -9 50.5t-7 37.5q-152 -12 -232 -12z" />
<glyph unicode="&#xec;" horiz-adv-x="425" d="M-2 1929q80 -147 142.5 -254.5t109.5 -183.5q51 6 178 0l-231 414q-145 14 -199 24zM113 1333q0 -16 2 -41.5t5 -52.5t5 -52.5t2 -39.5q12 -717 0 -1161q33 16 78 16q18 0 67 -14q36 -4 52 6q-12 98 -20.5 182t-12.5 154l-6 178l6 289q4 252 11 393t13 172 q-92 -14 -142 -21.5t-60 -7.5z" />
<glyph unicode="&#xed;" horiz-adv-x="425" d="M-2 1491q125 6 176 0q104 174 167.5 281.5t86.5 156.5q-55 -10 -203 -24zM113 1333q0 -16 2 -41.5t5 -52.5t5 -52.5t2 -39.5q12 -717 0 -1161q33 16 78 16q18 0 67 -14q36 -4 52 6q-12 98 -20.5 182t-12.5 154l-6 178l6 289q4 252 11 393t13 172q-92 -14 -142 -21.5 t-60 -7.5z" />
<glyph unicode="&#xee;" horiz-adv-x="425" d="M-164 1530q41 -4 89 -9t102 -12q29 49 73.5 136.5t104.5 216.5q168 -145 168 -246q0 -41 30 -105q31 0 74 -1t96 -3q15 9 15 19q0 20 -21 33l-24 20q0 23 -123 180q-59 70 -96 115t-60 68q-92 8 -139 10t-49 2q0 -51 -76 -207q-27 -53 -49.5 -89t-42.5 -50 q-20 -23 -72 -78zM113 1333q0 -16 2 -41.5t5 -52.5t5 -52.5t2 -39.5q12 -717 0 -1161q33 16 78 16q18 0 67 -14q36 -4 52 6q-12 98 -20.5 182t-12.5 154l-6 178l6 289q4 252 11 393t13 172q-92 -14 -142 -21.5t-60 -7.5z" />
<glyph unicode="&#xef;" horiz-adv-x="425" d="M-96 1788l20 -219q78 2 134 0t87 -6q14 72 0 149q-4 29 -7 50.5t-5 37.5q-152 -12 -229 -12zM113 1333q0 -16 2 -41.5t5 -52.5t5 -52.5t2 -39.5q12 -717 0 -1161q33 16 78 16q18 0 67 -14q36 -4 52 6q-12 98 -20.5 182t-12.5 154l-6 178l6 289q4 252 11 393t13 172 q-92 -14 -142 -21.5t-60 -7.5zM272 1788l25 -219q153 2 223 -6q6 37 8 72.5t-6 76.5q-4 29 -8 50.5t-6 37.5q-152 -12 -236 -12z" />
<glyph unicode="&#xf0;" horiz-adv-x="1146" d="M94 610q-4 -53 16.5 -126.5t71.5 -170.5q53 -98 103.5 -158.5t99.5 -88.5q49 -31 156 -58q53 -12 96 -19t76 -7h67q25 8 66 75.5t98 202.5q47 119 75 201t34 129q25 219 -228 598q-16 20 -28.5 39.5t-28.5 38.5h266q2 49 41 96q-82 -6 -174 -8t-192 -4q-170 211 -326 325 q-51 0 -137 -49q59 -31 132 -101.5t161 -178.5h-66h-154t-176 4q-12 -70 -28 -111q100 8 220 14.5t267 8.5l16 -23q49 -70 99.5 -167t97.5 -226q63 -113 43 -295q-6 -43 -23.5 -106.5t-46.5 -149.5q-61 -166 -108 -219q-2 -8 -25 -8q-29 0 -78 11t-118 34q-51 27 -121 213 q-70 188 -64 252l7 6q8 82 46 166t113 176q16 10 41 10t86 -31l56 -63l18 -146l-6 -188l-47 -57l-80 24l-35 211l-88 -6l64 -262l159 -41l107 74l45 251l-58 168l-79 80v11l-15 6q-182 68 -227 67q-76 0 -184 -186q-96 -168 -103 -238z" />
<glyph unicode="&#xf1;" horiz-adv-x="1124" d="M92 1366q41 -248 61.5 -408.5t20.5 -242.5q0 -205 -12 -388.5t-35 -346.5q35 18 82 33.5t104 31.5q-14 55 -6 274q6 123 8 191t2 84v209t-2 84q10 61 58 121q27 37 75 72.5t117 70.5q137 70 232 70q41 0 41 -283q0 -266 -9.5 -508t-31.5 -465q88 20 145 28.5t88 6.5 q-63 74 -63 197q0 23 1 55.5t3 77.5q4 43 7 76.5t3 58.5q0 74 3 183.5t11 256.5q12 152 16.5 262.5t4.5 184.5q0 31 -68 30l-174 -20q-121 -12 -258 -74q-164 -61 -219 -139h-16q4 29 -0.5 84t-12.5 139q-47 -4 -81.5 -7t-57.5 -3q-27 0 -37 4zM233 1659l60 -80l80 119 q10 4 22 4h25q39 0 57 -12q35 -47 62 -119l94 -25q94 0 127 8q53 37 117 134l14 129h-98l-19 -111l-78 -47l-71 6q-18 41 -44 79t-55 73l-106 8q-68 2 -117 -31z" />
<glyph unicode="&#xf2;" horiz-adv-x="1128" d="M61 647q-6 -41 8.5 -116.5t51.5 -192.5l80 -250v-6q0 -61 20.5 -80.5t87.5 -19.5q272 0 465 77q66 20 152 326q90 305 78 393q-8 47 -31 125t-58 187q-104 293 -186 292q-96 -23 -156.5 -36t-83.5 -17q-119 -23 -197.5 -42t-119.5 -32q-18 -18 -43 -192q49 4 75.5 7 t35.5 3q12 115 28 123q72 18 118 30.5t63 16.5q80 27 169 27q57 -16 80 -74q53 -197 80 -316.5t27 -164.5q12 -61 -60 -340q-35 -127 -49 -215q-51 -88 -211 -88q-53 0 -83.5 6t-41.5 16q-2 6 -6 32t-12 75q-18 55 -28.5 86.5t-12.5 42.5l-96 334l28 219q57 41 181 41 q47 0 61 -9l19 -235l-29 -365l135 -6q10 39 17.5 129t11.5 232q0 23 -11.5 115t-33.5 255q-96 6 -238 -18q-72 -14 -130 -31.5t-103 -40.5zM256 1929q80 -147 143.5 -254.5t110.5 -183.5q51 6 176 0l-227 414q-147 14 -203 24z" />
<glyph unicode="&#xf3;" horiz-adv-x="1128" d="M61 647q-6 -41 8.5 -116.5t51.5 -192.5l80 -250v-6q0 -61 20.5 -80.5t87.5 -19.5q272 0 465 77q66 20 152 326q90 305 78 393q-8 47 -31 125t-58 187q-104 293 -186 292q-96 -23 -156.5 -36t-83.5 -17q-119 -23 -197.5 -42t-119.5 -32q-18 -18 -43 -192q49 4 75.5 7 t35.5 3q12 115 28 123q72 18 118 30.5t63 16.5q80 27 169 27q57 -16 80 -74q53 -197 80 -316.5t27 -164.5q12 -61 -60 -340q-35 -127 -49 -215q-51 -88 -211 -88q-53 0 -83.5 6t-41.5 16q-2 6 -6 32t-12 75q-18 55 -28.5 86.5t-12.5 42.5l-96 334l28 219q57 41 181 41 q47 0 61 -9l19 -235l-29 -365l135 -6q10 39 17.5 129t11.5 232q0 23 -11.5 115t-33.5 255q-96 6 -238 -18q-72 -14 -130 -31.5t-103 -40.5zM387 1491q129 6 178 0q104 174 166.5 281.5t85.5 156.5q-53 -10 -203 -24z" />
<glyph unicode="&#xf4;" horiz-adv-x="1128" d="M61 647q-6 -41 8.5 -116.5t51.5 -192.5l80 -250v-6q0 -61 20.5 -80.5t87.5 -19.5q272 0 465 77q66 20 152 326q90 305 78 393q-8 47 -31 125t-58 187q-104 293 -186 292q-96 -23 -156.5 -36t-83.5 -17q-119 -23 -197.5 -42t-119.5 -32q-18 -18 -43 -192q49 4 75.5 7 t35.5 3q12 115 28 123q72 18 118 30.5t63 16.5q80 27 169 27q57 -16 80 -74q53 -197 80 -316.5t27 -164.5q12 -61 -60 -340q-35 -127 -49 -215q-51 -88 -211 -88q-53 0 -83.5 6t-41.5 16q-2 6 -6 32t-12 75q-18 55 -28.5 86.5t-12.5 42.5l-96 334l28 219q57 41 181 41 q47 0 61 -9l19 -235l-29 -365l135 -6q10 39 17.5 129t11.5 232q0 23 -11.5 115t-33.5 255q-96 6 -238 -18q-72 -14 -130 -31.5t-103 -40.5zM188 1530q41 -4 89.5 -9t103.5 -12q55 96 176 353q168 -143 168 -246q0 -35 33 -105q33 0 73.5 -1t94.5 -3q14 9 14 19q0 20 -18 33 l-27 20q0 29 -121 180q-57 70 -96 115t-62 68q-92 8 -139 10t-49 2q0 -57 -76 -207q-27 -53 -49 -89t-43 -50q-20 -23 -72 -78z" />
<glyph unicode="&#xf5;" horiz-adv-x="1128" d="M61 647q-6 -41 8.5 -116.5t51.5 -192.5l80 -250v-6q0 -61 20.5 -80.5t87.5 -19.5q272 0 465 77q66 20 152 326q90 305 78 393q-8 47 -31 125t-58 187q-104 293 -186 292q-96 -23 -156.5 -36t-83.5 -17q-119 -23 -197.5 -42t-119.5 -32q-18 -18 -43 -192q49 4 75.5 7 t35.5 3q12 115 28 123q72 18 118 30.5t63 16.5q80 27 169 27q57 -16 80 -74q53 -197 80 -316.5t27 -164.5q12 -61 -60 -340q-35 -127 -49 -215q-51 -88 -211 -88q-53 0 -83.5 6t-41.5 16q-2 6 -6 32t-12 75q-18 55 -28.5 86.5t-12.5 42.5l-96 334l28 219q57 41 181 41 q47 0 61 -9l19 -235l-29 -365l135 -6q10 39 17.5 129t11.5 232q0 23 -11.5 115t-33.5 255q-96 6 -238 -18q-72 -14 -130 -31.5t-103 -40.5zM238 1659l59 -80l80 119q10 4 22 4h27q33 0 55 -12q16 -23 30.5 -52.5t29.5 -66.5l94 -25q94 0 129 8q59 37 115 134l14 129h-96 l-19 -111l-80 -47l-67 6q-43 82 -103 152l-102 8q-74 2 -119 -31z" />
<glyph unicode="&#xf6;" horiz-adv-x="1128" d="M61 647q-6 -41 8.5 -116.5t51.5 -192.5l80 -250v-6q0 -61 20.5 -80.5t87.5 -19.5q272 0 465 77q66 20 152 326q90 305 78 393q-8 47 -31 125t-58 187q-104 293 -186 292q-96 -23 -156.5 -36t-83.5 -17q-119 -23 -197.5 -42t-119.5 -32q-18 -18 -43 -192q49 4 75.5 7 t35.5 3q12 115 28 123q72 18 118 30.5t63 16.5q80 27 169 27q57 -16 80 -74q53 -197 80 -316.5t27 -164.5q12 -61 -60 -340q-35 -127 -49 -215q-51 -88 -211 -88q-53 0 -83.5 6t-41.5 16q-2 6 -6 32t-12 75q-18 55 -28.5 86.5t-12.5 42.5l-96 334l28 219q57 41 181 41 q47 0 61 -9l19 -235l-29 -365l135 -6q10 39 17.5 129t11.5 232q0 23 -11.5 115t-33.5 255q-96 6 -238 -18q-72 -14 -130 -31.5t-103 -40.5zM252 1788l20 -219q158 4 226 -6q14 72 0 149q-4 29 -6.5 50.5t-4.5 37.5q-152 -12 -235 -12zM625 1788l22 -219q157 4 223 -6 q14 72 7 149q-6 29 -11.5 50.5t-7.5 37.5q-147 -12 -233 -12z" />
<glyph unicode="&#xf7;" d="M92 696q326 25 916 25q4 23 15.5 47t27.5 47q-129 -8 -278.5 -11t-323.5 -3q-80 0 -160 1t-168 3q-12 -68 -29 -109zM449 512l18 -221q78 2 134 1t89 -5q6 39 7 74.5t-1 70.5q-8 33 -10 54.5t-6 35.5q-76 -4 -134.5 -7t-96.5 -3zM449 1231l18 -223q78 4 134 3t89 -5 q6 39 7 74.5t-1 70.5q-8 33 -10 53.5t-6 36.5q-76 -6 -134.5 -8t-96.5 -2z" />
<glyph unicode="&#xf8;" horiz-adv-x="1042" d="M61 647q-6 -41 8.5 -116.5t51.5 -192.5l80 -250v-12q-41 -72 -74 -132.5t-61 -105.5q57 -8 98 -16t67 -19q18 45 37 88t41 91q272 0 465 77q66 20 152 326q90 305 78 393q-8 47 -31 125t-58 187q-25 61 -43 110q27 55 42.5 88t29.5 59.5t32.5 56.5t53.5 83 q-96 12 -166 41q-23 -53 -42 -98.5t-36 -79.5q-31 33 -57 32q-96 -23 -156.5 -36t-83.5 -17q-119 -23 -197.5 -42t-119.5 -32q-18 -18 -43 -192q49 4 75.5 7t35.5 3q12 115 28 123q72 18 118 30.5t63 16.5q80 27 169 27q57 -16 80 -74q4 -12 6.5 -22.5t4.5 -20.5 q-10 -29 -16.5 -49.5t-13.5 -42t-18.5 -49t-31.5 -68.5q-14 -25 -25 -53q-6 35 -11 71.5t-9 77.5q-96 6 -238 -18q-72 -14 -130 -31.5t-103 -40.5zM205 664l28 219q57 41 181 41q47 0 61 -9l19 -235l-2 -23q-49 -104 -94.5 -194t-86.5 -170q-4 14 -7 22.5t-3 14.5zM358 96 q59 123 95 201t62 137.5t50.5 114.5t61.5 137q25 55 51.5 109.5t54.5 109.5q10 27 27 56q23 -94 34 -155.5t11 -90.5q12 -61 -60 -340q-35 -127 -49 -215q-51 -88 -211 -88q-53 0 -83.5 6t-41.5 16z" />
<glyph unicode="&#xf9;" horiz-adv-x="1083" d="M92 1147l10 -1004v-22q-4 -10 -6 -20.5t-2 -16.5v-41q0 -63 66 -63q49 0 80 6l45 12q168 53 277.5 96t162.5 74v-31q25 -98 43 -143q2 4 14 4h31q27 0 70 -6t67 -6q27 0 41 8q-82 117 -82 563v506q0 174 49 309q-33 -4 -61 -4h-49q-33 0 -58.5 2t-44.5 4q8 -49 9.5 -103 t-2.5 -120q-4 -41 -4 -84q0 -41 -3 -84q-2 -35 -2 -53v-23q0 -123 -2 -200.5t-6 -112.5q-18 -182 -102 -320q-16 -18 -55 -37.5t-111 -41.5q-57 -20 -103.5 -28.5t-82.5 -10.5q-23 82 -32 198.5t-9 270.5q0 238 12 425t39 324q-78 -18 -126 -29.5t-71 -11.5q16 -10 17 -47 q0 -25 -9.5 -70t-9.5 -69zM330 1929q80 -147 143.5 -254.5t110.5 -183.5q49 6 176 0l-232 414q-152 16 -198 24z" />
<glyph unicode="&#xfa;" horiz-adv-x="1083" d="M92 1147l10 -1004v-22q-4 -10 -6 -20.5t-2 -16.5v-41q0 -63 66 -63q49 0 80 6l45 12q168 53 277.5 96t162.5 74v-31q25 -98 43 -143q2 4 14 4h31q27 0 70 -6t67 -6q27 0 41 8q-82 117 -82 563v506q0 174 49 309q-33 -4 -61 -4h-49q-33 0 -58.5 2t-44.5 4q8 -49 9.5 -103 t-2.5 -120q-4 -41 -4 -84q0 -41 -3 -84q-2 -35 -2 -53v-23q0 -123 -2 -200.5t-6 -112.5q-18 -182 -102 -320q-16 -18 -55 -37.5t-111 -41.5q-57 -20 -103.5 -28.5t-82.5 -10.5q-23 82 -32 198.5t-9 270.5q0 238 12 425t39 324q-78 -18 -126 -29.5t-71 -11.5q16 -10 17 -47 q0 -25 -9.5 -70t-9.5 -69zM330 1491q125 6 178 0q104 174 166.5 281.5t85.5 156.5q-55 -10 -203 -24z" />
<glyph unicode="&#xfb;" horiz-adv-x="1083" d="M92 1147l10 -1004v-22q-4 -10 -6 -20.5t-2 -16.5v-41q0 -63 66 -63q49 0 80 6l45 12q168 53 277.5 96t162.5 74v-31q25 -98 43 -143q2 4 14 4h31q27 0 70 -6t67 -6q27 0 41 8q-82 117 -82 563v506q0 174 49 309q-33 -4 -61 -4h-49q-33 0 -58.5 2t-44.5 4q8 -49 9.5 -103 t-2.5 -120q-4 -41 -4 -84q0 -41 -3 -84q-2 -23 -2 -37v-22q0 -129 -2 -212t-6 -118q-18 -182 -102 -320q-16 -18 -55 -37.5t-111 -41.5q-57 -20 -103.5 -28.5t-82.5 -10.5q-23 82 -32 198.5t-9 270.5q0 238 12 425t39 324q-78 -18 -126 -29.5t-71 -11.5q16 -10 17 -47 q0 -25 -9.5 -70t-9.5 -69zM168 1530q41 -4 89 -9t103 -12q29 49 72 136.5t107 216.5q164 -145 163 -246q0 -35 33 -105q33 0 75 -1t95 -3q17 11 17 19q0 18 -21 33l-24 20q0 25 -125 180q-57 70 -96.5 115t-61.5 68q-92 8 -138 10t-48 2q0 -57 -76 -207q-29 -53 -51.5 -89 t-40.5 -50q-20 -20 -72 -78z" />
<glyph unicode="&#xfc;" horiz-adv-x="1083" d="M92 1147l10 -1004v-22q-4 -10 -6 -20.5t-2 -16.5v-41q0 -63 66 -63q49 0 80 6l45 12q168 53 277.5 96t162.5 74v-31q25 -98 43 -143q2 4 14 4h31q27 0 70 -6t67 -6q27 0 41 8q-82 117 -82 563v506q0 174 49 309q-33 -4 -61 -4h-49q-33 0 -58.5 2t-44.5 4q8 -49 9.5 -103 t-2.5 -120q-4 -41 -4 -84q0 -41 -3 -84q-2 -35 -2 -53v-23q0 -123 -2 -200.5t-6 -112.5q-18 -182 -102 -320q-16 -18 -55 -37.5t-111 -41.5q-57 -20 -103.5 -28.5t-82.5 -10.5q-23 82 -32 198.5t-9 270.5q0 238 12 425t39 324q-78 -18 -126 -29.5t-71 -11.5q16 -10 17 -47 q0 -25 -9.5 -70t-9.5 -69zM233 1788l19 -219q160 2 223 -6q14 72 0 149q-4 29 -6 50.5t-4 37.5q-152 -12 -232 -12zM606 1788l19 -219q157 4 223 -6q12 72 6 149q-6 29 -9 50.5t-7 37.5q-152 -12 -232 -12z" />
<glyph unicode="&#xfd;" horiz-adv-x="1083" d="M92 -408q371 -86 479 -86q84 0 197 64q53 27 97 55.5t75 61.5q-6 596 6 1013.5t45 665.5q-41 -4 -72.5 -7t-60.5 -3q-23 0 -40 2t-32 4q4 -29 7.5 -182.5t3.5 -434.5q0 -221 -19 -301q-16 -51 -43.5 -93t-72.5 -77q-125 -90 -204 -135t-116 -45q-49 289 -49 731 q0 162 8 299.5t29 247.5q-66 -4 -114 -5t-77 1q16 -66 17 -317q0 -66 -3 -167.5t-8 -236.5q-2 -135 -4 -236.5t-2 -168.5q0 -221 19 -240q33 -33 159 -33h35q18 0 45 2l236 113q66 33 106.5 58.5t57.5 50.5h14q2 -45 2 -91v-88q0 -369 -113 -395q-8 -2 -16 -2h-14 q-82 0 -216.5 11.5t-324.5 33.5q-10 -23 -18.5 -40t-18.5 -30zM330 1491q125 6 178 0q104 174 166.5 281.5t85.5 156.5q-55 -10 -203 -24z" />
<glyph unicode="&#xfe;" horiz-adv-x="1435" d="M92 -481q29 -4 92.5 -23.5t161.5 -50.5q14 117 22.5 220.5t8.5 197.5q-4 23 -6 38t-2 25l49 1104q14 4 41.5 16.5t68.5 38.5q45 29 77 42.5t50 13.5q25 0 109 39q72 29 96 12q80 -72 127 -129t66 -96q59 -131 88.5 -201t29.5 -86l-6 -29q-61 -559 -207 -559 q-100 0 -239 158l-66 153l-45 435l82 39q27 -41 61.5 -146.5t75.5 -271.5l134 49q-35 184 -86.5 318.5t-122.5 222.5q-143 -63 -217 -136l-27 -510l176 -245q113 -154 197 -154h45q166 0 198 27q51 45 131 284q66 205 84 316q23 129 -120 381q-139 256 -261 305q-8 4 -32 4 q-82 0 -291 -80q-72 -29 -121 -50.5t-74 -31.5q-18 -2 -22 33q-2 0 -3 42t-4 105.5t-5.5 137t-3.5 139t-2 113t-1 55.5q2 39 -47 53h-6l-168 -4q6 -51 14.5 -144.5t14.5 -211t12 -248.5t10 -256t7.5 -234.5t3.5 -183.5q0 -233 -9.5 -401t-25.5 -275q-25 -145 -113 -360z M330 1839q6 -2 16 -2q-4 0 -8 1t-8 1z" />
<glyph unicode="&#xff;" horiz-adv-x="1083" d="M92 -408q371 -86 479 -86q84 0 197 64q53 27 97 55.5t75 61.5q-6 596 6 1013.5t45 665.5q-41 -4 -72.5 -7t-60.5 -3q-23 0 -40 2t-32 4q4 -29 7.5 -182.5t3.5 -434.5q0 -221 -19 -301q-16 -51 -43.5 -93t-72.5 -77q-125 -90 -204 -135t-116 -45q-49 289 -49 731 q0 162 8 299.5t29 247.5q-66 -4 -114 -5t-77 1q16 -66 17 -317q0 -66 -3 -167.5t-8 -236.5q-2 -135 -4 -236.5t-2 -168.5q0 -221 19 -240q33 -33 159 -33h35q18 0 45 2l236 113q66 33 106.5 58.5t57.5 50.5h14q2 -45 2 -91v-88q0 -369 -113 -395q-8 -2 -16 -2h-14 q-82 0 -216.5 11.5t-324.5 33.5q-10 -23 -18.5 -40t-18.5 -30zM233 1788l19 -219q160 2 223 -6q14 72 0 149q-4 29 -6 50.5t-4 37.5q-152 -12 -232 -12zM606 1788l19 -219q157 4 223 -6q12 72 6 149q-6 29 -9 50.5t-7 37.5q-152 -12 -232 -12z" />
<glyph unicode="&#x152;" horiz-adv-x="1867" d="M92 735q4 -59 29.5 -152.5t71.5 -222.5q47 -141 85.5 -229t67.5 -129q18 -23 98 -22q41 0 95.5 6t124.5 16q55 12 69 12q0 -4 3 -2t12 4l12 4q20 39 33.5 75t21.5 67q39 139 27 289l-33 403l-74 389l-192 -6l125 -403v-385q0 -6 1 -36t5 -77q2 -47 0 -113 q-6 -162 -64 -151h-43q-78 0 -92 20q-35 61 -65.5 145.5t-57.5 190.5q-55 209 -61 363q-4 53 21.5 160.5t82.5 273.5q31 98 51.5 164.5t28.5 101.5q61 94 273 94q145 0 165 -299q35 -135 55.5 -221t30.5 -125v-2q23 -106 -32 -461q-23 -160 -47.5 -275.5t-47.5 -191.5h52 q12 -2 20 -4t17 -2q18 0 22 10q199 2 308.5 4t127.5 2h359q-4 35 -7.5 59.5t-11.5 35.5q-49 -10 -101 -16.5t-110 -6.5q-29 0 -72.5 2t-103.5 8q-59 4 -104 6.5t-76 2.5q-12 0 -80 6q-68 12 -76 8v20t2 23q70 199 109 362.5t49 296.5q109 14 214.5 23.5t211.5 19.5l16 66 l-440 -18q0 70 -96 389q-35 104 -59.5 176.5t-38.5 107.5q326 6 493.5 7t183.5 -1q2 39 5.5 70t5.5 53q-180 -14 -390 -23t-456 -16q-16 2 -26.5 4.5t-18.5 2.5q-33 0 -84 -9.5t-127 -25.5q-154 -33 -193 -64q-88 -63 -202 -397q-115 -328 -103 -457z" />
<glyph unicode="&#x153;" horiz-adv-x="1818" d="M92 588q8 -98 88 -314q106 -293 185 -292q98 25 157.5 38t83.5 17q240 47 318 74q14 12 37 174l6 -11q78 -223 141 -274q18 -18 43 -18q29 0 86 13t147 36q180 47 209 75q47 45 72 289q-47 -6 -78 -8t-51 -2q-10 -33 -19.5 -53.5t-15.5 -30.5l-16 -63 q-12 -37 -20.5 -61.5t-14.5 -39.5q-49 -55 -195 -55q-61 0 -104 188l-55 271q-10 41 -13.5 67.5t-3.5 42.5q-8 31 5.5 117t50.5 223q18 63 30.5 116.5t22.5 96.5q43 88 211 88q100 0 110 -14q27 -31 37 -248h-2l-8 -233q-51 -45 -135 -45q-31 0 -49 14l49 285l-117 6 q-70 -178 -70 -332q0 -47 7 -92q14 -2 28 -2h35q211 0 375 69l24 361q10 150 -2 217v6q0 61 -22.5 79.5t-87.5 18.5q-133 0 -249 -19.5t-214 -55.5q-53 -23 -127 -289l-86 260v6q0 61 -20.5 79.5t-88.5 18.5q-139 0 -253.5 -19.5t-213.5 -55.5q-61 -23 -151 -326 q-43 -152 -62.5 -250t-13.5 -143zM291 651q-8 31 7 117t50 223q18 63 29.5 116.5t21.5 96.5q45 88 211 88q102 0 125 -22q2 -4 6 -30t11 -75q20 -57 29.5 -87.5t11.5 -41.5l98 -336l-31 -219q-51 -39 -180 -39q-45 0 -62 9l-16 233l29 367l-135 6q-23 -80 -29 -361 q0 -23 11 -115t34 -257q186 -12 414 67q8 -23 15 -45t17 -45q-45 -4 -70.5 -6t-31.5 -2q-12 -113 -29 -125q-74 -18 -118.5 -30.5t-61.5 -16.5q-43 -12 -85 -19.5t-87 -7.5q-27 10 -47 28.5t-31 45.5q-106 389 -106 483z" />
<glyph unicode="&#x178;" horiz-adv-x="1306" d="M92 1702q203 -424 314.5 -674t134.5 -330q2 -45 3 -89t1 -87q0 -276 -49 -540q72 12 124 16t82 2q0 106 17 178q-16 106 -24.5 197.5t-8.5 165.5q0 37 3 70.5t7 62.5l318 602q72 137 121.5 244.5t78.5 185.5h-129q-35 0 -56 2t-38 4q4 -106 -33 -203 q-66 -176 -138 -330.5t-150 -287.5l-15 -64q-143 305 -229 523.5t-113 355.5q-80 -4 -134 -6t-87 2zM346 2097l19 -223q80 4 135 2t88 -4q12 66 0 147q-6 29 -8 50.5t-2 35.5q-76 -4 -133.5 -6t-98.5 -2zM719 2097l18 -223q78 4 134.5 2t89.5 -4q12 68 6 147 q-6 29 -11.5 50.5t-7.5 35.5q-74 -4 -132 -6t-97 -2z" />
<glyph unicode="&#x2c6;" horiz-adv-x="937" d="M92 1837q41 -4 89 -9t104 -11q27 49 71.5 135t106.5 215q168 -143 168 -244q0 -41 31 -104q31 0 73.5 -1t95.5 -3q4 6 9.5 10t5.5 8q0 6 -6 14t-17 21l-22 22q0 18 -123 176q-57 72 -96 118t-62 69l-138 6t-50 2q0 -55 -76 -209q-51 -109 -94 -137q-8 -10 -24.5 -29.5 t-45.5 -48.5z" />
<glyph unicode="&#x2dc;" horiz-adv-x="796" d="M90 2036l55 -78l80 115q12 2 24.5 3t22.5 1q39 0 60 -11q35 -47 59 -120l96 -23q43 0 74 2t49 4q59 41 119 135l14 129h-96l-22 -108l-80 -49l-68 4q-37 84 -96 153l-109 7q-35 2 -63.5 -5.5t-50.5 -27.5z" />
<glyph unicode="&#x2000;" horiz-adv-x="1143" />
<glyph unicode="&#x2001;" horiz-adv-x="2286" />
<glyph unicode="&#x2002;" horiz-adv-x="1143" />
<glyph unicode="&#x2003;" horiz-adv-x="2286" />
<glyph unicode="&#x2004;" horiz-adv-x="762" />
<glyph unicode="&#x2005;" horiz-adv-x="571" />
<glyph unicode="&#x2006;" horiz-adv-x="381" />
<glyph unicode="&#x2007;" horiz-adv-x="381" />
<glyph unicode="&#x2008;" horiz-adv-x="285" />
<glyph unicode="&#x2009;" horiz-adv-x="457" />
<glyph unicode="&#x200a;" horiz-adv-x="127" />
<glyph unicode="&#x2010;" d="M92 696q326 25 916 25q4 23 15.5 47t27.5 47q-129 -8 -278.5 -11t-323.5 -3q-80 0 -160 1t-168 3q-12 -68 -29 -109z" />
<glyph unicode="&#x2011;" d="M92 696q326 25 916 25q4 23 15.5 47t27.5 47q-129 -8 -278.5 -11t-323.5 -3q-80 0 -160 1t-168 3q-12 -68 -29 -109z" />
<glyph unicode="&#x2012;" d="M92 696q326 25 916 25q4 23 15.5 47t27.5 47q-129 -8 -278.5 -11t-323.5 -3q-80 0 -160 1t-168 3q-12 -68 -29 -109z" />
<glyph unicode="&#x2013;" d="M25 696q326 25 1054 25q4 49 39 94q-129 -8 -312 -11t-425 -3q-80 0 -162 1t-170 3q-4 -35 -11 -62.5t-13 -46.5z" />
<glyph unicode="&#x2014;" horiz-adv-x="1636" d="M25 696q326 25 1566 25q4 51 43 94q-129 -8 -439 -11t-814 -3q-80 0 -162 1t-170 3q-4 -35 -11 -62.5t-13 -46.5z" />
<glyph unicode="&#x2018;" horiz-adv-x="458" d="M92 1602l14 -107q6 -53 0 -96h23q10 0 27.5 -3t38 -6.5t38 -5.5t27.5 -2q37 0 86 17q-6 10 8 74q6 29 8.5 47t2.5 26q0 53 -41 56q0 14 -31 14q-16 0 -34.5 -2t-47.5 -10q18 160 104 221q-33 2 -43 47v65q-180 -117 -180 -335z" />
<glyph unicode="&#x2019;" horiz-adv-x="350" d="M33 1536q0 -55 45 -55q0 -12 35 -13q12 0 31.5 2.5t41.5 6.5q-18 -156 -100 -217q33 -6 43 -52v-61q176 113 176 332l-12 104q-6 59 0 105q-23 -12 -68 0q-33 6 -53 10t-35 4q-39 0 -84 -19q6 -6 -6 -71q-6 -33 -10 -51.5t-4 -24.5z" />
<glyph unicode="&#x201a;" horiz-adv-x="458" d="M92 84q0 -51 45 -51q0 -16 35 -17q23 0 74 11q-12 -158 -101 -215q31 -6 43 -52v-61q177 113 177 332l-13 106q-6 53 0 101q-23 -12 -67 0q-63 14 -88 14q-18 0 -40 -4t-44 -15q4 -8 -9 -73q-8 -33 -10 -51.5t-2 -24.5z" />
<glyph unicode="&#x201c;" horiz-adv-x="784" d="M41 1464l14 -106q6 -53 0 -96h23q10 0 27.5 -3.5t38 -6.5t38 -5t27.5 -2q37 0 86 17q-6 10 8 73q6 29 8 47.5t2 26.5q0 53 -41 55q0 14 -30 15q-16 0 -35 -2t-47 -11q18 160 104 222q-33 2 -43 47v65q-180 -117 -180 -336zM469 1464l14 -106q6 -53 0 -96h23 q10 0 27.5 -3.5t37 -6.5t37 -5t27.5 -2q39 0 88 17q-8 16 6 73q12 58 12 74q0 53 -41 55q0 14 -30 15q-16 0 -36 -2t-46 -11q18 160 104 222q-33 2 -43 47v65q-180 -117 -180 -336z" />
<glyph unicode="&#x201d;" horiz-adv-x="774" d="M35 1579q0 -55 45 -55q0 -12 35 -13q12 0 31.5 2.5t41.5 6.5q-18 -156 -100 -217q33 -6 43 -52v-61q176 113 176 332l-12 104q-6 59 0 105q-23 -12 -68 0q-33 6 -53 10t-35 4q-39 0 -84 -19q6 -6 -6 -71q-6 -33 -10 -51.5t-4 -24.5zM463 1579q0 -55 43 -55q0 -12 37 -13 q12 0 30.5 2.5t42.5 6.5q-18 -156 -100 -217q33 -6 43 -52v-61q176 113 176 332l-12 104q-2 59 0 105q-23 -12 -68 0q-33 6 -54 10t-34 4q-39 0 -84 -19q4 -8 -8 -71q-8 -33 -10 -51.5t-2 -24.5z" />
<glyph unicode="&#x201e;" horiz-adv-x="886" d="M92 84q0 -51 45 -51q0 -16 35 -17q23 0 74 11q-12 -158 -101 -215q31 -6 43 -52v-61q177 113 177 332l-13 106q-6 53 0 101q-23 -12 -67 0q-63 14 -88 14q-18 0 -40 -4t-44 -15q4 -8 -9 -73q-8 -33 -10 -51.5t-2 -24.5zM520 84q0 -51 43 -51q0 -16 37 -17q12 0 30.5 3.5 t43.5 7.5q-8 -78 -32 -132.5t-69 -82.5q31 -6 43 -52v-61q177 113 177 332l-13 106q-2 53 0 101q-23 -12 -67 0q-70 14 -88 14t-40 -4t-44 -15q4 -8 -9 -73q-8 -33 -10 -51.5t-2 -24.5z" />
<glyph unicode="&#x2026;" horiz-adv-x="1714" d="M92 0q78 2 134.5 1t88.5 -3q16 80 20.5 130.5t2.5 68.5q-74 -4 -132.5 -6.5t-99.5 -2.5zM735 0q78 2 134.5 1t88.5 -3q10 80 17.5 130.5t7.5 68.5q-78 -4 -137.5 -6.5t-100.5 -2.5zM1374 0q78 2 134.5 1t88.5 -3q29 160 25 199q-76 -4 -134 -6.5t-99 -2.5z" />
<glyph unicode="&#x202f;" horiz-adv-x="457" />
<glyph unicode="&#x2039;" horiz-adv-x="622" d="M92 922q57 0 209 75q53 27 88 50.5t51 48.5q8 8 27.5 24.5t48.5 44.5q2 -41 8 -90t15 -102q-49 -27 -135.5 -73t-215.5 -109q147 -166 246 -164q23 0 48.5 -8.5t58.5 -24.5q0 -61 6 -168q-6 -4 -11.5 -9t-9.5 -5t-12 6t-20 16l-23 23q-25 0 -178 121q-72 55 -119 94 t-70 61q-4 92 -8 138.5t-4 50.5z" />
<glyph unicode="&#x203a;" horiz-adv-x="622" d="M92 426q8 -4 12.5 -9t8.5 -5t13 6t19 16l23 23q27 0 178 121q72 55 119 94t72 61q4 92 7 138.5t3 50.5q-55 0 -209 75q-53 27 -87 50.5t-50 48.5q-10 8 -28.5 24.5t-47.5 44.5q-4 -41 -10 -90t-13 -102q47 -27 133.5 -73t215.5 -109q-145 -166 -246 -164 q-23 0 -48.5 -8.5t-58.5 -24.5q0 -61 -6 -168z" />
<glyph unicode="&#x205f;" horiz-adv-x="571" />
<glyph unicode="&#x2122;" horiz-adv-x="1849" d="M72 1690q6 -86 18 -127q121 29 270 34q6 -68 11.5 -142.5t9.5 -156.5q4 -170 1 -279.5t-20 -160.5q61 2 107.5 -3t73.5 -21q-49 78 -39 114q4 25 4 39v19q-8 154 -10 234.5t-2 92.5q0 256 12 258q18 6 65.5 8.5t124.5 2.5q33 0 59.5 -1.5t47.5 -3.5q0 72 20 115 q-154 -10 -297 -16t-278 -6h-178zM684 1544q27 -57 40 -113.5t17 -116t4 -122.5v-131q0 -121 -12 -203q47 10 89 14.5t73 -0.5q-10 41 -14 108t-4 163q0 135 2 143q6 57 90 119q80 61 143 61q6 0 13.5 -9t15.5 -21.5t13 -24.5t5 -16q8 -41 10 -92.5t2 -110.5q0 -63 -2 -144 t-6 -184q31 4 71 6t87 2q-20 43 -21 177q0 86 4.5 146t10.5 97q10 66 104 119q96 57 160 57q33 0 33 -176q0 -68 -5 -175t-10 -257q31 4 52 4h39q14 0 30.5 -2t36.5 -4q-18 51 -18 227q0 66 6 199q4 68 6 118t2 83q0 45 -2 47q-16 31 -74 31q-29 0 -58.5 -2t-62.5 -5 q-27 -4 -62.5 -17t-72.5 -32.5t-70.5 -43t-56.5 -44.5q-4 53 -7 87t-13 50q-14 2 -27 3h-24q-35 0 -68 -1.5t-61 -3.5q-23 -4 -54.5 -16t-68.5 -35q-35 -20 -63.5 -41.5t-47.5 -40.5v142q-2 0 -22.5 -4.5t-61.5 -12.5t-90 -2z" />
<glyph unicode="&#x25fc;" horiz-adv-x="1372" d="M0 0v1372h1372v-1372h-1372z" />
</font>
</defs>
</svg>
