<?xml version="1.0" standalone="no"?>
<!DOCTYPE svg PUBLIC "-//W3C//DTD SVG 1.1//EN" "http://www.w3.org/Graphics/SVG/1.1/DTD/svg11.dtd" >
<svg xmlns="http://www.w3.org/2000/svg" xmlns:xlink="http://www.w3.org/1999/xlink" version="1.1">
<metadata></metadata>
<defs>
<font id="lexifont4medium" horiz-adv-x="20" >
<font-face units-per-em="2048" ascent="1638" descent="-410" />
<missing-glyph horiz-adv-x="860" />
<glyph horiz-adv-x="0" />
<glyph unicode="&#xd;" horiz-adv-x="681" />
<glyph unicode=" "  horiz-adv-x="860" />
<glyph unicode="&#x09;" horiz-adv-x="860" />
<glyph unicode="&#xa0;" horiz-adv-x="860" />
<glyph unicode="!" horiz-adv-x="333" d="M20 1448q0 45 7.5 72.5t15.5 33t12 17.5t-2 31q-6 23 5.5 29.5t50.5 6.5q18 0 26 -1t17.5 -2t12.5 -7t8 -13t6 -22.5t4 -34t6.5 -47t7.5 -60.5t12 -79t18 -98q16 -80 35 -323.5t25 -424.5q0 -18 -17.5 -24t-38 2t-28.5 26q-16 29 -44 431.5t-36 437.5q-14 74 -41 67 q-12 -2 -19 -34q-10 -57 -26 -58q-17 2 -17 74zM117 -24.5q-21 30.5 10 77.5q20 31 40.5 40t65.5 5t60.5 -13t19.5 -40q6 -43 -26.5 -71.5t-87.5 -28.5q-61 0 -82 30.5z" />
<glyph unicode="#" horiz-adv-x="1628" d="M20.5 382q-0.5 7 14.5 26q23 29 63 8q35 -18 212 -11t198 27q16 14 20 385q4 369 33 387q8 4 23 -10q14 -14 27.5 -366.5t19.5 -364.5q10 -16 191.5 9.5t236.5 51.5q20 10 34.5 27.5t14.5 34.5q0 14 24.5 182t28.5 258q4 82 -1 105.5t-27 29.5q-31 8 -35.5 50t22.5 69 q84 84 105 -102q12 -106 6 -304q-10 -248 10 -282q16 -31 84 0q10 4 23 10q104 49 104 -16q0 -18 -57.5 -44t-122 -53.5t-78.5 -42.5q-20 -25 -31 -157l-12 -133l96 14q96 14 117 35q18 16 121.5 14t116.5 -20q14 -23 -11 -33t-141 -33q-158 -31 -213 -44t-74 -30 q-16 -14 -41 -170q-25 -150 -57 -149q-8 0 -16 8q-16 12 -19.5 46t2.5 116l12 139l-57 -12q-33 -8 -98.5 -17.5t-116.5 -18.5t-72 -19q-31 -16 -34.5 -74t22.5 -101q14 -25 14 -37t-14 -26q-18 -16 -38.5 -7t-38 43t-23.5 81l-13 73l-153 3q-152 0 -175.5 23.5t17.5 33.5 q31 8 129 16q111 12 131 23q12 8 9 155.5t-15 163.5q-4 4 -104 -12q-68 -10 -196 -1t-181 30q-16 6 -16.5 13zM629 203l6 -129l88 2q88 4 203.5 30.5t131 46t23.5 146.5q4 94 -2 111.5t-41 19.5q-51 4 -208.5 -27.5t-180.5 -50.5q-27 -20 -20 -149z" />
<glyph unicode="$" horiz-adv-x="1085" d="M20 836q0 100 41 163q35 57 157 171t147 114q45 0 78.5 62.5t43.5 160.5q8 90 17.5 110.5t40.5 20.5q16 0 24.5 -2t12.5 -8t3 -14t-4 -24.5t-7.5 -34t-7.5 -46t-3 -57.5l-2 -59l164 -13q111 -8 147.5 -19t79.5 -52q53 -53 83 -166t30 -264q0 -98 -14 -97q-23 4 -31 158 q-8 137 -39 215q-23 59 -53.5 83t-165.5 89q-39 20 -107.5 2t-91.5 -53q-10 -14 -17 -50t-12.5 -102.5t-8.5 -124t-8 -165t-9 -177.5q-4 -43 6 -58t49 -32l166 -61q43 -16 98.5 -49t87.5 -62q51 -45 65.5 -71.5t12.5 -75.5q0 -76 -28 -135q-27 -55 -115 -114.5t-148 -64.5 q-39 -4 -83 -16t-87 -26.5t-55 -18.5q-27 -6 -16 -72l22 -137q10 -51 4 -62.5t-38 -11.5q-41 0 -57.5 47.5t-16.5 167.5q0 35 -4 65t-9.5 44t-10.5 24.5t-5 15.5t6 9q16 10 24.5 286.5t-5.5 299.5q-18 27 -92 26q-45 0 -79 16.5t-87 63.5q-66 57 -79.5 84t-13.5 97zM119 182 q0 35 47 0q51 -39 51 -76q0 -41 -63 31q-35 37 -35 45zM119 768q53 -111 209 -119q53 -4 66.5 5.5t23.5 58.5q14 61 27.5 287.5t-7.5 244.5q-29 0 -132 -89t-148 -152q-92 -125 -39 -236zM276 43q2 10 15.5 9t29 -8t15.5 -13t-31 -6q-10 0 -19.5 5t-9.5 13zM454 128 q-1 -34 1 -69.5t5 -51t13 -31t19.5 -17.5t32 -2t42 5t56.5 18q156 43 237.5 129t46.5 172q-39 92 -225 174q-168 74 -201 18q-14 -23 -22 -250q-4 -61 -5 -95z" />
<glyph unicode="%" horiz-adv-x="1495" d="M27.5 863.5q-23.5 113.5 22.5 212t59 34.5q6 -35 -3 -111q-10 -84 -3.5 -111.5t42.5 -72.5q33 -39 58.5 -51t75.5 -12q74 0 134 41t48 86q-31 117 -46.5 159.5t-32.5 58t-52 17.5q-29 2 -36 13.5t-5 52.5q4 57 -9.5 61t-74.5 -37q-78 -51 -117 -37q-10 4 -10 15 q0 18 49 71q29 31 53.5 40.5t68.5 6t60.5 -13.5t20.5 -37q6 -45 61 -73q90 -47 123 -161t-18 -204q-41 -74 -161 -104.5t-208 10.5q-76 33 -99.5 146.5zM162 -126q-8 38 14 89q29 63 64.5 141t46 100.5t36 71t54.5 91.5t82 122q397 592 432 676q29 70 45 86q12 12 35.5 13.5 t35 -10t-14 -82t-54.5 -101.5q-35 -37 -35 -55q0 -14 -72.5 -124t-140.5 -196q-61 -78 -61 -96t-39 -68q-61 -78 -169 -276.5t-138 -290.5q-25 -74 -42.5 -101.5t-37.5 -27.5q-33 0 -41 38zM752.5 183.5q-4.5 29.5 3.5 101.5q10 104 61 206.5t115.5 174t132.5 129t116 86 t62 28.5q68 0 137.5 -98t57.5 -178q-2 -18 3 -28.5t13 -16.5t14.5 -34t6.5 -77q0 -63 -13.5 -94t-70.5 -92q-82 -90 -106.5 -90t-24.5 -19.5t-21 -19.5q-59 0 64 129q94 100 113.5 144t-11.5 91q-23 33 -24 59.5t6.5 42t-5 46.5t-53.5 74q-47 49 -65.5 57t-44.5 -8 q-39 -25 -66 -25t-125 -122t-141 -208q-41 -82 -41 -170q0 -86 34.5 -108.5t135.5 -3.5q94 18 110 8q45 -29 -28 -59q-66 -27 -172 -31q-68 -4 -93.5 4t-50.5 41q-25 31 -29.5 60.5z" />
<glyph unicode="&#x26;" />
<glyph unicode="'" horiz-adv-x="169" d="M23.5 963q13.5 264 48.5 319q12 23 28 23q18 0 38 -29t7 -39q-14 -14 -24 -279q-12 -305 -55 -305q-10 0 -25 15q-31 31 -17.5 295zM82 1423q0 18 29.5 18.5t29.5 -49t-16 -49.5q-14 0 -28.5 27.5t-14.5 52.5z" />
<glyph unicode="(" horiz-adv-x="643" d="M20.5 384q4.5 204 57.5 607q18 129 41 172t67 45q35 0 25 -32v-5q-39 -96 -84 -534q-23 -227 -23 -299t25 -184q33 -162 97.5 -279t135.5 -147q33 -14 73 -37t108 -53l80 -37l-103 -7q-72 -4 -105.5 9.5t-115.5 77.5q-102 80 -148.5 148.5t-89.5 205.5q-45 145 -40.5 349 zM147 1360q14 23 31 22q23 0 31 -24.5t-8 -40.5q-20 -20 -44 -1t-10 44z" />
<glyph unicode=")" horiz-adv-x="950" d="M37 1526q33 33 64.5 4t31.5 -88q0 -49 39 -58q20 -4 53 -30.5t109 -97t151 -134.5q100 -86 169 -170t177 -260q68 -109 87.5 -202t5.5 -236q-10 -84 -26.5 -121t-74.5 -104q-121 -137 -260 -202t-221 -22q-74 41 33 62q18 4 47 8q100 12 172 59q186 119 240.5 300.5 t-41.5 351.5q-57 98 -86 155q-27 55 -161 194.5t-329 315.5q-137 125 -175 183.5t-5 91.5z" />
<glyph unicode="*" horiz-adv-x="1019" d="M20 1253q0 23 41 36.5t107 13.5q70 2 138.5 24.5t68.5 44.5q0 20 -108.5 123.5t-131.5 103.5q-16 1 -16 19q0 43 84 12q61 -23 121 -71q113 -92 127 -70q4 6 4 20q0 10 8 21.5t20 15.5q25 10 47.5 -31.5t22.5 -95.5q0 -78 90 8q20 18 43 43q121 137 121 64q0 -10 -4 -23 q-6 -37 6 -44t78 -7q92 0 106 -12q23 -23 -24 -49q-29 -16 -64 -17q-49 0 -94 -20.5t-82 -26.5q-49 -10 -88 -39q-29 -20 -29 -33.5t29 -70.5q25 -45 68 -119t71.5 -122t28.5 -58q0 -18 29 -43q18 -14 27 -8t24 41q23 59 37 32t4 -104q-23 -158 -127 -63q-76 68 -121 176 q-12 27 -12 39q0 25 -45 84t-64 59q-10 0 -4 -74q2 -49 -4 -61.5t-41 -12.5q-31 0 -41 13.5t-12 62.5q-6 63 -20.5 68.5t-59.5 -41.5q-47 -49 -114.5 -83t-86.5 -17q-20 20 -5 53t50 45q33 10 122 89t89 97q-6 6 -48 6t-111.5 -7t-124.5 -19q-129 -27 -130 28zM444 1620 q-4 14 15 16q6 2 14 2q16 0 27.5 -6t11.5 -14q0 -19 -29 -19q-33 0 -39 21zM780 1628q8 10 47 10t47.5 -10t-8 -19.5t-38 -9.5t-39 9.5t-9.5 19.5z" />
<glyph unicode="+" horiz-adv-x="1449" d="M27 258q-14 6 2 21q16 14 196 57q223 51 256 76q27 27 27 88q0 86 -27 215q-27 119 -42 330.5t-1 236.5q29 47 58 -14q10 -25 18 -64q35 -217 46 -389t13 -236.5t23 -91.5q12 -18 18.5 -22t50.5 -2t134 24.5t260 69.5q84 23 191.5 43.5t152.5 22.5q16 2 24 -23 q6 -14 -26.5 -33.5t-80.5 -35t-85 -15.5q-35 0 -71 -9t-126 -36t-204 -53q-197 -45 -226 -53q-16 -4 -19 -35t5 -121q10 -147 33 -176q27 -31 16.5 -103.5t-41.5 -79.5q-35 -6 -54.5 53.5t-31.5 219.5q-14 178 -25.5 185t-199.5 -32q-213 -45 -264 -18z" />
<glyph unicode="," horiz-adv-x="329" d="M20 -410l52 68q51 66 90 203t31 223q-8 94 2 104q18 18 42.5 8t49.5 -44q18 -31 21 -62t-9 -102q-16 -98 -49 -201.5t-62 -153.5q-29 -43 -98 -43h-70z" />
<glyph unicode="-" horiz-adv-x="1120" d="M20 487q0 27 35 26t76 -10t74 7q14 6 221 10t421 -4t236 -31q29 -29 4 -51q-14 -14 -36.5 -14t-75.5 14q-88 23 -520 23q-287 0 -361 5t-74 25z" />
<glyph unicode="." horiz-adv-x="225" d="M21.5 -69q5.5 42 50.5 83q47 43 75.5 45t49.5 -34q18 -35 -3.5 -81t-64.5 -70t-76 -5q-37 20 -31.5 62z" />
<glyph unicode="/" horiz-adv-x="1056" d="M21.5 -190.5q1.5 8.5 4.5 16.5t10 22.5t15 27.5t21.5 38t25.5 47q29 55 60.5 96t42.5 66q8 18 149.5 260t204.5 379q76 158 92 186l88 154q31 49 62.5 92t48.5 51q31 16 34 59t21 66q20 25 57 32t50 -13q8 -16 22 -91q8 -45 4 -59t-20 -14q-14 0 -22.5 9t-8.5 22.5 t-7 20.5t-18 3q-20 -6 -92.5 -118.5t-120.5 -213.5q-8 -16 -96 -188t-108 -223q-8 -20 -53.5 -93t-65.5 -118q-18 -41 -49 -77t-103 -177q-33 -70 -67.5 -125.5t-50.5 -63.5q-35 -18 -35 -45q0 -33 -32 -54.5t-52 -0.5q-6 6 -9.5 12t-2 14.5z" />
<glyph unicode="0" horiz-adv-x="927" d="M29 180q-25 205 19 420t134 322q49 57 203 112q68 25 150.5 0.5t138 -82t47.5 -116.5q-4 -29 20 -60q39 -47 68 -108.5t29 -96.5q0 -39 17 -69.5t24.5 -46t-9.5 -72.5q-23 -63 -43 -61q-10 -1 -10 28q0 4 -12 50t-40 119t-62.5 142.5t-86 119.5t-106.5 50q-66 0 -78 -20 q-10 -18 -28.5 -17t-18.5 19q0 10 13.5 21.5t39.5 27.5q25 16 35 24.5t18.5 22t-7 23.5t-50.5 20q-37 10 -62.5 -2t-84.5 -59q-53 -47 -78 -85t-45 -108q-33 -115 -46.5 -261t-0.5 -265q14 -129 56 -180t142 -60q94 -8 235.5 25t211.5 78q51 33 63.5 54.5t12.5 82.5 q0 82 18 85t41 -77q14 -53 9 -75.5t-44 -71.5q-45 -57 -122.5 -93t-207.5 -61q-348 -63 -446 74q-35 47 -57 227zM561 910.5q0 -19.5 19.5 -19.5t19.5 19.5t-19.5 19.5t-19.5 -19.5z" />
<glyph unicode="1" horiz-adv-x="464" d="M25 1067q14 23 42.5 -1t9 -43t-42.5 1t-9 43zM94 849q-6 89 12 105q12 10 28 2t27 -33.5t11 -54.5q0 -25 5 -48t15.5 -53t32 -119t47.5 -212q102 -496 154 -555q18 -20 17 -34.5t-21 -47.5q-70 -106 -105 25q-8 29 -20 96q-16 86 -27 105q-23 41 -70.5 329.5t-76.5 352.5 q-23 53 -29 142z" />
<glyph unicode="2" horiz-adv-x="1167" d="M20 1057q0 8 27 63q31 62 94 103q76 47 138.5 38.5t132.5 -75.5l77 -80v-209q0 -119 -15 -231.5t-38.5 -189.5t-49.5 -138.5t-45 -92t-28.5 -35.5t-29 -37t-31.5 -61.5t-6 -29.5q10 0 52 23.5t133 61.5t206 64q158 37 281 37q82 2 111.5 -7t64.5 -44l53 -53l-47 -19 q-29 -10 -47.5 -7t-28.5 14.5t-26.5 22.5t-40 17.5t-68.5 0.5q-268 -47 -359.5 -65.5t-132.5 -37.5q-61 -27 -88.5 -27t-103.5 -79q-57 -57 -107.5 -73.5t-70.5 15.5q-10 18 49 108.5t59 96.5q0 10 68.5 98t81.5 129q8 29 37.5 83.5t29.5 95.5q0 51 41 213q35 141 28 215.5 t-63 140.5q-70 84 -105.5 88t-98.5 -66q-76 -80 -105 -79q-29 0 -29 8z" />
<glyph unicode="3" horiz-adv-x="1163" d="M20 761.5q0 20.5 11.5 26t21.5 -4t10 -20.5t-10 -20.5t-21.5 -5.5t-11.5 24.5zM90 868q-6 10 30 43t97.5 75t138 87t157.5 80t151.5 54.5t123 8t68.5 -56.5q37 -104 -184 -356q-119 -135 -99 -160q6 -8 37 -8q18 0 30.5 -7t41.5 -23.5t78 -31.5q150 -47 266.5 -177 t116.5 -249q0 -76 -35 -152.5t-84 -105.5q-104 -63 -246.5 -77.5t-214.5 32.5q-57 39 -102 29q-29 -6 -48.5 9.5t-56.5 74.5q-86 133 -43 143q6 2 15 2q31 0 68.5 -31.5t37.5 -56.5q0 -12 29 -36.5t69 -51.5q72 -43 103 -49t127 8q213 29 272.5 161t-69.5 292 q-66 86 -211.5 154.5t-257 70.5t-111.5 27q0 14 53.5 73.5t127 140.5t106.5 126q41 55 68.5 122.5t15.5 80.5q-12 12 -77 -2.5t-95 -36.5q-39 -27 -82 -27q-33 0 -70 -30.5t-63 -39.5q-23 -8 -56.5 -31.5t-63.5 -47t-64.5 -44t-55.5 -22.5t-39 16zM377 174q-2 51 27.5 86 t29.5 57q0 27 42 58t96.5 45t66.5 13t12 -13q0 -10 -41 -30.5t-78.5 -44t-33.5 -44.5q2 -14 -6.5 -33.5t-19.5 -34t-33.5 -42t-32.5 -39.5q-20 -29 -24.5 -26t-4.5 48z" />
<glyph unicode="4" horiz-adv-x="1003" d="M30.5 314.5q20.5 113.5 26.5 496.5q4 340 19 371q6 16 28 20q47 6 58 -43q14 -72 -23 -485l-14 -148l57 49q74 68 132.5 94.5t146.5 35.5q68 6 127 -5.5t98 -33t68.5 -43t46 -33.5t20.5 -6q10 8 -5 183t-36 282q-18 108 -18 202q0 92 22 90q12 0 31 -22q29 -35 56.5 -245 t27.5 -388q0 -162 7 -207t36 -76l41 -45l-43 -47q-29 -31 -41 -82t-27 -202q-23 -236 -38 -250.5t-43 10.5q-27 23 -28 113t13.5 184t28.5 188.5t14 112.5q0 14 -29.5 56t-70.5 85q-76 80 -103.5 94.5t-115.5 14.5q-74 0 -109 -11.5t-80 -45.5q-72 -55 -104 -66 q-27 -10 -34 -88t-26 -98q-25 -31 -34 -111q-14 -94 -47 -88q-16 2 -33 33q-23 41 -2.5 154.5z" />
<glyph unicode="5" horiz-adv-x="1226" d="M21 266.5q-5 26.5 18 63.5q31 47 31 123q0 39 4 58t11 29.5t19.5 47.5t24.5 96q18 90 51 185.5t43 148.5l17 80l137 22q102 16 207.5 50t142.5 34q53 2 49 -18q-6 -29 -96 -58q-45 -12 -91 -29.5t-78 -26.5t-77 -15q-80 -12 -104.5 -39t-42.5 -119q-20 -104 -49 -127 q-14 -12 -22.5 -61t-5.5 -92.5t17 -43.5q20 0 52 48q43 63 152.5 119.5t256.5 86.5q63 14 104.5 10.5t129.5 -32.5q113 -37 169 -96.5t95 -186.5q27 -104 18.5 -202.5t-58.5 -186.5t-121 -153.5t-168 -101.5t-200 -30q-98 4 -100 25t94 33q221 29 350 176t109 350 q-14 152 -93 233t-229 97q-78 10 -163.5 -16.5t-210.5 -98.5q-74 -41 -139.5 -112.5t-65.5 -108.5q0 -39 -61.5 -113.5t-92.5 -74.5q-29 0 -34 26.5zM379 156q12 31 22 -4q2 -8 7 -25q8 -49 39.5 -96t70.5 -72q29 -18 23 -35.5t-43 -17.5q-66 0 -107 86t-12 164zM868 1180.5 q-4 54.5 4 70.5q10 16 33 7t39 -39q20 -31 -16.5 -72t-46 -31t-13.5 64.5z" />
<glyph unicode="6" horiz-adv-x="991" d="M20.5 490.5q-0.5 21.5 7 38t20.5 66.5t22 118q25 158 64.5 247t127.5 173q96 92 184.5 139t139.5 45q33 -2 42 -16.5t13 -69.5q4 -66 -13.5 -115t-43.5 -49q-23 0 -11 43q14 57 -2 95t-55 30q-41 -6 -126 -82t-116 -135q-111 -201 -135 -365q-14 -78 13 -78q25 0 145 31 q162 43 337 9.5t243 -121.5q37 -47 49 -107l32 -156q14 -68 10.5 -91t-38.5 -68q-113 -150 -383 -162q-100 -6 -139 1t-103 42q-70 41 -117 85t-70.5 94t-35.5 92t-25.5 105.5t-25.5 104.5q-10 35 -10.5 56.5zM133 383q0 -90 48 -181t128 -153q57 -45 93 -55t139 -10 q94 0 137 9t96 42q76 43 91.5 83t-3.5 140q-20 104 -10 121q8 14 -63.5 78t-118.5 80q-66 27 -259.5 8t-252.5 -56q-25 -14 -25 -106z" />
<glyph unicode="7" horiz-adv-x="1333" d="M33 1001q-35 43 45 68q88 25 407 57q172 16 242 39t117 31q55 8 92 20.5t50 18.5t26 2q12 -4 18 -28.5t6 -63.5t-3 -83t-9 -92t-11 -85t-10.5 -68t-5.5 -35q-4 -27 9.5 -32t56.5 2q80 8 145 10q59 0 80 -7t25 -28q6 -35 -26 -35t-42 -28.5t-106 -28.5q-117 0 -156 -26.5 t-68 -125.5q-23 -86 -33 -192.5t-36 -188.5q-18 -57 -40 -92t-42.5 -43t-38.5 10q-25 25 16 150q31 88 43.5 148.5t28.5 197.5l12 84l-104 -8q-102 -8 -103 -33q0 -10 -20 -28.5t-49 -32.5q-41 -25 -61.5 -26t-45.5 13q-86 57 -2 97q51 23 76 -2q23 -25 36 -20t17 22.5 t15.5 36t31.5 18.5q23 0 106 48t112 54q27 4 39 39t22 89.5t27 82.5q25 45 20.5 124t-29.5 87q-18 8 -78.5 -3t-164 -30.5t-191.5 -27.5q-137 -12 -166 -39q-35 -29 -147.5 -35t-132.5 18z" />
<glyph unicode="8" horiz-adv-x="1001" d="M82 1051q-166 121 100 202q115 33 303 58q59 6 72 10q20 4 178 -41t189 -66q45 -31 54 -80t-20 -106q-33 -66 -202 -252l-170 -186l43 -82q45 -80 45 -111q0 -23 13 -41t17.5 -27.5t-8.5 -43.5q-10 -23 -11 -29t9.5 -17.5t22.5 -19.5t28.5 -34.5t26.5 -63.5 q33 -123 -48 -205t-204 -53q-127 29 -176 91t-51 198q0 78 38 185t99 198q31 45 33 82.5t-20.5 104t-96.5 243.5q-33 78 -88 139t-92 61t-42 -9t7 -23.5t22.5 -41t0.5 -51.5q-6 -16 -12.5 -19t-18.5 3t-41 27zM318.5 1194q-13.5 -31 29.5 -68q29 -24 29 -49q0 -18 40 -74.5 t40 -70.5q0 -20 51 -135l53 -113l88 98q213 238 234 310q20 63 -62 94q-25 10 -69 22q-94 25 -172 29t-187 -6q-61 -6 -74.5 -37zM383 73.5q31 -108.5 172 -143.5q59 -16 74.5 -10t44.5 51q18 29 23 50.5t3 35t-10 42t-12 53.5q-8 59 -49 147l-62 135q-33 74 -84 4 q-18 -29 -47 -84q-84 -172 -53 -280.5z" />
<glyph unicode="9" horiz-adv-x="1185" d="M21.5 948q9.5 168 93.5 299q51 80 95 112t124 44q66 10 148.5 3t121.5 -26q20 -12 71.5 -73.5t84.5 -61.5q39 0 49 -28q12 -35 84 -367t127 -453q23 -51 64.5 -253.5t60.5 -262.5q27 -84 17.5 -119.5t-56.5 -29.5q-37 6 -45 47t-34 191.5t-87 328.5q-12 39 -33 121 q-39 147 -63 153q-18 6 -43 -45q-25 -57 -120 -96t-185 -29q-125 12 -247 84t-167 156q-70 137 -60.5 305zM97.5 899q15.5 -154 101.5 -260q100 -121 263 -157t238 48q113 121 76 332q-27 150 -91 296.5t-103 146.5q-34 0 -54 16q-78 57 -154.5 35.5t-132 -68.5t-55.5 -69 q0 -16 -36 -70q-68 -96 -52.5 -250z" />
<glyph unicode=":" horiz-adv-x="350" d="M20 467q0 45 11.5 62.5t52.5 35.5q59 27 85 28t46 -24q25 -31 4.5 -75.5t-74.5 -77.5q-66 -41 -95.5 -29t-29.5 80zM156.5 -6q23.5 80 76.5 86q37 4 74 -39q33 -35 20.5 -65.5t-77.5 -77.5q-31 -23 -46.5 -26t-33.5 13q-37 29 -13.5 109z" />
<glyph unicode=";" horiz-adv-x="278" d="M21.5 672.5q-1.5 13.5 11 38t41.5 55.5q39 39 64.5 52t60.5 9q43 -4 50 -16t3 -70q-4 -76 -39 -116q-23 -14 -25 22q0 90 -69 39q-27 -18 -26 -25.5t32 -23.5q49 -27 43 -51q-2 -11 -18 -11q-12 0 -47 30t-50 30q-2 0 -9 3t-14 12t-8.5 22.5zM35 -168q12 37 63 -8 q2 -4 6 -8q59 -59 60 37q0 41 -12 106q-53 279 -33 332q14 41 41 18q20 -18 20 -61q2 -57 33 -125q39 -88 45 -202t-25 -173q-68 -133 -155 -29q-57 72 -43 113z" />
<glyph unicode="&#x3c;" horiz-adv-x="1177" d="M20 424q0 27 231.5 190.5t412.5 266.5l124 71q68 43 197 107q102 51 134 55t38 -31q4 -23 -33 -53.5t-110.5 -69t-155.5 -80.5t-190.5 -101.5t-194.5 -116.5l-121 -76q-195 -123 -194 -162q0 -31 43 -68q72 -59 283.5 -137t254.5 -98q78 -39 109 -39q33 0 86 -48t43 -67 q-16 -27 -65.5 -20.5t-90.5 39.5q-49 39 -78 39q-27 0 -177 68.5t-179 68.5q-23 0 -112 45t-173 110.5t-82 106.5z" />
<glyph unicode="=" horiz-adv-x="1357" d="M22.5 538.5q-14.5 49.5 63.5 84.5q63 27 528 28q424 2 482 -20q29 -12 28 -41q0 -14 -489.5 -14.5t-501.5 -13.5t19 -48q20 -23 16 -28t-41 -3q-90 6 -104.5 55.5zM41 319q0 38 561 56q705 25 729 0q14 -14 4 -43q-10 -23 -197.5 -28t-443.5 -5t-360 -12 q-92 -10 -192.5 1t-100.5 31z" />
<glyph unicode="&#x3e;" horiz-adv-x="1103" d="M31 1200q-25 47 4 45q25 -2 71 -41q49 -39 75 -39t85 -30q51 -25 269.5 -66t310.5 -41q70 0 147.5 -19.5t89.5 -41.5q10 -18 -159.5 -200.5t-402 -438.5t-328.5 -404q-74 -113 -119 -92q-12 6 -19 23q-12 31 107 191.5t295 350.5q459 496 458 531q0 20 -102 22 q-174 0 -449.5 65.5t-297.5 112.5q-12 27 -35 72z" />
<glyph unicode="?" horiz-adv-x="1263" d="M30.5 1362q20.5 86 100.5 184q45 53 73.5 72.5t61.5 19.5q35 0 35 -8q0 -14 -111 -119q-80 -76 -101 -106.5t-7 -44.5q25 -25 24.5 -129.5t44 -128t197.5 1.5q88 12 121 11t49 -17q25 -25 8 -33q-20 -10 -184 -37q-94 -16 -134 -14t-87 20q-72 31 -76 47l-10 56 q-25 139 -4.5 225zM596 -31q-10 152 37 187q35 27 73.5 23.5t53 -30t0.5 -65.5q-18 -33 -4 -47t53 0q31 12 29 -2q-2 -27 -60 -62q-12 -8 -22 -12q-154 -78 -160 8zM604 1206q-4 10 0 15.5t14 1.5q25 -8 23 -24.5t-18 -12.5q-13 2 -19 20zM741 434q-4 51 6.5 84t40.5 78 q25 37 48.5 60.5t35 28.5t17.5 11t6 19q0 16 33 58t83 112.5t83 142.5q66 145 75 207.5t-28 132.5q-29 57 -29 91t-37 106l-39 73h45q45 0 66.5 -32.5t62.5 -165.5q27 -90 30 -171t-15.5 -148.5t-47 -128t-70.5 -120t-81 -112.5t-81 -119t-66 -125q-51 -119 -66.5 -143.5 t-38.5 -24.5q-27 0 -33 86zM809 203q10 20 45 14q20 -4 32.5 -38t7.5 -65.5t-26 -31.5q-27 0 -50 49t-9 72z" />
<glyph unicode="@" horiz-adv-x="1904" d="M20 436q0 104 4.5 156.5t10.5 62t16 25.5t19 47q4 23 39.5 76t78.5 104q127 150 268.5 231.5t331.5 114.5q418 72 691 -55q78 -37 195.5 -153.5t129.5 -172.5q4 -18 13.5 -47.5t18.5 -58.5t18.5 -60.5t16.5 -57t11 -47t1 -34t-11 -12.5q-23 0 -64 70.5t-65 154.5 q-25 84 -104.5 195.5t-114.5 111.5t-76 37q-51 45 -197.5 69t-332 8.5t-320.5 -77.5q-86 -37 -104 -37q-23 0 -179.5 -164.5t-156.5 -185.5q0 -16 -9.5 -33.5t-20.5 -37t-23.5 -71.5t-18.5 -128q-12 -162 35 -277.5t178 -248.5q133 -133 156 -134q20 0 36.5 -12t40 -31.5 t124 -52.5t262.5 -65q100 -20 157.5 -25.5t86 -1.5t103 18.5t154.5 22.5q66 8 162 37t158.5 49.5t68.5 13.5q23 -25 -75 -77q-31 -16 -70 -35l-129 -58h-829l-168 82q-336 166 -457 422q-41 88 -50.5 140.5t-9.5 201.5zM395.5 364.5q-14.5 161.5 96.5 303.5q85 108 296 155 q176 39 255 13.5t161 -148.5q49 -74 62.5 -108.5t5.5 -71.5q-27 -125 -26 -182.5t32 -100.5q43 -59 108 -92q51 -23 151.5 -29t145.5 11q33 12 82.5 116.5t61.5 188.5q14 98 33.5 95t15.5 -101q-4 -125 -11 -163t-26 -44q-27 -10 -27 -45t-41.5 -67t-110.5 -48t-147.5 -17 t-161.5 29.5t-145 87.5l-63 62l-45 -43q-51 -49 -119 -66.5t-205 -17.5q-100 0 -147 8t-86 33q-131 80 -145.5 241.5zM498 418q-6 -100 1 -126t56 -71q90 -82 245.5 -79t233.5 87q88 96 117 166t16 164q-8 70 -37 111.5t-90 74.5q-47 23 -69.5 24t-118.5 -17 q-127 -18 -168 -37t-102 -80q-53 -55 -66.5 -88t-17.5 -129z" />
<glyph unicode="A" horiz-adv-x="831" d="M20 -156q-4 29 8.5 50.5t32 58.5t25.5 98q6 72 50 182.5t69 202.5l49 199q12 43 40 235.5t42 231.5l20 53l45 -55q35 -43 46.5 -89t35 -165t68.5 -264q39 -121 39 -162q0 -31 19.5 -51.5t19.5 -51.5q0 -37 88 -204q96 -185 96 -264q0 -28 -12 -42q-8 -10 -25 -10 q-23 0 -34 15.5t-17 54.5q-15 80 -65 162q-48 77 -78 77h-4q-35 -4 -126.5 -5t-158 -7t-78.5 -22q-20 -25 -47 -150q-18 -88 -30 -106.5t-52 -18.5q-35 0 -48 9.5t-18 37.5zM209 238.5q2 -11.5 18 -33.5q18 -29 48 -36t116 -7q123 0 153 24q15 12 14 35q0 24 -15 62 q-41 95 -111 462q-25 123 -47 125q-12 2 -12 -45q0 -31 -31 -130t-49 -210q-10 -68 -27.5 -117t-30 -67t-20.5 -34.5t-6 -28z" />
<glyph unicode="B" horiz-adv-x="1118" d="M27 885q-7 6 -7 16q0 24 46 69q64 62 151 110q70 38 111 38q10 0 18 -2q37 -12 37 4.5t57.5 48t159.5 61.5t199 32h16q45 0 69 -10q28 -12 68 -48q61 -61 62 -88q0 -37 -109.5 -185.5t-167.5 -187.5q-73 -51 -73 -72q0 -8 10 -12q14 -6 51 -6q70 0 174 -45 q63 -29 93 -56.5t59 -82.5q46 -89 45 -192q0 -77 -25 -162q-16 -57 -53 -108.5t-123 -137.5q-82 -84 -120 -119t-93 -59.5t-101 -27.5t-151 -3h-203l-67 66q-46 44 -56 70q-7 18 -7 57q0 16 1 36q10 164 142 213q10 6 18 10.5t14.5 14.5t9.5 19.5t5 28t2 35.5v50t-1 64.5 t-1 82v99.5v127q-1 187 -5 250q-6 82 -30 106q-29 29 -43 10q-25 -39 -97 -84q-54 -34 -74 -34q-7 0 -11 4zM176 -149q14 -41 84 -91q49 -33 85 -41q24 -5 75 -5q25 0 57 1q72 2 110 10.5t52 17.5t48 38t75 55q53 35 53 49q0 18 -98.5 88t-124.5 70q-33 0 -33 20 q0 29 -39 19t-49 -39q-6 -18 -14 -25.5t-15.5 -8.5t-14.5 -5t-13 -25.5t-13 -62.5q-6 -63 -14 -80.5t-33.5 -17.5t-34 17.5t-12.5 76.5q-4 90 -36 90q-26 0 -70 -59q-29 -38 -29 -70q0 -11 4 -22zM356 1039q-4 -8 -4 -27q0 -22 6 -60q14 -86 21 -157l14 -131l66 -7 q8 -1 16 -1q33 0 57 14q30 18 99 82q104 98 123 98q12 0 30.5 29.5t48 86t52.5 89.5q29 43 28 55t-36 39q-43 35 -92 35h-5q-57 -2 -160.5 -31t-183.5 -63q-4 -2 -12 -7q-60 -27 -68 -44zM389 229q6 -53 17.5 -66t56.5 -16q82 -8 189.5 -43.5t158.5 -74.5q39 -27 58.5 -33 t35.5 8q37 29 60.5 101.5t27.5 153.5v18q-1 72 -29 143q-32 80 -100 119q-55 34 -247 34h-11l-200 2l-15 -53q-11 -41 -11 -120q0 -71 9 -173z" />
<glyph unicode="C" horiz-adv-x="1040" d="M25 584q-5 23 -5 66q0 68 13 184q22 190 47 221q16 23 29 75q12 45 112.5 160t145.5 133q42 17 87 17h8q50 -2 70 -23q29 -29 19 -42t-64 -13q-39 0 -74.5 -17.5t-90.5 -64.5q-51 -43 -76 -74.5t-26 -45t-4 -25t-15 -19.5q-20 -12 -21 -59q0 -31 -22 -97 q-20 -68 -40 -134q-15 -52 -15 -136q1 -24 1 -51q6 -121 50 -258q37 -115 59.5 -145.5t105.5 -81.5q115 -72 146 -72q29 0 31 -16.5t-27 -40.5q-18 -15 -45 -15q-67 0 -191 88q-78 57 -133 156.5t-57 185.5q0 66 -18 144zM537 62.5q0 19.5 58 19.5t58 -19.5t-58 -19.5 t-58 19.5zM575 1317q0 49 27 49h4q45 -4 94 -94q38 -70 48 -138q3 -24 4 -52q0 -51 -11 -117q-6 -27 -8 -38.5t-7 -16.5t-10 -2t-18 14q-21 21 -21 68q0 18 3 40q3 23 3 39q0 31 -11 31q-4 0 -10 -2q-29 -10 -38.5 10t7.5 53q14 20 7 40t-21.5 31t-28 34.5t-13.5 50.5z M831 99.5q-4 17.5 29 29.5t19 35q-10 16 8 16q4 -2 18 -4q46 -8 56 6q10 18 28.5 17.5t30.5 -19.5q6 -12 -20.5 -26.5t-58.5 -28.5t-32 -25q0 -18 -39 -18q-35 0 -39 17.5z" />
<glyph unicode="D" horiz-adv-x="1390" d="M20 1380l43 45q27 29 63 38.5t128 13.5q23 1 47 1q122 0 255 -26q159 -31 255 -80q84 -43 193.5 -135t109.5 -119q0 -23 23 -47q23 -20 48 -114.5t25 -155.5v-11q0 -83 -28 -195q-30 -120 -72 -210q-33 -81 -33 -122q0 -37 27 -42q49 0 157.5 -76.5t108.5 -111.5 q0 -25 -19.5 -34t-47 2t-52.5 38q-47 51 -140 90q-71 30 -117 30q-14 0 -25 -3q-31 -8 -113 -79t-119 -79q-12 -4 -37 -8q-113 -29 -131 -41q-16 -11 -16 -51v-9v-16q0 -47 -8 -61.5t-33 -14.5t-34 21.5t-19 95.5q-10 76 -28.5 116t-32 68.5t-13.5 83.5q0 82 -28.5 206 t-65.5 250t-43 163q-33 162 -93.5 342t-91.5 205zM194 1282q12 -74 87 -283q27 -72 68.5 -251t82.5 -321t80 -185q28 -29 28 -61q0 -10 -3 -21q-6 -23 -6 -41q-1 -49 43 -65q19 -7 41 -7q50 0 118 37q84 45 108.5 72.5t-5 42t-119.5 18.5q-123 6 -139 16t-16 18q0 15 59 23 q47 8 141 11l201 4l45 88q47 86 65 110q25 29 40 173q8 80 8 139q0 48 -5 82q-27 172 -183.5 308t-379.5 185q-105 23 -201 25h-17q-82 0 -114 -19q-30 -18 -30 -66q0 -15 3 -32z" />
<glyph unicode="E" horiz-adv-x="1196" d="M82 367l72 28l-15 127q-4 36 -4 77q1 75 13 163q18 136 53 201q28 55 28 71q0 4 12.5 27.5t41 65.5t69.5 86t109.5 92.5t148.5 80.5q69 28 143 28q13 0 27 -1q55 -4 86 -21.5t86 -74.5q35 -37 59.5 -76t24.5 -55q0 -39 41 -115q29 -51 35 -80.5t-1 -43t-21.5 -51.5 t-22.5 -87q-14 -92 -72 -121q-37 -20 -43 8q-1 4 -1 8q0 22 28 56q39 51 45 133q1 17 1 35q1 65 -17 129q-22 82 -71.5 155.5t-111.5 106.5l-86 43l-71 -39q-74 -39 -99 -39t-105.5 -74.5t-98.5 -111.5q-16 -41 -70 -129q-37 -61 -45 -111.5t-10 -214.5q0 -209 14 -225 q6 -6 25 -2q82 14 396 16q39 0 74 1q242 0 255 -13q15 -15 15 -27q0 -27 -77 -37q-37 -4 -90 -4h-37q-29 1 -58 1q-130 0 -251 -15q-194 -28 -220 -46q-12 -9 -12 -27q0 -21 15 -56q4 -10 18 -39q33 -70 112 -145.5t159 -114.5q108 -54 249 -54q35 0 72 3q143 12 148 65 q2 16 -13 35q-27 33 13 39q7 1 14 1q31 0 65 -22q50 -33 50 -48t-70 -83l-70 -67l-200 2q-133 0 -184.5 9t-116.5 42q-86 45 -191.5 150.5t-132.5 173.5q-45 115 -137 127q-53 8 -53 32q0 26 61 52z" />
<glyph unicode="F" horiz-adv-x="1034" d="M45 1075q20 18 61 39q99 49 111 82q12 31 32.5 28t39.5 -36q12 -27 65 -31q17 -1 55 -1q77 0 240 5q107 3 182 3q165 0 175 -15q8 -12 8 -22q0 -25 -49 -35q-68 -14 -303 -17q-315 -2 -332 -20q-6 -6 -6 -49t6 -123q12 -160 26 -203q6 -17 82 -17h9q85 1 184.5 10 t183.5 9t88 -18q1 -3 1 -6q0 -34 -114 -54q-124 -22 -262.5 -31.5t-146.5 -15.5q-4 -4 -4 -27q0 -48 20 -176q27 -157 27 -273q0 -19 -1 -37q-5 -128 -40 -134q-20 -4 -28.5 7t-8.5 46q0 39 -21.5 162t-33.5 254q-12 111 -24.5 146.5t-49.5 66.5q-39 32 -39 46q0 6 8 9 q38 15 48 67q3 18 4 45q0 46 -11 115q-27 184 -43 189q-8 2 -24 -21q-21 -31 -63 -31q-8 0 -17 1q-61 7 -61 29q0 14 26 34z" />
<glyph unicode="G" horiz-adv-x="1288" d="M20 539q3 209 39 249q33 37 33 49.5t66 114.5q59 92 160.5 182t181.5 121q67 25 267 25h58q164 -4 216.5 -12t88.5 -35q33 -25 53.5 -50.5t37 -55t30.5 -48.5q19 -21 19 -43q0 -10 -4 -20q-12 -35 -43 -8q-24 22 -24 52q0 6 1 13q2 16 -5 32.5t-19 20.5l-115 60 q-55 29 -101 35q-24 3 -65 3t-100 -3q-190 -8 -309 -68.5t-230 -208.5q-160 -214 -160 -392q0 -18 2 -36q8 -94 57.5 -203.5t108.5 -162.5q80 -74 172 -105q81 -27 196 -27h30q80 2 123.5 7.5t55 11.5t35 16t62.5 17q102 20 130 58t28 159v147l-183 12q-180 14 -203 32 q-13 9 -31 9q-17 0 -40 -8q-24 -9 -66 -9q-35 0 -81 6q-105 13 -130 38q-14 14 -4.5 30.5t48.5 49.5q45 35 85.5 48t143.5 22q67 5 124 5q75 0 132 -9q102 -15 194 -66q53 -29 80 -56.5t39 -64.5q21 -56 21 -170v-20q-2 -129 -27 -250q-22 -112 -22 -256v-13 q0 -167 -37 -167q-14 0 -37 16q-18 16 -22 57q-2 15 -2 40q0 45 5 122q2 51 4.5 96t3.5 70t1 27q-4 0 -144 -33q-240 -53 -347 -56h-11q-102 0 -213 44q-78 33 -164 102.5t-107 116.5q-23 51 -53 88q-33 40 -33 225v27zM636 531q31 0 69 1q196 8 196 23v0q0 4 -4 8 q-16 16 -115 19q-24 1 -48 1q-72 0 -139 -7q-83 -10 -83 -25q0 -20 124 -20z" />
<glyph unicode="H" horiz-adv-x="1110" d="M20 1206l43 13q16 4 31 19t17 32q6 43 20 41q27 -4 39 -129q35 -362 49 -472t27 -122q4 -6 21.5 -8t47 1t66.5 8t92 13t110.5 16.5t134.5 20.5t152 20q16 2 21.5 81t5.5 304q0 381 -12 394q-10 10 -10 50v14q2 52 14 65q8 8 15 8q19 0 34 -55q29 -102 33 -334 q2 -109 22 -305q14 -125 25.5 -168t40.5 -64q31 -25 32 -34t-26 -29q-25 -18 -31 -58q-4 -30 -4 -113v-61q4 -203 35 -297q19 -57 19 -90q0 -41 -31 -41q-10 0 -25 4q-39 14 -60.5 164t-30.5 303.5t-17 165.5q-8 14 -64 14q-80 0 -256 -28q-300 -47 -330 -88 q-25 -30 -25 -118q0 -9 1 -17q2 -102 30 -244q20 -95 20 -147q0 -57 -24 -64q-10 -4 -22 0q-36 5 -66 119q-21 78 -20 138q0 28 4 52q3 21 3 71q0 25 -1 58q-2 66 -13.5 88.5t-50.5 42.5q-37 23 -49 39.5t-1.5 30.5t42.5 27q33 12 40 25t1 48q-12 53 -24 281 q-8 143 -18.5 192.5t-35.5 77.5z" />
<glyph unicode="I" horiz-adv-x="290" d="M31 1415q23 29 38 24t50 -53q33 -45 51 -166.5t53 -506.5q48 -538 48 -713q0 -74 -9 -82q-18 -18 -35.5 -13t-30 31.5t-12.5 65.5q0 57 -20.5 176t-28.5 309q-20 528 -33.5 659.5t-48.5 180.5q-31 40 -31 65q0 14 9 23z" />
<glyph unicode="J" horiz-adv-x="1527" d="M20 1370q0 31 23 43q16 10 692 21.5t684 19.5q14 14 51 1.5t37 -32.5q0 -33 -113 -48q-107 -14 -234 -14h-17h-26q-122 0 -225 -9q-114 -9 -114 -29q0 -12 13.5 -22.5t29.5 -12.5q41 -6 73 -43t89 -141q86 -162 115.5 -295t29.5 -360q0 -123 -6 -198t-9 -98.5t-22.5 -81 t-27.5 -83.5q-49 -168 -258 -219q-57 -14 -101 -14q-36 0 -62 9q-60 21 -148 109q-51 53 -68.5 86t-19.5 78q0 51 8 64.5t45 17.5q43 6 52 -8.5t-19 -40.5q-6 -6 -6 -15q0 -30 54 -96q70 -88 130 -113q33 -13 66 -13q60 0 120 42q94 66 141 199q33 94 43 326q3 64 3 119 q0 139 -19 210q-45 170 -74.5 241.5t-113.5 205.5q-2 4 -7 10q-20 31 -28 44t-25.5 33.5t-22.5 27.5t-26.5 20.5t-29 15.5t-39 8t-47 6t-61.5 2.5t-75 2.5t-96 -3h-23q-57 -1 -103 -1q-126 0 -171 4q-62 6 -62 24z" />
<glyph unicode="K" horiz-adv-x="1292" d="M20 1274q0 47 33 82q25 23 37 18.5t53 -51.5q56 -67 56 -96q0 -31 68.5 -257.5t68.5 -310.5q0 -82 16 -94q2 -1 4 -1q22 0 112 96q98 104 197 231t113 176q12 35 35 69.5t37 53t23.5 45.5t-5.5 47q-20 39 -20 51q0 10 19.5 11.5t41 -5t27.5 -16.5q5 -7 5 -20 q-1 -21 -13 -61q-20 -64 -51 -140t-37 -98q-12 -53 -90 -148l-148 -176q-70 -82 -70 -102q0 -10 20.5 -16.5t49.5 -6.5q27 0 41 -1t40 -10t41 -16.5t68.5 -34t100.5 -47.5q145 -70 215 -140t109 -189t52 -223q5 -39 5 -65q0 -44 -14 -52t-24.5 -5t-20 19t-17.5 44t-16 73 q-14 78 -29.5 123t-62.5 147q-27 53 -134.5 140.5t-187.5 115.5q-184 68 -254 77q-13 2 -25 2q-53 0 -90 -32q-33 -26 -32 -57q0 -33 22 -164q32 -197 33 -269q0 -75 -37 -75q-35 0 -53.5 55.5t-40.5 229.5q-18 119 -28.5 143.5t-45.5 24.5q-56 0 -56 48q0 40 46 70 q37 25 43 45q3 8 3 24q0 21 -5 56q-16 119 -56 288t-55 177q-18 12 -18 88t-31 99q-14 10 -25 -15q-12 -39 -30 -18q-12 12 -13 43z" />
<glyph unicode="L" horiz-adv-x="1247" d="M31 1473q22 48 44 48q2 0 5 -1q12 -4 12 -27q0 -20 30 -51t21 -53q-4 -10 -4 -21q0 -21 15 -47q18 -37 88.5 -400.5t85.5 -404.5q12 -33 27.5 -120t30.5 -153.5t26 -74.5q8 -4 30.5 8t42.5 35q66 61 201 81q51 8 100 8q81 0 156 -21q63 -16 148.5 -102.5t117.5 -164.5 q18 -44 18 -68q0 -8 -2 -14q-7 -24 -48 -24q-37 0 -78 94q-61 137 -175 185q-68 29 -165 29q-64 0 -140 -13q-160 -29 -161 -66q0 -12 12 -26q6 -6 7 -15.5t-3 -23t-9 -26.5t-14.5 -32.5t-17.5 -37t-21.5 -42t-23.5 -47.5q-4 -10 -19.5 -19t-31.5 -9q-12 0 -19.5 6 t-13.5 37.5t-9 80t-9 150.5q-6 143 -19.5 240.5t-26 130.5t-20.5 67.5t-8 71.5q0 47 -41 211t-51 238q-6 49 -15.5 76.5t-15.5 31.5t-11 16t-5 39q0 37 -31 105q-18 41 -18 74q0 22 8 41z" />
<glyph unicode="M" horiz-adv-x="1650" d="M25 868q-5 55 -5 111q0 92 14 189q23 155 68 155q18 0 80 -91t90 -159q25 -57 169.5 -286.5t191.5 -286.5q36 -42 56 -42q24 0 24 64q0 66 28 103q20 27 28.5 27.5t23.5 -17.5q18 -27 18 -74q0 -56 -25 -139q-10 -35 -30.5 -67.5t-40 -48t-29.5 -5.5q-45 49 -147.5 180 t-102.5 142q0 10 -50 83.5t-109.5 175t-73.5 173.5q-10 47 -42 74.5t-52 9.5q-15 -15 -14 -103q-1 -98 17 -288q34 -360 81 -496q24 -66 24 -85t-29 -38q-31 -23 -52 -23q-43 0 -48 95q-6 104 -63 667zM141 16q0 28 15 28q12 0 34 -19l19 -19q33 -37 12 -51q-20 -12 -50 10 t-30 51zM758 953q-1 15 -1 34q0 29 2 67q3 62 9 129.5t12 165t8 181.5q2 78 10.5 93t43.5 15q49 0 49 -39q0 -29 19.5 -50t19.5 -64t39 -117.5t39 -99.5q0 -63 108.5 -325.5t108.5 -274.5q0 -20 88 -196.5t108 -199.5q20 -20 21 -53q0 -31 41 -127t76 -147q41 -59 62 -151 q10 -45 10 -72q0 -29 -11 -39q-13 -13 -27 -13q-15 0 -31 14q-32 28 -53 99q-25 86 -57 158l-147 329q-41 94 -98.5 205t-98.5 227q-23 61 -41 106.5t-27.5 63t-17.5 41t-14 56.5q-14 70 -50 168l-53 151q-18 55 -37 55q-14 0 -21 -58t-9 -140t-3 -163t-7 -136t-21 -49 q-18 6 -19.5 45t-17.5 59q-10 14 -12 52zM850 1483q0 -23 22 -33q14 -6 17 14q2 2 2 6q0 31 -20.5 31t-20.5 -18z" />
<glyph unicode="N" horiz-adv-x="1255" d="M22 1306q3 80 19 103q23 29 41 12q16 -14 76 -100q86 -125 104 -158q63 -102 326.5 -385.5t396.5 -392.5q122 -102 143 -102q4 0 5 4q0 8 -15 35q-15 26 -15 58q0 18 5 38q3 17 3 37q1 39 -13 87q-20 72 -51 89q-21 13 -21 31l1 58q0 34 -17 71q-18 33 -31.5 111.5 t-31 198.5t-32.5 193q-21 102 -21 136q0 12 3 16q9 13 22 13q20 0 50 -34q29 -33 41 -172q12 -133 51 -288.5t61 -280.5q23 -139 52 -203q27 -63 48 -182q13 -76 13 -115q0 -22 -4 -32q-11 -33 -33 -35h-3q-21 -1 -73 35q-54 38 -134.5 113t-223.5 216q-590 582 -590 676 q0 41 -18.5 65.5t-38.5 12.5q-20 -13 -20 -159q-1 -63 3 -151q12 -292 54 -524q12 -65 11 -102q0 -47 -18 -49q-8 -2 -22 2q-23 10 -49 116q-16 67 -16 106q0 23 6 36q10 31 -7.5 53.5t-31.5 415.5q-6 179 -6 270q0 35 1 57zM84 100q8 90 10 95.5t39 5.5q29 0 40 -12.5 t6 -34t-13 -43t-21 -50t-18 -43.5q-14 -51 -33 -22q-12 21 -12 63q0 19 2 41z" />
<glyph unicode="O" horiz-adv-x="1165" d="M23 467q33 229 96 345t200 196q101 59 183 59q16 -1 30 -3q92 -14 191 -118q51 -51 112.5 -90t105.5 -58.5t85 -47t67.5 -76.5t36.5 -129q15 -111 16 -192q0 -49 -6 -89q-16 -102 -65 -102q-8 0 -10 10t-1 42t7 83t16 137q4 26 4 47q0 26 -6 42q-10 30 -61 95 q-66 87 -92 87q-10 0 -14 -13q-4 -12 0 -37q8 -49 -11 -37q-14 8 -41 54q-100 166 -299 188q-116 14 -116 33q0 16 86 16q88 0 88 25q0 14 -37 35q-40 21 -87 21q-27 0 -57 -8q-82 -20 -151 -87q-12 -12 -41 -30.5t-44 -34t-15 -35.5q0 -37 -41 -129q-25 -55 -33 -111.5 t-8 -159.5q0 -121 9 -158.5t48 -84.5q111 -139 313 -191q81 -22 122 -22q3 1 5 1q41 2 148 25q86 20 133 42t84 59q54 52 70 52q7 0 8 -9q0 -16 -17 -62q-51 -135 -420 -170q-20 -2 -41 -2q-100 -1 -215 47q-139 58 -227 154q-49 51 -84 179q-27 97 -27 169q0 23 3 43z" />
<glyph unicode="P" horiz-adv-x="1028" d="M25 1108q8 27 34 22q23 -4 29 13.5t6 81.5q0 186 111 276q47 36 107 36q64 0 143 -40q223 -113 371.5 -319.5t172.5 -436.5q6 -70 6 -125q0 -80 -14 -126q-24 -76 -114 -123q-47 -25 -166 -27h-21q-103 0 -158 18q-55 23 -108 72q-42 41 -64 41q-11 0 -16 -10 q-8 -16 6 -55q19 -50 19 -173q0 -82 21.5 -143t47 -93t47 -88t21.5 -132q0 -106 -17 -117q-18 -10 -46.5 28t-41.5 89q-14 55 -32.5 102t-41 95.5t-73.5 207t-121 404.5q-111 393 -111 496q0 17 3 26zM183 1149q3 -236 81 -436q45 -115 71.5 -151t113.5 -89q55 -37 96 -46 t139 -9q55 0 88 2t60.5 12t41 23.5t22.5 43t12 63.5t3 91q0 152 -22 199q-117 258 -219 374t-299 220q-59 31 -69.5 31t-47.5 -31q-71 -59 -71 -279v-18z" />
<glyph unicode="Q" horiz-adv-x="1222" d="M20 424q0 78 15.5 152.5t66.5 236.5q20 66 58.5 131.5t77 111.5t76.5 84t59.5 55t23.5 17q14 8 28.5 23.5t18.5 30.5q12 35 83 90t131.5 77.5t77 22.5t75.5 -14q61 -16 113.5 -70.5t87.5 -136.5q39 -96 66 -327q20 -160 20 -277q0 -51 -4 -94q-10 -154 -21.5 -196 t-40.5 -42q-23 0 -39 51q-7 23 -7 38q0 19 11 26q29 20 49 102q10 45 10 75q0 24 -7 38q-31 57 -55 136q-17 59 -17 85q0 9 2 14q3 8 3 26q0 44 -18 146q-24 142 -51 201q-47 106 -141 135q-43 12 -41 -6t47 -43q72 -39 108 -153q20 -62 20 -123q0 -48 -13 -95 q-10 -44 -21 -44q-6 0 -12 12q-12 27 -12 94q0 88 -27.5 137t-95.5 84q-54 26 -92 26q-11 0 -21 -3q-43 -9 -131 -76q-188 -147 -277 -332q-87 -182 -87 -419v-11q0 -166 31.5 -233.5t138.5 -129.5q63 -37 100 -45q25 -5 68 -5q22 0 49 1q215 18 309 111l41 41l-162 422 q-16 43 -38.5 41t-22.5 -48q0 -41 -21 -49q-12 -4 -16 15q-2 10 -2 24q0 49 22.5 138.5t36.5 97.5q4 3 9 3q19 0 58 -36q50 -45 50 -74q0 -18 16.5 -58t45 -111.5t49.5 -141.5q23 -72 37 -95.5t32 -17.5q10 0 16.5 -1t9.5 -13t4 -32.5t1 -57.5q0 -53 8 -92t16.5 -60.5 t38 -82t52.5 -107.5q49 -111 78.5 -134.5t29.5 -62.5q0 -23 -11 -30t-42 -3q-37 4 -83 61.5t-73 131.5q-2 8 -44 95t-42 112q0 35 -31 42q-7 1 -14 1q-26 0 -55 -21q-44 -33 -97 -33q-1 0 -1.5 0.5t-1.5 0.5q-52 0 -78 -31q-14 -16 -46 -21q-15 -3 -41 -3q-28 0 -69 3 q-238 14 -345.5 131t-107.5 361zM869.5 771.5q-3.5 19.5 4 40t19.5 24.5q25 8 29 4q10 -8 -6.5 -48t-30.5 -40q-12 0 -15.5 19.5z" />
<glyph unicode="R" horiz-adv-x="1439" d="M23 1382q8 129 26 152q23 28 85 28q22 0 52 -4q106 -14 228 -71q279 -131 447.5 -339t168.5 -417q0 -80 -11 -110.5t-61 -83.5q-29 -33 -58.5 -56.5t-41.5 -23.5q-22 0 -22 -12q0 -30 137 -136q247 -189 353 -291q92 -89 93 -130q0 -6 -2 -11q-7 -19 -69 -27 q-25 -3 -45 -3q-31 0 -52 8q-23 10 -22.5 16t26.5 27q27 20 27 29.5t-29 41.5q-29 31 -133 113t-210.5 161t-114.5 87q-49 41 -109 65q-39 16 -53.5 13.5t-38.5 -33.5q-16 -23 -23.5 -29t-12.5 -3t-11 19q-12 35 -35 35q-10 0 -10 -3t6 -11l6 -9t6 -9.5t7 -13.5t5.5 -15 t4.5 -18.5t2 -20.5q0 -53 12 -84q14 -39 35 -31q14 6 6 37q-10 37 3 57.5t38 6.5q23 -13 26 -99v-23q0 -76 -16 -157q-19 -95 -53 -95q-13 0 -29 15q-57 55 -110 277q-31 129 -60 227l-57 213q-27 90 -51.5 137t-46.5 121q-61 197 -102.5 275.5t-84.5 78.5q-19 -1 -25 23 q-3 12 -3 41q0 26 2 65zM137 1468q-12 -13 -12 -35t13 -53q26 -61 65 -126.5t39 -88.5t30.5 -75t44.5 -101q57 -184 141.5 -311t182.5 -172q41 -19 81 -19q38 0 74 17q76 35 130 135q17 34 17 79q1 60 -29 141q-52 142 -165.5 281.5t-238.5 209.5q-147 81 -174 108 q-18 18 -100 22q-17 1 -31 1q-55 0 -68 -13z" />
<glyph unicode="S" horiz-adv-x="921" d="M20 1030q0 121 76 201.5t258 154.5q77 30 179 30q18 0 36 -1q80 -2 109 -12t53 -41q29 -38 29 -84q0 -37 -19 -80q-23 -49 -45 -51h-1q-17 0 -17 34q0 17 4 42q3 21 3 38q-1 41 -21 53q-24 14 -109 14q-20 0 -43 -1q-158 -8 -266.5 -78.5t-136.5 -185.5q-8 -31 5 -56.5 t66 -74.5q106 -102 140 -131t49 -29q25 0 383 -336q53 -49 93 -131t52 -164q3 -26 3 -47q0 -20 -3 -36q-6 -30 -35 -74l-47 -68l-176 -6q-47 -1 -84 -1q-85 0 -124 6q-56 9 -56 40q0 18 34.5 23.5t147.5 5.5q164 0 208 26.5t44 124.5q0 145 -160 297q-158 150 -301 264.5 t-201.5 154.5t-92.5 82t-34 97zM57.5 258q10.5 6 40.5 -37q29 -41 52 -41q22 0 54 -42q23 -31 24 -48q0 -6 -3 -10q-14 -16 -39.5 -7t-57 46t-56.5 86q-25 47 -14.5 53zM139 457q0 8 11.5 14t27.5 6q33 0 31 -16q-4 -20 -35 -23q-4 -2 -6 -2q-29 1 -29 21zM276 47q0 29 50 2 q42 -24 42 -41q0 -2 -1 -4q-10 -14 -50.5 5.5t-40.5 37.5zM610 920q-18 12 -18 33q0 28 31 71t57 45q10 0 10 -10q0 -16 -16 -52t-36 -64t-28 -23z" />
<glyph unicode="T" horiz-adv-x="2138" d="M20 1165q0 47 801 90q238 12 262 29q14 8 19 31q13 45 31 96q17 44 31 44q7 0 14 -11q12 -21 12 -63q0 -16 -2 -35l-6 -93l147 -12q150 -12 469 -27q213 -10 266.5 -18t53.5 -31q0 -14 -11.5 -27.5t-27.5 -17.5q-15 -4 -56 -4q-149 0 -645 51q-49 4 -66.5 7.5t-52 2.5 t-43 0t-30 -10.5t-23.5 -13.5t-13 -26.5t-11 -35t-4.5 -52.5t-4.5 -63.5t-2 -82.5q-3 -144 -3 -273q1 -216 9 -390q14 -276 42 -355q24 -66 24 -94q0 -21 -14 -21h-2q-20 2 -66 62q-41 59 -53 116.5t-29 286.5q-12 163 -12 322q0 153 11 299q13 179 13 259q0 55 -6 64 q-10 16 -128 16q-68 1 -174 -5q-286 -14 -410 -47q-78 -19 -117 -21h-12q-33 0 -64 12q-23 8 -45 12.5t-33.5 5.5t-21.5 2t-13.5 6t-3.5 15z" />
<glyph unicode="U" horiz-adv-x="1146" d="M21 955v40q0 150 14 172q12 20 45 15q29 -6 47 -112q9 -50 9 -88q0 -41 -11 -64q-8 -20 -8 -72q0 -49 7 -125q15 -158 46 -242q31 -88 33 -119q0 -63 63.5 -158.5t147.5 -166t139 -70.5q35 0 55 -22q13 -15 40 -15q12 0 30 4q50 12 101.5 37t91.5 62t40 65q0 37 33 90.5 t55 53.5q12 0 20.5 -7.5t8.5 -17.5q0 -41 -37 -136t-65 -126q-68 -76 -235 -82h-26q-150 0 -259 63q-55 33 -130 112t-75 106q0 8 -11.5 25.5t-30 50t-40 80.5t-43 136t-37.5 199q-16 125 -18 312zM838 1156q-3 3 -3 8q0 15 23 50q20 31 41 40.5t57 5.5q39 -2 60.5 -21.5 t54.5 -83.5q37 -68 45 -118t10 -210q0 -369 -67 -460q-16 -23 -27.5 -26t-25 11.5t-13.5 42t17 94.5q25 107 25 304q-1 4 -1 8q0 203 -24 278q-28 87 -50 105q-8 7 -20 7q-18 0 -45 -17q-47 -29 -57 -18z" />
<glyph unicode="V" horiz-adv-x="978" d="M21 960q-2 14 -2 26q0 35 16 48q11 11 24 11q22 0 52 -26q49 -42 49 -91q0 -16 68.5 -105.5t68.5 -105.5t39 -43t39 -39q0 -29 93 -157q94 -128 192 -242q91 -104 109 -104q2 0 3 1q12 8 -4 51q-9 23 -9 39q0 14 7 23q16 25 31 190q16 240 88 350q25 40 46 40q7 0 15 -5 q18 -10 11 -57t-39 -170q-30 -106 -48 -215q-11 -69 -12 -101q0 -18 4 -24q14 -23 17 -186v-23q-1 -102 -17 -137q-10 -21 -26 -21q-15 0 -35 17q-43 35 -121 151q-53 80 -172 227.5t-133 168.5q-293 434 -324 446q-23 7 -30 63z" />
<glyph unicode="W" horiz-adv-x="1513" d="M20 973q0 16 46 16q33 0 81 -55t199 -266q59 -82 88 -142q45 -94 110.5 -190t82.5 -96q21 0 21 41q0 35 -15 98q-8 34 -8 89.5t8 133.5q20 182 61 206q7 4 14 3q40 0 109 -102q119 -176 187.5 -254t181.5 -168q163 -128 196 -128q8 0 8 8q0 2 -1 5q-2 10 -15 29 q-14 25 -13 43t23 57q31 55 33 142v11q0 80 -28 134q-29 55 -29 246.5t-21 203.5q-20 12 -19.5 56t23.5 67q22 23 39 23q21 0 34 -39q10 -37 14 -123q4 -45 28 -266q18 -165 17 -261q0 -33 -2 -57q-3 -31 -3 -56q0 -50 11 -76q12 -29 12 -106q0 -29 -2 -65q0 -35 -2 -60.5 t-6 -45t-7 -32.5t-11.5 -19.5t-13.5 -9.5t-18.5 3t-21.5 10.5t-27.5 20.5t-32 26.5t-36.5 34.5q-41 37 -65.5 59.5t-73 60.5t-93.5 73q-100 74 -187 176q-76 90 -76 125q0 5 1 8q4 10 -18.5 23.5t-46 15.5t-37.5 -6q-8 -8 -8 -179t26 -210q23 -29 31 -103.5t23 -119.5 q10 -31 10 -53q-1 -21 -9 -34q-9 -14 -24 -14t-35 13q-27 18 -92.5 104t-67.5 107q-2 10 -30.5 56t-84 135t-102.5 177q-39 76 -96 162t-87 134q-28 45 -28 66q0 40 -36 46q-29 6 -59 34.5t-30 53.5z" />
<glyph unicode="X" horiz-adv-x="1181" d="M27 1354q12 28 29.5 28t41.5 -28q20 -29 10 -59.5t-40 -30.5q-27 0 -40 28.5t-1 61.5zM111 1217q12 29 45 28q20 0 20 -16q0 -10 48 -62.5t115 -125t97 -121.5q49 -78 129 -168l78 -88l64 98q33 51 45 89t8 50t-3 29.5t9 27.5q16 20 25 80q4 39 -3.5 47.5t-39.5 4.5 q-39 -4 -67 -22.5t-44 -18.5q-18 0 -78.5 -50.5t-83.5 -50.5q-14 0 -14 8q0 14 37 50q45 43 63 43q25 0 35 24q10 29 122 82q94 45 127 45q6 0 11 -2q29 -11 29 -103v-13q-2 -104 -35 -187q-78 -201 -96 -272q-1 -3 -1 -8q1 -42 75 -153q82 -122 208 -257t126 -194 q0 -29 -29 -40q-5 -2 -11 -2q-23 0 -56 25q-42 31 -42 55q0 10 -58.5 82t-134 159t-98.5 118l-43 59l-39 -88q-20 -51 -40.5 -123t-34 -131t-27.5 -112.5t-29.5 -80t-34.5 -22.5q-31 11 -31 102v14q2 104 38 169q38 74 38 126q0 30 5.5 44t12.5 20t19.5 29.5t22.5 64.5 l22 78l-118 133q-121 131 -121 148.5t-105 138.5q-102 119 -134 167q-25 37 -25 61q0 7 2 12z" />
<glyph unicode="Y" horiz-adv-x="1222" d="M21 902q7 46 34 52q37 8 50.5 -1t13.5 -41.5t-29 -58.5t-49 -13q-21 13 -21 44q0 9 1 18zM178 836q0 35 21 34q33 -2 217 -127q94 -63 129 -83.5t76 -43t114 -67.5q81 -50 116 -50q5 0 9 1q25 4 51.5 65.5t60.5 166t50 145.5q22 53 22 77q0 14 40 102q33 74 33 118 q0 8 -1 16q-5 26 -5 46q0 24 7 40q15 29 43 24q27 -6 38 -98q3 -29 3 -52q0 -49 -16 -69t-116.5 -342.5t-127.5 -353.5q-15 -19 -15 -126q0 -61 5 -150q6 -156 15 -211.5t36 -92.5q41 -55 47 -120q2 -43 -5 -54.5t-40 -11.5q-55 0 -98 141.5t-58 368.5l-14 236l-70 61 q-43 39 -78.5 61.5t-89 53t-108.5 69.5q-94 63 -109 64q-25 0 -102.5 69.5t-79.5 92.5z" />
<glyph unicode="Z" horiz-adv-x="1236" d="M21.5 1091q3.5 11 39.5 42q41 33 188.5 73t309.5 58q95 12 194 12q31 0 62 -1q131 -5 152 -26q14 -14 13 -30.5t-17 -49.5q-35 -68 -151 -232.5t-208 -279.5q-82 -98 -190 -277q-98 -161 -98 -188q0 -3 1 -4q8 -8 148 -20q125 -10 129 -27q0 -6 -6 -20q-12 -20 -51 -28.5 t-150 -14.5q-57 0 -99 -2h-20q-28 0 -48 4q-26 6 -39 13t-13 24.5t8 39t27 56.5q66 123 184.5 300t202.5 280q82 98 168 230q80 123 80 148q0 15 -92 19q-23 1 -47 1q-69 -1 -147 -9q-106 -12 -144 -37q-51 -39 -78 -39q-14 0 -24.5 -4t-20 -10.5t-40 -18.5t-75.5 -24 q-61 -18 -84 -18l-1 1q-22 0 -44 23q-23 25 -19.5 36zM688 109q0 27 14 41q10 10 136 10q52 0 125 -2l245 -6l6 -54q1 -9 1 -17q-1 -38 -25 -38q-30 0 -40.5 19.5t-236.5 19.5q-133 0 -179 6t-46 21z" />
<glyph unicode="[" />
<glyph unicode="\" horiz-adv-x="980" d="M22.5 1251.5q8.5 32.5 32.5 32.5q18 0 60.5 -32.5t42.5 -47.5q0 -20 73 -117l371 -493q102 -127 168 -219l131 -176q53 -70 58.5 -93.5t-27.5 -35.5q-20 -8 -72.5 31.5t-52.5 64.5q0 14 -82 119l-182 241q-39 51 -72 90t-49 57.5t-28.5 31t-16.5 17.5t-4 13 q0 25 -99.5 151t-156.5 177q-55 47 -79 101.5t-15.5 87z" />
<glyph unicode="]" />
<glyph unicode="a" horiz-adv-x="1280" d="M29 627q18 166 125.5 280.5t267.5 141.5q84 13 156 13q200 0 307 -104q53 -51 66.5 -84.5t21.5 -148.5q12 -145 57 -311t99.5 -277.5t95.5 -111.5q20 0 27.5 -14.5t7.5 -55.5q0 -68 -21 -80q-10 -6 -23 -6q-18 -1 -42 11q-40 20 -54 52q0 2 -25.5 50.5t-52 102.5 t-54 120.5t-36.5 107.5q-4 27 -14 45.5t-20 18.5q-23 -2 -142 -133q-37 -41 -70.5 -74t-64.5 -52.5t-55.5 -34.5t-50 -19.5t-41 -8.5t-38 0t-29.5 6t-27.5 9.5t-22.5 7.5q-106 35 -221 143q-96 92 -120 169q-14 45 -14 119q0 52 7 118zM117 559q2 -170 58 -252t214 -143 q76 -31 99.5 -31t89.5 29q51 23 87.5 53.5t79.5 83.5t52 61q29 30 29 62q0 33 18 43q27 16 31 136v26q0 105 -29 207q-33 114 -92 114q-12 0 -25.5 12.5t-24 26.5t-22.5 26.5t-20.5 12.5t-20.5 -16q-8 -12 -67.5 -19.5t-131 -17.5t-152.5 -56.5t-126 -123.5 q-29 -51 -38 -96.5t-9 -137.5z" />
<glyph unicode="b" horiz-adv-x="1026" d="M20 1239q0 123 28 123h3q35 -10 58 -162q6 -49 15 -74.5t16 -30.5t12.5 -15.5t5.5 -32.5q0 -39 20 -39q8 0 14.5 8t6.5 18q0 27 37 62q23 20 48 24q8 1 19 1q22 0 55 -5q125 -20 290 -122.5t245 -207.5q81 -109 105 -251q8 -47 8 -87q0 -80 -33 -129q-86 -131 -205 -207 q-89 -56 -150 -56q-21 0 -40 7q-53 20 -144 27q-70 4 -90 24.5t-65 125.5q-12 33 -34 139t-71 242q-37 102 -59.5 204.5t-34.5 162t-31 85.5q-29 41 -29 166zM238 843q0 -64 14 -109q14 -46 29.5 -98t15.5 -81q0 -47 19.5 -69.5t19.5 -57.5q0 -39 19.5 -60.5t19.5 -50.5 q0 -37 32.5 -87t55.5 -50q27 0 51 -28q28 -34 70 -34q75 0 196 109l117 105v299l-100 114q-61 70 -99.5 103t-70 50t-49.5 34q-102 82 -218 106q-45 8 -59 0t-35 -57q-28 -67 -28 -138z" />
<glyph unicode="c" horiz-adv-x="999" d="M22 446q7 136 29 179q2 4 25.5 55t47 97t57.5 102.5t76 99.5t83 61q44 20 155 20h5q116 0 149 -24q20 -12 67 -110q48 -98 70 -216q5 -28 5 -54q0 -81 -52 -138l-45 -43l8 143q3 44 3 77q0 39 -4 59q-7 40 -42 98q-45 84 -95 112q-35 20 -82 21q-20 0 -42 -4 q-74 -10 -125 -63.5t-114 -182.5q-51 -102 -61.5 -151t-12.5 -174q0 -121 8 -163t43 -97q82 -124 184 -172q72 -34 163 -33q40 0 83 6q28 3 45 3q24 0 30 -6q2 -2 2 -5q0 -13 -36 -47q-27 -23 -61 -27q-11 -1 -29 -1q-37 0 -102 5l-154 14l-113 115q-68 70 -95 113t-38.5 89 t-23.5 70q-13 27 -13 104q0 30 2 68zM556 364.5q7 14.5 42 45.5q59 47 74 47q33 0 6 -49q-14 -25 -39 -50q-31 -29 -45 -32.5t-29.5 10.5t-8.5 28.5zM772 -31l92 74q42 32 74 32h2q33 -1 39 -36v-4q-1 -27 -65 -74q-70 -51 -136 -67q-15 -3 -26 -3q-25 0 -25 19q0 25 45 59z " />
<glyph unicode="d" horiz-adv-x="1529" d="M22 402q0 7 -1 14q0 152 114 293q80 98 190.5 145t348.5 88q14 2 30 1q69 0 181 -34q88 -27 129 -51t90 -82q33 -37 59.5 -58.5t32.5 -17.5q3 3 3 24q0 89 -56 507q-10 76 -10 123.5t10 68.5q17 28 33 28q14 0 28 -21q18 -29 19 -62q0 -29 13 -116t34.5 -214t32.5 -196 q10 -82 22 -128t19.5 -55.5t11.5 -32t4 -67.5q0 -74 30.5 -208t59.5 -191q24 -50 46 -144q14 -63 15 -90q0 -14 -4 -20q-12 -18 -59 4q-27 12 -41 38.5t-27 92.5q-16 80 -46.5 169t-53.5 116q-8 10 -42 -35t-62 -101q-24 -47 -24 -65q0 -4 1 -6q2 -5 2 -10q0 -29 -43 -81 q-51 -62 -84 -63q-25 0 -74 -28.5t-102 -38.5q-37 -10 -50.5 -7t-13.5 23q0 12 11.5 21.5t25.5 9.5q27 0 65 31.5t87 48.5q49 16 75.5 51t102.5 190q44 88 44 132t-40 147q-43 113 -88 133q-20 10 -32.5 22.5t-12.5 22.5q0 23 -49 67t-82 50q-108 19 -207 19q-58 -1 -114 -7 q-150 -18 -240 -84q-221 -157 -221 -353q0 -52 16 -106q25 -82 82 -146.5t174 -137.5q63 -39 103 -49.5t128 -10.5q74 0 104 -6t30 -22q0 -51 -195 -52q-207 0 -401 215q-126 143 -132 302z" />
<glyph unicode="e" horiz-adv-x="1529" d="M23.5 538.5q-13.5 28.5 19.5 47.5q8 6 25.5 -3.5t31.5 -27.5q24 -35 44 -37h4q23 0 102 19l115 28l14 113q16 127 80.5 257t97.5 132q23 0 28 -36t-12 -60q-23 -31 -71 -135q-35 -70 -41 -115q-3 -22 -3 -63.5t3 -100.5q10 -209 74.5 -324.5t203.5 -179.5 q133 -59 229 -73q37 -5 82 -4q70 0 160 12q104 14 141.5 26.5t43.5 32.5q8 35 33.5 34t60.5 -38q21 -23 21 -43q0 -52 -144 -80q-76 -14 -197 -22q-42 -3 -82 -3q-259 0 -464 138q-102 68 -155.5 151.5t-68.5 200.5q-10 95 -22 101q-3 2 -12 1q-27 0 -105 -14q-52 -8 -86 -8 h-12q-35 2 -74 20q-51 25 -64.5 53.5zM532 532q2 12 71 47t95 35q29 0 105 42t90 66q5 9 5 27q0 33 -16 95q-24 100 -69 209q-35 82 -78 102q-27 12 -26 -20q0 -25 -29 -55.5t-53 -30.5h-2q-16 0 -16 14q0 13 12 37q18 40 55 69q63 53 90 54h3q36 1 76 -45q42 -48 42 -86 q0 -49 41 -117q36 -58 36 -155v-26q-6 -116 -51 -159q-53 -51 -239 -96q-78 -19 -113 -19q-29 0 -29 12z" />
<glyph unicode="f" horiz-adv-x="1214" d="M20.5 328.5q-0.5 11.5 10 18.5t22.5 1q18 -12 8 -30.5t-30 -8.5q-10 8 -10.5 19.5zM92 397q0 31 176 68q70 12 88.5 24.5t14.5 36.5q-7 40 -17 224q-4 61 -5 95t0 54.5t6 24.5t14 2q18 -6 27.5 -49t22.5 -127t32 -146l26 -98h344q351 0 351 -21q0 -1 -1 -2 q-12 -18 -292 -41q-303 -23 -328 -32q-29 -12 -26 -49t25.5 -76t34 -78t-0.5 -53q-11 -11 -24 -11q-15 0 -32 15q-32 30 -55 102q-35 100 -65 118q-14 10 -50 10q-34 0 -88 -9q-68 -11 -110 -11q-68 0 -68 29zM348 1098v14q0 108 29 131q31 25 31 49q0 20 41.5 62.5 t74.5 52.5q39 15 98 15q55 0 128 -13q149 -27 231 -82q53 -33 133 -145.5t80 -149.5q0 -19 -11 -19q-14 0 -44 29q-35 31 -107 109q-88 98 -128 126t-130 54q-96 26 -149 26q-18 0 -31 -3q-49 -12 -112.5 -101.5t-73.5 -158.5q-10 -72 -35 -80q-2 -1 -4 -1q-21 0 -21 85z M565 72q0 15 21 15q15 0 39 -7q45 -12 57 -37q15 -27 15 -45q0 -21 -19 -31q-8 -4 -17 -4q-28 0 -59 39q-2 4 -6 10q-31 50 -31 60z" />
<glyph unicode="g" horiz-adv-x="1142" d="M20 655q0 117 9.5 156t46.5 90q47 66 120.5 126t106.5 60q14 0 22.5 3.5t13.5 8.5t25.5 16t55.5 26q59 20 87 20t122 -22q45 -10 78.5 -25.5t40.5 -28.5q12 -31 95 -123t83 -126q0 -37 22 -58q16 -16 16 -44q0 -11 -2 -24q-10 -46 -36 -46q-20 0 -26.5 40.5t-16 96 t-37.5 80.5q-37 35 -44 27q-2 -3 -2 -23q0 -39 9 -144l45 -491l133 -139q100 -104 124 -149q10 -19 10 -34q0 -21 -21 -34q-2 -1 -5 -1q-18 0 -63 44l-100 100q-38 38 -54 38q-4 0 -6 -3q-12 -13 -26.5 -67t-38 -142t-54 -159t-49 -92.5t-49.5 -21.5q-33 0 -36 7.5t16 37.5 q111 177 111 366q0 17 -1 34l-6 137l-88 6q-26 1 -49 1q-58 0 -102 -7q-55 -10 -158.5 -88t-103.5 -109q0 -14 -13.5 -22t-31 -11t-36 -15.5t-28.5 -35.5q-18 -43 -39 -43q-14 -2 -2 29q10 33 10 57q0 33 89 124.5t161 131.5q47 29 108.5 44.5t113 19.5t95.5 8t68.5 13.5 t24.5 29.5q-2 4 -2 32t-2 51.5t-4 50t-7.5 42t-11.5 15.5q-14 0 -87 -58.5t-83 -58.5q-14 0 -59 -47q-72 -78 -175 -78q-21 0 -43 3q-132 19 -206 136q-39 61 -48.5 103.5t-9.5 158.5zM59 -260q0 63 23 63q27 0 33 -71q4 -35 -1 -49.5t-24 -14.5q-31 0 -31 72zM98 653 q0 -102 9.5 -137t39.5 -76q20 -23 59.5 -50.5t74.5 -39.5q49 -20 71.5 -21t33.5 8t50 37.5t92 55.5q27 14 66 48t68 67q51 63 62 127q5 27 5 52q0 31 -8 56q-14 45 -32.5 103.5t-18.5 95.5q0 45 -31 72q-40 33 -104 33q-55 0 -127 -24q-158 -52 -246 -167q-43 -59 -53.5 -95 t-10.5 -145zM139 -390.5q0 19.5 19.5 19.5t19.5 -19.5t-19.5 -19.5t-19.5 19.5z" />
<glyph unicode="h" horiz-adv-x="1388" d="M59 1200q14 4 26.5 17.5t12.5 27.5q0 37 -30 25q-20 -6 -27 26q-4 18 -4 34q0 37 22 65q2 2 2 4q16 14 30.5 9t41.5 -36q43 -51 43 -84q0 -35 32 -131t73 -201.5t41 -111.5q9 -28 23 -28q16 0 38 40q8 16 18 37q39 85 95 115q53 29 160 28h14q125 -2 210 -41t187 -139 q59 -57 86 -99t98 -182q37 -79 82 -277q34 -151 34 -200q0 -15 -3 -20q-12 -23 -51 -13.5t-53 37.5q-20 37 -21 166q0 102 -35 190.5t-147 260.5q-47 74 -123 133t-152 90q-71 29 -138 29h-9q-72 -2 -113 -41q-60 -53 -78 -211q-5 -46 -5 -83q0 -90 32 -128q18 -23 49 -131 l53 -191q12 -40 12 -68q0 -18 -6 -32q-9 -21 -31 -22q-11 0 -26 6q-23 10 -56.5 79.5t-33.5 110.5q0 18 -12 67.5t-49 153t-88 226.5q-18 43 -38 122.5t-40 110.5q-4 6 -55 129q-23 57 -40 57q-8 0 -14 -14q-2 -4 -4 -10q-8 -25 -41 4q-31 25 -31 51q0 32 39 43z" />
<glyph unicode="i" horiz-adv-x="792" d="M25 1413q12 31 40.5 27t53.5 -41q18 -27 30.5 -31t36.5 10q36 20 52 70q8 26 9 53q0 25 -7 51q-8 33 -20.5 40t-49.5 -1q-14 -3 -25 -3q-30 0 -30 22q0 16 23.5 22t84.5 6h109v-88q0 -136 -60 -206q-47 -54 -118 -54q-20 0 -43 4q-45 10 -72 48q-18 26 -18 49q0 11 4 22z M383 1227q11 19 23 19q17 0 36 -40q21 -42 21 -65q0 -10 -4 -17q-8 -10 9 -55t38.5 -108.5t21.5 -106.5q0 -61 40 -221t69 -217q29 -55 29 -121t32 -154q42 -125 62 -215q11 -52 12 -80q0 -20 -6 -26q-16 -16 -34 -16q-12 0 -26 8q-32 18 -38 63q-4 41 -32 89t-38 149 q-14 137 -52 292.5t-67.5 262t-29.5 139.5q0 41 -19 94q-20 51 -38 181q-12 84 -13 120q0 19 4 25z" />
<glyph unicode="j" horiz-adv-x="729" d="M21 51q2 12 20 12q16 0 29.5 -22.5t36 -54t55.5 -45.5q55 -25 67 -43q2 -4 17 -4q33 0 126 18q136 27 206 55q31 12 37 29q2 7 2 19q0 22 -7 63q-14 94 -49 162q-104 209 -180 374.5t-78 188.5q0 39 -29 76q-20 29 -25 73.5t11 61t36.5 4.5t25.5 -41q6 -33 73.5 -181.5 t67.5 -160.5q0 -14 47 -100q176 -324 196 -469q2 -18 2 -35q0 -112 -112 -135q-66 -14 -86 -31q-23 -19 -102 -19q-47 0 -114 6q-179 19 -216 56q-29 29 -47 92q-12 39 -10 51zM39.5 1359.5q5.5 10.5 52.5 39.5q55 35 94 39q6 1 12 1q34 0 74 -20q78 -43 90 -121 q3 -13 3 -26q0 -63 -50 -121q-39 -47 -95 -67q-25 -8 -44 -8q-25 0 -41 14t-52 7t-42 7q-6 12 20.5 23.5t57.5 14.5t51 -5q5 -3 12 -3q22 0 57 36q46 47 46 83q0 66 -39 81q-12 5 -29 5q-36 0 -92 -22q-9 -4 -19 -4q-21 0 -45 18q-27 18 -21.5 28.5z" />
<glyph unicode="k" horiz-adv-x="1380" d="M43 1450q20 31 25 31q10 0 56 -107.5t58 -159.5q23 -96 76 -225t94 -221t41 -115q0 -37 17 -47q1 -1 3 -1q27 0 167 152q150 163 233 287q39 57 75 99.5t48 42.5q27 0 32 63.5t42 71.5q29 4 34 -37q1 -10 1 -19q0 -45 -31 -77q-6 -4 -10 -8q-39 -25 -39 -52 q0 -35 -110 -178t-232 -270q-41 -45 -74 -83t-48.5 -62.5t-11.5 -26.5q12 -8 188.5 -42t221.5 -58q55 -29 90 -29q51 -2 149 -63q98 -60 168 -132q54 -56 54 -83q0 -8 -4 -13q-25 -29 -50.5 -19.5t-86.5 70.5q-59 57 -142.5 108.5t-120.5 51.5q-27 0 -86 31q-42 20 -204 53 q-124 25 -159 25q-11 0 -13 -2q-1 -1 -1 -4q1 -20 37 -144q28 -96 28 -136q0 -20 -6 -26q-20 -20 -50.5 5.5t-30.5 62.5q0 16 -4 31.5t-9 28t-21.5 49t-33.5 71.5q-12 31 -28.5 50.5t-26.5 17.5q-12 -2 -17 14t-1 57v13q0 52 -26 140q-30 100 -83 204q-41 80 -83 228.5 t-42 209.5q0 53 -7 68.5t-32 15.5q-39 0 -39 27q0 22 25 61z" />
<glyph unicode="l" horiz-adv-x="315" d="M22 1136q8 42 42 75.5t41.5 49t9.5 62.5q2 16 10 27.5t20 11.5q25 0 38 -216t23.5 -478t26.5 -330q23 -88 23 -171t18 -95q20 -12 20 -76q0 -70 -22 -82q-7 -4 -14 -4q-29 0 -57 76q-76 209 -82 706q-2 37 -2 74q0 340 -27 342q-8 0 -20 -21q-12 -20 -31 -10 q-19 12 -19 39q0 9 2 20z" />
<glyph unicode="m" horiz-adv-x="1425" d="M20 457v18q0 153 31 351q33 208 76 296q41 86 69 108q17 13 41 13q16 0 37 -6q29 -8 74 -56t170 -210q45 -57 45 -86q0 -20 30 -53t38 -82q10 -52 30 -52h1q29 4 43 105q12 94 74.5 243.5t101.5 184.5q41 33 77 33q57 0 151.5 -108.5t109.5 -197.5q8 -47 76.5 -258 t88.5 -258q20 -43 20 -74q0 -7 -1 -14q-6 -35 -39 -35q-27 0 -58.5 43.5t-31.5 75.5q0 25 -30 91.5t-30 101.5q-2 82 -90 301t-133 248q-5 3 -10 3q-28 0 -74 -69q-55 -82 -88 -190q-37 -117 -49 -406q-8 -178 -37 -194q-12 -6 -28 4t-34 80.5t-30 78.5q-18 10 -18 48 q0 55 -82 206l-80 150q-47 84 -120 170t-99 86q-23 0 -47 -41q-27 -41 -55.5 -229.5t-28.5 -315.5q0 -176 -41 -229q-9 -11 -16 -11q-15 0 -25 48q-6 35 -9 88zM51 238q0 39 16.5 38.5t63.5 -34.5q16 -14 24.5 -21.5t10.5 -13.5t-3 -9t-16 -8q-19 -7 -36 -7q-17 -1 -31 7 q-28 14 -29 48z" />
<glyph unicode="n" horiz-adv-x="966" d="M26 977.5q13 30.5 40 30.5q16 0 43.5 46t66.5 114.5t70 101.5q53 56 126 56q18 0 38 -4q98 -18 137 -103q10 -25 46 -87.5t62.5 -115.5t26.5 -80q2 -33 20.5 -55.5t30.5 -73.5q6 -31 48 -142.5t79 -277.5q41 -197 72 -250q16 -29 16 -46q0 -13 -8 -19q-6 -5 -15 -4 q-19 0 -53 22q-35 23 -67.5 108t-52.5 210q-8 53 -26.5 120.5t-36 117.5t-48.5 134t-45 125q-49 143 -121 243q-68 94 -115 93h-6q-51 -6 -101 -97t-73 -214q-11 -62 -11 -153q0 -55 4 -121q11 -174 36 -207q12 -14 30.5 -92t34.5 -113q9 -20 10 -37q0 -15 -9 -27 q-17 -26 -52 -12q-29 10 -69.5 104.5t-40.5 147.5q0 37 -34 168t-36 215q-2 98 -14 121q-16 23 -3 53.5z" />
<glyph unicode="o" horiz-adv-x="1046" d="M23 666q6 137 49 221t143 157q104 77 133 89q32 12 82 11h22q66 -3 99 -20q43 -23 254 -241q147 -154 178 -198q29 -41 29 -89v-6q-4 -74 -8 -74q-16 0 -40 41t-24 70q0 31 -17.5 41t-36 -3.5t-22.5 -43.5q-8 -49 -22 -46q-20 6 -21 87q0 59 -13 82.5t-71 64.5 q-82 61 -112 61q-20 0 -51 19.5t-101 23.5q-80 6 -80 21q0 20 109 20q12 0 26 -2l125 -6l-55 51q-76 68 -165 68h-5q-92 -2 -184 -78q-74 -61 -106 -136t-36 -200q-1 -17 -1 -34q0 -243 139 -338q61 -43 157.5 -71t184.5 -28q55 0 55 -4q0 -6 -23 -22q-41 -31 -116 -31 q-40 1 -88 9q-140 24 -232 99q-157 128 -157 383q0 26 2 52zM684 162q0 20 52 69.5t77 49.5q27 0 86 52t59 75q0 26 25 34q33 14 39 7t0 -52t-55 -89t-170 -113q-88 -51 -107 -51q-3 0 -4 1q-2 4 -2 17z" />
<glyph unicode="p" horiz-adv-x="931" d="M20 1090v9q0 85 37 126q25 27 49 34q14 4 36 4q19 0 44 -3q90 -8 168 -50.5t224 -156.5q299 -240 327 -480q5 -42 5 -69q0 -21 -3 -32q-6 -28 -43 -71q-101 -120 -267 -120h-3q-70 0 -140.5 -24t-70.5 -46q0 -14 29.5 -99t29.5 -108q0 -14 54 -133q37 -80 37 -121 q0 -37 -31 -41h-8q-25 0 -97.5 136.5t-72.5 179.5q0 53 -41 146t-76 122q-33 27 -38 47t8 33.5t19 40.5q1 8 1 16q0 23 -11 53q-20 55 -20 108.5t-19 72.5q-27 27 -75.5 192.5t-51.5 233.5zM106 1082q-1 -8 -1 -17q0 -27 11 -65q15 -48 34.5 -98t59.5 -158.5t75 -227.5 q45 -147 63 -172q17 -23 76 -23q48 0 122 15q167 33 234 94q35 33 35 112v9q-2 86 -43 166q-33 66 -172 208t-170 142q-14 0 -57 40t-68 40q-20 0 -42.5 11t-38 23.5t-32 19.5t-32 -3t-31.5 -43q-18 -41 -23 -73z" />
<glyph unicode="q" horiz-adv-x="1318" d="M20 651v172l95 90q33 31 61.5 53.5t61 37t50 20.5t59 17.5t59.5 15.5q31 10 66 10q70 0 157 -39q92 -41 92 -79q0 -17 -8 -25q-8 -14 -33 -6t-45.5 21t-58 31.5t-70.5 26.5q-15 3 -32 3q-55 0 -139 -34q-110 -44 -171 -108q-45 -45 -55.5 -75.5t-10.5 -123.5 q0 -113 34 -185.5t118 -141.5q62 -51 145 -51q30 0 63 7q124 25 224 136q53 55 82 152q16 53 16 90q0 29 -10 47q-20 37 -20 118q0 51 6 63.5t28 6.5q18 -6 35 8.5t39 55.5q37 73 67 73q5 0 9 -2q20 -8 20 -57q-2 -45 -31.5 -173t-72.5 -261q-31 -98 -37 -307 q-3 -66 -3 -113t3 -73q6 -54 31 -113q33 -76 81 -99q21 -10 47 -10q32 0 70 16q35 14 54.5 13.5t44.5 -17.5q25 -14 33 -22t2.5 -16.5t-23.5 -14.5t-59 -18q-79 -21 -130 -21q-13 0 -24 1q-55 7 -111 52q-57 47 -77.5 127t-22.5 254q0 152 -17 163q-3 1 -7 1q-25 0 -117 -63 q-70 -47 -106 -59q-27 -10 -78 -10q-16 0 -35 1q-100 2 -163 40t-128 136q-39 59 -48.5 99t-9.5 159zM1212 -137q-6 14 -6 25q0 24 29 34q12 2 29 2q31 0 35 -21.5t-10.5 -45t-28.5 -27.5q-31 -4 -48 33z" />
<glyph unicode="r" horiz-adv-x="1038" d="M23 1250q7 24 30 24t55.5 -93.5t36.5 -93.5t23.5 38t55.5 93.5t73 88.5q67 56 150 56h9q89 -3 220 -71q113 -59 171 -102t89 -53q35 -10 62.5 -39t15.5 -43q-5 -5 -18 -5q-26 0 -90 24q-92 34 -161 83q-94 68 -122.5 68t-65.5 28q-40 29 -93 29h-12q-60 -4 -96 -43 q-49 -55 -87 -148.5t-38 -158.5q0 -84 41 -205q107 -331 107 -443q0 -50 -21 -57q-2 -1 -4 -1q-17 0 -46 41q-32 46 -59.5 119t-35.5 136q-18 131 -49 229.5t-50.5 144.5t-19.5 73q0 39 -41 127q-21 45 -29 87q-5 23 -4 41q0 15 3 26z" />
<glyph unicode="s" horiz-adv-x="1042" d="M20 406q0 102 20.5 135.5t82.5 33.5q37 0 46 -10t9 -51q0 -37 -7 -46t-32.5 -1t-33 -1t-7.5 -48q0 -59 22.5 -59.5t80.5 -41.5q90 -66 298 -66h39q238 6 353 83q31 20 53.5 41.5t22.5 32.5q0 47 -136.5 174t-189.5 131q-14 0 -69.5 40t-77.5 40q-23 0 -109 37.5 t-102 37.5q-33 2 -98.5 91.5t-65.5 134.5q0 55 59.5 110.5t161.5 93.5q56 20 120 32q56 11 95 11h12q43 -2 43 -18q0 -20 39 -10q10 3 21 3q48 0 124 -56q94 -70 93 -125q0 -35 -47 -81t-82 -46q-31 0 -29 18q4 25 49 41q33 12 42 25.5t-2 35t-44 56.5q-66 68 -178 82 q-27 3 -54 3q-86 0 -173 -34q-117 -45 -143 -101q-8 -18 -9 -38q0 -42 39 -92q33 -43 114 -88.5t122 -45.5q27 0 70.5 -38.5t64.5 -38.5q16 0 43.5 -15.5t70.5 -43t74 -42.5q55 -29 133 -117q52 -57 64 -87q9 -22 9 -60q0 -13 -1 -29q-2 -57 -15.5 -80.5t-56.5 -52.5 q-68 -45 -109.5 -45t-66.5 -24q-18 -18 -105 -45t-175 -43q-13 -2 -28 -2q-68 -1 -184 35q-144 44 -202 94q-39 33 -48.5 60.5t-9.5 109.5z" />
<glyph unicode="t" horiz-adv-x="1691" d="M27 713q7 12 43 17q20 3 40 3q16 0 31 -2q35 -4 35 -14q0 -23 -29.5 -43.5t-64.5 -20.5q-37 0 -53 18.5t-2 41.5zM233 692q0 45 158 80q119 27 166 43t69.5 41t43.5 78q20 59 52 108.5t46 77.5q11 21 11 47q0 7 -1 15q-4 33 -14 42t-39 5q-33 -6 -33 0t43 53q47 49 79 53 h6q28 0 50 -32q6 -9 6 -29q0 -36 -20 -108q-30 -110 -76 -195q-24 -44 -24 -67q0 -14 8 -20q9 -8 30 -8q27 0 74 13q137 39 457 88q116 19 190 19q49 0 79 -8q76 -20 76.5 -36t-181.5 -28q-158 -8 -304.5 -42t-239.5 -61.5t-134 -27.5q-61 -1 -98 -91q-24 -59 -24 -123 q0 -35 7 -71q8 -51 82 -139t107 -88q23 0 76 -29q61 -34 177 -54q89 -16 155 -16q19 0 36 2q129 12 287 97q49 27 47 -7q-2 -33 -51 -73q-102 -83 -270 -101q-41 -4 -80 -5q-125 0 -240 42l-186 70q-78 29 -153 113q-75 82 -79 144q-2 25 -2 57q0 47 4 110l6 104l-86 -14 q-86 -14 -131 -31q-43 -16 -102.5 -16t-59.5 18z" />
<glyph unicode="u" horiz-adv-x="1021" d="M30 1017q-9 69 -10 112q0 64 21 71q18 6 37.5 -24.5t35.5 -88t23 -122.5q14 -135 61.5 -312.5t92.5 -255.5q57 -102 122.5 -143t176.5 -41h27q51 0 79 6q34 8 58 29q41 37 41 57q0 12 15 33.5t43 81t50 153.5q23 93 25 137v10q0 41 -13 95q-25 103 -35 237q-5 62 -5 103 q0 46 6 64q8 18 13 21t12 -3t26 -29q34 -38 54 -198q17 -131 16 -260v-56q-4 -156 -33 -190q-35 -37 -54 -119q-16 -76 -37.5 -110.5t-82.5 -86.5q-45 -39 -80 -48t-135 -9q-102 0 -137 10.5t-87 48.5q-70 55 -140.5 161t-70.5 153q0 49 -26 135q-65 207 -89 378z" />
<glyph unicode="v" horiz-adv-x="897" d="M20.5 1105.5q2.5 22.5 18.5 33.5q2 1 5 1q18 0 68 -52q58 -62 74 -107q16 -51 119 -202.5t202 -279.5q91 -117 107 -117q2 0 2 1q6 4 35 153.5t70 327.5t76 246q12 23 26.5 39t22.5 16q27 -1 30 -35v-7q0 -32 -22 -74q-45 -88 -96 -418q-35 -224 -35 -321q0 -45 8 -62 q10 -25 10 -48q0 -13 -3 -25q-9 -34 -38 -34q-20 0 -124.5 113t-135.5 168q-25 39 -57.5 89t-65 97t-69.5 99.5t-70 98.5t-62.5 92t-51 84t-34 69.5t-10 54z" />
<glyph unicode="w" horiz-adv-x="1785" d="M20 1085v50l62 -58q45 -45 119.5 -151t74.5 -131q0 -10 69 -82t69 -80q0 -12 42 -75.5t91 -127.5q16 -23 35.5 -35t27.5 -8q20 12 9 55t-41 78q-27 30 -27 171q0 34 2 75q8 209 45 266q37 55 59 55q20 0 65.5 -44t45.5 -66q0 -27 29 -41q23 -14 105.5 -128t82.5 -132 q0 -8 62.5 -77t172 -161t203.5 -135q45 -23 73 -35t54.5 -18t39 -7t25.5 10t17 23.5t10.5 43t7.5 58.5t7 80t12 95q3 24 3 51q0 110 -52 268q-66 196 -150 273q-40 38 -40 56q0 4 2 7q10 17 26 17q33 0 94 -68q55 -59 109 -153q49 -88 84 -242q21 -93 21 -143q0 -33 -9 -46 q-16 -25 -16 -56q0 -15 4 -30q4 -16 4 -38q-1 -45 -17 -115q-24 -104 -53 -127q-41 -26 -100 -26h-13q-68 3 -157.5 44t-177.5 100.5t-174 143.5t-148 172q-90 132 -90 171q0 4 1 7q11 31 -7 31q-12 0 -30.5 12t-36 28.5t-37 30t-30.5 15.5t-20 -10q-17 -45 -17 -166 q0 -60 4 -140q12 -238 44 -270q20 -18 20.5 -99t22 -102.5t9 -53.5t-41.5 -32q-12 0 -26.5 13.5t-37 45.5t-44 65.5t-62.5 96t-77 113.5q-231 342 -277 424q-25 45 -66.5 102.5t-65.5 95.5t-24 66z" />
<glyph unicode="x" horiz-adv-x="972" d="M23 1317q10 27 26 27q35 0 96 -148q12 -33 117 -326q20 -59 25 -59q12 0 80.5 154.5t91.5 230.5q16 51 55 66q31 10 31 -27q0 -20 -49.5 -104t-49.5 -138q0 -43 -19 -93t-37 -95t-26 -105q-2 -15 -2 -32q0 -51 20 -118q26 -89 89 -202l47 -84q43 -84 139.5 -192.5 t171.5 -157.5q124 -80 124 -117q0 -11 -11 -18q-1 -1 -4 -1q-24 0 -148 70q-138 76 -145 76q-8 0 -94 106.5t-115 151.5q-45 78 -86 163t-41 104q0 29 -19.5 28.5t-19.5 -6.5q0 -2 -24 -67q-24 -66 -46 -141q-17 -59 -17 -90q0 -9 1 -15q6 -27 -6 -53.5t-31.5 -34t-35.5 7.5 q-14 14 -14 59q0 53 20 149q37 177 94 275q18 34 18 83v10q-2 56 -26 100q-14 31 -33.5 95t-34 114.5t-24.5 56.5q-18 10 -19 53q0 31 -39 128q-32 79 -32 106q0 6 2 10z" />
<glyph unicode="y" horiz-adv-x="927" d="M21 1182q-3 16 10 43q14 25 24.5 28.5t26.5 -10.5q29 -23 29 -41t62.5 -99t154.5 -181q207 -227 374 -344q57 -41 75 -41q10 0 10 10q0 3 -1 6q0 4 -2 8q-6 18 18 46q15 18 15 127q0 60 -5 148q-13 248 -44 388q-21 96 -21 139q0 17 3 25q8 20 22 23t31.5 -13.5 t32.5 -46.5q25 -51 48 -287t23 -426q-2 -272 -28.5 -611t-49.5 -362q-18 -18 -28 -19t-25 13q-18 18 -18 88t20 359l17 235l-90 84q-90 82 -115 84q-35 0 -266.5 244.5t-231.5 279.5q0 16 -41 60q-27 27 -30 43z" />
<glyph unicode="z" horiz-adv-x="1275" d="M25 1001q-4 11 -4 21q0 50 118 50q14 0 31 -1h27q95 0 174 25q80 23 324.5 52.5t273.5 33.5q5 1 10 1q23 -1 59 -21q44 -26 43 -44q0 -16 -171 -200.5t-350 -386t-193 -257.5q-2 -7 -2 -13q0 -26 34 -44q25 -13 78 -13q13 0 29 1q76 4 360 35q219 27 298 27q6 -1 12 -1 q72 -2 79 -33q2 -18 -6 -25t-35 -7q-35 0 -62.5 -14.5t-94.5 -14.5q-152 -4 -297.5 -12t-213.5 -12q-70 -5 -130 -6h-12q-52 0 -74 8q-26 8 -43 28q-23 28 -26 58v8q-1 27 15 57q18 35 40 65.5t54.5 74.5t53.5 75q16 31 143 162t242 253t115 142q-13 9 -88 9h-16 q-90 -1 -206 -11t-149 -22q-39 -14 -149.5 -36t-194.5 -32q-19 -2 -34 -2q-53 0 -62 22z" />
<glyph unicode="{" />
<glyph unicode="|" />
<glyph unicode="}" />
<glyph unicode="~" horiz-adv-x="1374" d="M24 292q7 44 26.5 106.5t37.5 86.5q37 49 122 108.5t122 59.5q33 0 61 21q27 16 44.5 15t125.5 -23q100 -20 220 -91t178 -92q111 -37 205 -4t94 109q0 47 19 54t50 -28q23 -25 24 -40t-16 -50q-41 -84 -172 -124t-219 6q-65 30 -90 30q-16 0 -48 30t-58 30 q-23 0 -42.5 17t-58.5 42t-99.5 40t-95 13t-94.5 -24q-76 -27 -129 -75t-55 -87q0 -25 -64.5 -103.5t-84.5 -78.5q-10 8 -3 52z" />
<glyph unicode="&#xa2;" />
<glyph unicode="&#xa3;" horiz-adv-x="1261" d="M20 307q0 51 197 213l86 70l-43 182q-37 150 -35 250t47 223q25 72 60 122t65.5 74.5t74.5 39t71.5 16.5t72.5 2q94 2 125 -8t86 -61q158 -141 158 -367q0 -115 -23.5 -108.5t-46.5 124.5q-41 215 -131 299q-33 31 -61.5 36t-116.5 -5q-129 -12 -180 -53 q-68 -53 -96.5 -215t4.5 -291q12 -49 23.5 -100.5t12.5 -65.5t15 -33.5t31.5 -26t62.5 -20.5q102 -33 142 -67q100 -92 180 -72q33 10 40 3t3 -44q-4 -35 -18.5 -49.5t-44 -11t-73.5 26t-106 65.5q-61 41 -107 64.5t-51 17.5q-6 -10 6.5 -53.5t31 -142.5t20.5 -218 q0 -127 -7.5 -167t-35.5 -79q-47 -59 -25.5 -76.5t103.5 17.5q84 35 286 45q145 6 189.5 0t122.5 -45q139 -70 98 -109q-6 -6 -19 -12q-29 -10 -122 41q-61 31 -108.5 40t-151 9t-150.5 -8t-102.5 -30.5t-120.5 -39.5q-104 -25 -115 -41q-10 -16 -48 -17t-47 14.5t77 162.5 q61 102 73.5 146t14.5 151q0 102 -23.5 213t-54.5 145q-6 6 -40 -16.5t-75 -65.5q-115 -115 -178 -116q-23 0 -23 22zM915 872q-6 14 15 17q2 2 6 2q31 0 30.5 -20.5t-20.5 -20.5t-31 22z" />
<glyph unicode="&#xa7;" />
<glyph unicode="&#xab;" horiz-adv-x="1165" d="M20 254l50 96q35 72 147.5 181.5t208.5 185.5t106 76q25 -1 50 28q35 41 56 24.5t7 -71.5q-12 -43 -102 -90q-88 -45 -242 -193.5t-154 -189.5t54 -63l133 -58q78 -33 207 -71q131 -41 131 -76q0 -16 -37 -25q-47 -8 -272.5 71t-276.5 122zM451.5 248.5 q-13.5 27.5 3.5 56.5q10 20 132 117.5t234.5 195t112.5 123.5q0 18 51 74.5t80 32.5q14 -12 15 -27.5t-6 -28t-17 -30t-13 -27.5q-4 -23 -127.5 -143.5t-197.5 -173.5q-123 -88 -116 -128t157 -69q82 -18 174 -49t135 -31q53 0 69.5 -20.5t-12.5 -48.5q-27 -29 -86 -11 q-86 29 -199.5 54.5t-146.5 25.5q-37 0 -104.5 40t-93.5 40q-31 0 -44.5 27.5z" />
<glyph unicode="&#xad;" horiz-adv-x="1120" d="M20 487q0 27 35 26t76 -10t74 7q14 6 221 10t421 -4t236 -31q29 -29 4 -51q-14 -14 -36.5 -14t-75.5 14q-88 23 -520 23q-287 0 -361 5t-74 25z" />
<glyph unicode="&#xbb;" horiz-adv-x="1222" d="M27 856q18 20 54 11t50 -36q12 -23 183 -126t241 -127q84 -33 41 -80q-23 -25 -70 -121t-69 -117q-31 -25 -31 -49q0 -18 -16.5 -56t-90.5 -180q-82 -164 -129 -116q-8 14 -9 24.5t10.5 32t22.5 39.5t27.5 50t26.5 58q23 53 73 156t87 180.5t37 95t-84 62.5 q-150 78 -187.5 103.5t-43.5 58.5q-10 43 -54 49q-35 4 -60 38t-9 50zM384 1096q-9 27 5 43q23 29 40 25.5t17 -36.5q0 -43 149.5 -179t320.5 -255t225 -119q31 0 51 -26q16 -20 0 -62q-20 -47 -168 -317q-86 -160 -86 -199q0 -29 -28.5 -79t-39.5 -95q-14 -59 -34 -82 q-23 -29 -48.5 -24.5t-25.5 35.5q0 55 70.5 237t144.5 320l100 184l-63 53q-63 55 -80 55q-14 0 -156.5 105.5t-206.5 161.5q-63 57 -135 164q-43 63 -52 90z" />
<glyph unicode="&#xbf;" />
<glyph unicode="&#xc0;" />
<glyph unicode="&#xc1;" />
<glyph unicode="&#xc2;" />
<glyph unicode="&#xc4;" />
<glyph unicode="&#xc7;" />
<glyph unicode="&#xc8;" />
<glyph unicode="&#xc9;" />
<glyph unicode="&#xca;" />
<glyph unicode="&#xcb;" />
<glyph unicode="&#xce;" />
<glyph unicode="&#xcf;" />
<glyph unicode="&#xd1;" />
<glyph unicode="&#xd3;" />
<glyph unicode="&#xd4;" />
<glyph unicode="&#xd6;" />
<glyph unicode="&#xd9;" />
<glyph unicode="&#xda;" />
<glyph unicode="&#xdb;" />
<glyph unicode="&#xdc;" />
<glyph unicode="&#xdf;" />
<glyph unicode="&#xe0;" />
<glyph unicode="&#xe1;" />
<glyph unicode="&#xe2;" />
<glyph unicode="&#xe4;" />
<glyph unicode="&#xe7;" />
<glyph unicode="&#xe8;" />
<glyph unicode="&#xe9;" />
<glyph unicode="&#xea;" />
<glyph unicode="&#xeb;" />
<glyph unicode="&#xee;" />
<glyph unicode="&#xef;" />
<glyph unicode="&#xf3;" />
<glyph unicode="&#xf4;" />
<glyph unicode="&#xf6;" />
<glyph unicode="&#xf9;" />
<glyph unicode="&#xfa;" />
<glyph unicode="&#xfb;" />
<glyph unicode="&#xfc;" />
<glyph unicode="&#x2000;" horiz-adv-x="821" />
<glyph unicode="&#x2001;" horiz-adv-x="1642" />
<glyph unicode="&#x2002;" horiz-adv-x="821" />
<glyph unicode="&#x2003;" horiz-adv-x="1642" />
<glyph unicode="&#x2004;" horiz-adv-x="547" />
<glyph unicode="&#x2005;" horiz-adv-x="410" />
<glyph unicode="&#x2006;" horiz-adv-x="273" />
<glyph unicode="&#x2007;" horiz-adv-x="273" />
<glyph unicode="&#x2008;" horiz-adv-x="205" />
<glyph unicode="&#x2009;" horiz-adv-x="328" />
<glyph unicode="&#x200a;" horiz-adv-x="91" />
<glyph unicode="&#x2010;" horiz-adv-x="1120" d="M20 487q0 27 35 26t76 -10t74 7q14 6 221 10t421 -4t236 -31q29 -29 4 -51q-14 -14 -36.5 -14t-75.5 14q-88 23 -520 23q-287 0 -361 5t-74 25z" />
<glyph unicode="&#x2011;" horiz-adv-x="1120" d="M20 487q0 27 35 26t76 -10t74 7q14 6 221 10t421 -4t236 -31q29 -29 4 -51q-14 -14 -36.5 -14t-75.5 14q-88 23 -520 23q-287 0 -361 5t-74 25z" />
<glyph unicode="&#x2012;" horiz-adv-x="1120" d="M20 487q0 27 35 26t76 -10t74 7q14 6 221 10t421 -4t236 -31q29 -29 4 -51q-14 -14 -36.5 -14t-75.5 14q-88 23 -520 23q-287 0 -361 5t-74 25z" />
<glyph unicode="&#x2013;" horiz-adv-x="1064" d="M20 487q0 27 33 26t72 -10t71 7q13 6 209.5 10t399.5 -4t224 -31q28 -29 4 -51q-13 -14 -34.5 -14t-71.5 14q-84 23 -494 23q-272 0 -342.5 5t-70.5 25z" />
<glyph unicode="&#x2014;" horiz-adv-x="2089" d="M20 487q0 27 66.5 26t144.5 -10t140 7q27 6 420 10t799.5 -4t447.5 -31q55 -29 8 -51q-27 -14 -69.5 -14t-143.5 14q-167 23 -987 23q-545 0 -685.5 5t-140.5 25z" />
<glyph unicode="&#x201c;" horiz-adv-x="802" d="M20 1337q0 76 19.5 161t42.5 116q20 25 37 24q25 0 31 -23.5t-13 -45.5q-23 -27 -24 -158q-2 -92 5 -117.5t46 -54.5q39 -31 51 -32t41 26q25 23 38 25t32 -13q57 -47 8 -88q-51 -41 -146 -22q-168 31 -168 202zM440 1608q12 31 76 30q49 0 49 -10q0 -4 -8 -14 q-35 -33 -24.5 -141.5t53.5 -190.5l51 -98l47 45q31 29 43 31t35 -19q20 -23 20 -35t-24 -49q-25 -37 -73 -48t-103 11q-37 14 -79 112.5t-62.5 211.5t-0.5 164z" />
<glyph unicode="&#x201e;" horiz-adv-x="587" d="M23 -109q6 14 28 31q29 18 36 50t7 149q0 170 23.5 193.5t40.5 23.5q20 0 28.5 -103.5t-2 -218t-32.5 -143.5q-33 -37 -93 -23q-49 10 -36 41zM27 461q12 18 38.5 14t49.5 -31q33 -39 2 -53q-27 -14 -62 17q-40 35 -28 53zM352 -223q4 22 45 59q47 43 62 158 q16 121 0.5 257t-45.5 157q-31 24 -19 55t40 32t52.5 -29t10 -30t26.5 -65q61 -100 38 -323.5t-103 -299.5q-31 -29 -45.5 -32t-34.5 12q-31 27 -27 49z" />
<glyph unicode="&#x2022;" />
<glyph unicode="&#x202f;" horiz-adv-x="328" />
<glyph unicode="&#x205f;" horiz-adv-x="410" />
<glyph unicode="&#x20ac;" horiz-adv-x="1323" d="M21.5 120q-3.5 38 15.5 50q18 10 0 86q-37 166 20 408q37 150 81 236.5t143 195.5q76 84 195.5 175t156.5 93q26 0 95 38t226 38l156 2l94 -99q63 -66 79.5 -98.5t19.5 -93.5q6 -258 -33 -338q-12 -25 -25.5 -11.5t-13.5 193.5q0 113 -9.5 164t-37.5 111 q-20 39 -33.5 59.5t-35 29.5t-39 11t-63.5 5t-87 11q-39 6 -119 -15t-121 -50q-53 -37 -63 -37q-4 0 -33 -17.5t-77 -52t-99.5 -78.5t-105.5 -106.5t-91 -128.5q-43 -74 -80 -194.5t-22 -135.5q12 -12 189 3.5t206 -9.5q51 -49 -43 -63q-31 -4 -111 -10q-139 -8 -188 -23 l-80 -25l6 -94q8 -129 34 -158.5t124 -29.5q119 0 177 -14.5t110 -55.5q20 -16 30.5 -25.5t12.5 -15.5t-2.5 -10t-16.5 -8q-35 -12 -67 16q-12 10 -49 20.5t-82.5 16.5t-87 10t-71.5 1t-30 -13q0 -27 41 -86t80 -88q90 -70 179 -96.5t231 -26.5q129 0 175 10t142 62 q80 43 108.5 66.5t28.5 49.5q0 45 -28 70q-33 27 -30 61.5t38 34.5q80 0 80 -164q0 -55 -11.5 -80.5t-50.5 -58.5q-61 -51 -103 -51t-102 -39q-37 -25 -84 -32t-165 -7q-211 0 -313.5 45t-213.5 185q-45 59 -84 101t-49 42q-20 0 -23.5 38z" />
<glyph unicode="&#x25fc;" horiz-adv-x="1341" d="M0 0v1341h1341v-1341h-1341z" />
</font>
</defs>
</svg>
