<?xml version="1.0" standalone="no"?>
<!DOCTYPE svg PUBLIC "-//W3C//DTD SVG 1.1//EN" "http://www.w3.org/Graphics/SVG/1.1/DTD/svg11.dtd" >
<svg xmlns="http://www.w3.org/2000/svg" xmlns:xlink="http://www.w3.org/1999/xlink" version="1.1">
<metadata></metadata>
<defs>
<font id="merry_murni_script_1medium" horiz-adv-x="495" >
<font-face units-per-em="2048" ascent="1638" descent="-410" />
<missing-glyph horiz-adv-x="602" />
<glyph horiz-adv-x="0" />
<glyph unicode="&#xd;" horiz-adv-x="681" />
<glyph unicode=" "  horiz-adv-x="602" />
<glyph unicode="&#x09;" horiz-adv-x="602" />
<glyph unicode="&#xa0;" horiz-adv-x="602" />
<glyph unicode="!" horiz-adv-x="450" d="M65.5 929q-4.5 75 10.5 111q10 29 51 54q35 23 98.5 24.5t100.5 -18.5q43 -20 57 -62.5t10 -122.5q-6 -84 -31 -159q-23 -66 -73 -171.5t-58 -105.5q-10 0 -66 124t-75 188q-20 63 -24.5 138zM141 279q6 34 33 57q41 35 88 18.5t57 -69.5q14 -80 -40 -103 q-57 -23 -103.5 9t-34.5 88z" />
<glyph unicode="&#x22;" horiz-adv-x="509" d="M78 995q-14 117 67 125q45 4 60.5 -16.5t13.5 -83.5q-2 -57 -27.5 -142t-41.5 -85q-12 0 -38 73.5t-34 128.5zM319 977q-12 74 7 110q14 27 86 41q14 2 32.5 -33.5t18.5 -62.5q-2 -41 -25.5 -127t-48.5 -125q-47 82 -70 197z" />
<glyph unicode="$" horiz-adv-x="698" d="M78 809q-14 84 59.5 215t171.5 152q29 4 36 13t9 46l6 53l7 -53q4 -35 11 -44t32 -13q70 -16 122 -82q31 -39 57.5 -93.5t18.5 -62.5t-12 10q-12 23 -51 72q-41 51 -76 73.5t-94 37.5l16 -340q57 -39 141 -120t103 -114q35 -63 -8 -184q-66 -180 -191 -219 q-47 -14 -57 -27.5t-2 -54.5q6 -45 -8 -45q-12 0 -13 57q0 43 -6 52t-41 20q-96 29 -162 155q-35 72 -20 76q6 0 27 -33q25 -43 36 -43q14 0 11 -12q-2 -12 50 -53t71 -41q16 0 19 25.5t3 142.5v168l-59 41q-63 43 -133 117.5t-74 107.5zM207 981q2 -35 44 -81t93 -79v148 q0 131 -14.5 146t-79.5 -44q-35 -31 -41 -44t-2 -46zM381 291q0 -63 3 -73.5t24 -4.5q29 10 71.5 44t48.5 54q16 51 -57 129q-49 51 -62.5 51.5t-21.5 -53.5q-6 -53 -6 -147z" />
<glyph unicode="%" horiz-adv-x="1038" d="M118.5 896q42.5 134 157.5 187q104 47 165 2t51 -161q-8 -96 -72 -174t-136.5 -94.5t-133.5 32.5q-74 74 -31.5 208zM174 773q19 -58 72 -58q35 0 85 39t70 82q43 82 26 156.5t-105 41.5q-35 -12 -73 -50t-63 -87q-31 -66 -12 -124zM248 270l524 881q53 -28 53 -53 q0 -12 -233.5 -414.5t-265.5 -445.5q-12 -16 -19.5 -15.5t-27.5 19.5zM651 300.5q-43 92.5 8 203.5q25 51 78.5 103t96.5 66.5t59 15.5t49 -11q43 -16 61.5 -51t16.5 -107q0 -111 -66 -192q-18 -23 -66 -60t-52.5 -32.5t-47.5 -4.5q-94 -23 -137 69.5zM700 348 q18 -70 91 -55q31 6 65 31q63 43 92 128t-2 142q-20 37 -79.5 21.5t-102.5 -68.5q-88 -109 -64 -199z" />
<glyph unicode="&#x26;" horiz-adv-x="1013" d="M61 416q0 90 18.5 133t84.5 113l55 61q-33 72 -33 174q0 143 86 197q49 31 114 20.5t83 -51.5q29 -61 0 -147.5t-100 -155.5q-45 -45 -49.5 -53.5t10.5 -34.5q18 -33 101 -102.5t149 -110.5q70 -43 79 -27q4 2 70 164t68 164q4 8 27.5 -4.5t23.5 -22.5q2 -4 -30 -88 t-65.5 -167t-33.5 -85q0 -6 119 -57q86 -39 104.5 -54.5t1.5 -39.5q-10 -18 -92 16q-125 51 -168 70l-59 -60q-72 -70 -163 -104.5t-169 -22.5q-53 10 -110.5 45t-86.5 76q-25 35 -30 57.5t-5 96.5zM133 498q-37 -96 7 -178t132 -104.5t193 17.5q43 20 95 63.5t52 57.5 q0 10 -51 39q-59 33 -130 90.5t-116 108.5q-53 63 -59 63q-14 2 -61.5 -59t-61.5 -98zM250 926.5q-12 -92.5 20 -164.5l45 37q53 43 86 119.5t13 111.5q-10 16 -42 19.5t-57 -7.5q-53 -23 -65 -115.5z" />
<glyph unicode="'" horiz-adv-x="270" d="M73.5 1035q-10.5 91 18.5 118q43 43 92 14q68 -43 2 -262q-29 -98 -41 -100q-8 2 -16 22q-45 117 -55.5 208z" />
<glyph unicode="(" horiz-adv-x="540" d="M569 1020q87 86 99 86q18 6 45.5 25.5t44.5 29.5q53 29 55 25t-29 -37q-43 -43 -93 -118t-77 -134q-176 -399 158 -819q49 -63 45 -72q-10 -10 -98 74t-141 153q-346 453 -9 787z" />
<glyph unicode=")" horiz-adv-x="540" d="M67.5 20.5q-6.5 6.5 45.5 69.5q133 160 190 336q31 90 29 209t-35 209q-55 158 -172 286q-16 18 -30.5 35t-20.5 26t-4 9q20 0 112 -64.5t142 -113.5q166 -164 161.5 -361.5t-178.5 -416.5q-35 -45 -90 -101.5t-99 -92.5t-50.5 -29.5z" />
<glyph unicode="*" horiz-adv-x="575" d="M89.5 966.5q7.5 20.5 23.5 20.5q8 0 78.5 -42t78.5 -40q12 0 13 94q0 70 4 82.5t24 12.5q23 0 27 -13.5t4 -89.5q0 -96 10 -92q6 8 76 55q49 31 61.5 34t30.5 -11q16 -16 10 -24.5t-69 -45.5q-84 -53 -84 -65q-2 -4 14.5 -17.5t41 -29t49 -31.5t39 -29.5t7.5 -17.5 q-6 -25 -30.5 -20t-79.5 42l-70 47l-6 -98q-4 -66 -9 -80t-24 -18q-20 -2 -23 9t-3 81q0 94 -17 94q-18 0 -22 -10t-66 -49q-45 -29 -56 -31t-24 12q-31 43 -6 43q12 0 84 44t72 53q-4 14 -152 102q-14 8 -6.5 28.5z" />
<glyph unicode="+" horiz-adv-x="741" d="M72 590q2 2 121 8h8l141 4q0 45 -4 139.5t-4 139.5h72q2 -45 4 -139.5t4 -139.5l135 -6q98 -4 117.5 -8t19.5 -20.5t-20.5 -21.5t-116.5 -9l-135 -5v-262q-27 2 -66 -6q4 131 -4 258q2 8 -27 10q-31 4 -106 5q-135 0 -135 12q-10 37 -4 41z" />
<glyph unicode="," horiz-adv-x="299" d="M61 260q0 66 51.5 91.5t96.5 -25.5q23 -25 26 -40.5t-2 -60.5q-14 -100 -102 -168q-47 -33 -45 -18q0 10 25 35q46 53 69 108q-63 -4 -91 10.5t-28 67.5z" />
<glyph unicode="-" d="M70 526q4 16 32.5 19.5t155.5 3.5h182v-60q-340 0 -368 9q-8 8 -2 28z" />
<glyph unicode="." horiz-adv-x="317" d="M61 307q0 59 50.5 87t97.5 -11q39 -35 45 -76t-20.5 -70.5t-75.5 -29.5q-45 0 -71 26.5t-26 73.5z" />
<glyph unicode="/" horiz-adv-x="499" d="M60 286q-1 7 2.5 14t10.5 23.5t11 32.5q12 49 34.5 106.5t35.5 96.5q-4 10 13 36t17 36q2 16 92.5 256.5t98.5 255.5q4 8 33.5 -9.5t29.5 -27.5l-53 -145q-145 -387 -139 -388q4 0 -13 -24q-8 -12 -1.5 -12t-4 -16.5t-28 -70t-29.5 -69.5q-6 -12 -13 -40t-14 -44 q-10 -23 -17 -27t-28 0q-18 4 -27.5 6.5t-10.5 9.5z" />
<glyph unicode="0" horiz-adv-x="604" d="M66 688q10 324 159 426q92 61 181.5 -14.5t125.5 -247.5q12 -61 14.5 -215t-9.5 -176q-6 -10 -11 -47q-8 -72 -66.5 -148t-115.5 -88q-84 -16 -159.5 77t-96.5 245q-8 49 -16 49q-10 0 -6 139zM147 610q4 -86 12.5 -120.5t37.5 -96.5q65 -139 118 -139q37 0 79 60.5 t67 150.5q14 57 20 154.5t-4 111.5q-8 12 -16 68q-8 59 -36 125.5t-56 97.5q-61 68 -121 4q-113 -119 -101 -416z" />
<glyph unicode="1" horiz-adv-x="333" d="M61 1018q16 14 62.5 54t85.5 74t47 40q8 -117 16 -991h-77q-16 492 -17 688q0 117 -8 116q-4 0 -29 -20q-6 -10 -15 -12t-18.5 5t-17.5 15t-16 18.5t-13 12.5z" />
<glyph unicode="2" horiz-adv-x="905" d="M61 227q0 10 99 80q100 72 237.5 188.5t192.5 176.5q88 94 114.5 188t-20.5 144q-57 61 -181 37.5t-157 -101.5q-6 -16 -13 -23.5t-13.5 -7.5t-20.5 3t-25 3q-14 0 -16 7.5t4 27.5q35 121 191 164q47 14 122.5 11t114.5 -25q49 -29 73.5 -70t24.5 -118.5t-34 -155.5 q-33 -72 -181.5 -214.5t-277.5 -234.5l549 -8v-82q-725 0 -783 10z" />
<glyph unicode="3" horiz-adv-x="700" d="M152 406q33 12 65.5 -17t100 -47t116.5 -14q76 8 129 65.5t55 132.5q2 68 -61 106t-197 46l-106 8l111 59q326 170 206 281q-72 66 -162 51.5t-128 -96.5q-23 -41 -52 -41q-66 0 -16 90q47 90 154 119q92 25 182 -12t123 -113q20 -51 -6.5 -120.5t-85.5 -117.5 q-62 -51 -31 -59q23 0 72 -41t61 -72q41 -96 -11.5 -205.5t-152.5 -142.5q-82 -27 -188.5 -8.5t-167.5 70.5q-70 55 -10 78z" />
<glyph unicode="4" horiz-adv-x="741" d="M61 496q511 665 615 788q4 -61 4 -1042h-82v247q-272 -2 -537 7zM229 580q326 -8 365 -2q6 49 -2 466z" />
<glyph unicode="5" horiz-adv-x="692" d="M61 442h37t29 -2t18.5 -13t6.5 -34q0 -102 78.5 -144t166.5 5q84 43 127 156.5t24.5 226.5t-93.5 156q-43 25 -135.5 23.5t-163.5 -28.5l-68 -24v389h438v-82h-368v-188l129 8q92 4 120.5 0t73.5 -25q166 -76 148 -334q-8 -133 -72.5 -234t-163.5 -134 q-121 -41 -212 23.5t-111 205.5z" />
<glyph unicode="6" horiz-adv-x="792" d="M113 473q-37 127 13 286t157 253q66 57 172 105t194 59q2 0 2 -33q6 -27 -16.5 -39t-44.5 -10q-20 2 -115.5 -52.5t-136.5 -91.5q-96 -86 -129 -200q-6 -20 -5 -21.5t17 12.5q53 45 154.5 70t169.5 8q115 -27 178 -124t37 -206q-14 -59 -68 -147q-4 -12 -31.5 -29.5 t-31.5 -27.5q0 -8 -33 -21.5t-47 -11.5q-10 4 -20.5 -10.5t-70 -10t-122.5 24.5q-82 27 -141.5 85t-81.5 132zM178 559q0 -92 80 -167t201 -75q57 0 77.5 6.5t51.5 30.5q66 51 89 129t-5 142q-14 33 -39 61.5t-37 28.5t-16 14q-4 12 -66 21q-133 16 -291 -109 q-29 -20 -37 -35.5t-8 -46.5z" />
<glyph unicode="7" horiz-adv-x="782" d="M61 1040v54h158q504 0 502 -15q-264 -606 -285 -723q-4 -29 -13 -42t-14.5 -17t-31 -6t-35.5 -4q8 70 50 193.5t81 219t129 308.5q2 4 -12 8q-37 6 -219 6q-162 0 -200 -2t-38 -14q0 -18 -37 -19q-27 0 -31 7t-4 46z" />
<glyph unicode="8" horiz-adv-x="673" d="M61 920q0 113 57.5 175t180.5 87q39 8 104.5 0t92.5 -23q84 -43 94 -182q4 -78 -21.5 -130t-91.5 -102l-61 -45q63 -39 121.5 -92t68.5 -90q10 -41 -3 -104.5t-44 -114.5q-70 -113 -229 -100q-139 8 -195 69q-45 49 -57 128t16 149q16 41 54.5 88t54.5 47q31 0 -2 22 q-14 8 -35 19q-104 51 -105 199zM139 935.5q-2 -65.5 33 -118.5q18 -31 150 -69l61 34q137 78 133 170q-4 96 -59 135q-45 29 -141.5 13.5t-135.5 -58.5q-39 -41 -41 -106.5zM153.5 435q0.5 -54 22.5 -85q55 -74 170 -74q158 0 184 175q4 25 -2 39t-30 42q-27 29 -89.5 72 t-95.5 51q-20 0 -70 -45t-67 -78q-23 -43 -22.5 -97z" />
<glyph unicode="9" horiz-adv-x="782" d="M63 750.5q-2 93.5 25 154.5q33 70 47 84q23 18 23 30.5t62.5 54.5t96.5 52q242 72 379 -182q82 -152 -90 -465q-8 -14 -24.5 -31.5t-20.5 -31.5q-10 -27 -126 -135.5t-177 -147.5l-18 25q-25 27 -19 45t55 49q47 33 142.5 124t95.5 105q0 10 -20 2q-111 -47 -231 -11 t-169 130q-29 55 -31 148.5zM145 709q29 -129 144 -160q72 -20 157.5 3t135.5 77q27 27 45 95.5t14 115.5t-42 104t-83 84q-61 41 -119.5 35t-134.5 -59q-74 -51 -104.5 -129t-12.5 -166z" />
<glyph unicode=":" horiz-adv-x="327" d="M70 772q0 61 53 94q37 25 82 2q49 -27 61.5 -71.5t-20.5 -85.5q-25 -31 -76 -31q-100 0 -100 92zM73.5 329q-12.5 50 26.5 99q31 31 80 23q68 -8 88.5 -65.5t-26.5 -102.5q-45 -43 -100.5 -23.5t-68 69.5z" />
<glyph unicode=";" horiz-adv-x="319" d="M61 721q0 76 48 94q20 8 61 0t57 -22q51 -45 19 -113q-25 -47 -70 -58.5t-80 17.5t-35 82zM79 295q7 39 27.5 51t55.5 12t55 -12q47 -25 39 -105.5t-63 -140.5q-46 -49 -58 -49q-6 0 -15 -12t-18 -6q-10 10 9 20q14 8 48 57.5t34 63.5q0 8 -33 8q-31 0 -45.5 9.5 t-28.5 37.5q-14 27 -7 66z" />
<glyph unicode="&#x3c;" horiz-adv-x="821" d="M61 549q25 20 153 102t288 182.5t205 131.5q4 -4 17 -20.5t23.5 -29t10.5 -16.5q-23 -16 -129.5 -83.5t-241.5 -154t-172 -110.5q10 -6 256 -143t289 -168q0 -2 -43 -62q-606 334 -656 371z" />
<glyph unicode="=" horiz-adv-x="811" d="M61 360v70q580 8 652 6q10 2 17 -1t10 -10t5.5 -13t3.5 -19.5t1 -17.5q-39 0 -308.5 -8.5t-380.5 -6.5zM61 655v72l271 4q381 6 403 -6q8 -2 10 -23l5 -30q-193 -16 -689 -17z" />
<glyph unicode="&#x3e;" horiz-adv-x="806" d="M68 252q-6 2 84 53q55 33 206 117q242 133 242 139l-90 64q-41 25 -139 90q-303 195 -303 203q0 10 12 34q12 23 21.5 22t52.5 -32q59 -41 96 -59q49 -27 173 -105t227.5 -147.5t101.5 -73.5q-4 -10 -319.5 -186t-330.5 -176q-8 0 -21 21.5t-13 35.5z" />
<glyph unicode="?" horiz-adv-x="546" d="M90 932q-20 27 4.5 81t71.5 83q33 20 95.5 21t109.5 -17q82 -31 115.5 -106.5t13 -160.5t-81.5 -149q-66 -68 -103 -215q-2 -10 -5 -18.5t-6 -14.5t-6 -9t-5 -3q-12 8 3 103.5t46 199.5q53 182 32.5 265t-116.5 83q-61 0 -106 -31q-20 -14 0 -18q25 -4 40 -34.5t5 -51.5 q-12 -23 -51.5 -26t-55.5 18zM231 311q0 31 21.5 58.5t46.5 21.5q21 -8 29 -8q14 0 27.5 -35t4.5 -55q-8 -25 -38.5 -33t-61.5 4q-29 16 -29 47z" />
<glyph unicode="@" horiz-adv-x="1005" d="M79 711q15 172 93 272q68 88 201 137q63 20 213 17q162 -4 224 -36t112 -136q29 -66 35 -179.5t-15 -201.5q-27 -111 -80 -166.5t-137 -65.5q-63 -6 -94 19.5t-47 81.5q-123 -90 -209 -60q-45 16 -62.5 44t-17.5 85q0 121 108.5 227.5t229.5 106.5q96 0 114.5 -72.5 t-42.5 -208.5q-20 -47 -29.5 -71.5t-8.5 -41t11 -21.5t35 -7q29 -4 44 2t40 33q84 88 84 270.5t-84 266.5q-35 35 -87.5 47t-170.5 10q-96 0 -156.5 -23.5t-124.5 -87.5q-92 -92 -102 -268q-8 -131 29.5 -242.5t111.5 -167.5q53 -41 106.5 -58t145.5 -21l119 -7 q0 -12 1 -35.5t-4.5 -25.5t-20.5 -7t-52 -7q-170 -6 -296 66.5t-177 209.5q-55 150 -40 322zM379 492q25 -47 125 10q84 47 137.5 137t20.5 129q-12 16 -25.5 17t-50.5 -13q-96 -35 -167 -130t-40 -150z" />
<glyph unicode="A" horiz-adv-x="1228" d="M63 503q0 11 72 11q92 0 142.5 -42t80.5 -122q10 23 102.5 228.5t156 342t81.5 166.5q39 14 56.5 -5t25.5 -89q16 -193 189 -268l-23 -25q-44 -45 -44 -112q0 -62 38 -144q35 -72 80 -92q16 -7 33 -7q30 0 61 22q25 16 56.5 15t48.5 -20q29 -31 30 -79q-2 -14 -8 -13 q-14 9 -14 21q0 18 -22.5 37.5t-43.5 19.5q-16 0 -95 -48t-138 -95q-27 -18 -47.5 -19.5t-39 24.5t-34.5 74t-35 128l-20 92l-289 -8q-6 -16 -34 -82t-49.5 -115t-29.5 -57q-8 0 -16 45t-39 98t-59.5 75.5t-106.5 26.5q-66 4 -66 16zM518 608q190 0 201 4q0 2 -31 143.5 t-33 141.5q-8 -8 -34.5 -64.5t-60.5 -131.5t-42 -93z" />
<glyph unicode="B" horiz-adv-x="817" d="M61 664q6 14 27 52t28 56.5t15 55t8 77.5q0 27 -3 50.5t-5 38t-9 35t-10 27.5t-13.5 28.5t-12.5 25.5h12q12 -2 34 -6t46 -8q82 -16 192 -17q10 0 19 -1q91 0 96 14q3 13 45 13h18q58 -3 89 -22q68 -41 76 -183q1 -16 1 -31q0 -118 -55 -173q-29 -29 -16 -28 q20 0 57 -48.5t48 -82.5q7 -29 7 -64q-1 -21 -3 -45q-8 -62 -29 -100q-41 -66 -227 -80q-106 -6 -144 -31q-59 -37 -77.5 -40t-59.5 16q-57 25 -113 38q25 66 35 116q7 33 7 73q0 20 -2 40q-5 64 -38 120zM276 309l91 8q121 10 166 43q36 27 36 77q0 12 -2 26 q-14 86 -80 119q-20 10 -107 14q-25 1 -43 1q-46 0 -52 -7q-2 -2 -2 -10q0 -17 12 -58q12 -39 13 -76q0 -5 -1 -10q-2 -41 -7 -59.5t-24 -67.5zM279 700l57 7q82 8 135 50t55 99v6q0 77 -75 107q-35 14 -97 17q-12 1 -23 1q-41 0 -48 -10q-4 -12 -4 -69.5t1 -113.5v-35 q0 -33 -1 -59z" />
<glyph unicode="C" horiz-adv-x="999" d="M61 631q0 240 58 354q47 89 161 113q69 15 195 14q83 0 191 -6l143 -12q74 88 74 106q0 27 28 -2q16 -16 -8 -47q-22 -30 -22 -121v-8q0 -96 -2 -96t-78 32q-189 86 -330 86q-105 0 -184 -47q-53 -33 -85 -159q-24 -96 -24 -199q0 -32 2 -64q8 -155 83 -203 q60 -38 206 -39q37 0 80 3q209 16 235 84q12 27 31 26q14 0 6 -20q-25 -67 -25 -115q0 -29 9 -51q18 -51 47 -57q20 -2 20 -6t-16 -13q-11 -6 -24 -6q-38 0 -95 53q-22 16 -54 16q-7 -1 -15 -1q-42 -4 -174 -43q-115 -32 -190 -32q-31 -1 -56 5q-84 18 -131 109 q-55 111 -56 346z" />
<glyph unicode="D" horiz-adv-x="1021" d="M61 213q66 17 119 75t53 124q0 69 -77 102q-43 18 -41 29q0 6 16 6q25 0 57.5 34.5t40.5 65.5q5 18 5 34q0 38 -28 59q-40 30 -120 40q53 23 100 70t47 90q0 31 -18 6q-4 -6 -2 2q0 4 4 17q2 7 2 14q0 54 -98 104l-47 25q53 14 196 14q132 0 342 -12q166 -8 240 -76 q23 -20 49.5 -74.5t36.5 -99.5q2 -10 6 -24.5t5 -19.5t3 -17.5t3 -17.5t2 -17t1 -22.5t1.5 -28t1.5 -35.5v-47q-2 -129 -15.5 -182.5t-58.5 -112.5q-29 -37 -101.5 -74t-156.5 -53q-82 -16 -276.5 -16t-291.5 18zM362 1073q-1 -16 0 -41q0 -94 10 -322q7 -139 7 -227 q0 -97 -8 -131q-3 -20 -3 -35q0 -23 8 -31q11 -11 57 -10h16q131 6 206 74q57 53 80 112.5t27 176.5q1 35 1 67q0 266 -104 330q-43 29 -167 33z" />
<glyph unicode="E" horiz-adv-x="843" d="M61 1118h711q2 -22 2 -42q0 -141 -98 -214l10 43q8 33 8 57q0 13 -3 23q-7 27 -38 55q-27 25 -46 28q-6 1 -19 1q-26 0 -80 -4q-121 -8 -139.5 -18.5t-26.5 -79.5q-6 -66 -6 -176q0 -91 20 -109q15 -13 74 -14q20 0 45 2q154 8 205 92q29 43 43 39q7 -5 7 -41l-7 -109 q0 -15 7 -67q5 -39 5 -59q0 -14 -2 -19q-8 -20 -26 10q-2 2 -5 6q-36 57 -146 83q-49 11 -90 11q-53 0 -95 -18q-27 -12 -32 -21.5t1 -37.5q6 -39 6 -283q132 -21 207 -21q29 0 49 3q55 10 79 54q13 25 13 55q0 24 -8 52q-8 29 -4 31q6 0 35 -35q10 -14 24 -33 q16 -23 25.5 -40t11.5 -34.5t2 -27.5t-4 -35.5t-6 -42.5h-192.5t-277.5 -4t-130 -12q-16 -6 -33.5 -9t-26 -3h-12.5q-2 2 0 6t7.5 12t11.5 14q47 52 65 108q8 27 8 49q0 24 -10 42q-16 29 -84 88l41 62q51 72 51 131q0 53 -41 96q-6 0 -28 18q-16 12 -15.5 22.5t17.5 59.5 q15 53 23 83q4 14 4 30q0 18 -4 39q-8 39 -42 63z" />
<glyph unicode="F" horiz-adv-x="851" d="M70 1098q-8 4 43 6q63 6 309 12q315 12 315 19q27 12 46.5 3.5t15.5 -57.5q-14 -178 -97 -188q-2 20 -5 49t-4 38t-8 26.5t-18.5 21.5t-35 11.5t-56 8.5t-83.5 1q-121 0 -147 -4.5t-42 -28.5q-24 -32 -24 -109v-6v-11q-1 -102 35 -130q38 -30 159 -31q125 0 168 45 q16 18 16 6q0 -8 -4 -69q-2 -24 -2 -44q0 -48 13 -75q23 -43 -11 -35q-16 6 -45 25q-38 24 -156 24h-10q-117 0 -136 -20q-12 -13 -12 -64q0 -26 3 -63q12 -170 65 -234q33 -39 27 -41q-2 0 -16 -2q-2 0 -49.5 -2t-98.5 -4t-97 -2t-50 4q4 8 23.5 31.5t31.5 49.5t12 50 q8 29 -3 57.5t-36.5 67.5t-29.5 47l26 39q33 50 33 114q0 9 -1 17q-5 74 -50 121q-12 14 -10 20.5t20 18.5q49 35 49 106.5t-47 131.5q-31 37 -26 49z" />
<glyph unicode="G" horiz-adv-x="991" d="M74 590q-1 16 -1 32q0 114 62 246q27 59 85.5 120t109.5 83q55 25 149 32q22 2 42 2q67 0 118 -18q61 -17 92 -17h9q30 3 69 34q49 40 60 40q3 0 3 -4q0 -13 -24 -48q-27 -37 -27 -131q0 -93 -9 -93h-1q-10 8 -51 72q-49 76 -86 93.5t-156 17.5q-113 0 -154.5 -14.5 t-89.5 -63.5q-53 -61 -74 -166q-9 -47 -9 -93q0 -55 14 -108q27 -104 101.5 -200.5t158.5 -133.5q31 -12 71 -12q12 0 25 1q55 5 96 30q55 35 79 125q10 38 10 71q0 45 -19 80q-20 39 -59 56q-43 20 -43 31.5t16 13.5t40 -7.5t44 -25.5q36 -23 55 -23q7 0 12 4q19 11 55 32 q24 15 48 15q12 0 25 -4q18 -4 20 -7t-10 -9q-8 -2 -31 -10q-51 -18 -67.5 -55t-16.5 -136q0 -94 -15.5 -137t-60.5 -74q-74 -51 -202 -51q-174 0 -312.5 120t-150.5 290z" />
<glyph unicode="H" horiz-adv-x="940" d="M61 1114q0 16 35 -14q52 -46 112 -46q50 0 105 31q41 25 43 9q-2 -8 -32 -88q-40 -98 -44 -167q-1 -11 0 -23q0 -59 19 -122h340q2 12 8 40t8 40t4.5 34.5t-1 45.5t-11.5 49q-23 82 -43 125q-19 45 -19 62q0 10 7 10q4 0 12 -2q82 -40 130 -40h2q48 1 91 42q33 31 44 31 q6 0 6 -8q0 -5 -3 -15q-6 -20 -26 -59q-32 -63 -32 -120q0 -52 26 -100l24 -45q-37 -54 -48 -122q-3 -17 -3 -35q0 -52 25 -109l26 -53l-28 -59q-27 -53 -29 -85v-7q0 -31 16 -78q20 -55 15 -58q-14 0 -72 10q-42 8 -69 8q-11 0 -19 -1q-57 -8 -60.5 1t15.5 58q8 27 13 88 q4 51 4 94v18q-1 50 -9 50q-18 3 -18 58q0 17 2 38q-46 -1 -91 -1q-113 0 -221 7q-23 -63 -27 -177q-1 -21 -1 -40q0 -86 16 -139q18 -51 19 -57h-76q-76 0 -96 -9q-52 -15 -52 1q0 15 17 63q15 29 15 61q0 49 -34 105q-10 0 -15 16t0 41t17 51q22 49 22 101q0 76 -48 159 q47 61 47 131q0 55 -29 115q-29 63 -29 86z" />
<glyph unicode="I" horiz-adv-x="471" d="M72 184q-6 6 0 16.5t24 35.5l4 4t4 6t5 6q98 130 98 229q0 48 -23 88q-23 42 -23 61q0 18 23 68l27 58q-4 8 -19.5 37.5t-19.5 44t-10 47.5t8 47q8 41 5.5 60.5t-25.5 78.5q-8 23 -25 57q-18 35 -12 37q8 0 55 -32q53 -39 82 -41h4q29 0 84 24q62 29 72 29h2 q8 -8 -27 -43q-39 -43 -50 -139.5t-13 -380.5v-332q49 -37 94 -62q-54 18 -154 20h-15q-89 0 -134 -18q-35 -12 -41 -6z" />
<glyph unicode="J" horiz-adv-x="561" d="M43 248q-2 16 55 -4q42 -17 75 -17t56 17q47 32 47 118q0 74 -53 179q4 16 19.5 48t26 54.5t16.5 54t-6 45.5q-12 47 -33 58q-20 7 -20 39t20 88q12 41 12 83q0 29 -6 58q-14 84 -14 88q4 8 24 -10q42 -38 101 -38q36 0 79 15q63 21 74 21h2q1 -1 1 -4q0 -12 -25 -64 q-23 -45 -29 -101t-10 -286q-4 -225 -9.5 -283.5t-25.5 -99.5q-31 -61 -69 -85.5t-113 -31.5q-18 -2 -34 -2q-65 0 -114 25q-47 25 -47 35z" />
<glyph unicode="K" horiz-adv-x="1032" d="M68 193q0 8 36 34q38 27 62 81q18 41 18 71q0 10 -2 18q-8 41 -71 111q55 92 55 152v8q-5 57 -5 112q0 110 19 215l-57 58q-44 47 -44 59q0 5 6 5q2 0 5 -1q10 -2 33 -14q55 -29 108 -29q37 0 72 14q45 15 59 15h3q6 -6 6 -125v-66.5v-66.5q0 -118 6 -123q8 -20 26 -4 q16 12 95 96q125 139 182 215q-6 8 -24.5 33.5t-32 45t-15.5 28.5q0 2 15.5 -2.5t36 -14.5t34.5 -20t39 -10q42 0 117 28q43 18 24 -8q-14 -18 -65 -66q-72 -61 -169 -174.5t-144 -193.5q55 -86 198.5 -231.5t167.5 -145.5q14 4 28.5 -8.5t29.5 -12.5q37 0 65 -67 q12 -29 -22 -23q-35 6 -48 19q-41 21 -63 21h-4q-22 -2 -98 -50q-35 -20 -27 10q2 14 16 43q20 35 20.5 46.5t-18.5 37.5q-25 37 -264 293q-6 -4 -25.5 -20.5t-23.5 -19.5t-17.5 -16t-16.5 -20.5t-10 -24t-9 -32.5t-4 -40.5t-2 -53.5q0 -105 47 -191h-13q-123 -2 -201 -2 q-142 0 -134 7zM416 188z" />
<glyph unicode="L" horiz-adv-x="811" d="M78 1151q10 -4 65.5 -25.5t75.5 -27.5q139 59 143 59q0 -6 -13 -21.5t-33.5 -36l-24.5 -24.5q0 -27 -1 -265v-93q0 -179 3 -307q4 -160 14 -160q10 -6 70 -6q48 0 129 4q152 10 182.5 23.5t30.5 74.5q0 41 8 41q25 0 36 -82q4 -27 4 -48q0 -41 -15 -56q-8 -11 -173 -15 q-135 -4 -268 -3h-59q-162 1 -162 10q0 6 37 67q36 57 36 123q0 62 -32 104q-29 35 -28 55.5t36 59.5q32 40 32 82v7q-3 46 -32 85q-21 31 -21 52t19 61q30 52 30 98q0 63 -54 117q-49 49 -35 47z" />
<glyph unicode="M" horiz-adv-x="1167" d="M90 1143q-20 33 16 18q4 -2 25 -11t32 -12t31.5 -8.5t36 -6.5t34 3t32.5 15q51 35 47 14q-2 -16 -29 -45q-27 -27 -28.5 -36t14.5 -27q23 -23 33 -27q16 0 61 -65.5t60 -106.5q8 -27 24.5 -89.5t28.5 -103.5t32.5 -89t43.5 -72q12 -14 18 -15.5t19 8.5q31 14 109.5 230.5 t127.5 384.5h30.5h29t24.5 1t24.5 2t21.5 4t21.5 7t19.5 10.5t22 14.5q51 43 68 43q5 0 7 -4q4 -8 -20 -37q-35 -37 -44 -120t-9 -392q0 -236 3 -301.5t15 -75.5q31 -25 43 -70q4 -14 -2 -14q-10 0 -18 12q-8 14 -48 31.5t-65 17.5q-35 0 -88 -30q-47 -25 -60 -25q-5 0 -4 4 q0 10 37 45l47 39q-16 635 -24 682q-4 23 -25 -24q-12 -29 -33 -84q-14 -43 -61 -159t-83 -216.5t-44 -159.5q-8 -66 -18 -78q-4 -2 -7.5 1t-3.5 12q0 25 -31.5 69.5t-50.5 44.5q-41 0 -55 80q-10 53 -23.5 74.5t-52.5 42.5q-53 27 -69 57q-10 19 -9 52q0 19 3 42q1 12 1 23 q0 104 -116 178v-641q100 -25 113 -49q8 -27 -7 -25q-10 0 -41 15q-29 15 -62 15q-19 0 -40 -5q-49 -10 -56 0t23 39q16 14 19.5 71.5t3.5 346.5v397q-43 33 -74 78z" />
<glyph unicode="N" horiz-adv-x="1026" d="M63 227q-2 10 41 27q60 20 70 76q5 30 6 133q0 87 -4 225l-8 365l-43 37q-41 35 -34 44t54 -16q50 -26 101 -26q42 0 84 18q33 14 38 9t-15.5 -31.5t-13.5 -52t52 -91.5q57 -84 220 -286.5t173 -202.5q25 0 25 215q0 55 -2 125q-8 231 -25 249q-23 29 -39 66 q-16 39 -9 40t42 -34q49 -49 92 -49q18 0 35 8q16 8 32 22.5t30 20.5q2 -8 -45.5 -65.5t-45.5 -67.5q-4 -16 -9 -216t-15 -388t-27 -193q-14 25 -23 74t-30 76q-31 43 -174 108q-41 18 -76 99q-25 55 -96.5 127.5t-93.5 120.5q-20 45 -53 78.5t-56 33.5q-17 0 -17 -141 q0 -114 11 -320l8 -135q47 -20 103 -61q41 -31 41 -46q0 -5 -5 -9q-3 -3 -10 -3q-17 0 -57 21q-61 30 -123 30q-36 0 -72 -10q-35 -10 -37 -4z" />
<glyph unicode="O" horiz-adv-x="997" d="M47 650v20q1 175 101 313q106 145 278 168q37 5 73 5q191 0 316 -142q127 -146 127 -338q0 -24 -2 -49q-6 -63 -36 -148.5t-50 -101.5q-16 -10 -16 -22.5t-53.5 -54.5t-104.5 -69q-76 -42 -176 -42q-72 0 -156 22q-27 6 -83 44t-87 73q-125 134 -131 322zM171 538.5 q7 -24.5 44 -57.5q43 -37 51 -86q4 -22 -8 -22q-18 0 14 -45q12 -16 27 -29q53 -45 151 -54q22 -2 42 -2q70 0 116 25q41 23 82 74t41 80q0 27 -22 57q-23 29 -22 49.5t28 57.5q30 43 30 80q0 30 -20 57q-12 15 -12 54q0 15 2 34t2 35q0 43 -15 69q-20 39 -75.5 99.5 t-85.5 75.5q-27 14 -59 14q-41 0 -91 -23q-100 -45 -176 -177q-49 -86 -49 -140q0 -29 14 -49q18 -24 18 -53.5t-18 -63.5q-16 -35 -9 -59.5z" />
<glyph unicode="P" horiz-adv-x="778" d="M92 199q54 35 70 115q5 26 5 49q0 48 -24 81q-16 24 -19 44q-1 7 -1 17q0 21 4 58q2 28 2 48t-2 31q-4 22 -25 60q-25 43 -26.5 55.5t14.5 45.5q18 38 18 81q0 40 -16 85q-16 43 -16 67q0 22 14 25q12 8 221 8h24q234 0 310 -38q80 -40 80 -165q0 -72 -42 -138t-114 -112 q-33 -20 -127 -41.5t-170 -27.5q2 -18 4.5 -65.5t4.5 -88.5t5 -85t10 -70.5t15 -30.5q25 -33 25 -46q0 -7 -6 -9t-15 2q-59 26 -81 28h-11q-23 0 -67 -8q-41 -7 -62 -7q-24 0 -24 9q0 7 22 23zM248 993q12 -86 18 -377l80 9q158 14 207 94q33 58 33 117q0 31 -10 62 q-28 89 -107 114q-59 18 -116 18q-33 0 -66 -6q-25 -4 -33 -10t-6 -21z" />
<glyph unicode="Q" horiz-adv-x="1050" d="M110 586q-8 47 -8 92q0 179 134 321q80 84 192 125q35 13 120 13h34q123 -2 182 -35q258 -141 266 -416v-26q0 -110 -30 -191q-35 -90 -121 -172q-47 -45 -111.5 -80t-99.5 -35q-29 0 -29 -10q0 -9 20 -25q63 -49 183 -77q86 -20 86 -29q0 -4 -21 -12q-34 -15 -105 -15 h-14q-81 2 -137 21q-117 37 -270 149q-229 168 -271 402zM292 807q5 -23 10 -35t16.5 -31.5t15.5 -27.5l-35 -33q-48 -45 -48 -91q0 -55 68 -112q35 -29 39 -36t-12 -19q-21 -17 -21 -38q0 -25 31 -56q33 -35 112 -67q62 -25 95 -25q10 0 17 2q61 16 130.5 61t90.5 84 q14 12 11 27.5t-8 24.5t-17.5 23.5t-16.5 20.5l25 64q18 33 21 61.5t-10 52t-28.5 39t-40.5 35.5l29 33q29 36 29 78q0 21 -7 42q-20 68 -94 111q-57 33 -134 38q-12 1 -23 1q-62 0 -107 -24q-82 -41 -133 -166q-10 -14 -5 -37z" />
<glyph unicode="R" horiz-adv-x="1021" d="M178 193q-10 0 31 40q74 76 74 173q0 39 -6.5 54t-30.5 36q-29 20 -32 28t13 33q53 83 61 111q4 11 4 26q0 20 -7 45q-16 66 -66 92l27 48q25 44 25 82q0 73 -91 122q-40 22 -40 32.5t39 10.5h7q14 0 35 -2q14 -1 39 -1q48 1 138 5q138 8 225 11q18 1 34 1q59 0 82 -12 q8 -12 19 -4q82 -20 106 -155q7 -37 8 -70q0 -85 -47 -139q-31 -37 -204 -127q20 -18 81.5 -78.5t102.5 -99.5t90 -84t78 -64q67 -49 67 -57q0 -12 -55 -2q-83 13 -141 13q-62 0 -96 -15q-37 -18 -56 -18q-13 0 -18 8q-6 12 -2 38q1 5 1 10q0 43 -44 128q-108 208 -178 208 q-13 0 -25 -8q-16 -10 -17 -60v-10q0 -55 9 -206l8 -150q-56 -2 -102 -2q-98 0 -146 9zM377 1057l8 -158q10 -168 21.5 -189.5t70.5 -23.5h23h16q68 0 102 16q36 18 66 74q27 54 27 141q0 14 -1 29q-5 107 -40 127q-6 9 -48 9q-71 0 -245 -25z" />
<glyph unicode="S" horiz-adv-x="780" d="M55 432q0 20 27 12q29 -10 45 -26.5t43 -63.5q27 -51 60.5 -71.5t91.5 -20.5q72 0 128 35t56 80q0 43 -38 94t-151 166q-127 127 -155 181q-22 42 -23 107q0 18 2 38q2 39 11.5 57t37.5 43q37 33 130.5 65.5t179.5 45.5q77 10 120 10q16 0 27 -1q43 -5 51 -34 q6 -20 -4 -29q-12 -6 -10 -55t16 -104q12 -41 12 -59q0 -16 -9 -15h-3q-33 10 -73 100q-35 75 -67 97q-29 20 -90 20h-11q-141 0 -174 -80q-14 -34 -15 -66q0 -33 16 -63q30 -61 128 -135q18 -14 64 -47t67.5 -50.5t51.5 -47t50 -62.5q31 -53 39 -53t8 -58q0 -37 -8 -55 t-43 -57q-68 -74 -105.5 -88.5t-162.5 -14.5q-45 0 -78 -2t-61.5 -7t-41 -8t-45 -13.5t-45.5 -14.5q-20 -6 -23 0t5 39q9 42 9 76q0 52 -21 86q-18 27 -19 49z" />
<glyph unicode="T" horiz-adv-x="1087" d="M61 1085q0 35 61 35q14 0 32 -2q25 -3 42 -3q25 0 29 7q2 6 202 9q140 2 279 3h120q198 -2 198 -6q0 -14 -33 -55q-12 -16 -20 -45t-11.5 -52.5t-7.5 -66.5t-6 -61l-33 76q-39 86 -74.5 113.5t-121.5 39.5q-48 6 -75.5 6t-33.5 -6q-14 -14 -20 -345q-2 -99 -2 -173 q0 -173 10 -209q14 -53 63 -108q35 -40 35 -50q0 -4 -4 -4q-12 0 -55 31q-53 35 -94 37h-5q-40 0 -98 -29q-67 -37 -82 -37q-4 0 -4 3q0 4 10 16q48 57 60 149q7 54 7 176q0 86 -3 205l-8 328q-174 -6 -195 -23q-16 -12 -16 -59t-41 -90t-53 -43q-4 0 -4 6q0 9 10 31 q17 34 17 66q0 44 -32 83q-37 43 -43 47z" />
<glyph unicode="U" horiz-adv-x="1007" d="M61 725l25 39q25 39 25 110.5t-25 135.5q-23 63 -23 77.5t7 14.5q8 -2 53 -23q41 -20 105 -22h16q54 0 90 12q47 14 47 0q0 -16 -45 -35q-16 -8 -33 -10q-25 -4 -32 -13.5t-11 -31.5q-10 -69 -14 -235q-1 -56 -1 -102q0 -93 5 -150q12 -129 45 -181.5t117 -79.5 q57 -17 106 -17q128 0 210 114q102 141 102 418q0 32 -1 65q-4 131 -14 150q-10 20 -72 69q-8 6 -14 10q-45 35 -14 33q16 -2 51 -12q39 -12 56.5 -11t58.5 19q50 19 62 19q3 0 3 -2q0 -12 -78 -97v-207q0 -180 -13 -258t-60 -176q-43 -90 -83 -122.5t-122 -45.5 q-46 -6 -95 -6q-73 0 -153 14q-135 24 -170 64q-10 12 -24.5 78.5t-26.5 81.5q-8 12 -8 34q0 18 6 43q8 29 8 52q0 12 -2 23q-6 32 -39 104z" />
<glyph unicode="V" horiz-adv-x="1093" d="M96 1067q14 2 51 -16q39 -21 90 -21q59 0 132 29q49 13 61 13q4 0 4 -1q2 -6 -30.5 -24.5t-66.5 -36t-34 -21.5q0 -8 152.5 -301t156.5 -293q8 0 97.5 186.5t132.5 288.5q20 47 29.5 74t10.5 43.5t-5.5 20.5t-20.5 4q-45 0 -80 67q-18 37 0 33q12 -2 39 -25 q30 -25 69 -25q50 0 115 42q48 25 59 25q2 0 3 -1q0 -14 -43 -57q-43 -45 -100 -180q-78 -174 -206 -441.5t-136.5 -267.5t-34.5 82q-37 121 -129 170q-37 20 -37 47q0 47 -24.5 102.5t-59.5 90.5q-35 33 -41 49t-6 72q0 66 -20.5 107.5t-80.5 94.5q-55 49 -55 64q0 5 8 6z " />
<glyph unicode="W" horiz-adv-x="1388" d="M61 1112q0 2 4 2q16 0 95 -27q51 -16 68.5 -16t62.5 16q72 25 78 27l4 -2q-2 -10 -37 -39l-51 -45q18 -41 73.5 -174t96.5 -229.5t63 -135.5l49 117q61 139 65 179q1 5 1 11q0 44 -27 150q-4 20 -12 51t-10 35q-6 20 -9.5 29.5t-5.5 22t1 14.5t8.5 3t17.5 -6.5t29 -19.5 q38 -28 81 -28q39 0 82 24q57 29 54 10q-2 -8 -25 -26q-38 -31 -38 -76q0 -5 1 -13q6 -54 76 -270q23 -70 45.5 -131t35.5 -94t15 -31q12 12 112 286q95 258 95 277l-79 41q-46 30 -31 46q8 8 49 -11q40 -19 81 -19q45 0 91 23q51 23 55 19q6 -8 -17.5 -34t-56.5 -46 q-27 -18 -51 -66.5t-54 -137.5t-32 -97q-57 -147 -135 -328.5t-88 -181.5q-33 51 -109.5 234.5t-87.5 203.5q-12 -29 -62 -152.5t-88 -213.5t-52 -111q-2 -1 -4 -1q-27 0 -50 134q-12 66 -63 125q-39 43 -46 61.5t-7 71.5q0 70 -26 113t-87 82q-43 27 -49 43q-2 4 -2 11 q0 19 12 56q7 26 7 50q0 73 -64 137q-52 51 -52 57z" />
<glyph unicode="X" horiz-adv-x="1142" d="M68 231q-6 6 19.5 23.5t64 35t65.5 23.5q39 8 58.5 21.5t54.5 58.5q131 174 143 242q3 17 3 34q0 49 -26 99q-34 66 -92 84q-27 10 -35 20.5t-8 38.5q0 35 -60 107t-67 86q-8 18 -10 26.5t3 9.5t15.5 -3t30.5 -17q25 -14 42.5 -14t62.5 10q96 23 114.5 23.5t20.5 -13.5 q14 -51 67.5 -171.5t69.5 -170.5l92 105q92 105 102 127q2 5 2 10q0 20 -26 47q-35 39 -35 47q0 2 8.5 1t21.5 -5t30 -10q50 -20 91 -20t73 20q47 29 45 14q-2 -23 -62 -67q-16 -12 -31 -19q-70 -37 -204 -209l-68 -84l74 -135q121 -219 170 -269t200 -120q-92 8 -163 21 q-10 2 -20 2q-33 0 -60 -21q-31 -26 -52 -26q-8 0 -14 4q-12 8 8 26q14 8 12.5 48t-18 62.5t-55.5 35.5q-25 6 -35 19t-24 54q-25 78 -69 109q-21 15 -42 15q-22 0 -43 -17q-23 -16 -99.5 -123t-76.5 -121q0 -10 39 -49q37 -37 16 -37q-14 0 -69 19q-35 11 -79 11 q-35 0 -75 -7q-76 -12 -95 -12q-4 0 -5 1z" />
<glyph unicode="Y" horiz-adv-x="1050" d="M55 1149q0 2 14.5 -2t36.5 -17q60 -28 124 -28q72 0 149 35q12 6 15 5t-3 -18q-4 -8 -15 -23.5t-8 -26.5t17 -38q20 -39 81.5 -127t78.5 -100q2 -1 4 -1q15 0 61 46q54 53 115 137q68 90 68 110q0 4 -2 5q-4 0 -11 -4q-10 -4 -35.5 12t-25.5 29q1 2 8 2q15 0 61.5 -10.5 t62.5 -10.5q7 0 9 2q10 4 28.5 7.5t39.5 17.5q43 25 55 8q10 -8 -37 -41q-27 -16 -59 -31q-29 -16 -100.5 -104t-122.5 -172q-25 -37 -29 -65q-3 -20 -3 -74q0 -28 1 -64q6 -260 57 -297q27 -20 27 -31q0 -18 -60 -18h-18q-94 0 -186 -20q6 8 19 24.5t17.5 24.5t10.5 30.5 t-2 43.5q-3 15 -3 33q0 39 15 91q14 42 14 70q0 13 -3 23q-9 32 -52 49q-31 12 -41 26.5t-22 59.5q-14 57 -31 74.5t-60 29.5q-27 8 -35 17.5t-14 44.5q-14 84 -84 131q-27 18 -77 70.5t-50 64.5z" />
<glyph unicode="Z" horiz-adv-x="1019" d="M59 221q-6 6 25 27q27 18 109 102q59 63 76.5 101t19.5 110q2 35 13 48.5t83 47.5l96 52l4 61q4 41 14.5 58.5t45.5 43.5q43 35 104.5 114t61.5 99q1 1 1 2q0 8 -65 13q-10 0 -393 2h-45v-62q4 -45 0 -63.5t-23 -38.5q-24 -28 -33 -28q-5 0 -5 9q0 11 8 37q5 18 5 39 q-1 20 -5 41q-10 45 -29 72q-21 27 -21 35q5 4 86 4q40 0 100 -1q178 -3 363 -11q137 -6 164 -50l2 -4q16 -23 -4 -59q-31 -53 -356 -490l-2 -2v-2l-2 -2l-2 -2l-2 -2v-2l-2 -2l-2 -2l-3 -2v-2l-2 -2l-2 -2l-2 -2v-2l-2 -2l-2 -2l-2 -2l-2 -2l-2 -4q-145 -193 -145 -205 q0 -20 280 -31q86 -4 143 -4q91 0 109 10q14 2 54 85t53 87q14 0 26 -54q7 -34 7 -61q0 -16 -3 -30q-8 -47 -24 -58q-30 -18 -249 -18h-46h-143q-424 0 -433 8z" />
<glyph unicode="_" horiz-adv-x="808" d="M61 74q0 27 45 28q167 13 642 7v-58h-342q-344 0 -345 23z" />
<glyph unicode="`" horiz-adv-x="428" d="M125 993.5q-43 55.5 2 100.5q20 20 33.5 22t52.5 -14q68 -29 158 -168q51 -80 32 -84q-14 -4 -116 39q-119 49 -162 104.5z" />
<glyph unicode="a" horiz-adv-x="643" d="M63 258v11q0 50 17 77q18 35 71.5 83t114.5 85q105 62 105 146q0 29 -13 61q-20 47 -70 47q-17 0 -38 -6q-53 -16 -61.5 -26.5t14.5 -35.5q27 -28 27 -54q0 -12 -6 -24q-18 -36 -74 -36q-35 0 -49.5 15t-14.5 54t46 83t106 65q43 13 94 14q10 0 20 -1q62 -3 94 -23 q47 -33 61.5 -81t14.5 -181.5t6.5 -170t30.5 -36.5q35 0 19 -25q-10 -16 -54 -59q-71 -70 -99 -70q-18 0 -19 29q0 49 -14 54q-2 1 -4 1q-17 0 -69 -25q-105 -52 -169 -52q-32 0 -54 13q-31 10 -33 68zM170 301.5q-2 -33.5 16 -39.5q18 -8 59.5 5.5t78.5 37.5q35 23 48 62 q6 19 6 36q0 18 -7 35q-11 29 -23 29t-75.5 -45t-82.5 -64q-18 -23 -20 -56.5z" />
<glyph unicode="b" horiz-adv-x="815" d="M61 942q0 72 93 129q53 33 96 35h5q39 0 52 -29q8 -6 12.5 -153.5t10.5 -155.5q2 0 15 4t35.5 10t41.5 13q96 30 159 29q58 0 87 -25q50 -45 74 -126q13 -46 14 -93q0 -36 -8 -72q-8 -6 -4 -26.5t-3 -28.5q-10 -14 -14 -37q-8 -47 -63.5 -115t-118.5 -104 q-68 -41 -165 -55q-34 -5 -61 -4q-51 0 -79 16l-31 14v270.5t-2 394t-10 179.5q-6 14 -35 4q-25 -6 0 -19q20 -9 20 -33q0 -14 -6 -32q-18 -51 -53 -51q-20 0 -41 20.5t-21 40.5zM327 658q-2 -14 -2 -52q0 -61 5 -184l6 -203q131 37 219 162q51 71 51 168q0 13 -1 25 q-7 112 -66 141q-25 12 -72 12h-13q-56 -2 -89 -16.5t-38 -52.5z" />
<glyph unicode="c" horiz-adv-x="559" d="M61 483.5q0 71.5 6.5 100t28.5 67.5q74 131 168 166q32 12 65 12q49 1 101 -25q88 -42 88 -106q0 -45 -12 -61t-47 -16q-43 0 -58 14q-16 14 -14 50t19 56q18 20 5.5 37t-49.5 25q-12 3 -24 3q-86 0 -141 -149q-25 -61 -27 -129v-11q0 -59 20 -89q47 -70 156 -88 q8 -1 16 -1q36 1 90 15q66 18 66 31q0 10 17 10q15 0 15 -9q0 -14 -36 -50q-86 -86 -233 -88h-15q-67 0 -105 16q-42 18 -73 68q-18 29 -22.5 54.5t-4.5 97z" />
<glyph unicode="d" horiz-adv-x="749" d="M68 467q-1 19 -1 37q0 56 10 91q13 46 58 99q27 31 86.5 69t81.5 40q10 0 16 10q8 10 59.5 8t61.5 -12q12 -12 19 47q2 20 2 49q0 23 4 62q6 53 -8 53q-10 0 -41 -21q-27 -18 -35 -30.5t-8 -40.5q0 -45 -22.5 -59.5t-55.5 5.5q-28 18 -28 42q0 28 40 65q35 33 99.5 73 t93.5 44q14 2 30.5 11t34.5 9q17 0 19 -16q1 -5 0 -15q0 -24 -4 -79q-6 -64 -12 -374q-2 -86 -3 -150q0 -169 13 -193q16 -14 24 -2q4 6 26.5 9t43 2t20.5 -7q0 -8 -68.5 -52t-93.5 -53q-20 -6 -54 16.5t-34 43.5t-21 21q-15 0 -42 -11q-46 -18 -106 -18h-11q-66 2 -100 24 q-86 57 -94 203zM194 456q16 -73 76 -73q27 0 76 23.5t72 46.5q26 25 26 89q0 36 -8 83q-4 31 -12 37t-45 6q-98 -4 -156 -80q-33 -43 -33 -94q0 -18 4 -38z" />
<glyph unicode="e" horiz-adv-x="677" d="M70 446q-1 16 -2 31q0 75 34 148q41 86 122 143t192 63h8q69 1 113 -67q47 -72 47 -154q-45 -12 -416 -20q-3 -33 -3 -62q0 -82 21 -135q16 -45 30.5 -59.5t64.5 -36.5q61 -27 89 -30h7q26 0 65 16q53 20 63.5 33.5t-5.5 37.5q-19 28 -19 50q-1 12 5 22q16 29 67 29 q41 0 56.5 -14.5t15.5 -51.5t-49.5 -92t-94.5 -68t-96 -13q-45 0 -95 10q-108 22 -161 75q-51 53 -59 145zM229 655h125q115 0 119 13q2 4 0 12q-6 20 -33.5 51t-48.5 31q-33 0 -84 -35t-78 -72z" />
<glyph unicode="f" horiz-adv-x="700" d="M66 852q-4 6 8 10t32.5 5t44 1h44h32.5q10 233 113 295q40 24 88 24q37 0 79 -13q97 -33 126 -109q12 -31 11 -43t-15 -39q-14 -25 -22.5 -30t-28.5 -3q-70 12 -82 82q-2 11 -2 21q0 29 18 43q18 12 20.5 17t-10.5 15q-23 14 -66 20q-8 2 -16 2q-33 0 -61 -22 q-54 -43 -54 -213q0 -23 1 -47h38.5h54.5t55.5 -1t40.5 -5t11 -10q6 -12 -28 -16q-26 -4 -66 -4h-28q-60 2 -66 2v-244q0 -188 8 -238.5t39 -50.5t31 -16q0 -8 -15 -13q-59 -16 -135 -16t-123 18q80 25 86 56q4 20 4 146t-4 358h-32.5h-45t-45 1t-33 5t-7.5 12z" />
<glyph unicode="g" horiz-adv-x="796" d="M68 608.5q-5 18.5 0 63.5q4 66 41 104q57 61 139 82q26 7 65 7q20 0 43 -2q68 -5 99 -23q27 -14 44 -13.5t74 17.5q71 22 110 22q30 0 42 -12q16 -14 14 -54t-18 -55q-28 -28 -64 -28q-7 0 -14 1q-45 7 -45 44q0 24 -53 24h-4q41 -73 41 -133q0 -36 -15 -67 q-39 -82 -186 -144q-76 -31 -107.5 -58.5t-54.5 -80.5q49 18 133 18q24 0 51 -1q121 -7 177 -37q105 -60 105 -133q0 -16 -5 -33q-29 -88 -166 -123q-56 -14 -122 -14h-17q-82 2 -113 8t-78 28q-92 45 -105 121q-2 12 -2 23q0 60 60 100q33 23 33 41q2 29 40 81t73 71 q-127 23 -185 102q-25 35 -30 53.5zM204 194q-10 -22 -10 -44q0 -34 25 -70q58 -64 160 -64q111 0 165 62q28 32 28 67q0 32 -23 66q-31 41 -74 59q-42 17 -86 17q-37 0 -75 -13q-83 -26 -110 -80zM206 638q30 -71 93 -87q24 -6 47 -6q33 0 64 13q51 24 73 77q12 29 12 55 q0 56 -53 101q-37 32 -88 32q-14 0 -30 -3q-70 -11 -111 -64q-20 -26 -20 -59q0 -27 13 -59z" />
<glyph unicode="h" horiz-adv-x="870" d="M66 973v6q0 42 48 90q52 51 128 74q36 11 65 11q46 0 74 -28q29 -33 39 -75t10 -136v-116q83 7 137 7q68 0 92 -11q49 -25 65.5 -78t25.5 -221q6 -139 17 -188.5t42 -74.5q14 -10 -14 -14q-20 -2 -80 -2q-96 0 -97 6q-2 4 15 17q20 16 24.5 45.5t4.5 165.5 q0 164 -12.5 212t-63.5 70q-35 16 -64 16q-44 0 -73 -38q-16 -23 -20.5 -59t-4.5 -169v-109.5t5 -60t7 -31.5t19.5 -21.5t27.5 -33.5q-63 19 -175 19h-11q-20 -1 -36 -1q-31 0 -41 3q-16 4 -6.5 10t29 21.5t21.5 29.5q12 27 12 412q0 287 -3 336t-21 49q-20 0 -57 -21 q-35 -20 -9 -32q25 -12 28 -41t-15 -56q-12 -20 -24.5 -24t-49.5 -2q-39 2 -47 9t-12 34z" />
<glyph unicode="i" horiz-adv-x="475" d="M79.5 696q12.5 33 59 69.5t107.5 61.5q63 29 84 29q6 0 9 -2q13 -10 17 -137q0 -16 1 -76.5t3 -118t5.5 -119t12.5 -102.5t21 -47l27 -31q-231 0 -246 4q8 12 24.5 37t17.5 28t6 39q4 30 4 61v12q-1 38 -3 131q-4 229 -8 237q-6 4 -35 -14q-20 -12 -23 -20.5t7 -28.5 q14 -29 0 -60q-12 -26 -32 -26q-18 0 -42 20q-29 20 -16.5 53zM180 1015q-1 8 -1 17q0 43 34 86q35 35 53 35q76 0 102 -77q8 -24 9 -45q0 -47 -41 -79q-30 -24 -60 -24q-18 0 -38 10q-50 25 -58 77z" />
<glyph unicode="j" horiz-adv-x="520" d="M74 -6q6 10 18 2q16 -12 64 -27q26 -8 51 -8q18 0 35 4q41 10 61 41q14 23 23 230q6 128 6 245q0 74 -2 144q-2 92 -7.5 114.5t-21.5 22.5q-29 0 -48.5 -13.5t-14.5 -31.5q6 -31 -10.5 -61.5t-47.5 -20.5q-55 5 -55 46q0 13 6 30q14 37 135 96q127 59 143 59h1 q12 -2 14 -68t2 -349q0 -301 -3 -365t-20 -90q-23 -37 -84 -62q-49 -19 -95 -19q-12 0 -23 1q-41 4 -89 34q-40 24 -40 39q0 4 2 7zM291 1087q0 59 57 83q20 8 37 8q34 0 59 -31t25 -60q0 -35 -27.5 -61.5t-62.5 -26.5q-41 0 -64.5 24t-23.5 64z" />
<glyph unicode="k" horiz-adv-x="708" d="M14 934q-9 21 -9 39q1 23 15 43q26 35 115 82q108 56 155 56q27 0 34 -19q6 -43 6 -533q8 8 54 59.5t75.5 86t38 53t18.5 23.5t19.5 2t27 -8t33.5 -5q61 -2 22 -25q-25 -14 -40 -14q-16 0 -71.5 -48t-82.5 -85q-18 -25 -19.5 -31t11.5 -14q25 -23 100.5 -138.5 t101.5 -142.5q37 -37 45.5 -52t0.5 -30q-10 -16 -15 -6q0 12 -42 14.5t-62 -10.5q-16 -10 -32.5 -4t-16.5 25q0 27 -35 91.5t-72 105.5q-38 41 -51 41q-4 0 -6 -3q0 -2 -2 -6q-11 -28 -11 -74q0 -49 13 -118q7 -37 7 -55q0 -15 -5 -15q-10 -4 -39 10q-25 14 -52.5 1 t-49.5 -7q-18 4 -23.5 10.5t-1.5 22.5q8 30 15 394q4 196 4 294q0 84 -3 96q-2 10 -4 15.5t-6 7.5t-10 0t-17 -6q-45 -20 -18 -39q12 -8 11 -48t-13 -50q-20 -14 -55 -19q-27 -2 -37 4t-21 29z" />
<glyph unicode="l" horiz-adv-x="434" d="M16 999q23 63 117 125q61 39 117 40h2q53 0 76 -38q20 -28 21 -142v-28q0 -126 -7 -444q-3 -149 -3 -209q0 -29 1 -37q2 -24 47 -78q-52 20 -105.5 20t-107.5 -20q10 25 17.5 39.5t11.5 39t6 36.5t3 55v40v34q-1 31 -1 109.5v148.5q0 406 -10 406q-20 0 -63.5 -20.5 t-43.5 -31.5q0 -10 21 -26q20 -16 20 -39q0 -15 -9 -32q-19 -39 -55 -39q-5 0 -10 1q-53 11 -53 53q0 16 8 37z" />
<glyph unicode="m" horiz-adv-x="1110" d="M61 719q0 20 37 70.5t66 68.5q27 18 55 18q41 0 84 -40l33 -35q117 72 186 77q24 2 40 1q18 -1 28 -3q16 -4 45 -32l39 -41l53 26q94 49 166 49q64 0 111 -38l34 -27q0 -35 3 -172t5 -243.5t3 -131.5q-6 -6 -31 17q-30 17 -57 17q-10 0 -19 -2q-35 -8 -63 -34 q2 144 2 249q0 248 -13 271q-14 27 -53 25t-82 -31l-45 -28v-163t1 -200t1 -127q-2 -8 -18 4q-13 12 -37 12q-27 0 -68 -16q-14 -6 -16 16q-4 23 -4 175q0 193 -12 245q-15 61 -53 86q-21 14 -43 14l-33 -8q-38 -20 -60 -77q-6 0 -9 -115t-5 -231.5t-6 -122.5q-4 0 -13.5 10 t-20.5 24.5t-16 18.5l-34 -25q-29 -23 -45.5 -19.5t-12.5 30.5q4 16 13 266q5 122 5 174q0 17 -1 27q-2 40 -15 45q-25 6 -35 -8.5t15 -34.5q23 -18 25 -28.5t-7 -37.5q-8 -29 -53 -29q-70 0 -70 64z" />
<glyph unicode="n" horiz-adv-x="669" d="M10 625q0 29 48 101.5t87 100.5q31 23 45.5 26t45.5 -7q45 -12 53 -43q4 -20 10 -22.5t29 14.5q82 55 194 73q8 0 56 -18q43 -18 58 -55t17 -121q0 -17 1 -36q0 -94 -9 -242q-10 -178 -18 -179q-10 0 -25 19q-14 18 -33 18t-43 -18q-23 -18 -32 -19q-6 6 -10.5 265 t-12.5 263q-13 33 -33 38q-4 1 -9 1q-20 0 -54 -16q-35 -14 -47 -26q-13 -10 -24 -42q-9 -25 -9 -64q0 -10 1 -22q2 -33 2 -83q0 -33 -1 -74q2 -96 2 -154q0 -86 -4 -86q-2 0 -33 27q-20 16 -28.5 18t-28.5 -6q-29 -14 -35 -14q-6 33 -6 538l-51 -53q-36 -39 -36 -51 q0 -3 3 -4q2 0 8 -2q41 -8 41 -64q0 -33 -31 -41q-29 -8 -58.5 12.5t-29.5 47.5z" />
<glyph unicode="o" horiz-adv-x="722" d="M49 614q16 139 131 207q93 49 167 50q31 0 59 -9q143 -35 174 -57q87 -59 87 -195q0 -54 -14 -121q-33 -158 -90 -224t-174 -79q-20 -2 -39 -2q-71 0 -132 29q-77 37 -116 113q-25 43 -42 143q-13 74 -13 118q0 15 2 27zM190 532q-2 -24 -3 -47q0 -128 69 -198 q29 -31 45 -38t53 -7q33 0 49.5 7t42.5 30q64 57 64 226q0 164 -64 222q-23 35 -81 43q-11 2 -22 2q-43 0 -69 -27q-70 -76 -84 -213z" />
<glyph unicode="p" horiz-adv-x="882" d="M78 639q-3 9 -3 20q0 30 27 68q35 51 90.5 87t111.5 54q19 6 36 6q30 0 49 -22q8 -9 22 -9q19 0 47 15q52 25 58 25q22 7 56 7q23 0 52 -3q70 -8 113 -29q53 -27 74 -61q24 -41 24 -139q0 -30 -3 -65q-9 -151 -48 -226q-20 -39 -49 -71t-47 -32q-16 0 -26.5 -10 t-95.5 -13q-20 -1 -35 -1q-53 0 -64 8q-10 6 -27 -6q-14 -10 -14 -109q0 -33 2 -76q1 -43 1 -74q0 -96 -9 -96q-4 0 -42 18.5t-56 6.5q-31 -12 -37 -6t-6 239q-2 188 -10.5 408.5t-16.5 229t-45 -10t-47 -35.5q-8 -14 -6 -18t16 -4q29 0 34 -32t-20 -52q-22 -22 -53 -22h-7 q-36 3 -46 30zM410 639q0 -96 14 -340q86 10 159.5 67.5t98.5 129.5q9 28 9 61q0 38 -11 82q-23 84 -68 121q-28 22 -71 22t-99 -22q-25 -10 -28.5 -24.5t-3.5 -96.5z" />
<glyph unicode="q" horiz-adv-x="819" d="M62 538q-1 3 -1 6q0 92 17 128q29 70 119 119t194 51q90 2 98 20q12 20 56.5 18.5t91.5 -24.5q61 -31 99 -91q23 -36 23 -61q0 -17 -11 -30q-14 -18 -49 -17.5t-56 21.5q-14 14 -18 4q-2 -8 -13 -88q-4 -31 -5 -338t-7 -342q-8 -2 -34.5 9t-59.5 27.5l-41 20.5l-55 -24 q-47 -22 -57 -22q-2 0 -3 1q0 2 10.5 22.5t38 38t50.5 17.5q13 0 13 81q0 21 -1 46q-8 125 -10 127q0 2 -54.5 -1t-101.5 -5t-57 2q-8 8 -17 10q-35 8 -80 52t-63 87q-16 39 -16 135zM190 541q2 -80 47.5 -142.5t102.5 -62.5q35 0 79 14.5t46 26.5q2 5 2 58t-2 153 q-4 172 -14 190q-10 14 -60 -4q-8 -4 -10 -4q-190 -68 -191 -229zM272 221q-10 4 4 6q20 0 25 -6q-17 -4 -29 0zM618 729l11 12q4 12 24.5 18.5t20.5 18.5q-6 18 -33 21q-12 0 -12 -8q0 -16 -6 -41q-4 -18 -5 -21z" />
<glyph unicode="r" horiz-adv-x="673" d="M67 788q17 40 64 62q35 15 142 15h14q119 -1 139 -19q11 -11 44 -11q17 0 40 3q45 6 59.5 3t34.5 -26q26 -28 26 -55q0 -4 -1 -10q-6 -32 -43 -33q-2 -1 -6 -1q-18 0 -66 26q-39 21 -57 20q-8 0 -13 -4q-12 -14 -22 -545q-15 1 -28 1q-54 0 -85 -13q-16 -6 -20 16 q-2 14 -2 72.5t2 161.5q1 88 1 144.5t-1 80.5q-2 49 -17 78q-33 71 -81 71q-16 0 -35 -8q-27 -10 -28 -13t19 -9q29 -4 40.5 -35t-5.5 -60q-17 -30 -54 -30h-4q-40 2 -54 35q-11 23 -11 46q0 18 8 37z" />
<glyph unicode="s" horiz-adv-x="571" d="M86 662q-5 26 -5 51q1 42 15 79q24 60 70 85q28 15 67 15q31 0 69 -10q85 -22 122 -73q35 -45 34 -88v-15q-8 -50 -55 -51q-45 0 -58 37q-4 10 -4 20q0 26 26 50l22 24q-78 45 -98 48q-23 0 -56.5 -36t-33.5 -59q0 -59 159 -151q152 -88 166 -150q6 -21 6 -42 q0 -62 -52 -116q-57 -59 -127 -60q-15 0 -31 3q-96 16 -199 105q-41 37 -41 45q0 2 3 2h3q14 -2 55 -29q66 -44 125 -44q35 0 68 15q37 18 58.5 45t13.5 48q-10 27 -129 69q-68 25 -125.5 80t-67.5 103z" />
<glyph unicode="t" horiz-adv-x="628" d="M61 809q0 12 97 35q49 10 86 27.5t64.5 47t41.5 50t41 65.5q2 0 2 -22.5t-2 -67.5v-20q1 -58 11 -72q12 -16 83 -31q62 -12 62 -22.5t-80 -14.5q-57 -2 -68.5 -7t-19.5 -32q-8 -25 -12 -208v-48q0 -91 6 -127q8 -46 37 -63q20 -14 43.5 -8t31.5 26q10 20 7 27.5t-23 15.5 q-41 16 -41 70.5t41 73.5q29 14 58.5 1t37.5 -44q3 -11 3 -26q0 -27 -10 -65q-15 -58 -42 -91q-25 -33 -71 -58.5t-78.5 -25.5t-63.5 28.5t-47 73.5q-18 47 -25 246q-4 182 -12 212.5t-51 30.5h-4q-102 0 -103 23z" />
<glyph unicode="u" horiz-adv-x="827" d="M78 684q-3 9 -3 18q-1 24 23 46q32 32 131 81q107 52 117 52q8 0 8 -211q0 -213 17.5 -303.5t58.5 -90.5q27 0 74 29t67 57q16 23 20.5 63t8.5 191q4 217 8 218q2 0 21.5 -7.5t33 -11.5t37 -8t35.5 0q39 6 43 -3t-24 -40q-20 -20 -24 -53q-2 -21 -2 -97q0 -43 1 -104 q4 -240 6 -262q2 -9 2 -16q0 -22 -17 -21q-9 0 -24 6q-39 18 -71 51q-4 -2 -53.5 -21.5t-74 -28.5t-61.5 -17t-59 -4q-45 8 -61.5 13t-32 37t-18.5 78t-7 156q-2 51 -4 113.5t-3 94.5t-1 36q-4 14 -27 14q-25 0 -16 -34q4 -20 0 -30.5t-25 -25.5q-21 -13 -41 -13 q-11 0 -21 3q-30 10 -42 45z" />
<glyph unicode="v" horiz-adv-x="808" d="M39 653q10 41 49 92l51 70q49 -10 89 -10q45 0 81 12q20 6 33.5 10t23 4t12.5 -2t3 -10q-2 -10 -8 -14t-16.5 -10.5t-20.5 -16.5l-27 -26q76 -233 164 -445q27 72 89.5 227.5t80.5 202.5l-25 27q-41 45 -18 51q8 2 21 -4q6 -4 86.5 -6t87.5 -12q0 -16 -54 -39 q-33 -14 -51 -41t-38.5 -88.5l-24.5 -73.5q-94 -231 -121 -291q-20 -45 -32.5 -59.5t-33.5 -14.5q-23 0 -46 44t-107 245q-104 252 -127 268q-14 10 -39 -28q-27 -43 -2 -41q2 0 6 2q12 4 21.5 -16.5t9.5 -55.5q0 -27 -7.5 -33t-37.5 -6q-45 -1 -63 23q-12 15 -13 38 q0 13 4 27z" />
<glyph unicode="w" horiz-adv-x="1064" d="M33 666q-5 16 -5 31q0 71 111 137q41 23 58 22q25 0 57.5 -56.5t87.5 -191.5q78 -194 100 -194q2 0 4 2l74 155q113 246 119 246q4 -4 35 -145q61 -295 88 -295q18 0 104 143.5t101 200.5q9 34 9 53q0 24 -13 27q-8 0 -17 -6q-18 -16 -18 8q0 43 73 43q25 0 30 -7.5 t-1 -35.5q-8 -43 -69.5 -188.5t-102.5 -217.5q-35 -59 -74 -143q-29 -66 -43 -66q-25 0 -73 179q-4 12 -9 30q-47 172 -59 183q-14 12 -39 -39q-2 -6 -26 -58q-31 -63 -67 -126.5t-64.5 -101.5t-36.5 -36q-18 10 -56 162q-31 121 -51 195.5t-37.5 123t-30 63.5t-26.5 9 q-16 -4 0 -41q9 -22 9 -40q0 -13 -5 -23q-23 -47 -73 -47t-64 45z" />
<glyph unicode="x" horiz-adv-x="722" d="M85 716q-7 16 -7 32q0 19 10 36q27 45 47.5 51.5t116.5 6.5q90 0 116.5 -20.5t57.5 -108.5q29 -74 36 -74h1q10 6 72 94q41 59 58 73.5t44 14.5q39 0 39 -6q-16 -20 -58.5 -72.5t-77 -98.5t-55.5 -81q20 -47 83 -160.5t83 -160.5q0 -10 -54 -12h-12q-44 0 -59 10 q-8 2 -57 108.5t-53 110.5q-10 2 -24.5 -14.5t-29 -38t-18.5 -25.5q-14 -14 -59 -80q-31 -45 -53 -59q-20 -12 -60 -11h-12q2 14 85 113.5t85 108.5q20 35 35 41q18 14 11 38.5t-46 100.5q-35 68 -74 117t-55 49q-14 0 -16.5 -12.5t12.5 -16.5q21 -8 21 -24q0 -13 -13 -31 q-25 -35 -68 -35q-37 0 -52 36z" />
<glyph unicode="y" horiz-adv-x="755" d="M76 724q-3 13 -3 24q0 45 40 73q51 37 119 42q10 1 18 1q55 0 78 -28q14 -20 75.5 -141.5t77.5 -143.5q29 -41 35 -41q4 0 8 20q14 55 64.5 174t77.5 160q28 43 37 43q4 0 4 -9q0 -29 -55 -198q-58 -182 -117 -333q-90 -229 -141.5 -296t-145.5 -89q-20 -4 -40 -4 q-25 0 -48 7q-41 13 -62 38q0 6 -10 30q-8 20 5 50t36 38q20 8 51 -10.5t31 -36.5q0 -53 -37 -53q-25 0 -16 -16q6 -16 28 -19q8 -1 16 -1q54 0 126 58q43 39 69 121q29 82 29 126v10q-4 45 -51 114q-70 104 -146 307q-23 67 -58 67q-7 0 -15 -3q-18 -6 2 -25q4 -4 12 -10 q30 -25 30 -52q0 -4 -1 -9q-2 -25 -10.5 -30t-38.5 -9q-7 -1 -13 -1q-49 0 -61 55z" />
<glyph unicode="z" horiz-adv-x="634" d="M61 266q43 37 52 64q0 31 178 237q164 190 164 205q0 4 -37 5h-20q-30 0 -70 -2q-54 -3 -95 -7q-39 -4 -43 -9t11 -26q19 -27 19 -59q0 -22 -9 -47q-8 -20 -41 -18.5t-53 24.5q-22 25 -22 62q-1 19 5 41q16 66 62 77q37 4 209 8q49 1 83 1q50 0 68 -2q28 -3 29 -19 q0 -35 -101.5 -178.5t-203.5 -255.5q-38 -41 -38 -53q0 -2 1 -3q8 -10 151 -10h166q8 12 23.5 38t23.5 38v-25q0 -82 -29.5 -95t-211.5 -13h-56h-49.5h-38t-34 1t-25.5 3t-25.5 4t-20.5 6z" />
<glyph horiz-adv-x="526" d="M98 975q14 66 70 121q80 84 80 47q-4 -12 -31 -42t-47 -56.5t-16 -38.5q0 -6 34 -7q33 0 58.5 -25.5t25.5 -58.5q0 -35 -25.5 -64.5t-58.5 -29.5q-121 0 -90 154zM324 975q14 68 67 121q82 86 82 47q0 -12 -22 -27q-16 -12 -44 -54t-28 -54q0 -8 33 -9q51 0 74.5 -53 t-13.5 -94q-31 -31 -59 -31q-121 0 -90 154z" />
<glyph horiz-adv-x="528" d="M100 1116q17 31 35 41q63 27 113 -22q20 -20 23 -35t-1 -56q-8 -57 -26.5 -91.5t-63.5 -75.5q-59 -53 -65 -41q-4 4 20 30q29 33 47 62q31 45 19 55q-2 4 -8 0q-55 -8 -88 38t-5 95zM314.5 1061.5q-7.5 56.5 33.5 85.5q26 18 53 18q57 0 81 -44t6.5 -109.5t-70.5 -120.5 q-61 -61 -80 -60q-10 2 20 35q37 41 50 62q31 45 18 55q-2 4 -8 0q-8 -6 -47 6q-49 16 -56.5 72.5z" />
<glyph unicode="&#xad;" d="M70 526q4 16 32.5 19.5t155.5 3.5h182v-60q-340 0 -368 9q-8 8 -2 28z" />
<glyph unicode="&#x2000;" horiz-adv-x="682" />
<glyph unicode="&#x2001;" horiz-adv-x="1365" />
<glyph unicode="&#x2002;" horiz-adv-x="682" />
<glyph unicode="&#x2003;" horiz-adv-x="1365" />
<glyph unicode="&#x2004;" horiz-adv-x="455" />
<glyph unicode="&#x2005;" horiz-adv-x="341" />
<glyph unicode="&#x2006;" horiz-adv-x="227" />
<glyph unicode="&#x2007;" horiz-adv-x="227" />
<glyph unicode="&#x2008;" horiz-adv-x="170" />
<glyph unicode="&#x2009;" horiz-adv-x="273" />
<glyph unicode="&#x200a;" horiz-adv-x="75" />
<glyph unicode="&#x2010;" d="M70 526q4 16 32.5 19.5t155.5 3.5h182v-60q-340 0 -368 9q-8 8 -2 28z" />
<glyph unicode="&#x2011;" d="M70 526q4 16 32.5 19.5t155.5 3.5h182v-60q-340 0 -368 9q-8 8 -2 28z" />
<glyph unicode="&#x2012;" d="M70 526q4 16 32.5 19.5t155.5 3.5h182v-60q-340 0 -368 9q-8 8 -2 28z" />
<glyph unicode="&#x2013;" horiz-adv-x="1145" d="M74 526q11 16 89.5 19.5t427.5 3.5h500v-60q-934 0 -1011 9q-22 8 -6 28z" />
<glyph unicode="&#x2014;" horiz-adv-x="2170" d="M81 526q22 16 178.5 19.5t855.5 3.5h1000v-60q-1869 0 -2023 9q-44 8 -11 28z" />
<glyph unicode="&#x202f;" horiz-adv-x="273" />
<glyph unicode="&#x205f;" horiz-adv-x="341" />
<glyph unicode="&#x25fc;" horiz-adv-x="839" d="M0 0v840h840v-840h-840z" />
</font>
</defs>
</svg>
